<svg width="24" height="24" viewBox="0 0 24 24" fill="none" xmlns="http://www.w3.org/2000/svg">
<rect x="0.6" y="0.6" width="22.8" height="22.8" rx="3.4" stroke="#BFC8CA" stroke-width="1.2"/>
<path d="M3.5 15.5555C4.5 16 5.42606 15.5597 6.0871 14.9471C8.31395 12.8832 10.4844 10.5763 11.8795 7.67591C12.0426 7.3369 12.4476 6.58541 11.972 7.29421C10.7449 9.12305 9.92971 11.5067 9.38949 13.7075C9.16126 14.6373 9.00842 15.6013 8.94367 16.5646C8.92208 16.8858 8.92753 17.0473 9.2574 16.9878C9.9804 16.8575 10.4819 16.3068 10.902 15.6576C11.7362 14.3683 12.4501 12.9459 12.8735 11.4135C12.9446 11.1563 13.263 10.5038 13.0552 10.6312C12.9076 10.7217 12.788 11.0122 12.7216 11.149C12.3731 11.8668 12.061 12.6101 11.7408 13.3447C11.464 13.9798 10.9485 14.8275 10.869 15.5555C10.8566 15.669 11.0647 15.4837 11.1398 15.4081C11.5286 15.0165 11.8747 14.5677 12.2229 14.1308C12.6626 13.5792 13.0854 13 13.5505 12.4755C13.7648 12.2338 13.5827 12.5746 13.5439 12.6607C13.1837 13.4609 12.6385 15.3003 12.8735 15.1567C13.2266 14.941 15.2535 11.6455 15 12C14.8317 12.2354 15.0894 12.8354 15.6112 12.3697C15.7254 12.2677 16.9231 10.9497 17 11C17.2817 11.1842 16.2485 12.6109 16.9784 12.4604C17.5589 12.3407 18.1068 12.0195 18.6065 11.6743C19.0627 11.3591 20.3336 10.2465 19.9175 10.6275C19.7118 10.8158 19.3363 11.134 19.3363 11.4702" stroke="#BFC8CA" stroke-width="1.2" stroke-linecap="round"/>
</svg>
