<svg width="20" height="20" viewBox="0 0 20 20" fill="none" xmlns="http://www.w3.org/2000/svg">
<circle cx="10" cy="10" r="9.5" stroke="#B7BCD0"/>
<path d="M12.2833 6.48333C12.2833 6.21639 12.4997 6 12.7667 6C13.1244 6 13.4768 6.07184 13.8212 6.20957C14.1915 6.35769 14.478 6.57783 14.7418 6.84156C15.0055 7.1053 15.2256 7.39185 15.3738 7.76216C15.5115 8.10649 15.5833 8.45891 15.5833 8.81667C15.5833 9.17442 15.5115 9.52684 15.3738 9.87117C15.2275 10.2368 15.0109 10.5208 14.7516 10.7818L14.1743 11.4168C14.1692 11.4225 14.1639 11.428 14.1584 11.4334L12.2918 13.3001C12.028 13.5638 11.7415 13.784 11.3712 13.9321C11.0268 14.0698 10.6744 14.1417 10.3167 14.1417C9.95891 14.1417 9.60649 14.0698 9.26216 13.9321C8.89185 13.784 8.6053 13.5638 8.34157 13.3001C8.07783 13.0364 7.85769 12.7498 7.70957 12.3795C7.56957 12.0295 7.5 11.6768 7.5 11.2667C7.5 10.9089 7.57184 10.5565 7.70957 10.2122C7.85769 9.84185 8.07783 9.5553 8.34157 9.29156L8.98323 8.6499C9.17199 8.46114 9.47801 8.46114 9.66677 8.6499C9.85552 8.83865 9.85552 9.14468 9.66677 9.33343L9.0251 9.9751C8.82216 10.178 8.6923 10.3582 8.6071 10.5712C8.51149 10.8102 8.46667 11.0411 8.46667 11.2667C8.46667 11.5565 8.51376 11.7872 8.6071 12.0205C8.6923 12.2335 8.82216 12.4136 9.0251 12.6166C9.22804 12.8195 9.40815 12.9494 9.62117 13.0346C9.86018 13.1302 10.0911 13.175 10.3167 13.175C10.5422 13.175 10.7731 13.1302 11.0122 13.0346C11.2252 12.9494 11.4053 12.8195 11.6082 12.6166L13.4652 10.7598L14.0424 10.1249C14.0475 10.1192 14.0528 10.1137 14.0582 10.1082C14.2612 9.90529 14.391 9.72518 14.4762 9.51216C14.5718 9.27315 14.6167 9.04224 14.6167 8.81667C14.6167 8.59109 14.5718 8.36018 14.4762 8.12117C14.391 7.90815 14.2612 7.72804 14.0582 7.5251C13.8553 7.32216 13.6752 7.1923 13.4622 7.1071C13.2231 7.01149 12.9922 6.96667 12.7667 6.96667C12.4997 6.96667 12.2833 6.75027 12.2833 6.48333Z" fill="#B7BCD0"/>
<path d="M8.27049 6.50124C8.61482 6.3635 8.96725 6.29167 9.325 6.29167C9.68275 6.29167 10.0352 6.3635 10.3795 6.50124C10.7498 6.64936 11.0364 6.8695 11.3001 7.13323C11.5638 7.39696 11.784 7.68352 11.9321 8.05383C12.0698 8.39815 12.1417 8.75058 12.1417 9.10833C12.1417 9.46609 12.0698 9.81851 11.9321 10.1628C11.7857 10.5289 11.5688 10.8131 11.3091 11.0743L10.673 11.7683C10.4926 11.965 10.1868 11.9783 9.99007 11.798C9.79329 11.6176 9.78 11.3118 9.96038 11.1151L10.602 10.4151C10.6068 10.4099 10.6116 10.4048 10.6166 10.3999C10.8195 10.197 10.9494 10.0168 11.0346 9.80383C11.1302 9.56482 11.175 9.33391 11.175 9.10833C11.175 8.88276 11.1302 8.65185 11.0346 8.41284C10.9494 8.19982 10.8195 8.01971 10.6166 7.81677C10.4136 7.61383 10.2335 7.48397 10.0205 7.39876C9.78148 7.30316 9.55057 7.25833 9.325 7.25833C9.09943 7.25833 8.86852 7.30316 8.62951 7.39876C8.41649 7.48397 8.23638 7.61383 8.03343 7.81677L6.11817 9.73187L5.54097 10.3668C5.53581 10.3725 5.53052 10.378 5.5251 10.3834C5.32216 10.5864 5.1923 10.7665 5.1071 10.9795C5.01149 11.2185 4.96667 11.4494 4.96667 11.675C4.96667 11.9006 5.01149 12.1315 5.1071 12.3705C5.1923 12.5835 5.32216 12.7636 5.5251 12.9666C5.72804 13.1695 5.90815 13.2994 6.12117 13.3846C6.36018 13.4802 6.59109 13.525 6.81667 13.525C7.0836 13.525 7.3 13.7414 7.3 14.0083C7.3 14.2753 7.0836 14.4917 6.81667 14.4917C6.45891 14.4917 6.10649 14.4198 5.76216 14.2821C5.39185 14.134 5.1053 13.9138 4.84157 13.6501C4.57783 13.3864 4.35769 13.0998 4.20957 12.7295C4.07184 12.3852 4 12.0328 4 11.675C4 11.3172 4.07184 10.9648 4.20957 10.6205C4.35584 10.2548 4.5724 9.97089 4.83172 9.70991L5.40903 9.07487C5.41419 9.0692 5.41948 9.06365 5.4249 9.05823L7.3499 7.13323C7.61363 6.8695 7.90019 6.64936 8.27049 6.50124Z" fill="#B7BCD0"/>
</svg>
