<svg width="20" height="20" viewBox="0 0 20 20" fill="none" xmlns="http://www.w3.org/2000/svg">
<path d="M14.8962 4.48549L14.8789 4.46968C14.5473 4.16681 14.1175 4 13.6686 4C13.1654 4 12.6823 4.21302 12.343 4.58438L5.92855 11.607C5.87014 11.6709 5.82577 11.7465 5.79836 11.8287L5.0441 14.0898C4.95686 14.3513 5.00068 14.6404 5.16112 14.8632C5.32291 15.0877 5.58356 15.2218 5.85839 15.2218H5.85846C5.9773 15.2218 6.09351 15.1973 6.20371 15.1491L8.38755 14.1937C8.46696 14.159 8.5382 14.108 8.59661 14.044L15.0112 7.02146C15.6787 6.29075 15.6271 5.1532 14.8962 4.48549ZM6.48921 13.6721L6.93184 12.3453L6.96911 12.3045L7.80798 13.0706L7.77064 13.1115L6.48921 13.6721ZM14.0965 6.18604L8.6434 12.1561L7.80453 11.3899L13.2577 5.41981C13.3644 5.30304 13.5103 5.23871 13.6687 5.23871C13.8077 5.23871 13.9408 5.29041 14.0437 5.38446L14.061 5.40028C14.2874 5.6071 14.3034 5.9596 14.0965 6.18604Z" fill="#BFC8CA" stroke="#161829" stroke-width="0.2"/>
<circle cx="10" cy="10" r="9.5" stroke="#BFC8CA"/>
</svg>
