<svg xmlns="http://www.w3.org/2000/svg" width="21" height="20" viewBox="0 0 21 20" fill="var(--color-1)">
  <path opacity="0.4" fill-rule="evenodd" clip-rule="evenodd" d="M16.2638 8.55545C16.6841 8.97574 16.6841 9.65717 16.2638 10.0775L12.5638 13.7775C12.558 13.7833 12.5521 13.7892 12.5461 13.7951C12.4554 13.8859 12.3471 13.9943 12.2439 14.082C12.1243 14.1835 11.9428 14.3186 11.6923 14.4C11.368 14.5054 11.0186 14.5054 10.6943 14.4C10.4438 14.3186 10.2623 14.1835 10.1427 14.082C10.0395 13.9943 9.93117 13.8859 9.84045 13.7952C9.8345 13.7892 9.82862 13.7833 9.82283 13.7775L6.88378 10.8385L3.33528 14.387C2.91498 14.8073 2.23356 14.8073 1.81327 14.387C1.39297 13.9667 1.39297 13.2853 1.81327 12.865L5.51332 9.16491C5.51911 9.15912 5.52498 9.15324 5.53093 9.14729C5.62165 9.0565 5.72995 8.94811 5.83319 8.86048C5.9528 8.75893 6.13431 8.62378 6.38474 8.54241C6.70909 8.43702 7.05847 8.43702 7.38281 8.54241C7.63325 8.62378 7.81476 8.75893 7.93437 8.86048C8.03761 8.94812 8.14591 9.0565 8.23663 9.14729C8.24258 9.15324 8.24845 9.15912 8.25424 9.16491L11.1933 12.104L14.7418 8.55545C15.1621 8.13516 15.8435 8.13516 16.2638 8.55545Z" />
  <path fill-rule="evenodd" clip-rule="evenodd" d="M19.1876 5.61209C19.6079 6.03239 19.6079 6.71381 19.1876 7.1341L15.4876 10.8342C15.4818 10.8399 15.4759 10.8458 15.47 10.8518C15.3792 10.9426 15.2709 11.051 15.1677 11.1386C15.0481 11.2401 14.8666 11.3753 14.6162 11.4567C14.2918 11.562 13.9424 11.562 13.6181 11.4567C13.3677 11.3753 13.1861 11.2401 13.0665 11.1386C12.9633 11.051 12.855 10.9426 12.7643 10.8518C12.7583 10.8458 12.7525 10.84 12.7467 10.8342L9.80761 7.89511L6.2591 11.4436C5.83881 11.8639 5.15739 11.8639 4.73709 11.4436C4.3168 11.0233 4.3168 10.3419 4.73709 9.9216L8.43715 6.22155C8.44294 6.21576 8.44881 6.20988 8.45476 6.20393C8.54548 6.11314 8.65378 6.00475 8.75701 5.91712C8.87663 5.81557 9.05814 5.68042 9.30857 5.59905C9.63292 5.49366 9.9823 5.49366 10.3066 5.59905C10.5571 5.68042 10.7386 5.81557 10.8582 5.91712C10.9614 6.00476 11.0697 6.11314 11.1605 6.20393C11.1664 6.20989 11.1723 6.21576 11.1781 6.22155L14.1171 9.1606L17.6656 5.61209C18.0859 5.1918 18.7673 5.1918 19.1876 5.61209Z" class="active-element--fill" />
</svg>