<svg width="20" height="20" viewBox="0 0 20 20" fill="none" xmlns="http://www.w3.org/2000/svg">
<path d="M10.0002 18.8889C5.09102 18.8889 1.11133 14.9092 1.11133 9.99997C1.11133 5.09077 5.09102 1.11108 10.0002 1.11108C14.9094 1.11108 18.8891 5.09077 18.8891 9.99997C18.8837 14.9069 14.9072 18.8835 10.0002 18.8889ZM10.0002 2.88886C6.07286 2.88886 2.88911 6.07261 2.88911 9.99997C2.88911 13.9273 6.07286 17.1111 10.0002 17.1111C13.9276 17.1111 17.1113 13.9273 17.1113 9.99997C17.1069 6.07444 13.9257 2.89327 10.0002 2.88886ZM14.4447 10.8889H9.11133V5.55553H10.8891V9.11108H14.4447V10.8889Z" fill="#D99E2E"/>
</svg>
