<svg width="20" height="20" viewBox="0 0 20 20" fill="none" xmlns="http://www.w3.org/2000/svg">
<path d="M10 1C10.4832 1 10.875 1.39175 10.875 1.875V11.1376L12.8813 9.13128C13.223 8.78957 13.777 8.78957 14.1187 9.13128C14.4604 9.47299 14.4604 10.027 14.1187 10.3687L10.6187 13.8687C10.277 14.2104 9.72299 14.2104 9.38128 13.8687L5.88128 10.3687C5.53957 10.027 5.53957 9.47299 5.88128 9.13128C6.22299 8.78957 6.77701 8.78957 7.11872 9.13128L9.125 11.1376V1.875C9.125 1.39175 9.51675 1 10 1ZM3.875 14.125C4.35825 14.125 4.75 14.5168 4.75 15V16.75H15.25V15C15.25 14.5168 15.6418 14.125 16.125 14.125C16.6082 14.125 17 14.5168 17 15V16.75C17 17.7165 16.2165 18.5 15.25 18.5H4.75C3.7835 18.5 3 17.7165 3 16.75V15C3 14.5168 3.39175 14.125 3.875 14.125Z" fill="#6BB77A"/>
</svg>
