<svg width="20" height="20" viewBox="0 0 20 20" fill="none" xmlns="http://www.w3.org/2000/svg">
<path d="M10.0002 18.8889C5.09102 18.8889 1.11133 14.9092 1.11133 9.99997C1.11133 5.09077 5.09102 1.11108 10.0002 1.11108C14.9094 1.11108 18.8891 5.09077 18.8891 9.99997C18.8837 14.9069 14.9072 18.8835 10.0002 18.8889ZM9.98599 17.1111H10.0002C13.9262 17.1072 17.1062 13.9224 17.1042 9.99642C17.1023 6.07045 13.9191 2.88887 9.99311 2.88887C6.06714 2.88887 2.88396 6.07045 2.88199 9.99642C2.88003 13.9224 6.06003 17.1072 9.98599 17.1111ZM8.22244 14.4444L4.66688 10.8889L5.92022 9.63553L8.22244 11.9289L14.0802 6.07108L15.3335 7.33331L8.22244 14.4444Z" fill="#6BB77A"/>
</svg>
