<svg width="24" height="24" viewBox="0 0 24 24" fill="none" xmlns="http://www.w3.org/2000/svg">
<rect x="0.6" y="0.6" width="22.8" height="22.8" rx="11.4" stroke="#BFC8CA" stroke-width="1.2"/>
<path d="M10.7932 12.604C11.0523 12.9508 11.3829 13.2377 11.7626 13.4454C12.1422 13.653 12.5621 13.7765 12.9936 13.8074C13.4251 13.8383 13.8582 13.776 14.2636 13.6247C14.6689 13.4733 15.037 13.2365 15.3429 12.9302L17.1531 11.1181C17.7027 10.5485 18.0068 9.78567 17.9999 8.99382C17.993 8.20197 17.6757 7.4445 17.1163 6.88456C16.557 6.32461 15.8002 6.007 15.0092 6.00011C14.2181 5.99323 13.456 6.29764 12.887 6.84777L11.8491 7.88063M13.2068 11.396C12.9477 11.0492 12.6171 10.7623 12.2374 10.5546C11.8578 10.347 11.4379 10.2235 11.0064 10.1926C10.5749 10.1617 10.1418 10.224 9.73642 10.3753C9.33107 10.5267 8.96299 10.7635 8.65713 11.0698L6.84692 12.8819C6.29734 13.4514 5.99324 14.2143 6.00011 15.0062C6.00699 15.798 6.32429 16.5555 6.88367 17.1154C7.44305 17.6754 8.19976 17.993 8.99081 17.9999C9.78187 18.0068 10.544 17.7024 11.113 17.1522L12.1448 16.1194" stroke="#BFC8CA" stroke-width="1.2" stroke-linecap="round" stroke-linejoin="round"/>
</svg>
