<svg width="20" height="20" viewBox="0 0 20 20" fill="none" xmlns="http://www.w3.org/2000/svg">
<circle cx="10" cy="10" r="9.5" stroke="#BFC8CA"/>
<path d="M7.52944 12.5056C7.59623 12.5021 7.66212 12.5119 7.72325 12.5344C7.78438 12.557 7.83954 12.5918 7.88549 12.6369C7.93145 12.682 7.96729 12.7365 7.99092 12.7971C8.01455 12.8578 8.0255 12.9234 8.02313 12.9902C8.02076 13.0569 8.00512 13.1235 7.97711 13.186C7.94911 13.2485 7.90931 13.3056 7.86003 13.3541C7.81075 13.4026 7.75298 13.4415 7.69009 13.4684C7.6272 13.4954 7.56045 13.5099 7.49374 13.5111L4.33515 13.6232C4.3019 13.6244 4.26885 13.6223 4.23648 13.617C4.22219 13.6145 4.20921 13.6099 4.19497 13.606C4.17759 13.6022 4.16051 13.5974 4.14381 13.5917C4.12804 13.585 4.11272 13.5774 4.09792 13.569C4.08485 13.5622 4.07154 13.5569 4.05905 13.5489C4.00534 13.5139 3.95973 13.4683 3.92479 13.4146C3.91689 13.4023 3.91151 13.3888 3.90486 13.3759C3.89639 13.3611 3.88881 13.3458 3.88217 13.33C3.87641 13.3132 3.87157 13.2961 3.86766 13.2787C3.86407 13.2648 3.8599 13.2522 3.85687 13.2374C3.85152 13.2049 3.84937 13.1718 3.85044 13.1385L3.96259 9.97993C3.96956 9.84803 4.028 9.72047 4.12531 9.62472C4.22262 9.52897 4.35102 9.47269 4.48286 9.46801C4.6147 9.46333 4.73943 9.51062 4.83018 9.59969C4.92093 9.68876 4.97044 9.81249 4.96805 9.94423L4.89916 11.8895L9.09619 7.69251C9.19383 7.59487 9.3236 7.53735 9.45695 7.53262C9.5903 7.52788 9.71631 7.57632 9.80726 7.66726C9.8982 7.75821 9.94664 7.88422 9.9419 8.01757C9.93717 8.15092 9.87965 8.2807 9.78201 8.37834L5.58498 12.5754L7.52944 12.5056ZM15.4278 6.04753C15.4253 6.03323 15.4207 6.02026 15.417 6.00619C15.4131 5.98877 15.4082 5.97164 15.4025 5.95486C15.3958 5.93907 15.3883 5.92375 15.3798 5.90897C15.3731 5.89607 15.3678 5.88259 15.3598 5.87026C15.3249 5.81655 15.2793 5.77095 15.2256 5.73601C15.2131 5.72793 15.1998 5.72272 15.1867 5.71591C15.1719 5.70747 15.1566 5.69989 15.1408 5.69322C15.1241 5.68746 15.107 5.68267 15.0897 5.67887C15.0758 5.67528 15.0631 5.67112 15.0482 5.66792C15.0158 5.66254 14.9827 5.66045 14.9495 5.66166L11.7909 5.77381C11.659 5.78078 11.5314 5.83921 11.4357 5.93653C11.3399 6.03384 11.2837 6.16224 11.279 6.29408C11.2743 6.42592 11.3216 6.55064 11.4107 6.64139C11.4997 6.73214 11.6235 6.78166 11.7552 6.77927L13.7003 6.7102L9.50331 10.9072C9.40567 11.0049 9.34816 11.1346 9.34342 11.268C9.33869 11.4013 9.38712 11.5274 9.47807 11.6183C9.56901 11.7093 9.69502 11.7577 9.82837 11.7529C9.96173 11.7482 10.0915 11.6907 10.1891 11.5931L14.3862 7.39603L14.3173 9.34134C14.3137 9.40814 14.3235 9.47402 14.3461 9.53515C14.3686 9.59629 14.4035 9.65144 14.4486 9.6974C14.4937 9.74335 14.5481 9.77919 14.6088 9.80282C14.6695 9.82645 14.7351 9.8374 14.8018 9.83503C14.8686 9.83266 14.9352 9.81702 14.9977 9.78902C15.0601 9.76101 15.1173 9.72121 15.1658 9.67193C15.2143 9.62265 15.2531 9.56488 15.2801 9.50199C15.307 9.4391 15.3215 9.37235 15.3227 9.30564L15.4351 6.14722C15.4361 6.11386 15.4339 6.0807 15.4284 6.04821L15.4278 6.04753Z" fill="#BFC8CA"/>
</svg>
