<svg width="40" height="40" viewBox="0 0 40 40" fill="none" xmlns="http://www.w3.org/2000/svg">
<path d="M6.66665 31.667H3.33331C3.33331 26.1441 7.81047 21.667 13.3333 21.667C18.8562 21.667 23.3333 26.1441 23.3333 31.667H20C20 27.9851 17.0152 25.0003 13.3333 25.0003C9.65142 25.0003 6.66665 27.9851 6.66665 31.667ZM31.6666 26.667H28.3333V21.667H23.3333V18.3337H28.3333V13.3337H31.6666V18.3337H36.6666V21.667H31.6666V26.667ZM13.3333 20.0003C9.65141 20.0003 6.66665 17.0156 6.66665 13.3337C6.66665 9.65176 9.65141 6.66699 13.3333 6.66699C17.0152 6.66699 20 9.65176 20 13.3337C19.9954 17.0137 17.0133 19.9957 13.3333 20.0003ZM13.3333 10.0003C11.5123 10.0022 10.0298 11.4651 10.0037 13.2859C9.97761 15.1067 11.4176 16.6115 13.2378 16.6655C15.058 16.7196 16.5847 15.3028 16.6666 13.4837V14.1503V13.3337C16.6666 11.4927 15.1743 10.0003 13.3333 10.0003Z" fill="#F8FCFD"/>
</svg>
