<svg width="25" height="24" viewBox="0 0 25 24" fill="none" xmlns="http://www.w3.org/2000/svg">
<path d="M4.36523 19H2.36523C2.36523 15.6863 5.05153 13 8.36523 13C11.6789 13 14.3652 15.6863 14.3652 19H12.3652C12.3652 16.7909 10.5744 15 8.36523 15C6.1561 15 4.36523 16.7909 4.36523 19ZM19.3652 16H17.3652V13H14.3652V11H17.3652V8H19.3652V11H22.3652V13H19.3652V16ZM8.36523 12C6.1561 12 4.36523 10.2091 4.36523 8C4.36523 5.79086 6.1561 4 8.36523 4C10.5744 4 12.3652 5.79086 12.3652 8C12.3625 10.208 10.5732 11.9972 8.36523 12ZM8.36523 6C7.27263 6.00111 6.38312 6.87885 6.36747 7.97134C6.35181 9.06383 7.2158 9.9667 8.30792 9.99912C9.40005 10.0315 10.3161 9.1815 10.3652 8.09V8.49V8C10.3652 6.89543 9.4698 6 8.36523 6Z" fill="white"/>
</svg>
