<svg width="44" height="44" viewBox="0 0 44 44" fill="none" xmlns="http://www.w3.org/2000/svg">
  <path opacity="0.4"
    d="M5.91286 29.7797C4.85642 29.7797 4 30.6361 4 31.6925V34.8898C4 37.7121 6.2879 40 9.11017 40H15.7701C16.7472 40 17.5393 39.2079 17.5393 38.2308C17.5393 37.2536 16.7472 36.4615 15.7701 36.4615H11.1667C9.32151 36.4615 7.82573 34.9657 7.82573 33.1206V31.6925C7.82573 30.6361 6.96931 29.7797 5.91286 29.7797ZM38.0847 29.7797C37.0269 29.7797 36.1693 30.6372 36.1693 31.695V33.1206C36.1693 34.9657 34.6736 36.4615 32.8284 36.4615H28.225C27.2479 36.4615 26.4557 37.2536 26.4557 38.2308C26.4557 39.2079 27.2479 40 28.225 40H34.8898C37.7121 40 40 37.7121 40 34.8898V31.695C40 30.6372 39.1425 29.7797 38.0847 29.7797ZM9.11017 4C6.2879 4 4 6.2879 4 9.11017V12.3075C4 13.3639 4.85642 14.2203 5.91286 14.2203C6.96931 14.2203 7.82573 13.3639 7.82573 12.3075V10.8794C7.82573 9.03427 9.32151 7.53849 11.1667 7.53849H15.7701C16.7472 7.53849 17.5393 6.74637 17.5393 5.76924C17.5393 4.79212 16.7472 4 15.7701 4H9.11017ZM28.225 4C27.2479 4 26.4557 4.79212 26.4557 5.76924C26.4557 6.74637 27.2479 7.53849 28.225 7.53849H32.8284C34.6736 7.53849 36.1693 9.03427 36.1693 10.8794V12.305C36.1693 13.3628 37.0269 14.2203 38.0847 14.2203C39.1425 14.2203 40 13.3628 40 12.305V9.11017C40 6.2879 37.7121 4 34.8898 4H28.225Z"
    fill="#F8FCFD" />
  <path
    d="M18.329 12.1033C17.2301 12.1033 16.3394 12.9941 16.3394 14.0929V26.2359C16.3394 29.3624 18.8739 31.8969 22.0003 31.8969H25.6607C26.7656 31.8969 27.6613 31.0012 27.6613 29.8963C27.6613 28.7913 26.7656 27.8956 25.6607 27.8956H23.99C21.9623 27.8956 20.3186 26.2519 20.3186 24.2243V14.0929C20.3186 12.9941 19.4278 12.1033 18.329 12.1033Z"
    fill="#F8FCFD" />
</svg>
