<svg width="56" height="56" viewBox="0 0 56 56" fill="none" xmlns="http://www.w3.org/2000/svg">
<path fill-rule="evenodd" clip-rule="evenodd" d="M18.6665 21.0001C18.6665 11.9794 25.9791 4.66675 34.9998 4.66675C44.0204 4.66675 51.3331 11.9794 51.3331 21.0001C51.3331 30.0207 44.0204 37.3334 34.9998 37.3334C34.2569 37.3334 33.5245 37.2837 32.8058 37.187C32.2808 37.1165 31.9523 37.0727 31.7128 37.0496C31.6701 37.0455 31.635 37.0425 31.6068 37.0405C31.5998 37.0468 31.5921 37.0537 31.5838 37.0612C31.459 37.1749 31.2948 37.3382 31.001 37.632L27.3164 41.3167C26.8788 41.7542 26.2853 42.0001 25.6665 42.0001H23.3331V44.3334C23.3331 45.6221 22.2885 46.6667 20.9998 46.6667H18.6665V49.0001C18.6665 50.2887 17.6218 51.3334 16.3331 51.3334L10.6587 51.3334C10.0698 51.3335 9.49628 51.3336 9.01059 51.2939C8.47721 51.2503 7.84783 51.1475 7.21451 50.8248C6.33642 50.3774 5.62251 49.6635 5.1751 48.7854C4.8524 48.152 4.74958 47.5227 4.706 46.9893C4.66632 46.5036 4.66639 45.9301 4.66646 45.3412L4.66646 41.2131C4.66646 41.1745 4.66636 41.1348 4.66625 41.0941C4.66506 40.6509 4.66357 40.0929 4.7954 39.5438C4.90972 39.0677 5.09827 38.6125 5.35414 38.1949C5.6492 37.7134 6.04482 37.3199 6.35899 37.0074C6.38784 36.9787 6.41601 36.9507 6.44335 36.9234L18.3679 24.9989C18.6617 24.705 18.825 24.5409 18.9387 24.4161C18.9462 24.4078 18.9531 24.4001 18.9594 24.3931C18.9573 24.3648 18.9544 24.3298 18.9503 24.2871C18.9272 24.0476 18.8834 23.7191 18.8128 23.1941C18.7162 22.4754 18.6665 21.7429 18.6665 21.0001ZM18.6665 42.0001V39.6667C18.6665 38.3781 19.7111 37.3334 20.9998 37.3334H24.7L27.7012 34.3322C27.741 34.2924 27.7818 34.2513 27.8234 34.2094C28.2417 33.7885 28.7504 33.2765 29.3303 32.9524C29.8749 32.648 30.3287 32.4946 30.9464 32.4063C31.3976 32.3417 31.837 32.3732 32.1613 32.4045C32.4985 32.4371 32.9152 32.4931 33.3862 32.5564L33.4276 32.562C33.9407 32.631 34.4655 32.6667 34.9998 32.6667C41.4431 32.6667 46.6665 27.4434 46.6665 21.0001C46.6665 14.5568 41.4431 9.33341 34.9998 9.33341C28.5565 9.33341 23.3331 14.5568 23.3331 21.0001C23.3331 21.5344 23.3689 22.0591 23.4379 22.5723L23.4435 22.6138C23.5068 23.0848 23.5628 23.5014 23.5954 23.8386C23.6267 24.1628 23.6582 24.6022 23.5936 25.0535C23.5053 25.6712 23.3519 26.125 23.0475 26.6696C22.7234 27.2495 22.2114 27.7582 21.7904 28.1765C21.7485 28.2181 21.7075 28.2589 21.6677 28.2987L9.74318 40.2232C9.52704 40.4393 9.41956 40.5476 9.34478 40.6295C9.34282 40.6317 9.34095 40.6338 9.33915 40.6357C9.33902 40.6384 9.33888 40.6412 9.33875 40.6441C9.33368 40.7549 9.33313 40.9075 9.33313 41.2131V45.2667C9.33313 45.9586 9.33494 46.3372 9.35717 46.6093C9.35805 46.6201 9.35895 46.6303 9.35984 46.64C9.36952 46.6409 9.37978 46.6418 9.39061 46.6427C9.66264 46.6649 10.0412 46.6667 10.7331 46.6667H13.9998V44.3334C13.9998 43.0447 15.0445 42.0001 16.3331 42.0001H18.6665Z" fill="#F8FCFD"/>
<path opacity="0.4" fill-rule="evenodd" clip-rule="evenodd" d="M32.6665 16.3333C32.6665 15.0447 33.7112 14 34.9998 14C36.7877 14 38.5832 14.6839 39.9496 16.0503C41.3159 17.4166 41.9998 19.212 41.9998 20.9998C41.9999 22.2885 40.9552 23.3332 39.6666 23.3332C38.3779 23.3332 37.3332 22.2886 37.3332 20.9999C37.3332 20.3992 37.1058 19.8061 36.6498 19.3501C36.1937 18.894 35.6006 18.6667 34.9998 18.6667C33.7112 18.6667 32.6665 17.622 32.6665 16.3333Z" fill="#F8FCFD"/>
</svg>
