<svg width="44" height="44" viewBox="0 0 44 44" fill="none" xmlns="http://www.w3.org/2000/svg">
  <path fill-rule="evenodd" clip-rule="evenodd"
    d="M22 3.66663C23.0125 3.66663 23.8333 4.48744 23.8333 5.49996V23.0739L29.8703 17.0369C30.5863 16.321 31.7471 16.321 32.463 17.0369C33.179 17.7529 33.179 18.9137 32.463 19.6297L23.2964 28.7963C22.5804 29.5123 21.4196 29.5123 20.7036 28.7963L11.537 19.6297C10.821 18.9137 10.821 17.7529 11.537 17.0369C12.2529 16.321 13.4137 16.321 14.1297 17.0369L20.1667 23.0739V5.49996C20.1667 4.48744 20.9875 3.66663 22 3.66663Z"
    fill="#F8FCFD" />
  <path opacity="0.4" fill-rule="evenodd" clip-rule="evenodd"
    d="M5.49984 25.6666C6.51236 25.6666 7.33317 26.4874 7.33317 27.5V29.7C7.33317 31.2704 7.3346 32.3379 7.40202 33.1631C7.46769 33.9668 7.58672 34.3779 7.73281 34.6646C8.08435 35.3545 8.64528 35.9154 9.33521 36.267C9.62194 36.4131 10.033 36.5321 10.8367 36.5978C11.6619 36.6652 12.7294 36.6666 14.2998 36.6666H29.6998C31.2702 36.6666 32.3378 36.6652 33.1629 36.5978C33.9667 36.5321 34.3777 36.4131 34.6645 36.267C35.3544 35.9154 35.9153 35.3545 36.2669 34.6646C36.413 34.3779 36.532 33.9668 36.5977 33.1631C36.6651 32.3379 36.6665 31.2704 36.6665 29.7V27.5C36.6665 26.4874 37.4873 25.6666 38.4998 25.6666C39.5124 25.6666 40.3332 26.4874 40.3332 27.5V29.7757C40.3332 31.2515 40.3332 32.4695 40.2521 33.4616C40.168 34.4922 39.9873 35.4394 39.5339 36.3292C38.8308 37.7091 37.709 38.8309 36.3291 39.534C35.4393 39.9874 34.492 40.1681 33.4615 40.2523C32.4693 40.3333 31.2513 40.3333 29.7756 40.3333H14.2241C12.7483 40.3333 11.5303 40.3333 10.5382 40.2523C9.50765 40.1681 8.56036 39.9874 7.67058 39.534C6.29072 38.8309 5.16886 37.7091 4.46579 36.3292C4.01242 35.4394 3.83172 34.4922 3.74753 33.4616C3.66646 32.4694 3.66648 31.2515 3.6665 29.7757C3.66651 29.7505 3.66651 29.7253 3.66651 29.7V27.5C3.66651 26.4874 4.48732 25.6666 5.49984 25.6666Z"
    fill="#F8FCFD" />
</svg>
