<svg width="56" height="56" viewBox="0 0 56 56" fill="none" xmlns="http://www.w3.org/2000/svg">
  <path opacity="0.4" fill-rule="evenodd" clip-rule="evenodd"
    d="M27.3327 2.53992C27.7754 2.47595 28.2249 2.47595 28.6675 2.53992C29.1777 2.61363 29.6524 2.79296 30.0293 2.93535C30.0638 2.94839 30.0975 2.96111 30.1303 2.97341L42.6411 7.66499C42.7436 7.7034 42.8452 7.74134 42.946 7.77896C44.3875 8.31715 45.6534 8.78978 46.6283 9.64896C47.4812 10.4006 48.1382 11.3486 48.5425 12.4111C49.0046 13.6256 49.0027 14.9769 49.0004 16.5156C49.0003 16.6231 49.0001 16.7316 49.0001 16.841V27.9999C49.0001 34.5954 45.4131 40.0941 41.5357 44.1336C37.6322 48.2001 33.1661 51.0723 30.8046 52.4501C30.7734 52.4683 30.7416 52.487 30.709 52.5061C30.278 52.7592 29.7186 53.0876 28.9786 53.2463C28.3732 53.3762 27.627 53.3762 27.0216 53.2463C26.2816 53.0876 25.7223 52.7592 25.2913 52.5061C25.2587 52.487 25.2268 52.4683 25.1957 52.4501C22.8341 51.0723 18.368 48.2001 14.4646 44.1336C10.5871 40.0941 7.00013 34.5954 7.00013 27.9999V16.841C7.00013 16.7316 6.99997 16.6231 6.99982 16.5156C6.99759 14.9769 6.99563 13.6256 7.45779 12.4111C7.86209 11.3486 8.51907 10.4006 9.37193 9.64896C10.3469 8.78978 11.6128 8.31715 13.0543 7.77896C13.1551 7.74134 13.2567 7.7034 13.3591 7.66499L25.87 2.97341C25.9028 2.96111 25.9365 2.94839 25.971 2.93535C26.3479 2.79296 26.8226 2.61363 27.3327 2.53992ZM27.9931 7.16624C27.8978 7.19749 27.7685 7.24547 27.5086 7.34295L14.9977 12.0345C13.0721 12.7566 12.7016 12.9349 12.4574 13.1501C12.1731 13.4006 11.9541 13.7166 11.8193 14.0708C11.7036 14.3749 11.6668 14.7845 11.6668 16.841V27.9999C11.6668 32.8575 14.3261 37.2503 17.8313 40.902C21.3105 44.5266 25.3634 47.1452 27.5473 48.4192C27.6808 48.4971 27.777 48.5532 27.8608 48.6003C27.9264 48.6373 27.9702 48.6606 28.0001 48.6759C28.0301 48.6606 28.0738 48.6373 28.1395 48.6003C28.2232 48.5532 28.3195 48.4971 28.453 48.4192C30.6369 47.1452 34.6898 44.5266 38.169 40.902C41.6742 37.2503 44.3335 32.8575 44.3335 27.9999V16.841C44.3335 14.7845 44.2967 14.3749 44.1809 14.0708C44.0461 13.7166 43.8271 13.4006 43.5429 13.1501C43.2987 12.9349 42.9281 12.7566 41.0026 12.0345L28.4917 7.34295C28.2317 7.24547 28.1025 7.19749 28.0072 7.16624C28.0047 7.16544 28.0024 7.16468 28.0001 7.16395C27.9979 7.16468 27.9955 7.16544 27.9931 7.16624Z"
    fill="#F8FCFD" />
  <path fill-rule="evenodd" clip-rule="evenodd"
    d="M27.9998 17.5C29.2885 17.5 30.3332 18.5447 30.3332 19.8333V24.5H34.9998C36.2885 24.5 37.3332 25.5447 37.3332 26.8333C37.3332 28.122 36.2885 29.1667 34.9998 29.1667H30.3332V33.8333C30.3332 35.122 29.2885 36.1667 27.9998 36.1667C26.7112 36.1667 25.6665 35.122 25.6665 33.8333V29.1667H20.9998C19.7112 29.1667 18.6665 28.122 18.6665 26.8333C18.6665 25.5447 19.7112 24.5 20.9998 24.5H25.6665V19.8333C25.6665 18.5447 26.7112 17.5 27.9998 17.5Z"
    fill="#F8FCFD" />
</svg>
