<svg width="72" height="72" viewBox="0 0 72 72" fill="none" xmlns="http://www.w3.org/2000/svg">
<path d="M0 28C0 14.8007 0 8.20101 4.1005 4.1005C8.20101 0 14.8007 0 28 0H44C57.1993 0 63.799 0 67.8995 4.1005C72 8.20101 72 14.8007 72 28V44C72 57.1993 72 63.799 67.8995 67.8995C63.799 72 57.1993 72 44 72H28C14.8007 72 8.20101 72 4.1005 67.8995C0 63.799 0 57.1993 0 44V28Z" fill="url(#paint0_linear_1563_22859)" fill-opacity="0.7"/>
<path d="M36.4086 18C31.4701 18 27.4734 21.9967 27.4734 26.9352V30.2841C25.7392 30.598 24 31.0166 24 31.5598V49.0365C24 49.0365 24 49.5199 24.5432 49.7492C26.5116 50.5465 34.2558 53.2874 36.0349 53.9153C36.2641 54 36.3289 54 36.3887 54C36.4734 54 36.5133 54 36.7425 53.9153C38.5216 53.2874 46.2857 50.5465 48.2542 49.7492C48.7575 49.5399 48.7774 49.0565 48.7774 49.0565V31.5598C48.7774 31.0166 47.0631 30.5781 45.3239 30.2841V26.9352C45.3488 21.9967 41.3272 18 36.4086 18ZM36.4086 22.2708C39.3189 22.2708 41.0781 24.0299 41.0781 26.9402V29.8505C37.814 29.6213 35.0282 29.6213 31.7442 29.8505V26.9402C31.7442 24.0249 33.5033 22.2708 36.4086 22.2708ZM36.3887 34.1362C40.4502 34.1362 43.8588 34.4502 43.8588 35.0133V45.9169C43.8588 46.0864 43.8389 46.1063 43.6894 46.1661C43.5449 46.2309 36.7625 48.6777 36.7625 48.6777C36.7625 48.6777 36.4884 48.7625 36.4086 48.7625C36.3239 48.7625 36.0548 48.6578 36.0548 48.6578C36.0548 48.6578 29.2724 46.211 29.1279 46.1462C28.9834 46.0814 28.9585 46.0615 28.9585 45.897V34.9934C28.9186 34.4302 32.3272 34.1362 36.3887 34.1362Z" fill="white"/>
<defs>
<linearGradient id="paint0_linear_1563_22859" x1="5.5" y1="4.82736e-07" x2="65" y2="75.5" gradientUnits="userSpaceOnUse">
<stop stop-color="#005676"/>
<stop offset="1" stop-color="#005F62"/>
</linearGradient>
</defs>
</svg>
