<svg width="72" height="72" viewBox="0 0 72 72" fill="none" xmlns="http://www.w3.org/2000/svg">
<path d="M0 28C0 14.8007 0 8.20101 4.1005 4.1005C8.20101 0 14.8007 0 28 0H44C57.1993 0 63.799 0 67.8995 4.1005C72 8.20101 72 14.8007 72 28V44C72 57.1993 72 63.799 67.8995 67.8995C63.799 72 57.1993 72 44 72H28C14.8007 72 8.20101 72 4.1005 67.8995C0 63.799 0 57.1993 0 44V28Z" fill="#FF4500"/>
<path d="M56.5113 36.2694C56.5174 36.6861 56.4657 37.102 56.3562 37.5042C56.2467 37.9064 56.0809 38.2919 55.8635 38.6477C55.6468 39.0035 55.3807 39.3274 55.0735 39.6095C54.7663 39.8916 54.4212 40.1288 54.0478 40.3143C54.0562 40.4253 54.0631 40.5371 54.0669 40.6488C54.076 40.8718 54.076 41.095 54.0669 41.3179C54.0631 41.4297 54.0562 41.5415 54.0478 41.6525C54.0478 48.4649 46.1101 54 36.3173 54C26.5244 54 18.5867 48.4649 18.5867 41.6525C18.5783 41.5415 18.5715 41.4297 18.5677 41.3179C18.5585 41.095 18.5585 40.8718 18.5677 40.6488C18.5715 40.5371 18.5783 40.4253 18.5867 40.3143C18.0018 40.0455 17.4823 39.6527 17.0642 39.1633C16.6461 38.6739 16.3393 38.0995 16.1651 37.4798C15.9911 36.8599 15.9541 36.2095 16.0565 35.5739C16.1589 34.9382 16.3983 34.3324 16.7581 33.7984C17.1176 33.2645 17.589 32.8153 18.1395 32.4818C18.69 32.1483 19.3065 31.9386 19.9461 31.8672C20.5859 31.7955 21.2336 31.8637 21.8443 32.0672C22.455 32.2707 23.0142 32.6046 23.4831 33.0457C24.3536 32.4557 25.2655 31.9295 26.2119 31.4711C27.1585 31.0134 28.137 30.6241 29.1399 30.3078C30.1427 29.9915 31.1676 29.7489 32.2055 29.5809C33.2433 29.4129 34.2925 29.3209 35.3441 29.3049L37.5946 18.7517C37.6197 18.6293 37.6691 18.5138 37.7398 18.4104C37.8098 18.3077 37.9002 18.2195 38.0044 18.1518C38.1093 18.0842 38.2264 18.0378 38.3496 18.015C38.472 17.9929 38.5982 17.9952 38.7199 18.0218L46.171 19.512C46.9229 18.2203 48.5013 17.6668 49.895 18.2051C51.2887 18.7434 52.0855 20.2146 51.7737 21.6759C51.4628 23.1372 50.1353 24.1561 48.6435 24.0793C47.151 24.0025 45.9353 22.8529 45.7756 21.3672L39.2673 19.9987L37.2905 29.4874C38.3291 29.5094 39.3654 29.6068 40.3903 29.7778C42.4427 30.12 44.435 30.7566 46.3055 31.668C47.2398 32.1227 48.1401 32.6441 48.9993 33.2282C49.6172 32.635 50.3935 32.2333 51.2347 32.0717C52.0758 31.9095 52.9459 31.9943 53.7399 32.3158C54.534 32.6371 55.2182 33.1813 55.7099 33.8828C56.2017 34.5843 56.4801 35.4132 56.5113 36.2694ZM26.3298 40.4747C26.4833 40.8435 26.7069 41.1788 26.9897 41.4609C27.2718 41.7437 27.6071 41.9672 27.9758 42.1208C28.3449 42.2735 28.7405 42.352 29.1399 42.352C30.3701 42.352 31.4786 41.6106 31.95 40.4747C32.4206 39.3381 32.1599 38.0303 31.2901 37.1605C30.4203 36.2907 29.1125 36.0299 27.9758 36.5006C26.8399 36.972 26.0986 38.0805 26.0986 39.3107C26.0986 39.7099 26.1769 40.1052 26.3298 40.4747ZM43.7486 47.7753C43.9045 47.6232 43.9934 47.4157 43.9965 47.1982C43.9995 46.98 43.9151 46.7701 43.763 46.6143C43.611 46.4584 43.4034 46.3695 43.186 46.3664C42.9678 46.3634 42.7579 46.4478 42.5823 46.5793C42.125 46.9073 41.6407 47.196 41.1346 47.4423C40.6285 47.6887 40.1026 47.8919 39.5623 48.0498C39.0225 48.2071 38.4697 48.3189 37.9109 48.3835C37.3513 48.4482 36.7879 48.4649 36.226 48.4345C35.6649 48.4596 35.1023 48.4368 34.545 48.3668C33.9875 48.2976 33.4371 48.1805 32.8996 48.0171C32.3613 47.8544 31.839 47.646 31.3364 47.3951C30.8339 47.1442 30.3533 46.8507 29.9002 46.5185C29.7428 46.3892 29.5428 46.3231 29.3391 46.333C29.1353 46.3429 28.943 46.4288 28.7985 46.5725C28.6548 46.7169 28.5689 46.9093 28.559 47.1131C28.5491 47.3168 28.6153 47.5168 28.7445 47.6742C29.279 48.0771 29.847 48.433 30.4423 48.7386C31.0376 49.0443 31.6588 49.2974 32.2975 49.4966C32.9361 49.6958 33.5908 49.8395 34.2545 49.927C34.9183 50.0137 35.5881 50.0433 36.2564 50.0159C36.9248 50.0433 37.5946 50.0137 38.2584 49.927C39.5878 49.7521 40.8773 49.3501 42.0706 48.7386C42.6659 48.433 43.2339 48.0771 43.7684 47.6742L43.7486 47.7753ZM43.1905 42.5953C43.6026 42.5998 44.0117 42.52 44.3926 42.3618C44.7735 42.2029 45.1179 41.9688 45.4053 41.673C45.6927 41.3772 45.9163 41.026 46.0638 40.6405C46.2114 40.2554 46.2789 39.8444 46.2622 39.4323C46.2622 38.2021 45.5209 37.0936 44.385 36.6222C43.2483 36.1516 41.9406 36.4124 41.0708 37.2822C40.201 38.152 39.9402 39.4597 40.4108 40.5964C40.8822 41.7323 41.9907 42.4736 43.2209 42.4736L43.1905 42.5953Z" fill="white"/>
</svg>
