<svg width="72" height="72" viewBox="0 0 72 72" fill="none" xmlns="http://www.w3.org/2000/svg">
<rect width="72" height="72" rx="14" fill="#CCF9FF" fill-opacity="0.1"/>
<mask id="mask0_4110_39469" style="mask-type:alpha" maskUnits="userSpaceOnUse" x="14" y="21" width="44" height="29">
<path d="M57.4872 33.697C55.0943 30.7181 46.5483 21 36 21C25.4517 21 16.9057 30.7181 14.5128 33.697C13.8291 34.5272 13.8291 35.7481 14.5128 36.6271C16.9057 39.606 25.4517 49.3241 36 49.3241C46.5483 49.3241 55.0943 39.606 57.4872 36.6271C58.1709 35.7969 58.1709 34.576 57.4872 33.697Z" fill="white"/>
</mask>
<g mask="url(#mask0_4110_39469)">
<g filter="url(#filter0_f_4110_39469)">
<path d="M55 41.162C55 45.028 46.4934 53.162 36 53.162C25.5066 53.162 17 45.028 17 41.162C17 37.296 25.5066 44.162 36 44.162C46.4934 44.162 55 37.296 55 41.162Z" fill="#CCF9FF" fill-opacity="0.8"/>
</g>
</g>
<path fill-rule="evenodd" clip-rule="evenodd" d="M17.5954 40.0698C21.5318 44.0396 28.2215 49.3241 35.9999 49.3241C43.7784 49.3241 50.4681 44.0396 54.4045 40.0698C54.7933 40.2175 55 40.5594 55 41.162C55 45.028 46.4934 53.162 36 53.162C25.5066 53.162 17 45.028 17 41.162C17 40.5594 17.2067 40.2176 17.5954 40.0698Z" fill="#CCF9FF" fill-opacity="0.8"/>
<g filter="url(#filter1_ii_4110_39469)">
<path d="M57.4872 33.697C55.0943 30.7181 46.5483 21 36 21C25.4517 21 16.9057 30.7181 14.5128 33.697C13.8291 34.5272 13.8291 35.7481 14.5128 36.6271C16.9057 39.606 25.4517 49.3241 36 49.3241C46.5483 49.3241 55.0943 39.606 57.4872 36.6271C58.1709 35.7969 58.1709 34.576 57.4872 33.697Z" fill="#CCF9FF" fill-opacity="0.08"/>
</g>
<g filter="url(#filter2_i_4110_39469)">
<path d="M36 28.081C32.0932 28.081 28.9189 31.2553 28.9189 35.162C28.9189 39.0688 32.0932 42.2431 36 42.2431C39.9067 42.2431 43.081 39.0688 43.081 35.162C43.081 31.2553 39.9067 28.081 36 28.081ZM35.4628 33.0622C34.5838 33.0622 33.8512 33.7947 33.8512 34.6737H31.5072C31.556 32.4761 33.3141 30.7181 35.4628 30.7181V33.0622Z" fill="#F8FCFD" fill-opacity="0.15"/>
</g>
<defs>
<filter id="filter0_f_4110_39469" x="8" y="30.9814" width="56" height="31.1806" filterUnits="userSpaceOnUse" color-interpolation-filters="sRGB">
<feFlood flood-opacity="0" result="BackgroundImageFix"/>
<feBlend mode="normal" in="SourceGraphic" in2="BackgroundImageFix" result="shape"/>
<feGaussianBlur stdDeviation="4.5" result="effect1_foregroundBlur_4110_39469"/>
</filter>
<filter id="filter1_ii_4110_39469" x="14" y="21" width="44" height="29.3241" filterUnits="userSpaceOnUse" color-interpolation-filters="sRGB">
<feFlood flood-opacity="0" result="BackgroundImageFix"/>
<feBlend mode="normal" in="SourceGraphic" in2="BackgroundImageFix" result="shape"/>
<feColorMatrix in="SourceAlpha" type="matrix" values="0 0 0 0 0 0 0 0 0 0 0 0 0 0 0 0 0 0 127 0" result="hardAlpha"/>
<feOffset dy="1"/>
<feGaussianBlur stdDeviation="0.5"/>
<feComposite in2="hardAlpha" operator="arithmetic" k2="-1" k3="1"/>
<feColorMatrix type="matrix" values="0 0 0 0 1 0 0 0 0 1 0 0 0 0 1 0 0 0 0.15 0"/>
<feBlend mode="normal" in2="shape" result="effect1_innerShadow_4110_39469"/>
<feColorMatrix in="SourceAlpha" type="matrix" values="0 0 0 0 0 0 0 0 0 0 0 0 0 0 0 0 0 0 127 0" result="hardAlpha"/>
<feOffset/>
<feGaussianBlur stdDeviation="3.5"/>
<feComposite in2="hardAlpha" operator="arithmetic" k2="-1" k3="1"/>
<feColorMatrix type="matrix" values="0 0 0 0 1 0 0 0 0 1 0 0 0 0 1 0 0 0 0.05 0"/>
<feBlend mode="normal" in2="effect1_innerShadow_4110_39469" result="effect2_innerShadow_4110_39469"/>
</filter>
<filter id="filter2_i_4110_39469" x="28.9189" y="28.081" width="14.1621" height="14.662" filterUnits="userSpaceOnUse" color-interpolation-filters="sRGB">
<feFlood flood-opacity="0" result="BackgroundImageFix"/>
<feBlend mode="normal" in="SourceGraphic" in2="BackgroundImageFix" result="shape"/>
<feColorMatrix in="SourceAlpha" type="matrix" values="0 0 0 0 0 0 0 0 0 0 0 0 0 0 0 0 0 0 127 0" result="hardAlpha"/>
<feOffset dy="0.5"/>
<feGaussianBlur stdDeviation="0.25"/>
<feComposite in2="hardAlpha" operator="arithmetic" k2="-1" k3="1"/>
<feColorMatrix type="matrix" values="0 0 0 0 1 0 0 0 0 1 0 0 0 0 1 0 0 0 0.3 0"/>
<feBlend mode="normal" in2="shape" result="effect1_innerShadow_4110_39469"/>
</filter>
</defs>
</svg>
