<svg width="72" height="72" viewBox="0 0 72 72" fill="none" xmlns="http://www.w3.org/2000/svg">
<path d="M0 28C0 14.8007 0 8.20101 4.1005 4.1005C8.20101 0 14.8007 0 28 0H44C57.1993 0 63.799 0 67.8995 4.1005C72 8.20101 72 14.8007 72 28V44C72 57.1993 72 63.799 67.8995 67.8995C63.799 72 57.1993 72 44 72H28C14.8007 72 8.20101 72 4.1005 67.8995C0 63.799 0 57.1993 0 44V28Z" fill="#03A9F4"/>
<path d="M57 23.0202C55.4566 23.7072 53.7966 24.1657 52.0456 24.3826C53.8258 23.3203 55.1953 21.6262 55.8381 19.6249C54.1722 20.6062 52.3267 21.3272 50.3634 21.7071C48.7955 20.0364 46.5592 19 44.0814 19C39.3218 19 35.464 22.8432 35.464 27.5821C35.464 28.2527 35.5421 28.9057 35.6891 29.54C28.5287 29.1789 22.1779 25.7578 17.9293 20.5663C17.1827 21.8349 16.7627 23.3203 16.7627 24.8879C16.7627 27.867 18.2804 30.4897 20.5949 32.0349C19.1822 31.9915 17.8523 31.5964 16.688 30.9633C16.688 30.9891 16.688 31.0278 16.688 31.0641C16.688 35.2274 19.6593 38.6942 23.5976 39.4832C22.8778 39.6814 22.1172 39.7916 21.3333 39.7916C20.7769 39.7916 20.2344 39.7283 19.7094 39.6333C20.806 43.0357 23.9873 45.5223 27.7564 45.5962C24.8073 47.8941 21.093 49.2706 17.0543 49.2706C16.3567 49.2706 15.6743 49.2307 15 49.1486C18.8158 51.5767 23.3468 53 28.2102 53C44.0581 53 52.728 39.9206 52.728 28.5739C52.728 28.2023 52.7164 27.8318 52.6989 27.466C54.3904 26.2654 55.8486 24.7507 57 23.0202Z" fill="white"/>
</svg>
