<svg width="72" height="72" viewBox="0 0 72 72" fill="none" xmlns="http://www.w3.org/2000/svg">
<path d="M0 28C0 14.8007 0 8.20101 4.1005 4.1005C8.20101 0 14.8007 0 28 0H44C57.1993 0 63.799 0 67.8995 4.1005C72 8.20101 72 14.8007 72 28V44C72 57.1993 72 63.799 67.8995 67.8995C63.799 72 57.1993 72 44 72H28C14.8007 72 8.20101 72 4.1005 67.8995C0 63.799 0 57.1993 0 44V28Z" fill="white"/>
<path d="M53.9767 32.4094H52.5V32.3334H36V39.6667H46.3611C44.8495 43.9356 40.7877 47 36 47C29.9252 47 25 42.0748 25 36C25 29.9253 29.9252 25 36 25C38.8041 25 41.3552 26.0579 43.2976 27.7858L48.4832 22.6002C45.2088 19.5486 40.829 17.6667 36 17.6667C25.8754 17.6667 17.6667 25.8754 17.6667 36C17.6667 46.1246 25.8754 54.3334 36 54.3334C46.1246 54.3334 54.3333 46.1246 54.3333 36C54.3333 34.7708 54.2068 33.5709 53.9767 32.4094Z" fill="#FFC107"/>
<path d="M19.7805 27.4668L25.8039 31.8842C27.4337 27.849 31.3809 25 36 25C38.8041 25 41.3552 26.0579 43.2976 27.7858L48.4832 22.6002C45.2088 19.5486 40.829 17.6667 36 17.6667C28.9582 17.6667 22.8513 21.6423 19.7805 27.4668Z" fill="#FF3D00"/>
<path d="M36 54.3333C40.7355 54.3333 45.0383 52.5211 48.2916 49.574L42.6174 44.7725C40.7767 46.1667 38.4887 47 36 47C31.2315 47 27.1826 43.9594 25.6572 39.7162L19.6787 44.3224C22.7129 50.2597 28.8747 54.3333 36 54.3333Z" fill="#4CAF50"/>
<path d="M53.9768 32.4094H52.5V32.3333H36V39.6667H46.3611C45.6351 41.7173 44.316 43.4855 42.6147 44.7734L42.6174 44.7716L48.2916 49.5731C47.8901 49.9379 54.3333 45.1667 54.3333 36C54.3333 34.7708 54.2068 33.5708 53.9768 32.4094Z" fill="#1976D2"/>
</svg>
