<svg width="72" height="72" viewBox="0 0 72 72" fill="none" xmlns="http://www.w3.org/2000/svg">
<path d="M0 28C0 14.8007 0 8.20101 4.10051 4.10051C8.20101 0 14.8007 0 28 0H44C57.1993 0 63.799 0 67.8995 4.10051C72 8.20101 72 14.8007 72 28V44C72 57.1993 72 63.799 67.8995 67.8995C63.799 72 57.1993 72 44 72H28C14.8007 72 8.20101 72 4.10051 67.8995C0 63.799 0 57.1993 0 44V28Z" fill="url(#paint0_linear_1589_25006)"/>
<path d="M40.9542 72V46.1409H48.9413L50 36.4413H40.9542L40.9676 31.5861C40.9676 29.0562 41.2146 27.7013 44.9502 27.7013H49.944V18H41.9551C32.359 18 28.9819 22.7051 28.9819 30.6189V36.442H23V46.1426H28.9819V72C31.5 72 33.7216 72 36.1884 72C37.8739 72 39 72 40.9542 72Z" fill="white"/>
<defs>
<linearGradient id="paint0_linear_1589_25006" x1="36" y1="-0.655956" x2="36" y2="75.0701" gradientUnits="userSpaceOnUse">
<stop stop-color="#00B2FF"/>
<stop offset="1" stop-color="#006AFF"/>
</linearGradient>
</defs>
</svg>
