<svg width="72" height="72" viewBox="0 0 72 72" fill="none" xmlns="http://www.w3.org/2000/svg">
<path d="M0.5 28C0.5 21.3862 0.501062 16.4762 1.0081 12.7048C1.51321 8.94787 2.51219 6.39593 4.45406 4.45406C6.39593 2.51219 8.94787 1.51321 12.7048 1.0081C16.4762 0.501062 21.3862 0.5 28 0.5H44C50.6138 0.5 55.5238 0.501062 59.2952 1.0081C63.0521 1.51321 65.6041 2.51219 67.5459 4.45406C69.4878 6.39593 70.4868 8.94787 70.9919 12.7048C71.4989 16.4762 71.5 21.3862 71.5 28V44C71.5 50.6138 71.4989 55.5238 70.9919 59.2952C70.4868 63.0521 69.4878 65.6041 67.5459 67.5459C65.6041 69.4878 63.0521 70.4868 59.2952 70.9919C55.5238 71.4989 50.6138 71.5 44 71.5H28C21.3862 71.5 16.4762 71.4989 12.7048 70.9919C8.94787 70.4868 6.39593 69.4878 4.45406 67.5459C2.51219 65.6041 1.51321 63.0521 1.0081 59.2952C0.501062 55.5238 0.5 50.6138 0.5 44V28Z" fill="#141414" stroke="white"/>
<path d="M17 45.2119V56H31.2915V53.6086H19.0817V45.2119H17ZM52.9131 45.2119V53.6086H40.7033V56H55V45.2119H52.9131ZM31.3123 28.7881V45.2059H40.7033V42.5H34V28.7881H31.3123ZM17 18V28.7881H19.0817V20.3914H31.2915V18H17ZM40.7033 18V20.3914H52.9131V28.7881H55V18H40.7033Z" fill="white"/>
</svg>
