<svg width="32" height="33" viewBox="0 0 32 33" fill="none" xmlns="http://www.w3.org/2000/svg">
  <path opacity="0.4"
    d="M3.18675 25.0247L14.1533 6.08258C14.7594 5.0357 15.0624 4.51225 15.4578 4.33645C15.8027 4.1831 16.1964 4.1831 16.5412 4.33645C16.9366 4.51225 17.2397 5.03569 17.8458 6.08258L28.8123 25.0247C29.4205 26.0754 29.7247 26.6007 29.6797 27.0319C29.6405 27.4079 29.4435 27.7497 29.1377 27.972C28.7871 28.227 28.1801 28.227 26.966 28.227H5.033C3.81897 28.227 3.21195 28.227 2.86134 27.972C2.55553 27.7497 2.3585 27.4079 2.31929 27.0319C2.27434 26.6007 2.57848 26.0754 3.18675 25.0247Z"
    stroke="currentColor" stroke-width="2.66667" stroke-linecap="round" stroke-linejoin="round" />
  <path d="M15.9995 12.8936V18.2269M15.9995 23.5602H16.0128" stroke="currentColor" stroke-width="2.66667"
    stroke-linecap="round" stroke-linejoin="round" />
</svg>
