<svg xmlns="http://www.w3.org/2000/svg" width="28" height="29" viewBox="0 0 28 29" fill="none">
  <path d="M11.614 12.4665C13.0826 11.657 14.9174 11.657 16.386 12.4665L27.2495 18.4542C28.2502 19.0057 28.2502 20.338 27.2495 20.8896L16.386 26.8773C14.9174 27.6867 13.0826 27.6867 11.614 26.8773L0.75053 20.8896C-0.250176 20.338 -0.250177 19.0057 0.750529 18.4542L11.614 12.4665Z" fill="var(--color-2)"/>
  <path d="M11.614 7.77899C13.0826 6.9695 14.9174 6.9695 16.386 7.77899L27.2495 13.7667C28.2502 14.3182 28.2502 15.6505 27.2495 16.2021L16.386 22.1898C14.9174 22.9992 13.0826 22.9992 11.614 22.1898L0.75053 16.2021C-0.250176 15.6505 -0.250177 14.3182 0.750529 13.7667L11.614 7.77899Z" fill-opacity="var(--opacity)" fill="var(--color-1)" />
  <path d="M11.614 3.09149C13.0826 2.282 14.9174 2.282 16.386 3.09149L27.2495 9.07916C28.2502 9.63073 28.2502 10.963 27.2495 11.5146L16.386 17.5023C14.9174 18.3117 13.0826 18.3117 11.614 17.5023L0.75053 11.5146C-0.250176 10.963 -0.250177 9.63073 0.750529 9.07916L11.614 3.09149Z" fill="var(--color-2)"/>
</svg>