<svg width="28" height="28" viewBox="0 0 28 28" fill="none" xmlns="http://www.w3.org/2000/svg">
<mask id="mask0_262_7544" style="mask-type:alpha" maskUnits="userSpaceOnUse" x="0" y="9" width="28" height="19">
<path fill-rule="evenodd" clip-rule="evenodd" d="M28 9.64598C27.9995 10.1143 27.7493 10.5825 27.2495 10.8567L16.386 16.8178C14.9174 17.6237 13.0826 17.6237 11.614 16.8178L0.75053 10.8567C0.250299 10.5823 0.000122206 10.1129 7.95042e-08 9.6441L0 28H28V9.64598Z" fill="white"/>
</mask>
<g mask="url(#mask0_262_7544)">
<mask id="mask1_262_7544" style="mask-type:alpha" maskUnits="userSpaceOnUse" x="0" y="6" width="28" height="17">
<path d="M11.614 7.13774C13.0826 6.33185 14.9174 6.33185 16.386 7.13774L27.2495 13.0988C28.2502 13.6479 28.2502 14.9743 27.2495 15.5234L16.386 21.4845C14.9174 22.2904 13.0826 22.2904 11.614 21.4845L0.75053 15.5234C-0.250176 14.9743 -0.250177 13.6479 0.750529 13.0988L11.614 7.13774Z" fill="white"/>
</mask>
<g mask="url(#mask1_262_7544)">
<g filter="url(#filter0_f_262_7544)">
<path d="M11.614 11.8044C13.0826 10.9985 14.9174 10.9985 16.386 11.8044L27.2495 17.7655C28.2502 18.3146 28.2502 19.6409 27.2495 20.1901L16.386 26.1511C14.9174 26.957 13.0826 26.957 11.614 26.1511L0.75053 20.1901C-0.250176 19.6409 -0.250177 18.3146 0.750529 17.7655L11.614 11.8044Z" fill="url(#paint0_linear_262_7544)" fill-opacity="var(--opacity)"/>
</g>
</g>
<path fill-rule="evenodd" clip-rule="evenodd" d="M2.7935 16.6444L0.750529 17.7655C-0.250177 18.3146 -0.250176 19.641 0.75053 20.1901L11.614 26.1511C13.0826 26.957 14.9174 26.957 16.386 26.1511L27.2495 20.1901C28.2502 19.641 28.2502 18.3146 27.2495 17.7655L25.2065 16.6444L16.386 21.4845C14.9174 22.2904 13.0826 22.2904 11.614 21.4845L2.7935 16.6444Z" fill="url(#paint1_linear_262_7544)" fill-opacity="var(--opacity)"/>
<g filter="url(#filter1_ii_262_7544)">
<path d="M11.614 7.13774C13.0826 6.33185 14.9174 6.33185 16.386 7.13774L27.2495 13.0988C28.2502 13.6479 28.2502 14.9743 27.2495 15.5234L16.386 21.4845C14.9174 22.2904 13.0826 22.2904 11.614 21.4845L0.75053 15.5234C-0.250176 14.9743 -0.250177 13.6479 0.750529 13.0988L11.614 7.13774Z" fill="#CCD6FF" fill-opacity="0.08"/>
</g>
</g>
<mask id="mask2_262_7544" style="mask-type:alpha" maskUnits="userSpaceOnUse" x="0" y="1" width="28" height="17">
<path d="M11.614 2.47109C13.0826 1.6652 14.9174 1.6652 16.386 2.47109L27.2495 8.43214C28.2502 8.98126 28.2502 10.3076 27.2495 10.8567L16.386 16.8178C14.9174 17.6237 13.0826 17.6237 11.614 16.8178L0.75053 10.8567C-0.250176 10.3076 -0.250177 8.98126 0.750529 8.43214L11.614 2.47109Z" fill="white"/>
</mask>
<g mask="url(#mask2_262_7544)">
<g filter="url(#filter2_f_262_7544)">
<mask id="mask3_262_7544" style="mask-type:alpha" maskUnits="userSpaceOnUse" x="0" y="6" width="28" height="17">
<path d="M11.614 7.13774C13.0826 6.33185 14.9174 6.33185 16.386 7.13774L27.2495 13.0988C28.2502 13.6479 28.2502 14.9743 27.2495 15.5234L16.386 21.4845C14.9174 22.2904 13.0826 22.2904 11.614 21.4845L0.75053 15.5234C-0.250176 14.9743 -0.250177 13.6479 0.750529 13.0988L11.614 7.13774Z" fill="white"/>
</mask>
<g mask="url(#mask3_262_7544)">
<g filter="url(#filter3_f_262_7544)">
<path d="M11.614 11.8044C13.0826 10.9985 14.9174 10.9985 16.386 11.8044L27.2495 17.7655C28.2502 18.3146 28.2502 19.6409 27.2495 20.1901L16.386 26.1511C14.9174 26.957 13.0826 26.957 11.614 26.1511L0.75053 20.1901C-0.250176 19.6409 -0.250177 18.3146 0.750529 17.7655L11.614 11.8044Z" fill="url(#paint2_linear_262_7544)" fill-opacity="var(--opacity)"/>
</g>
</g>
<path fill-rule="evenodd" clip-rule="evenodd" d="M2.7935 16.6444L0.750529 17.7655C-0.250177 18.3146 -0.250176 19.641 0.75053 20.1901L11.614 26.1511C13.0826 26.957 14.9174 26.957 16.386 26.1511L27.2495 20.1901C28.2502 19.641 28.2502 18.3146 27.2495 17.7655L25.2065 16.6444L16.386 21.4845C14.9174 22.2904 13.0826 22.2904 11.614 21.4845L2.7935 16.6444Z" fill="url(#paint3_linear_262_7544)" fill-opacity="var(--opacity)"/>
<g filter="url(#filter4_ii_262_7544)">
<path d="M11.614 7.13774C13.0826 6.33185 14.9174 6.33185 16.386 7.13774L27.2495 13.0988C28.2502 13.6479 28.2502 14.9743 27.2495 15.5234L16.386 21.4845C14.9174 22.2904 13.0826 22.2904 11.614 21.4845L0.75053 15.5234C-0.250176 14.9743 -0.250177 13.6479 0.750529 13.0988L11.614 7.13774Z" fill="#CCD6FF" fill-opacity="0.08"/>
</g>
</g>
</g>
<g filter="url(#filter5_i_262_7544)">
<path d="M11.614 2.47109C13.0826 1.6652 14.9174 1.6652 16.386 2.47109L27.2495 8.43214C28.2502 8.98126 28.2502 10.3076 27.2495 10.8567L16.386 16.8178C14.9174 17.6237 13.0826 17.6237 11.614 16.8178L0.75053 10.8567C-0.250176 10.3076 -0.250177 8.98126 0.750529 8.43214L11.614 2.47109Z" fill="#CCD6FF" fill-opacity="0.15"/>
</g>
<defs>
<filter id="filter0_f_262_7544" x="-9" y="2.19998" width="46" height="33.5556" filterUnits="userSpaceOnUse" color-interpolation-filters="sRGB">
<feFlood flood-opacity="0" result="BackgroundImageFix"/>
<feBlend mode="normal" in="SourceGraphic" in2="BackgroundImageFix" result="shape"/>
<feGaussianBlur stdDeviation="4.5" result="effect1_foregroundBlur_262_7544"/>
</filter>
<filter id="filter1_ii_262_7544" x="0" y="6.53333" width="28" height="16.5555" filterUnits="userSpaceOnUse" color-interpolation-filters="sRGB">
<feFlood flood-opacity="0" result="BackgroundImageFix"/>
<feBlend mode="normal" in="SourceGraphic" in2="BackgroundImageFix" result="shape"/>
<feColorMatrix in="SourceAlpha" type="matrix" values="0 0 0 0 0 0 0 0 0 0 0 0 0 0 0 0 0 0 127 0" result="hardAlpha"/>
<feOffset dy="1"/>
<feGaussianBlur stdDeviation="0.5"/>
<feComposite in2="hardAlpha" operator="arithmetic" k2="-1" k3="1"/>
<feColorMatrix type="matrix" values="0 0 0 0 1 0 0 0 0 1 0 0 0 0 1 0 0 0 0.15 0"/>
<feBlend mode="normal" in2="shape" result="effect1_innerShadow_262_7544"/>
<feColorMatrix in="SourceAlpha" type="matrix" values="0 0 0 0 0 0 0 0 0 0 0 0 0 0 0 0 0 0 127 0" result="hardAlpha"/>
<feOffset/>
<feGaussianBlur stdDeviation="3.5"/>
<feComposite in2="hardAlpha" operator="arithmetic" k2="-1" k3="1"/>
<feColorMatrix type="matrix" values="0 0 0 0 1 0 0 0 0 1 0 0 0 0 1 0 0 0 0.05 0"/>
<feBlend mode="normal" in2="effect1_innerShadow_262_7544" result="effect2_innerShadow_262_7544"/>
</filter>
<filter id="filter2_f_262_7544" x="-8" y="-1.46667" width="44" height="36.2222" filterUnits="userSpaceOnUse" color-interpolation-filters="sRGB">
<feFlood flood-opacity="0" result="BackgroundImageFix"/>
<feBlend mode="normal" in="SourceGraphic" in2="BackgroundImageFix" result="shape"/>
<feGaussianBlur stdDeviation="4" result="effect1_foregroundBlur_262_7544"/>
</filter>
<filter id="filter3_f_262_7544" x="-9" y="2.19998" width="46" height="33.5556" filterUnits="userSpaceOnUse" color-interpolation-filters="sRGB">
<feFlood flood-opacity="0" result="BackgroundImageFix"/>
<feBlend mode="normal" in="SourceGraphic" in2="BackgroundImageFix" result="shape"/>
<feGaussianBlur stdDeviation="4.5" result="effect1_foregroundBlur_262_7544"/>
</filter>
<filter id="filter4_ii_262_7544" x="0" y="6.53333" width="28" height="16.5555" filterUnits="userSpaceOnUse" color-interpolation-filters="sRGB">
<feFlood flood-opacity="0" result="BackgroundImageFix"/>
<feBlend mode="normal" in="SourceGraphic" in2="BackgroundImageFix" result="shape"/>
<feColorMatrix in="SourceAlpha" type="matrix" values="0 0 0 0 0 0 0 0 0 0 0 0 0 0 0 0 0 0 127 0" result="hardAlpha"/>
<feOffset dy="1"/>
<feGaussianBlur stdDeviation="0.5"/>
<feComposite in2="hardAlpha" operator="arithmetic" k2="-1" k3="1"/>
<feColorMatrix type="matrix" values="0 0 0 0 1 0 0 0 0 1 0 0 0 0 1 0 0 0 0.15 0"/>
<feBlend mode="normal" in2="shape" result="effect1_innerShadow_262_7544"/>
<feColorMatrix in="SourceAlpha" type="matrix" values="0 0 0 0 0 0 0 0 0 0 0 0 0 0 0 0 0 0 127 0" result="hardAlpha"/>
<feOffset/>
<feGaussianBlur stdDeviation="3.5"/>
<feComposite in2="hardAlpha" operator="arithmetic" k2="-1" k3="1"/>
<feColorMatrix type="matrix" values="0 0 0 0 1 0 0 0 0 1 0 0 0 0 1 0 0 0 0.05 0"/>
<feBlend mode="normal" in2="effect1_innerShadow_262_7544" result="effect2_innerShadow_262_7544"/>
</filter>
<filter id="filter5_i_262_7544" x="0" y="1.86667" width="28" height="16.0555" filterUnits="userSpaceOnUse" color-interpolation-filters="sRGB">
<feFlood flood-opacity="0" result="BackgroundImageFix"/>
<feBlend mode="normal" in="SourceGraphic" in2="BackgroundImageFix" result="shape"/>
<feColorMatrix in="SourceAlpha" type="matrix" values="0 0 0 0 0 0 0 0 0 0 0 0 0 0 0 0 0 0 127 0" result="hardAlpha"/>
<feOffset dy="0.5"/>
<feGaussianBlur stdDeviation="0.25"/>
<feComposite in2="hardAlpha" operator="arithmetic" k2="-1" k3="1"/>
<feColorMatrix type="matrix" values="0 0 0 0 1 0 0 0 0 1 0 0 0 0 1 0 0 0 0.3 0"/>
<feBlend mode="normal" in2="shape" result="effect1_innerShadow_262_7544"/>
</filter>
<linearGradient id="paint0_linear_262_7544" x1="25.1015" y1="9.84752" x2="15.1452" y2="31.2054" gradientUnits="userSpaceOnUse">
<stop offset="0.00121575" stop-color="var(--color-1)"/>
<stop offset="1" stop-color="var(--color-2)"/>
</linearGradient>
<linearGradient id="paint1_linear_262_7544" x1="25.1015" y1="9.84753" x2="15.1452" y2="31.2054" gradientUnits="userSpaceOnUse">
<stop offset="0.00121575" stop-color="var(--color-1)"/>
<stop offset="1" stop-color="var(--color-2)"/>
</linearGradient>
<linearGradient id="paint2_linear_262_7544" x1="25.1015" y1="9.84752" x2="15.1452" y2="31.2054" gradientUnits="userSpaceOnUse">
<stop offset="0.00121575" stop-color="var(--color-1)"/>
<stop offset="1" stop-color="var(--color-2)"/>
</linearGradient>
<linearGradient id="paint3_linear_262_7544" x1="25.1015" y1="9.84753" x2="15.1452" y2="31.2054" gradientUnits="userSpaceOnUse">
<stop offset="0.00121575" stop-color="var(--color-1)"/>
<stop offset="1" stop-color="var(--color-2)"/>
</linearGradient>
</defs>
</svg>
