<svg width="16" height="16" viewBox="0 0 16 16" fill="none" xmlns="http://www.w3.org/2000/svg">
<path d="M8 15.5C3.85786 15.5 0.5 12.1421 0.5 8C0.5 3.85786 3.85786 0.5 8 0.5C12.1421 0.5 15.5 3.85786 15.5 8C15.4955 12.1403 12.1403 15.4955 8 15.5ZM7.25 2.0465C4.79453 2.35702 2.7817 4.14342 2.18173 6.54462C1.58176 8.94582 2.51777 11.469 4.53859 12.898C6.55942 14.327 9.25032 14.3685 11.3142 13.0025L11.2393 13.0557L11.3097 13.007L11.354 12.9762L11.402 12.9425L11.414 12.9342L11.4207 12.929L7.57475 9.0815C7.36578 8.86886 7.24909 8.58239 7.25 8.28425V2.0465ZM9.37175 8.75L12.542 11.9202L12.5472 11.9142L12.551 11.9097L12.5435 11.918C13.3172 11.0252 13.808 9.92244 13.9535 8.75H9.37175ZM8.75 2.0465V7.25H13.9535C13.6111 4.53058 11.4694 2.38888 8.75 2.0465Z" fill="#F8F9FD"/>
</svg>
