<svg width="20" height="20" viewBox="0 0 20 20" fill="none" xmlns="http://www.w3.org/2000/svg">
<path fill-rule="evenodd" clip-rule="evenodd" d="M15.2941 4.88327C14.417 4.88327 13.7059 5.59435 13.7059 6.47151C13.7059 7.34867 14.417 8.05974 15.2941 8.05974C16.1713 8.05974 16.8824 7.34867 16.8824 6.47151C16.8824 5.59435 16.1713 4.88327 15.2941 4.88327ZM11.7417 5.41268C12.1973 3.8819 13.6153 2.76562 15.2941 2.76562C17.3408 2.76562 19 4.42481 19 6.47151C19 8.51821 17.3408 10.1774 15.2941 10.1774C13.6153 10.1774 12.1973 9.06112 11.7417 7.53033L2.05882 7.53033C1.47405 7.53033 1 7.05628 1 6.47151C1 5.88674 1.47405 5.41268 2.05882 5.41268L11.7417 5.41268ZM4.70588 11.9421C3.82872 11.9421 3.11765 12.6532 3.11765 13.5303C3.11765 14.4075 3.82872 15.1186 4.70588 15.1186C5.58304 15.1186 6.29412 14.4075 6.29412 13.5303C6.29412 12.6532 5.58304 11.9421 4.70588 11.9421ZM1 13.5303C1 11.4836 2.65918 9.82445 4.70588 9.82445C6.38466 9.82445 7.80271 10.9407 8.2583 12.4715L17.9412 12.4715C18.5259 12.4715 19 12.9456 19 13.5303C19 14.1151 18.5259 14.5892 17.9412 14.5892L8.2583 14.5892C7.80271 16.1199 6.38466 17.2362 4.70588 17.2362C2.65918 17.2362 1 15.577 1 13.5303Z" fill="white"/>
</svg>
