<svg width="20" height="20" viewBox="0 0 20 20" fill="none" xmlns="http://www.w3.org/2000/svg">
<path fill-rule="evenodd" clip-rule="evenodd" d="M9.11765 3.11765C5.80394 3.11765 3.11765 5.80394 3.11765 9.11765C3.11765 12.4314 5.80394 15.1176 9.11765 15.1176C10.7296 15.1176 12.1932 14.4819 13.2712 13.4476C13.2967 13.4152 13.3244 13.3841 13.3542 13.3542C13.3841 13.3244 13.4152 13.2967 13.4476 13.2712C14.4819 12.1932 15.1176 10.7296 15.1176 9.11765C15.1176 5.80394 12.4314 3.11765 9.11765 3.11765ZM15.5576 14.0602C16.6098 12.6914 17.2353 10.9776 17.2353 9.11765C17.2353 4.63439 13.6009 1 9.11765 1C4.63439 1 1 4.63439 1 9.11765C1 13.6009 4.63439 17.2353 9.11765 17.2353C10.9776 17.2353 12.6914 16.6098 14.0602 15.5576L17.1925 18.6899C17.606 19.1034 18.2764 19.1034 18.6899 18.6899C19.1034 18.2764 19.1034 17.606 18.6899 17.1925L15.5576 14.0602Z" fill="white"/>
</svg>
