<svg width="20" height="20" viewBox="0 0 20 20" fill="white" xmlns="http://www.w3.org/2000/svg">
<path fill-rule="evenodd" clip-rule="evenodd" d="M10 2.92857C6.09456 2.92857 2.92857 6.09456 2.92857 10C2.92857 13.9054 6.09456 17.0714 10 17.0714C13.9054 17.0714 17.0714 13.9054 17.0714 10C17.0714 6.09456 13.9054 2.92857 10 2.92857ZM1 10C1 5.02944 5.02944 1 10 1C14.9706 1 19 5.02944 19 10C19 14.9706 14.9706 19 10 19C5.02944 19 1 14.9706 1 10ZM10 5.82143C10.5326 5.82143 10.9643 6.25315 10.9643 6.78571V9.03571H13.2143C13.7468 9.03571 14.1786 9.46744 14.1786 10C14.1786 10.5326 13.7468 10.9643 13.2143 10.9643H10.9643V13.2143C10.9643 13.7468 10.5326 14.1786 10 14.1786C9.46744 14.1786 9.03571 13.7468 9.03571 13.2143V10.9643H6.78571C6.25315 10.9643 5.82143 10.5326 5.82143 10C5.82143 9.46744 6.25315 9.03571 6.78571 9.03571H9.03571V6.78571C9.03571 6.25315 9.46744 5.82143 10 5.82143Z" />
</svg>
