<svg width="124" height="124" viewBox="0 0 124 124" fill="none" xmlns="http://www.w3.org/2000/svg">
<path fill-rule="evenodd" clip-rule="evenodd" d="M71.6876 98.8125V89.2819C75.5714 87.7923 79.0617 85.4316 81.8899 82.3813C84.7182 79.3311 86.8089 75.6726 88.0013 71.6875C90.2484 71.7362 92.4276 70.9152 94.0839 69.3958C95.7402 67.8765 96.7458 65.7762 96.8908 63.5332C97.0358 61.2902 96.309 59.0779 94.862 57.358C93.4151 55.638 91.3598 54.5433 89.1251 54.3023V52.3125C89.1251 37.3317 76.9808 25.1875 62.0001 25.1875C47.0193 25.1875 34.8751 37.3317 34.8751 52.3125V54.3023C32.6575 54.5463 30.6177 55.6311 29.1758 57.3335C27.7338 59.0359 26.9993 61.2263 27.1234 63.4538C27.2475 65.6814 28.2208 67.7766 29.843 69.3083C31.4652 70.8399 33.6128 71.6914 35.8438 71.6875H35.9988C37.1915 75.6723 39.2824 79.3303 42.1106 82.3802C44.9388 85.4301 48.429 87.7906 52.3126 89.28V99.7639C52.3125 99.7503 52.3125 99.7367 52.3125 99.7231V98.8125C38.6279 101.763 27.2606 111.862 21.3125 124H102.688C96.7394 111.862 85.3721 101.763 71.6876 98.8125Z" fill="#CCF9FF" fill-opacity="0.1"/>
</svg>
