<svg width="16" height="16" viewBox="0 0 16 16" fill="none" xmlns="http://www.w3.org/2000/svg">
<path d="M3.50041 15.5C2.23601 15.4997 1.10753 14.7067 0.678831 13.5172C0.250132 12.3276 0.613251 10.997 1.58675 10.1902C2.56025 9.38335 3.93513 9.27349 5.02441 9.91549L9.91591 5.02399C9.15067 3.72388 9.47138 2.05759 10.6645 1.13441C11.8577 0.211235 13.5511 0.319113 14.6175 1.38623C15.6839 2.45335 15.7905 4.14686 14.8665 5.33936C13.9425 6.53186 12.276 6.8514 10.9764 6.08524L6.08566 10.976C6.63276 11.9037 6.64063 13.0534 6.10629 13.9885C5.57194 14.9235 4.57738 15.5004 3.50041 15.5ZM3.50041 11C2.67198 11 2.00041 11.6716 2.00041 12.5C2.00041 13.3284 2.67198 14 3.50041 14C4.32883 14 5.00041 13.3284 5.00041 12.5C5.00041 11.6716 4.32883 11 3.50041 11ZM12.5004 1.99999C11.681 2.00082 11.0138 2.65913 11.0021 3.4785C10.9903 4.29787 11.6383 4.97502 12.4574 4.99933C13.2765 5.02364 13.9635 4.38612 14.0004 3.56749V3.86749V3.49999C14.0004 2.67157 13.3288 1.99999 12.5004 1.99999Z" fill="#F8F9FD"/>
</svg>
