<svg xmlns="http://www.w3.org/2000/svg" fill="none" viewBox="0 0 28 28">
  <g clip-path="url(#a)">
    <g filter="url(#b)">
      <path d="M28 14a14 14 0 1 1-28 0 14 14 0 0 1 28 0Z" fill="var(--color-2)"/>
    </g>
    <path d="m18.24 14.88-.04.07.06.05.07.07c.3.3.85.39 1.24 0l.61-.62a.87.87 0 0 1 1.23 0c.3.3.32.92-.2 1.44l-.62.61c-.99 1-2.7 1-3.7 0l-.07-.07-.07.07-1.78 1.79-.07.07.07.07a2.55 2.55 0 0 1 0 3.7l-.62.61a.87.87 0 0 1-.61.23.87.87 0 0 1-.62-.23.87.87 0 0 1-.23-.61c0-.24.08-.47.23-.62l.62-.61c.18-.19.3-.41.32-.65a.82.82 0 0 0-.25-.66l-.07-.07-.06-.06-.07.05a3.98 3.98 0 0 1-4.88-.6 3.61 3.61 0 0 1-.26-4.94l.05-.07-.06-.07-.07-.07c-.32-.32-.93-.3-1.3.07l-.62.62a.87.87 0 0 1-.62.23.87.87 0 0 1-.61-.23.87.87 0 0 1-.23-.62c0-.23.08-.46.23-.61l.61-.62c1-.99 2.71-.99 3.7 0l.07.07.07-.07 1.79-1.78.07-.07-.07-.07a2.61 2.61 0 0 1 0-3.7l.61-.62a.87.87 0 0 1 1.23 1.23l-.61.62c-.31.3-.4.85 0 1.24l.06.07.06.05.07-.04c.68-.4 1.34-.67 2.06-.6h.1l.01-.1c.14-1.2.6-2.35 1.48-3.22.19-.2.4-.28.62-.28.2 0 .42.09.61.28.3.3.37.86 0 1.23a3.49 3.49 0 0 0-.99 2.4v.06l.05.03c.34.2.68.4.94.67.26.26.46.6.67.94l.03.04h.06c.84 0 1.76-.35 2.4-.98a.87.87 0 0 1 1.23 0c.19.18.28.4.28.61 0 .21-.1.42-.28.61a5.33 5.33 0 0 1-3.23 1.49h-.1v.1c0 .66-.2 1.4-.6 2.07Zm-1.6-3.24a2.33 2.33 0 0 0-.65-.64c-.2-.13-.38-.17-.54-.13a.52.52 0 0 0-.35.32c-.12.3-.05.74.28 1.07.33.33.77.4 1.07.27a.52.52 0 0 0 .31-.34c.05-.17 0-.35-.13-.55Z" fill="var(--color-1)" stroke="var(--color-2)" stroke-width=".2"/>
  </g>
  <defs>
    <clipPath id="a">
      <path fill="#fff" d="M0 0h28v28H0z"/>
    </clipPath>
    <filter id="b" x="-8" y="-8" width="44" height="44" filterUnits="userSpaceOnUse" color-interpolation-filters="sRGB">
      <feFlood flood-opacity="0" result="BackgroundImageFix"/>
      <feGaussianBlur in="BackgroundImageFix" stdDeviation="4"/>
      <feComposite in2="SourceAlpha" operator="in" result="effect1_backgroundBlur_3559_317"/>
      <feBlend in="SourceGraphic" in2="effect1_backgroundBlur_3559_317" result="shape"/>
    </filter>
  </defs>
</svg>