<svg width="24" height="25" viewBox="0 0 24 25" fill="none" xmlns="http://www.w3.org/2000/svg">
<path opacity="0.4" fill-rule="evenodd" clip-rule="evenodd" d="M5.61328 10.6768C5.61328 6.17255 9.2871 2.53125 13.8065 2.53125C18.3258 2.53125 21.9997 6.17255 21.9997 10.6768C21.9997 11.6922 21.8124 12.6661 21.4695 13.5648C21.4364 13.6516 21.4171 13.7023 21.4038 13.7397C21.4021 13.7445 21.4007 13.7487 21.3995 13.7522C21.3996 13.7534 21.3997 13.7547 21.3998 13.7561C21.4027 13.786 21.4077 13.8268 21.4172 13.9044L21.7847 16.8893C21.8017 17.027 21.821 17.1832 21.8256 17.3191C21.8306 17.4696 21.8243 17.7032 21.7121 17.9484C21.5721 18.2545 21.3232 18.4977 21.014 18.6306C20.7663 18.7371 20.5326 18.7381 20.3823 18.7295C20.2464 18.7218 20.0907 18.6989 19.9534 18.6787C19.945 18.6775 19.9367 18.6763 19.9284 18.6751L17.0455 18.2525C16.9655 18.2407 16.9234 18.2347 16.8925 18.231C16.8911 18.2308 16.8897 18.2307 16.8884 18.2305C16.8848 18.2317 16.8806 18.2332 16.8756 18.2349C16.8369 18.2484 16.7845 18.2679 16.6947 18.3016C15.7952 18.6385 14.8213 18.8224 13.8065 18.8224C13.3822 18.8224 12.9649 18.7902 12.5571 18.7281C12.0629 18.6529 11.7233 18.1913 11.7986 17.6971C11.8351 17.4574 11.9625 17.2541 12.1405 17.1168C12.0203 16.9632 11.9487 16.7698 11.9487 16.5597C11.9487 14.2896 10.1581 12.4869 7.99506 12.4869C7.75918 12.4869 7.54439 12.3967 7.3833 12.2489C7.25026 12.4741 7.02118 12.6401 6.74256 12.6833C6.24862 12.7599 5.78607 12.4217 5.70942 11.9277C5.64607 11.5194 5.61328 11.1016 5.61328 10.6768ZM7.42654 10.8776C7.58192 10.752 7.77971 10.6768 7.99506 10.6768C11.1989 10.6768 13.7589 13.3315 13.7589 16.5597C13.7589 16.7237 13.7153 16.8775 13.639 17.0101C13.6946 17.0115 13.7505 17.0122 13.8065 17.0122C14.6014 17.0122 15.3603 16.8684 16.0597 16.6065C16.0724 16.6017 16.0854 16.5968 16.0985 16.5919C16.2264 16.5437 16.3773 16.4869 16.5152 16.4579C16.6411 16.4315 16.7487 16.42 16.8774 16.4192C17.0177 16.4184 17.1605 16.4396 17.2759 16.4567C17.2869 16.4584 17.2976 16.46 17.3081 16.4615L19.956 16.8496L19.6206 14.1256C19.6194 14.1154 19.6181 14.105 19.6168 14.0943C19.6028 13.9826 19.5855 13.8442 19.5887 13.7086C19.5917 13.5842 19.6043 13.4807 19.6312 13.3592C19.6607 13.2264 19.7166 13.0807 19.7639 12.9572C19.7688 12.9444 19.7736 12.9319 19.7783 12.9196C20.0438 12.2236 20.1895 11.4681 20.1895 10.6768C20.1895 7.18343 17.3373 4.34137 13.8065 4.34137C10.2756 4.34137 7.4234 7.18343 7.4234 10.6768C7.4234 10.744 7.42446 10.811 7.42654 10.8776Z" fill="white"/>
<path fill-rule="evenodd" clip-rule="evenodd" d="M2.2389 16.5696C2.2389 13.3332 4.80538 10.6719 8.01716 10.6719C11.2289 10.6719 13.7954 13.3332 13.7954 16.5696C13.7954 19.806 11.2289 22.4673 8.01716 22.4673C7.35694 22.4673 6.72094 22.3539 6.128 22.1446C6.02997 22.11 5.96912 22.0886 5.92448 22.0738C5.91611 22.0711 5.9093 22.0689 5.9039 22.0672C5.90222 22.0673 5.90039 22.0675 5.89839 22.0678C5.86721 22.0712 5.82473 22.0769 5.74608 22.0877L3.02754 22.459C2.73425 22.499 2.43991 22.3931 2.23937 22.1754C2.03882 21.9577 1.95743 21.6556 2.02141 21.3666L2.57636 18.8597C2.59563 18.7726 2.60596 18.7255 2.6126 18.6909C2.61302 18.6887 2.61341 18.6867 2.61375 18.6848C2.61207 18.679 2.60993 18.6716 2.60722 18.6627C2.59226 18.6131 2.57026 18.5456 2.53453 18.4362C2.34246 17.8483 2.2389 17.2203 2.2389 16.5696ZM8.01716 12.482C5.84615 12.482 4.04902 14.2913 4.04902 16.5696C4.04902 17.0274 4.12177 17.4658 4.25517 17.8741C4.26046 17.8903 4.26588 17.9068 4.27138 17.9236C4.32245 18.079 4.38024 18.2548 4.40345 18.4027C4.42522 18.5414 4.43045 18.6482 4.42234 18.7884C4.41374 18.9372 4.37955 19.0903 4.35163 19.2153C4.34891 19.2274 4.34626 19.2393 4.34369 19.2509L4.06946 20.4897L5.50115 20.2942C5.51162 20.2928 5.52235 20.2913 5.53333 20.2898C5.64627 20.2742 5.78452 20.2551 5.91711 20.256C6.04269 20.2568 6.1361 20.2663 6.25926 20.2909C6.38988 20.3169 6.54661 20.3725 6.68592 20.4219C6.70098 20.4273 6.71584 20.4325 6.73044 20.4377C7.13298 20.5798 7.56543 20.6572 8.01716 20.6572C10.1882 20.6572 11.9853 18.8479 11.9853 16.5696C11.9853 14.2913 10.1882 12.482 8.01716 12.482Z" fill="white"/>
</svg>
