<svg xmlns="http://www.w3.org/2000/svg" width="24" height="24" viewBox="0 0 24 24" fill="var(--color-1)">
<path opacity="0.4" fill-rule="evenodd" clip-rule="evenodd" d="M3.06129 5C3.06831 5.00639 3.07591 5.01313 3.08414 5.02021C3.2378 5.15231 3.51866 5.3166 3.95266 5.47442C4.81243 5.78707 6.06647 6 7.5 6C8.93353 6 10.1876 5.78707 11.0473 5.47442C11.4813 5.3166 11.7622 5.15231 11.9159 5.02021C11.9241 5.01313 11.9317 5.00639 11.9387 5C11.9317 4.99361 11.9241 4.98687 11.9159 4.97979C11.7622 4.84769 11.4813 4.6834 11.0473 4.52558C10.1876 4.21293 8.93353 4 7.5 4C6.06647 4 4.81243 4.21293 3.95266 4.52558C3.51866 4.6834 3.2378 4.84769 3.08414 4.97979C3.07591 4.98687 3.06831 4.99361 3.06129 5ZM12 7.24996C11.9115 7.28633 11.8216 7.32099 11.7308 7.35401C10.6 7.76522 9.10403 8 7.5 8C5.89597 8 4.4 7.76522 3.26917 7.35401C3.17837 7.32099 3.08852 7.28633 3 7.24996V8.93678C3.01461 8.95479 3.04049 8.98268 3.08414 9.02021C3.2378 9.15231 3.51866 9.3166 3.95266 9.47442C4.81243 9.78707 6.06647 10 7.5 10C8.70617 10 9.7906 9.84915 10.6206 9.61199C10.7235 9.50859 10.8319 9.41633 10.9394 9.33516C11.2421 9.10658 11.6038 8.91282 12 8.75003V7.24996ZM10 11.7976C9.22939 11.929 8.38225 12 7.5 12C5.89597 12 4.4 11.7652 3.26917 11.354C3.17837 11.321 3.08852 11.2863 3 11.25V12.9368C3.01461 12.9548 3.04049 12.9827 3.08414 13.0202C3.2378 13.1523 3.51866 13.3166 3.95266 13.4744C4.81243 13.7871 6.06647 14 7.5 14C8.42484 14 9.27811 13.9113 10 13.763V11.7976ZM12 14.5661C12.0003 14.5509 12.0004 14.5357 12 14.5204V11.063C12.0201 11.0378 12.0622 10.9934 12.1445 10.9313C12.3624 10.7668 12.7397 10.5794 13.2876 10.4149C13.7105 10.2879 14 9.89865 14 9.45715V5C14 4.32275 13.6194 3.80688 13.2197 3.46322C12.8167 3.11678 12.2921 2.8501 11.7308 2.64599C10.6 2.23478 9.10403 2 7.5 2C5.89597 2 4.4 2.23478 3.26917 2.64599C2.70787 2.8501 2.18326 3.11678 1.78029 3.46322C1.38057 3.80688 1 4.32275 1 5V17C1 17.6772 1.38057 18.1931 1.78029 18.5368C2.18326 18.8832 2.70787 19.1499 3.26917 19.354C4.4 19.7652 5.89597 20 7.5 20C8.90812 20 10.2268 19.8192 11.2876 19.5006C11.7105 19.3736 12 18.9844 12 18.5429V14.5661ZM10 15.7976C9.22939 15.929 8.38225 16 7.5 16C5.89597 16 4.4 15.7652 3.26917 15.354C3.17837 15.321 3.08852 15.2863 3 15.25V16.9368C3.01461 16.9548 3.04049 16.9827 3.08414 17.0202C3.2378 17.1523 3.51866 17.3166 3.95266 17.4744C4.81243 17.7871 6.06647 18 7.5 18C8.42484 18 9.27811 17.9113 10 17.763V15.7976Z"/>
<path fill-rule="evenodd" clip-rule="evenodd" d="M12 13.25V14.9368C12.0146 14.9548 12.0405 14.9827 12.0841 15.0202C12.2378 15.1523 12.5187 15.3166 12.9527 15.4744C13.8124 15.7871 15.0665 16 16.5 16C17.9335 16 19.1876 15.7871 20.0473 15.4744C20.4813 15.3166 20.7622 15.1523 20.9159 15.0202C20.9595 14.9827 20.9854 14.9548 21 14.9368V13.25C20.9115 13.2863 20.8216 13.321 20.7308 13.354C19.6 13.7652 18.104 14 16.5 14C14.896 14 13.4 13.7652 12.2692 13.354C12.1784 13.321 12.0885 13.2863 12 13.25ZM23 11V19C23 19.6772 22.6194 20.1931 22.2197 20.5368C21.8167 20.8832 21.2921 21.1499 20.7308 21.354C19.6 21.7652 18.104 22 16.5 22C14.896 22 13.4 21.7652 12.2692 21.354C11.7079 21.1499 11.1833 20.8832 10.7803 20.5368C10.3806 20.1931 10 19.6772 10 19C10 18.9214 10.0091 18.8448 10.0262 18.7714C10.0091 18.698 10 18.6215 10 18.5429V11C10 10.5487 10.1674 10.1704 10.4 9.86436C10.5157 9.71174 10.6469 9.57789 10.7803 9.46322C10.8235 9.42609 10.8681 9.38987 10.914 9.35454C10.9224 9.34801 10.9309 9.34155 10.9394 9.33516C11.0172 9.27642 11.0989 9.21998 11.1841 9.16577C11.4165 9.0178 11.6724 8.88806 11.9413 8.77449C12.1864 8.67097 12.4454 8.57959 12.7124 8.49941C13.7778 8.17946 15.0976 8 16.5 8C18.104 8 19.6 8.23478 20.7308 8.64599C21.2921 8.8501 21.8167 9.11678 22.2197 9.46322C22.6194 9.80688 23 10.3228 23 11ZM12.1302 10.9422C12.1348 10.9387 12.1396 10.935 12.1445 10.9313C12.3624 10.7668 12.7397 10.5794 13.2876 10.4149C13.2888 10.4145 13.2901 10.4142 13.2913 10.4138C14.1271 10.1633 15.2447 10 16.5 10C17.9335 10 19.1876 10.2129 20.0473 10.5256C20.4813 10.6834 20.7622 10.8477 20.9159 10.9798C20.9241 10.9869 20.9317 10.9936 20.9387 11C20.9317 11.0064 20.9241 11.0131 20.9159 11.0202C20.7622 11.1523 20.4813 11.3166 20.0473 11.4744C19.1876 11.7871 17.9335 12 16.5 12C15.0665 12 13.8124 11.7871 12.9527 11.4744C12.5187 11.3166 12.2378 11.1523 12.0841 11.0202C12.0759 11.0131 12.0683 11.0064 12.0613 11C12.0683 10.9936 12.0759 10.9869 12.0841 10.9798C12.0984 10.9675 12.1137 10.955 12.1302 10.9422ZM12 17.25V18.5429C12 18.6215 11.9909 18.698 11.9738 18.7714C11.9861 18.8242 11.9942 18.8785 11.9979 18.9341C12.012 18.952 12.0383 18.9808 12.0841 19.0202C12.2378 19.1523 12.5187 19.3166 12.9527 19.4744C13.8124 19.7871 15.0665 20 16.5 20C17.9335 20 19.1876 19.7871 20.0473 19.4744C20.4813 19.3166 20.7622 19.1523 20.9159 19.0202C20.9595 18.9827 20.9854 18.9548 21 18.9368V17.25C20.9115 17.2863 20.8216 17.321 20.7308 17.354C19.6 17.7652 18.104 18 16.5 18C14.896 18 13.4 17.7652 12.2692 17.354C12.1784 17.321 12.0885 17.2863 12 17.25Z"/>
</svg>