<svg width="16" height="16" viewBox="0 0 16 16" fill="none" xmlns="http://www.w3.org/2000/svg">
<path fill-rule="evenodd" clip-rule="evenodd" d="M8.02344 4.76978C8.38077 4.66782 8.75511 4.63383 9.11244 4.76978C9.38469 4.87174 9.58888 5.05867 9.67396 5.34756C9.16349 5.07566 8.60197 4.90573 8.02344 4.76978Z" fill="#F8FCFD"/>
<path fill-rule="evenodd" clip-rule="evenodd" d="M12.3107 6.38417C11.9193 6.09528 11.4599 5.94234 11.0004 5.80639C10.558 5.67045 10.1156 5.50051 9.69024 5.33058C9.16275 5.07568 8.60124 4.90574 8.03972 4.76979C7.66537 4.68483 7.29103 4.63385 6.89967 4.65084C6.47428 4.66783 6.08292 4.80378 5.70857 4.95672C5.24915 5.12666 4.82376 5.36456 4.48344 5.72143C4.1091 6.12927 3.90491 6.60509 3.81983 7.13188C3.73475 7.59071 3.71774 8.04953 3.68371 8.50835C3.59863 9.49398 3.44549 10.4626 3.03711 11.3803C3.03711 11.4312 3.07114 11.4822 3.10517 11.5332C3.36041 11.8901 3.64967 12.2299 3.98999 12.5188C4.14313 12.6548 4.29627 12.7907 4.46643 12.9097C4.94287 13.2155 5.43632 13.5044 5.98082 13.6914C6.42323 13.8443 6.88265 13.9633 7.34208 14.0142C7.69941 14.0482 8.07375 14.0652 8.43108 14.0142C8.63527 13.9972 8.85647 13.9972 9.06066 13.8953C8.95857 13.2495 9.11171 12.6378 9.38396 12.043C9.70726 11.3293 10.1667 10.7175 10.6772 10.1227C11.1196 9.62992 11.613 9.18809 12.0724 8.71228C12.3277 8.44038 12.5829 8.16849 12.719 7.81162C12.9402 7.23385 12.8041 6.75803 12.3107 6.38417ZM11.2897 7.40378C11.4429 7.38679 11.562 7.50574 11.562 7.64169C11.562 7.79463 11.4429 7.91358 11.3067 7.91358C11.2897 7.91358 11.2557 7.91358 11.2387 7.89659C11.1536 7.8796 11.0855 7.81162 11.0685 7.72666C11.0685 7.70966 11.0515 7.67568 11.0515 7.65868C11.0515 7.52273 11.1536 7.40378 11.2897 7.40378ZM7.12087 7.67568C6.49129 7.65868 5.96381 7.14888 5.96381 6.50313C5.96381 5.87437 6.49129 5.34757 7.13789 5.34757C7.78448 5.34757 8.29495 5.85737 8.29495 6.50313C8.27794 7.14888 7.76747 7.67568 7.12087 7.67568ZM12.2256 8.3894C12.2086 8.44038 12.1575 8.45737 12.1065 8.49136C11.4429 8.93319 10.7112 9.20509 9.92846 9.35803C9.48605 9.443 9.02663 9.443 8.60124 9.29005C8.38003 9.20509 8.17584 9.06914 8.09077 8.9162C8.53317 9.18809 9.02663 9.22208 9.52008 9.18809C10.2007 9.15411 10.8473 8.98417 11.4599 8.72927C11.6981 8.62731 11.9363 8.52535 12.1575 8.3894C12.1745 8.37241 12.1915 8.35541 12.2256 8.37241C12.2256 8.37241 12.2256 8.3894 12.2256 8.3894ZM12.2936 8.33842C12.2936 8.35541 12.2766 8.37241 12.2596 8.37241C12.2596 8.35541 12.2596 8.35541 12.2596 8.35541C12.2596 8.33842 12.2766 8.32143 12.2936 8.33842C12.3107 8.30443 12.3277 8.30443 12.3447 8.30443L12.2936 8.33842Z" fill="#F8FCFD"/>
<path fill-rule="evenodd" clip-rule="evenodd" d="M12.2938 8.33837C12.2938 8.35536 12.2768 8.37236 12.2598 8.37236C12.2598 8.33837 12.2768 8.32138 12.2938 8.33837ZM12.3447 8.30438L12.2938 8.33837L12.2768 8.32138C12.3107 8.30438 12.3277 8.30438 12.3447 8.30438Z" fill="#F8FCFD"/>
<path fill-rule="evenodd" clip-rule="evenodd" d="M7.99022 1.49006C11.5975 1.49006 14.5072 4.39595 14.5072 8.01556C14.5072 11.5842 11.5635 14.5241 7.93918 14.5071C4.43395 14.4731 1.49023 11.5842 1.49023 7.99856C1.49023 4.39595 4.3829 1.47307 7.99022 1.49006ZM3.03866 11.3973C3.03866 11.4652 3.07269 11.4992 3.10672 11.5502C3.36196 11.9071 3.65123 12.2469 3.99154 12.5358C4.14468 12.6718 4.29782 12.8077 4.46798 12.9267C4.94442 13.2326 5.43787 13.5214 5.98237 13.7084C6.42478 13.8613 6.8842 13.9803 7.34363 14.0312C7.70096 14.0652 8.0753 14.0822 8.43263 14.0312C8.63682 13.9973 8.85802 13.9973 9.06221 13.9123C9.09624 13.9293 9.11326 13.8953 9.13027 13.8953C9.55567 13.8273 9.96404 13.6914 10.3724 13.5214C11.6996 12.9437 12.7036 12.009 13.3502 10.7175C13.9287 9.57895 14.1159 8.37242 13.9287 7.1149C13.7585 5.90837 13.2481 4.85477 12.4313 3.97111C11.3423 2.73059 9.94703 2.08484 8.2965 1.98287C7.56483 1.93189 6.83316 2.03385 6.13551 2.27176C4.99546 2.64562 4.0596 3.29137 3.2939 4.22601C2.4261 5.2966 2.0007 6.52013 1.94966 7.87961C1.93264 8.21948 1.96667 8.54235 2.01772 8.88222C2.11981 9.64693 2.37505 10.3776 2.76641 11.0404C2.8685 11.1424 2.93657 11.2783 3.03866 11.3973Z" fill="#F8FCFD" stroke="#F8FCFD" stroke-width="0.7"/>
</svg>
