<svg width="510" height="302" viewBox="0 0 510 302" fill="none" xmlns="http://www.w3.org/2000/svg">
<g filter="url(#filter0_f_4202_39411)">
<path d="M299.461 201.921C321.255 201.921 338.922 184.254 338.922 162.46C338.922 140.667 321.255 123 299.461 123C277.668 123 260.001 140.667 260.001 162.46C260.001 184.254 277.668 201.921 299.461 201.921Z" fill="#FF002D" fill-opacity="0.3"/>
</g>
<g filter="url(#filter1_f_4202_39411)">
<path d="M300.213 186.424C313.033 186.424 323.425 176.032 323.425 163.212C323.425 150.392 313.033 140 300.213 140C287.393 140 277.001 150.392 277.001 163.212C277.001 176.032 287.393 186.424 300.213 186.424Z" fill="#FF002D" fill-opacity="0.4"/>
</g>
<path d="M496.634 118.571C494.265 116.509 491.724 114.547 489.4 112.395C488.838 111.945 488.174 111.64 487.466 111.506C486.758 111.372 486.029 111.414 485.341 111.627C481.67 107.323 475.991 101.346 471.199 100.848C470.999 100.6 470.708 100.442 470.391 100.408C470.074 100.374 469.756 100.467 469.508 100.668C469.393 100.791 469.269 100.906 469.137 101.011C468.745 101.118 468.368 101.276 468.016 101.481C467.87 101.545 467.753 101.661 467.688 101.807C467.623 101.952 467.614 102.117 467.664 102.268L467.501 102.422C467.128 102.876 466.824 103.381 466.597 103.923C464.788 101.156 463.242 98.3348 461.651 95.5318C457.546 88.2983 455.195 79.9345 449.227 73.361C448.323 72.4025 445.972 72.5562 445.158 73.4604C436.189 83.4066 426.866 93.1086 415.971 102.024C406.124 110.089 394.749 116.789 382.28 122.631C379.558 121.06 377.179 118.961 375.282 116.455C374.793 115.916 374.137 115.559 373.419 115.442C372.701 115.326 371.965 115.456 371.331 115.813C368.451 117.769 365.73 119.949 363.193 122.332C361.023 124.258 358.835 126.184 355.661 127.341C353.654 128.074 351.239 128.246 349.395 129.222C345.652 131.26 342.26 133.886 339.349 136.998C339.131 136.903 338.892 136.865 338.655 136.887C338.418 136.909 338.19 136.991 337.993 137.125C335.237 139.236 332.635 141.542 330.208 144.024C329.448 144.801 328.49 145.669 327.604 146.592C327.209 146.36 326.787 146.178 326.347 146.049L325.723 145.95C325.723 144.946 324.231 144.141 322.938 144.738C321.654 144.467 320.47 145.353 320.886 146.248C309.375 155.2 297.376 163.862 285.92 172.831L285.486 172.741C284.465 172.488 282.946 172.678 282.385 173.419C278.072 179.161 270.115 172.47 263.487 172.759C262.979 172.31 262.336 172.044 261.659 172.003C260.982 171.962 260.311 172.149 259.753 172.533C257.845 173.88 256 175.246 254.084 176.629C253.695 176.9 253.27 177.172 252.836 177.425C244.517 172.822 236.669 167.759 228.82 162.487C220.836 157.135 212.825 151.827 204.244 146.935C200.175 144.612 196.64 142.026 191.884 140.362C189.885 139.974 187.86 139.732 185.826 139.638C185.367 139.236 184.86 138.893 184.316 138.617C184.096 138.509 183.861 138.433 183.62 138.391C177.091 133.87 170.409 129.539 164.532 124.575C160.764 121.49 157.419 117.92 154.586 113.959C153.257 112.042 152.995 109.022 151.476 107.024C152.38 105.632 150.11 103.878 147.976 104.999C146.81 105.614 145.707 106.265 144.649 106.952C140.38 102.592 135.199 99.2319 129.476 97.1142C129.053 96.9678 128.601 96.9267 128.158 96.9945C127.715 97.0622 127.296 97.2367 126.936 97.503C126.322 98.1785 125.524 98.6593 124.64 98.8859C123.756 99.1125 122.825 99.075 121.963 98.7779C121.746 98.4544 121.443 98.1982 121.088 98.0384C120.734 97.8785 120.341 97.8215 119.955 97.8737C110.66 98.9949 103.68 106.916 97.9743 111.563C94.0139 114.818 81.2286 127.287 73.4706 123.372C72.042 122.649 70.4506 123.291 70.107 124.186C65.1881 129.502 58.7322 134.078 51.7156 138.029C48.0401 140.054 44.2376 141.839 40.3318 143.373C39.075 143.879 37.6916 144.277 36.3534 144.72C36.2578 144.606 36.1412 144.51 36.0098 144.44V223.005H496.634V118.571Z" fill="#0D0E1D"/>
<path d="M47.9994 141.799C52.2853 140.118 56.4717 138.183 60.7033 136.374C63.6939 134.937 66.836 133.839 70.0708 133.101C70.1023 133.093 70.1351 133.091 70.1672 133.096C70.1993 133.101 70.2302 133.112 70.258 133.129C70.2858 133.146 70.31 133.168 70.329 133.194C70.3481 133.22 70.3618 133.25 70.3692 133.282C71.6712 140.434 80.3967 136.727 84.6826 134.855C91.3194 131.944 97.6216 128.155 104.512 125.813C106.564 125.135 109.087 124.403 111.257 124.981C114.729 125.886 117.288 128.942 120.968 129.087C124.648 129.231 127.297 127.332 130.652 125.985C132.18 125.361 133.835 124.746 135.498 125.217C139.043 126.22 141.43 129.285 143.745 131.962C145.282 133.77 147.009 136.004 149.251 136.899C150.499 137.371 151.873 137.383 153.129 136.934C154.385 136.486 155.44 135.604 156.105 134.448C156.774 133.183 156.837 129.24 158.736 129.087C160.156 128.987 161.892 130.624 162.868 131.41C165.852 133.797 168.755 136.302 171.576 138.879C177.444 144.25 183.14 149.937 189.732 154.431C196.324 158.925 204.308 160.76 210.908 165.281C214.02 167.538 217.013 169.952 219.878 172.515C224.11 176.05 238.016 188.564 241.841 178.772C241.931 178.546 242.166 178.356 242.401 178.51C245.25 180.363 247.311 183.212 250.015 185.264C251.706 186.548 253.731 187.76 255.901 186.639C257.538 185.789 258.288 184.261 259.192 182.741C260.44 180.635 262.013 178.872 264.554 178.447C267.936 177.913 270.269 182.235 273.949 181.159C276.191 180.472 278.117 179.089 280.323 178.329C282.339 177.658 284.266 176.747 286.065 175.616C289.504 173.266 292.773 170.677 295.848 167.867C301.201 163.184 307.069 157.551 314.466 156.637C314.601 156.637 314.737 156.637 314.764 156.827C316.509 165.679 330.081 154.494 333.427 152.008C341.158 146.248 349.503 139.629 359.431 138.915C365.625 138.454 371.186 138.49 376.611 135.018C379.414 133.21 383.347 130.054 386.919 130.497C395.644 131.591 384.279 145.715 392.263 147.74C395.156 148.482 397.824 146.221 399.677 144.286C402.211 141.512 404.507 138.53 406.54 135.371C408.611 132.305 410.609 129.177 412.797 126.175C414.461 123.896 416.26 121.374 418.629 119.791C420.003 118.887 421.74 118.209 423.286 119.14C424.274 119.794 425.07 120.699 425.591 121.763C425.79 122.142 426.369 123.951 426.902 123.833C428.176 123.57 429.388 123.066 430.474 122.35C435.375 118.95 438.404 108.95 445.674 113.308C450.276 116.084 453.513 121.075 456.822 125.18C459.309 128.264 464.716 135.805 469.282 131.691C471.995 129.267 473.975 125.099 474.879 121.645C475.177 120.488 475.15 118.932 475.783 117.893C476.299 117.07 477.592 117.178 478.369 117.269C480.557 117.495 482.538 117.775 484.373 119.077C487.013 120.967 489.165 123.435 491.778 125.352C493.247 126.414 494.891 127.209 496.634 127.703V118.571C494.265 116.509 491.724 114.547 489.4 112.395C488.838 111.945 488.174 111.64 487.466 111.506C486.758 111.372 486.029 111.414 485.341 111.627C481.67 107.323 475.991 101.346 471.199 100.848C470.999 100.6 470.708 100.442 470.391 100.408C470.074 100.374 469.756 100.467 469.508 100.668C469.393 100.791 469.269 100.906 469.137 101.011C468.745 101.118 468.368 101.276 468.016 101.481C467.87 101.545 467.753 101.661 467.688 101.807C467.623 101.952 467.614 102.117 467.664 102.268L467.501 102.422C467.128 102.876 466.824 103.381 466.597 103.923C464.788 101.156 463.242 98.3348 461.651 95.5318C457.546 88.2983 455.195 79.9345 449.227 73.361C448.323 72.4025 445.972 72.5562 445.158 73.4604C436.189 83.4066 426.866 93.1086 415.971 102.024C406.124 110.089 394.749 116.789 382.28 122.631C379.558 121.06 377.179 118.961 375.282 116.455C374.793 115.916 374.137 115.559 373.419 115.442C372.701 115.326 371.965 115.456 371.331 115.813C368.451 117.769 365.73 119.949 363.193 122.332C361.023 124.258 358.835 126.184 355.661 127.341C353.654 128.074 351.239 128.246 349.395 129.222C345.652 131.26 342.26 133.886 339.349 136.998C339.131 136.903 338.892 136.865 338.655 136.887C338.418 136.909 338.19 136.991 337.993 137.125C335.237 139.236 332.635 141.542 330.208 144.024C329.448 144.801 328.49 145.669 327.604 146.592C327.209 146.36 326.787 146.178 326.347 146.049L325.723 145.95C325.723 144.946 324.231 144.141 322.938 144.738C321.654 144.467 320.47 145.353 320.886 146.248C309.375 155.2 297.376 163.862 285.92 172.831L285.486 172.741C284.465 172.488 282.946 172.678 282.385 173.419C278.072 179.161 270.115 172.47 263.487 172.759C262.979 172.31 262.336 172.044 261.659 172.003C260.982 171.962 260.311 172.149 259.753 172.533C257.845 173.88 256 175.246 254.084 176.629C253.695 176.9 253.27 177.172 252.836 177.425C244.517 172.822 236.669 167.759 228.82 162.487C220.836 157.135 212.825 151.827 204.244 146.935C200.175 144.612 196.64 142.026 191.884 140.362C189.885 139.974 187.86 139.732 185.826 139.638C185.367 139.236 184.86 138.893 184.316 138.617C184.096 138.509 183.861 138.433 183.62 138.391C177.091 133.87 170.409 129.539 164.532 124.575C160.764 121.49 157.419 117.92 154.586 113.959C153.257 112.042 152.995 109.022 151.476 107.024C152.38 105.632 150.11 103.878 147.976 104.999C146.81 105.614 145.707 106.265 144.649 106.952C140.38 102.592 135.199 99.2319 129.476 97.1142C129.053 96.9678 128.601 96.9267 128.158 96.9945C127.715 97.0622 127.296 97.2367 126.936 97.503C126.322 98.1785 125.524 98.6593 124.64 98.8859C123.756 99.1125 122.825 99.075 121.963 98.7779C121.746 98.4544 121.443 98.1982 121.088 98.0384C120.734 97.8785 120.341 97.8215 119.955 97.8737C110.66 98.9949 103.68 106.916 97.9743 111.563C94.0139 114.818 81.2286 127.287 73.4706 123.372C72.042 122.649 70.4506 123.291 70.107 124.186C65.1881 129.502 58.7322 134.078 51.7156 138.029C48.0401 140.054 44.2376 141.839 40.3318 143.373C39.075 143.879 37.6916 144.277 36.3534 144.72C36.2578 144.606 36.1412 144.51 36.0098 144.44V145.534C40.1282 144.721 44.1477 143.469 47.9994 141.799Z" fill="#181A33"/>
<path d="M496.632 190.001C488.169 187.234 480.357 182.939 473.358 179.151C466.746 175.709 460.361 171.846 454.244 167.586C448.339 163.346 442.561 159.06 435.409 155.832C434.913 155.606 434.372 155.495 433.828 155.508C433.283 155.52 432.748 155.656 432.263 155.904C429.243 157.595 427.317 155.904 424.821 155.217C425.463 153.996 423.112 152.459 421.521 153.481C415.815 157.098 409.224 160.018 402.949 163.147C399.278 164.955 394.558 167.179 391.321 169.892C390.353 169.413 389.386 168.906 388.391 168.373C382.388 165.154 375.926 162.877 369.231 161.619C362.549 160.226 354.276 158.002 347.322 159.81C339.592 161.799 333.461 165.769 327.701 169.756C321.67 173.943 316.11 178.753 308.948 182.035C304.943 183.844 301.335 186.14 297.411 188.075C292.483 190.499 287.411 190.263 281.678 190.462C274.996 190.706 270.05 194.983 265.972 198.247C262.972 200.731 259.65 202.799 256.098 204.396C253.72 203.447 251.469 202.334 249.29 201.222C243.242 198.106 237.603 194.255 232.499 189.757C231.989 189.41 231.403 189.192 230.79 189.121C230.178 189.05 229.557 189.129 228.981 189.35C225.744 190.923 215.491 185.182 212.516 184.133C211.276 183.74 209.996 183.485 208.7 183.373C208.944 181.945 205.536 181.276 204.695 182.713C204.11 183.659 203.239 184.394 202.208 184.811C201.928 184.947 201.593 185.01 201.304 185.155C201.191 185.22 201.082 185.292 200.978 185.372C198.157 183.301 195.553 181.032 193.049 178.934C186.52 173.509 180.607 167.668 173.681 162.496C167.523 157.884 147.378 137.395 136.428 145.433C135.787 145.209 135.117 145.075 134.439 145.036C134.172 144.79 133.844 144.62 133.49 144.544C133.135 144.468 132.767 144.488 132.422 144.602C123.724 147.314 114.809 150.614 107.105 154.792C103.018 153.454 98.8134 152.161 94.5909 151.067C88.3519 149.475 81.3806 149.159 76.7601 152.766C69.5266 151.401 59.6437 155.958 53.9111 158.192C47.7535 160.561 41.9486 163.391 36.0352 166.076V223.086H496.632V190.001Z" fill="#181A33"/>
<g style="mix-blend-mode:screen" opacity="0.5">
<path d="M38.1249 179.28C48.5321 176.432 58.1618 170.826 68.9489 169.262C68.9946 169.254 69.0415 169.258 69.085 169.275C69.1284 169.291 69.1668 169.318 69.1962 169.354C69.2257 169.39 69.245 169.433 69.2524 169.479C69.2598 169.524 69.2549 169.571 69.2382 169.615C68.5116 171.741 67.5662 173.787 66.4171 175.718C65.6121 177.028 64.9137 178.401 64.3284 179.823C64.0662 180.537 66.0283 180.429 66.3629 180.438C70.6216 180.501 74.7267 179.226 78.678 177.725C85.568 175.166 93.0186 171.342 100.587 172.68C100.651 172.689 100.71 172.722 100.752 172.772C100.794 172.822 100.816 172.886 100.813 172.951C100.534 176.09 99.736 179.16 98.4528 182.038C97.431 184.452 95.8396 187.156 95.7402 189.832C95.5503 195.728 104.24 197.789 108.797 197.78C114.113 197.78 118.372 195.14 122.631 192.219C126.374 189.661 130.588 186.641 135.181 185.89C139.919 185.149 143.626 187.599 148.174 187.979C154.504 188.503 156.439 182.328 157.931 177.472C158.672 175.085 160.589 169.696 164.097 170.374C168.519 171.224 171.494 176.197 174.523 179.109C179.433 183.801 185.807 186.613 191.702 189.823C194.634 191.396 197.428 193.21 200.057 195.249C201.609 196.64 203.347 197.808 205.22 198.721C209.642 200.529 214.832 199.299 219.461 200.231C230.917 202.527 240.203 210.764 251.623 213.26C258.233 214.698 264.481 214.002 269.87 209.643C274.02 206.307 277.927 202.41 283.153 200.845C289.564 198.892 295.757 201.144 302.231 200.791C309.194 200.421 315.704 195.954 320.957 191.749C326.057 187.653 330.786 183.096 335.913 179.009C339.412 176.233 343.68 173.114 348.4 173.231C353.119 173.349 357.17 175.944 360.923 178.521C366.809 182.508 372.786 186.415 378.256 190.99C380.327 192.726 383.527 194.652 384.585 197.319C384.983 198.314 384.857 200.303 385.996 200.764C391.231 202.88 396.069 199.86 398.836 195.502C401.141 191.885 402.597 187.762 404.975 184.181C406.783 181.469 409.261 179.769 412.001 178.015C415.324 175.696 418.832 173.655 422.489 171.911C425.265 170.718 428.728 171.712 431.287 173.041C439.163 177.147 444.47 184.796 452.21 189.136C456.008 191.252 460.664 192.464 464.706 190.203C466.549 189.252 468.12 187.849 469.272 186.125C469.6 185.48 470.113 184.948 470.746 184.597C472.047 184.184 473.437 184.141 474.761 184.471C477.681 184.932 480.593 185.565 483.459 186.279C487.139 187.246 490.828 188.404 494.563 189.272C486.886 186.496 479.779 182.608 473.323 179.118C466.711 175.676 460.326 171.813 454.208 167.553C448.304 163.312 442.526 159.026 435.374 155.798C434.878 155.573 434.337 155.462 433.792 155.474C433.248 155.487 432.713 155.622 432.227 155.871C429.207 157.562 427.282 155.871 424.786 155.184C425.428 153.963 423.077 152.426 421.486 153.448C415.78 157.064 409.189 159.985 402.913 163.113C399.242 164.922 394.522 167.146 391.285 169.859C390.318 169.379 389.351 168.873 388.356 168.34C382.352 165.121 375.891 162.843 369.196 161.585C362.514 160.193 354.241 157.969 347.287 159.777C339.556 161.766 333.426 165.736 327.666 169.723C321.635 173.91 316.075 178.72 308.913 182.002C304.908 183.81 301.3 186.107 297.376 188.042C292.448 190.465 287.375 190.23 281.643 190.429C274.961 190.673 270.015 194.95 265.937 198.214C262.936 200.698 259.615 202.766 256.063 204.363C253.685 203.413 251.434 202.301 249.254 201.189C243.207 198.073 237.568 194.222 232.464 189.724C231.954 189.377 231.368 189.159 230.755 189.088C230.142 189.017 229.522 189.096 228.946 189.317C225.709 190.89 215.456 185.149 212.481 184.1C211.241 183.706 209.961 183.452 208.665 183.34C208.909 181.912 205.5 181.243 204.66 182.68C204.075 183.626 203.204 184.36 202.173 184.778C201.893 184.914 201.558 184.977 201.269 185.122C201.156 185.186 201.047 185.259 200.943 185.339C198.122 183.268 195.518 180.998 193.014 178.901C186.485 173.475 180.572 167.634 173.646 162.462C167.488 157.851 147.343 137.362 136.393 145.4C135.751 145.176 135.082 145.042 134.404 145.002C134.137 144.757 133.809 144.587 133.454 144.511C133.1 144.435 132.732 144.454 132.387 144.568C123.689 147.281 114.773 150.581 107.07 154.759C102.983 153.42 98.7783 152.127 94.5557 151.033C88.3167 149.442 81.3454 149.126 76.725 152.733C69.4914 151.368 59.6085 155.925 53.8759 158.158C47.7184 160.527 41.9134 163.358 36 166.043V179.859L38.1249 179.28Z" fill="#181A33"/>
</g>
<rect width="510" height="242" fill="url(#paint0_linear_4202_39411)"/>
<path d="M121.702 181.677C117.714 183.624 112.785 184.524 113.335 183.032C114.779 179.505 114.214 176.14 109.918 176.004C104.398 175.826 99.1926 182.284 94.5931 182.441C91.4634 182.53 95.955 177.851 91.6844 177.992C85.2503 178.207 79.5973 183.995 76 185.953H110.154L127 186C127 186 125.767 179.688 121.702 181.677Z" fill="#CCD6FF" fill-opacity="0.3"/>
<g filter="url(#filter2_bi_4202_39411)">
<path d="M198.845 182.489C189.696 186.773 178.39 188.753 179.651 185.471C182.964 177.711 181.667 170.307 171.811 170.008C159.149 169.616 147.206 183.825 136.655 184.17C129.475 184.366 139.779 174.072 129.982 174.383C115.221 174.855 102.253 187.59 94 191.896H172.354L211 192C211 192 208.17 178.114 198.845 182.489Z" fill="#CCD6FF" fill-opacity="0.5"/>
</g>
<path d="M291.358 111.047C291.356 111.589 291.231 112.123 290.991 112.609L278.141 138.168L276.129 142.179L210.327 273.192L208.043 277.795L206.623 280.611C206.422 281.016 206.143 281.377 205.801 281.673C205.46 281.969 205.063 282.194 204.633 282.335C204.204 282.476 203.75 282.53 203.3 282.494C202.849 282.458 202.41 282.333 202.009 282.126C201.193 281.708 200.575 280.985 200.292 280.113C200.008 279.242 200.08 278.293 200.494 277.475L201.05 276.375L203.097 272.293L272.425 134.346L276.957 125.306L278.2 122.845L281.75 115.875L284.956 109.474C285.16 109.069 285.441 108.709 285.783 108.414C286.126 108.118 286.524 107.893 286.953 107.751C287.383 107.61 287.836 107.554 288.288 107.588C288.739 107.621 289.179 107.743 289.583 107.947C290.131 108.255 290.586 108.706 290.899 109.252C291.211 109.798 291.37 110.418 291.358 111.047Z" fill="url(#paint1_linear_4202_39411)"/>
<path d="M347.778 282.066C347.375 282.274 346.936 282.399 346.484 282.435C346.033 282.471 345.579 282.417 345.148 282.276C344.718 282.135 344.32 281.91 343.977 281.614C343.634 281.318 343.354 280.957 343.152 280.552L341.968 278.28L340.051 274.458L273.61 142.203L272.427 139.623L271.918 138.617L265.304 125.447L258.796 112.609C258.556 112.123 258.43 111.589 258.429 111.047C258.427 110.407 258.602 109.779 258.934 109.232C259.265 108.685 259.742 108.24 260.31 107.947C260.713 107.742 261.152 107.618 261.603 107.584C262.054 107.55 262.507 107.605 262.936 107.747C263.365 107.889 263.762 108.115 264.103 108.411C264.445 108.707 264.724 109.068 264.925 109.473L267.209 114.017L272.427 124.276L273.61 126.642L278.225 135.813L346.962 272.659L349.092 276.895L349.376 277.463C349.765 278.287 349.816 279.23 349.517 280.091C349.218 280.952 348.594 281.661 347.778 282.066Z" fill="url(#paint2_linear_4202_39411)"/>
<path d="M276.131 142.202L271.86 138.617L265.245 125.447L276.131 142.202Z" fill="#0D0E1D"/>
<g style="mix-blend-mode:multiply">
<path d="M349.008 276.846L342.015 278.277L340.098 274.455L346.878 272.609L349.008 276.846Z" fill="#784438"/>
</g>
<path d="M274.131 132.522L272.368 127.801L267.209 114.016L272.368 124.275V115.033L273.528 126.594L274.131 132.522Z" fill="#0D0E1D"/>
<path d="M281.645 115.875L278.142 125.199L276.249 130.24L276.9 125.306L278.142 115.981V122.845L281.645 115.875Z" fill="#0D0E1D"/>
<path d="M278.141 102.28V142.204H272.426V102.28C272.424 101.899 272.498 101.522 272.642 101.17C272.786 100.817 272.998 100.497 273.267 100.227C273.535 99.9563 273.853 99.7415 274.204 99.5944C274.556 99.4472 274.932 99.3707 275.313 99.3692C275.692 99.3675 276.068 99.4421 276.417 99.5885C276.767 99.7348 277.083 99.95 277.348 100.221C277.872 100.777 278.157 101.516 278.141 102.28Z" fill="#181A33"/>
<path d="M296.209 264.316C288.788 263 281.263 262.354 273.727 262.387C267.83 262.389 261.94 262.784 256.096 263.57C257.646 259.263 259.113 254.956 260.509 250.613C263.878 240.106 266.8 229.484 269.277 218.748C270.319 214.251 271.285 209.735 272.176 205.199C273.36 199.22 274.413 193.209 275.336 187.166C276.614 193.295 277.955 199.358 279.359 205.353C280.44 209.944 281.56 214.488 282.719 218.984C285.457 229.61 288.419 240.007 291.606 250.176C293.073 254.925 294.607 259.638 296.209 264.316Z" fill="#181A33"/>
<path d="M349.635 274.932C342.583 276.352 335.574 277.586 328.608 278.635C325.09 279.156 321.595 279.637 318.124 280.079C314.575 280.517 311.025 280.907 307.475 281.262C306.024 281.397 304.57 281.049 303.338 280.272C302.105 279.495 301.164 278.333 300.659 276.967C299.145 272.896 297.677 268.783 296.257 264.625L296.151 264.318C294.573 259.64 293.019 254.907 291.489 250.118C290.053 245.567 288.669 240.964 287.335 236.309C286.744 234.286 286.152 232.239 285.608 230.192C284.574 226.469 283.573 222.714 282.602 218.927C281.443 214.431 280.323 209.887 279.242 205.296L277.999 199.912C277.491 197.652 276.982 195.38 276.497 193.096C276.331 192.363 276.177 191.629 276.023 190.895C275.751 189.629 275.491 188.375 275.219 187.109C275.224 187.172 275.224 187.235 275.219 187.298C275.219 187.298 275.219 187.393 275.219 187.428C275.219 187.464 275.219 187.641 275.219 187.771C275.136 188.245 275.065 188.73 274.994 189.215L274.781 190.505C273.992 195.404 273.116 200.283 272.154 205.142C271.27 209.67 270.304 214.186 269.255 218.69C268.797 220.702 268.316 222.714 267.811 224.725C266.782 228.89 265.681 233.008 264.51 237.185C263.256 241.674 261.915 246.131 260.487 250.556C259.059 254.982 257.588 259.301 256.073 263.513C255.884 264.046 255.695 264.578 255.493 265.122C253.916 269.343 252.287 273.555 250.606 277.76C250.083 279.065 249.154 280.168 247.957 280.907C246.76 281.646 245.358 281.982 243.956 281.866C239.073 281.456 234.222 280.927 229.402 280.28C219.723 279.002 210.178 277.255 200.767 275.038C200.262 274.918 199.791 274.684 199.391 274.354C198.99 274.023 198.671 273.605 198.457 273.132C198.244 272.659 198.141 272.143 198.158 271.625C198.175 271.106 198.31 270.598 198.554 270.139L206.163 255.597L213.262 242.202L229.236 211.804L235.744 199.45L247.956 176.223L251.423 169.644L255.079 162.674L257.955 157.195L258.83 155.551L260.901 151.599L274.106 126.336C274.22 126.12 274.39 125.939 274.599 125.814C274.807 125.688 275.046 125.621 275.29 125.621C275.533 125.621 275.772 125.688 275.981 125.814C276.189 125.939 276.36 126.12 276.473 126.336L276.556 126.513L290.223 152.545L292.341 156.568L293.027 157.858L295.938 163.42L299.949 171.04L303.499 177.725L314.586 198.811L315.852 201.178L317.971 205.201L322.408 213.662L328.395 225.033L336.797 241.019L343.813 254.378L352.013 269.974C352.269 270.446 352.409 270.971 352.422 271.508C352.435 272.044 352.321 272.576 352.089 273.059C351.857 273.543 351.514 273.965 351.087 274.29C350.661 274.616 350.163 274.836 349.635 274.932Z" fill="#939FD4" fill-opacity="0.6"/>
<g filter="url(#filter3_bi_4202_39411)">
<path d="M254.324 237.822L267.778 224.735C266.749 228.9 265.648 233.018 264.477 237.195L253.2 247.584L251.544 229.716L235.605 243.715V227.504L218.944 237.822L239.853 217.186L237.96 236.059L253.733 220.428L254.324 237.822Z" fill="#CCD6FF" fill-opacity="0.8"/>
</g>
<g filter="url(#filter4_bi_4202_39411)">
<path d="M333.258 238.746L320.834 227.102L319.379 242.236L308.552 226.854L305.002 246.011L290.175 229.717L287.395 236.379C286.803 234.356 286.211 232.308 285.667 230.261L289.844 221.978L303.333 238.781L307.096 220.062L317.663 235.539C317.663 235.539 316.823 218.003 317.663 218.287C318.503 218.571 333.034 238.391 333.258 238.746Z" fill="#CCD6FF" fill-opacity="0.8"/>
</g>
<g filter="url(#filter5_bii_4202_39411)">
<path d="M255.457 265.123C253.88 269.359 252.251 273.575 250.57 277.772C250.046 279.078 249.118 280.181 247.921 280.92C246.724 281.659 245.322 281.995 243.92 281.878C229.376 280.666 214.94 278.384 200.731 275.051C200.226 274.931 199.755 274.696 199.355 274.366C198.954 274.036 198.635 273.618 198.421 273.145C198.208 272.672 198.105 272.156 198.122 271.637C198.139 271.118 198.274 270.61 198.518 270.152L206.162 255.609C222.186 260.613 238.722 263.804 255.457 265.123Z" fill="url(#paint3_linear_4202_39411)" fill-opacity="0.4"/>
</g>
<g filter="url(#filter6_bii_4202_39411)">
<path d="M349.634 274.93C335.435 277.778 321.401 279.888 307.533 281.261C306.082 281.395 304.628 281.047 303.396 280.27C302.163 279.494 301.222 278.332 300.717 276.965C299.203 272.895 297.735 268.781 296.315 264.624C312.454 262.944 328.364 259.52 343.765 254.412L351.965 270.008C352.213 270.475 352.349 270.994 352.361 271.523C352.373 272.051 352.261 272.576 352.035 273.054C351.809 273.532 351.474 273.951 351.057 274.276C350.64 274.602 350.153 274.826 349.634 274.93Z" fill="url(#paint4_linear_4202_39411)" fill-opacity="0.4"/>
</g>
<g filter="url(#filter7_bii_4202_39411)">
<path d="M272.117 205.153C271.233 209.681 270.267 214.197 269.218 218.701C255.656 217.93 242.226 215.616 229.188 211.803L235.743 199.449C247.616 202.705 259.817 204.618 272.117 205.153Z" fill="#D3DCFF" fill-opacity="0.4"/>
</g>
<g filter="url(#filter8_bii_4202_39411)">
<path d="M322.361 213.696C309.367 216.929 296.05 218.687 282.662 218.938C281.503 214.442 280.382 209.898 279.302 205.307C291.584 205.303 303.828 203.93 315.806 201.213L322.361 213.696Z" fill="#D3DCFF" fill-opacity="0.4"/>
</g>
<g filter="url(#filter9_bii_4202_39411)">
<path d="M260.452 250.579C258.874 255.454 257.21 260.305 255.458 265.133C238.728 263.829 222.197 260.654 206.175 255.667L213.263 242.201C228.62 246.789 244.453 249.6 260.452 250.579Z" fill="#D3DCFF" fill-opacity="0.4"/>
</g>
<g filter="url(#filter10_bii_4202_39411)">
<path d="M343.765 254.412C328.363 259.52 312.454 262.944 296.315 264.624C294.674 259.843 293.097 255.011 291.582 250.128C306.938 248.782 322.098 245.739 336.783 241.053L343.765 254.412Z" fill="#D3DCFF" fill-opacity="0.4"/>
</g>
<g filter="url(#filter11_bii_4202_39411)">
<path d="M303.451 177.724C285.058 181.43 266.063 180.916 247.896 176.222L251.363 169.643C267.278 173.504 283.827 173.98 299.937 171.039L303.451 177.724Z" fill="#D3DCFF" fill-opacity="0.4"/>
</g>
<g filter="url(#filter12_bi_4202_39411)">
<path d="M258.429 165.453L273.03 137.16L276.249 153.525L277.42 136.131L294.235 167.523L280.639 151.017L276.332 170.47L272.119 147.206L258.429 165.453Z" fill="#CCD6FF" fill-opacity="0.8"/>
</g>
<g filter="url(#filter13_bi_4202_39411)">
<path d="M311.973 198.042L304.093 190.836L302.105 202.586L287.408 189.227L284.545 203.426L276.084 190.86C275.812 189.594 275.552 188.34 275.28 187.073C275.285 187.137 275.285 187.2 275.28 187.263C275.28 187.263 275.28 187.357 275.28 187.393C275.28 187.428 275.28 187.606 275.28 187.736C275.197 188.209 275.126 188.695 275.055 189.18V189.121L264.701 200.527L261.364 189.771L249.65 200.267L250.277 188.706L240.479 196.694L253.614 180.258C253.614 180.258 250.715 195.238 251.247 195.404C251.78 195.569 262.725 182.66 262.725 182.66L264.417 195.676L274.227 181.95L282.912 196.552L285.503 180.814L300.117 198.788L300.401 181.808L311.973 198.042Z" fill="#CCD6FF" fill-opacity="0.8"/>
</g>
<path d="M360.581 284.706C361.22 284.6 361.906 285.44 362.108 286.6C362.309 287.759 361.954 288.777 361.315 288.883C359.504 288.966 344.903 293.463 343.187 293.995L342.536 288.599C348.662 287.883 354.705 286.58 360.581 284.706Z" fill="#181A33"/>
<path d="M343.979 291.712C344.18 292.895 343.825 293.889 343.186 293.996C342.547 294.102 341.944 293.25 341.66 292.114C341.092 289.748 341.896 288.718 342.535 288.564C343.174 288.411 343.778 290.552 343.979 291.712Z" fill="#181A33"/>
<path d="M357.539 284.706C356.9 284.6 356.214 285.44 356.012 286.6C355.811 287.759 356.166 288.777 356.805 288.883C358.616 288.966 373.217 293.463 374.933 293.995L375.667 289.818C373.856 289.735 359.255 285.251 357.539 284.706Z" fill="#181A33"/>
<path d="M374.189 291.709C373.988 292.892 374.343 293.886 374.982 293.993C375.621 294.099 376.307 293.259 376.508 292.111C376.71 290.963 376.355 289.934 375.716 289.816C375.077 289.697 374.343 290.549 374.189 291.709Z" fill="#181A33"/>
<path d="M356.532 285.011C357.905 284.491 361.987 285.284 362.638 286.999C363.289 288.715 361.621 289.745 360.272 290.265C356.343 291.378 356.722 292.892 353.598 294.028L351.338 287.757C353.846 286.514 355.373 286.076 356.532 285.011Z" fill="#181A33"/>
<path d="M354.913 289.249C355.54 290.977 354.913 293.532 353.575 293.982C352.807 294.075 352.03 293.905 351.371 293.498C350.712 293.092 350.21 292.475 349.948 291.747C349.685 291.018 349.678 290.223 349.926 289.49C350.175 288.756 350.664 288.129 351.315 287.711C351.649 287.549 352.014 287.461 352.385 287.452C352.755 287.443 353.124 287.514 353.465 287.66C353.806 287.806 354.111 288.023 354.361 288.297C354.611 288.571 354.799 288.896 354.913 289.249Z" fill="#181A33"/>
<path d="M352.557 291.89C352.213 291.89 351.906 291.523 351.859 291.026C351.828 290.798 351.869 290.567 351.977 290.363C352.014 290.271 352.076 290.191 352.155 290.13C352.234 290.07 352.328 290.032 352.426 290.02C352.522 290.015 352.618 290.035 352.705 290.076C352.792 290.117 352.867 290.179 352.923 290.257C353.065 290.437 353.152 290.655 353.172 290.884C353.172 291.405 352.983 291.854 352.616 291.89H352.557ZM352.474 290.245C352.414 290.255 352.359 290.28 352.311 290.318C352.264 290.355 352.226 290.403 352.202 290.458C352.125 290.628 352.096 290.817 352.119 291.002C352.119 291.381 352.391 291.689 352.628 291.665C352.864 291.641 353.018 291.298 352.983 290.908C352.969 290.724 352.903 290.547 352.793 290.399C352.757 290.349 352.708 290.309 352.653 290.282C352.597 290.255 352.536 290.243 352.474 290.245Z" fill="#181A33"/>
<path d="M352.712 292.584C352.12 292.584 351.588 291.921 351.528 291.069C351.469 290.217 351.86 289.377 352.475 289.318C353.09 289.259 353.658 289.933 353.765 290.833C353.82 291.238 353.75 291.651 353.564 292.016C353.498 292.167 353.395 292.3 353.265 292.401C353.135 292.503 352.981 292.57 352.818 292.596L352.712 292.584ZM352.534 289.531C352.049 289.531 351.706 290.253 351.789 291.034C351.872 291.815 352.345 292.395 352.83 292.347C352.956 292.324 353.073 292.269 353.172 292.188C353.272 292.108 353.349 292.004 353.398 291.886C353.557 291.563 353.618 291.201 353.575 290.844C353.445 290.111 353.007 289.531 352.534 289.531Z" fill="#181A33"/>
<path d="M352.463 293.356C352.216 293.352 351.971 293.298 351.746 293.196C351.52 293.094 351.317 292.947 351.15 292.765C350.714 292.321 350.446 291.74 350.392 291.12C350.327 290.504 350.469 289.884 350.795 289.357C350.941 289.121 351.138 288.922 351.371 288.772C351.605 288.623 351.869 288.527 352.144 288.493C352.418 288.469 352.695 288.509 352.951 288.61C353.208 288.71 353.438 288.869 353.623 289.073C354.059 289.516 354.327 290.098 354.38 290.718C354.445 291.334 354.304 291.954 353.978 292.481C353.834 292.718 353.637 292.919 353.403 293.069C353.17 293.219 352.905 293.313 352.629 293.345L352.463 293.356ZM352.309 288.706H352.167C351.926 288.736 351.695 288.82 351.49 288.951C351.285 289.082 351.113 289.257 350.984 289.463C350.689 289.95 350.561 290.519 350.618 291.085C350.676 291.651 350.917 292.182 351.304 292.599C351.468 292.777 351.67 292.915 351.896 293.003C352.121 293.092 352.364 293.127 352.605 293.108C352.846 293.078 353.078 292.994 353.282 292.863C353.487 292.732 353.66 292.557 353.788 292.351C354.091 291.868 354.221 291.296 354.155 290.729C354.106 290.161 353.864 289.627 353.469 289.215C353.164 288.899 352.748 288.717 352.309 288.706Z" fill="#181A33"/>
<path d="M359.138 286.644C358.425 286.471 357.672 286.583 357.04 286.956C356.408 287.33 355.946 287.935 355.754 288.644C355.151 290.23 356.535 291.377 357.801 291.863C361.434 292.88 361.635 294.229 363.173 293.993V287.839C362.357 287.449 360.215 287.579 359.138 286.644Z" fill="#181A33"/>
<path d="M363.172 293.993C364.525 293.993 365.621 292.615 365.621 290.916C365.621 289.217 364.525 287.84 363.172 287.84C361.819 287.84 360.723 289.217 360.723 290.916C360.723 292.615 361.819 293.993 363.172 293.993Z" fill="#181A33"/>
<path d="M363.198 291.852C362.819 291.852 362.559 291.414 362.583 290.882C362.589 290.658 362.659 290.44 362.784 290.255C362.837 290.171 362.911 290.103 362.997 290.055C363.084 290.008 363.182 289.983 363.281 289.982C363.647 289.982 363.92 290.42 363.896 290.953C363.872 291.485 363.541 291.852 363.198 291.852ZM363.198 290.207C363.14 290.211 363.083 290.229 363.034 290.26C362.984 290.291 362.943 290.334 362.914 290.385C362.801 290.53 362.743 290.71 362.748 290.894C362.748 291.284 362.914 291.615 363.139 291.627C363.375 291.627 363.577 291.32 363.6 290.941C363.624 290.562 363.435 290.219 363.198 290.207Z" fill="#181A33"/>
<path d="M362.996 292.595C362.829 292.577 362.669 292.517 362.531 292.422C362.393 292.327 362.28 292.2 362.203 292.051C362.005 291.689 361.914 291.279 361.943 290.867C361.943 289.968 362.546 289.258 363.126 289.282C363.528 289.343 363.894 289.549 364.153 289.862C364.413 290.175 364.548 290.573 364.534 290.979C364.519 291.386 364.356 291.773 364.074 292.066C363.793 292.36 363.413 292.54 363.008 292.571L362.996 292.595ZM363.079 289.53C362.593 289.53 362.167 290.134 362.132 290.903C362.112 291.262 362.194 291.619 362.369 291.932C362.422 292.05 362.504 292.151 362.608 292.228C362.711 292.305 362.832 292.354 362.96 292.37C363.295 292.318 363.602 292.154 363.832 291.904C364.062 291.655 364.201 291.336 364.226 290.998C364.235 290.652 364.121 290.315 363.904 290.047C363.688 289.778 363.382 289.595 363.043 289.53H363.079Z" fill="#181A33"/>
<path d="M363.42 293.177H363.337C362.756 293.087 362.234 292.772 361.882 292.301C361.53 291.83 361.377 291.24 361.456 290.657C361.474 290.033 361.708 289.435 362.118 288.965C362.294 288.751 362.517 288.581 362.769 288.468C363.022 288.355 363.297 288.302 363.574 288.314C363.84 288.33 364.1 288.41 364.328 288.548C364.557 288.686 364.749 288.878 364.887 289.107C365.21 289.623 365.359 290.228 365.313 290.834C365.299 291.447 365.092 292.039 364.721 292.527C364.568 292.726 364.371 292.889 364.145 293.001C363.92 293.114 363.672 293.174 363.42 293.177ZM363.491 288.527C363.264 288.534 363.041 288.589 362.837 288.689C362.633 288.789 362.452 288.932 362.307 289.107C361.928 289.53 361.714 290.077 361.704 290.645C361.656 290.91 361.662 291.182 361.72 291.445C361.779 291.708 361.889 291.957 362.044 292.177C362.199 292.397 362.396 292.584 362.624 292.727C362.853 292.871 363.107 292.967 363.372 293.012C363.602 293.016 363.828 292.965 364.034 292.865C364.24 292.764 364.419 292.615 364.556 292.432C364.889 291.978 365.075 291.433 365.088 290.87C365.127 290.31 364.991 289.751 364.698 289.273C364.575 289.067 364.402 288.896 364.195 288.776C363.988 288.656 363.754 288.591 363.514 288.586L363.491 288.527Z" fill="#181A33"/>
<path d="M375.219 292.893H375.136C374.84 292.81 374.722 292.372 374.84 291.899C374.959 291.425 375.302 291.094 375.586 291.177C375.87 291.26 376 291.686 375.87 292.171C375.763 292.585 375.479 292.893 375.219 292.893ZM375.503 291.342C375.349 291.342 375.136 291.567 375.03 291.934C374.923 292.301 375.03 292.644 375.183 292.691C375.337 292.739 375.586 292.502 375.68 292.112C375.787 291.709 375.68 291.39 375.538 291.354L375.503 291.342Z" fill="#181A33"/>
<path d="M375.183 293.582H375.041C374.905 293.534 374.785 293.451 374.694 293.34C374.602 293.23 374.542 293.096 374.52 292.955C374.455 292.586 374.47 292.208 374.566 291.846C374.663 291.484 374.837 291.148 375.076 290.86C375.157 290.738 375.274 290.645 375.411 290.594C375.548 290.542 375.697 290.535 375.839 290.573C375.98 290.611 376.105 290.692 376.198 290.805C376.29 290.918 376.345 291.057 376.354 291.203C376.443 291.569 376.443 291.95 376.354 292.316C376.266 292.678 376.087 293.012 375.834 293.286C375.754 293.381 375.654 293.456 375.542 293.508C375.429 293.559 375.306 293.584 375.183 293.582ZM375.692 290.73C375.507 290.748 375.338 290.837 375.218 290.978C374.995 291.233 374.837 291.537 374.757 291.866C374.676 292.2 374.676 292.549 374.757 292.884C374.771 292.991 374.813 293.093 374.88 293.178C374.946 293.263 375.035 293.329 375.135 293.369C375.243 293.383 375.351 293.368 375.451 293.326C375.551 293.285 375.638 293.218 375.703 293.132C375.929 292.875 376.087 292.566 376.165 292.233C376.253 291.903 376.253 291.556 376.165 291.227C376.156 291.12 376.117 291.017 376.052 290.931C375.987 290.845 375.899 290.78 375.798 290.742L375.692 290.73Z" fill="#181A33"/>
<path d="M342.712 292.619C342.405 292.619 342.109 292.217 342.002 291.625C341.948 291.372 341.948 291.11 342.002 290.856C342.015 290.757 342.056 290.664 342.122 290.588C342.187 290.512 342.273 290.457 342.369 290.43C342.469 290.426 342.567 290.451 342.653 290.501C342.739 290.551 342.809 290.625 342.854 290.714C343 290.927 343.097 291.169 343.138 291.424C343.193 291.678 343.193 291.94 343.138 292.193C343.126 292.292 343.084 292.386 343.019 292.461C342.954 292.537 342.868 292.592 342.772 292.619H342.712ZM342.452 290.655C342.381 290.655 342.31 290.773 342.263 290.927C342.221 291.146 342.221 291.371 342.263 291.59C342.357 292.087 342.606 292.43 342.772 292.394C342.937 292.359 342.914 292.288 342.961 292.134C343.003 291.911 343.003 291.682 342.961 291.46C342.923 291.241 342.842 291.032 342.724 290.844C342.696 290.794 342.657 290.751 342.61 290.718C342.563 290.685 342.509 290.664 342.452 290.655Z" fill="#181A33"/>
<path d="M342.913 293.461C342.404 293.461 341.883 292.716 341.73 291.698C341.633 291.246 341.633 290.778 341.73 290.325C341.848 289.899 342.061 289.651 342.333 289.604C342.605 289.556 342.901 289.722 343.15 290.065C343.403 290.456 343.573 290.895 343.647 291.355C343.836 292.432 343.552 293.355 343.008 293.449L342.913 293.461ZM342.428 289.817C342.25 289.817 342.096 290.041 342.014 290.373C341.923 290.794 341.923 291.23 342.014 291.651C342.203 292.668 342.7 293.272 343.067 293.213C343.434 293.153 343.694 292.396 343.516 291.379C343.449 290.956 343.292 290.552 343.055 290.195C342.783 289.959 342.593 289.817 342.428 289.817Z" fill="#181A33"/>
<g filter="url(#filter14_i_4202_39411)">
<path d="M339.27 238.914C339.27 238.914 336.359 242.05 336.49 244.688C336.62 247.327 341.317 248.309 339.27 252.025C339.27 252.025 342.702 248.688 341.128 245.469C340.099 243.363 337.649 242.677 339.27 238.914Z" fill="#CCD6FF" fill-opacity="0.15"/>
</g>
<g filter="url(#filter15_i_4202_39411)">
<path d="M379.502 249.682C379.502 249.682 374.331 246.7 375.952 242.689C377.136 239.944 380.685 238.914 380.685 238.914C379.327 240.326 378.474 242.149 378.26 244.097C378.046 246.044 378.483 248.008 379.502 249.682Z" fill="#CCD6FF" fill-opacity="0.15"/>
</g>
<g filter="url(#filter16_i_4202_39411)">
<path d="M363.848 236.759C363.848 236.759 366.782 233.955 364.297 231.932C364.297 231.932 370.107 234.417 363.848 236.759Z" fill="#CCD6FF" fill-opacity="0.15"/>
</g>
<path d="M357.526 287.368C347.805 287.368 337.838 283.667 336.583 274.204C335.329 264.742 343.183 263.467 342.392 258.424C342.392 258.424 345.446 262.234 344.219 265.202C344.219 265.202 359.885 260.539 359.64 245.586C359.64 245.586 365.857 253.408 364.93 260.119C364.93 260.119 370.629 256.974 371.488 252.717C371.488 252.717 374.365 263.562 371.488 271.927C371.488 271.927 379.669 271.927 382.859 267.941C382.928 267.887 383.459 287.368 357.526 287.368Z" fill="#FF7F44"/>
<path d="M358.977 288.915C352.769 288.915 338.925 284.891 343.573 273.278C343.573 273.278 344.772 277.789 348.828 278.849C348.828 278.849 344.411 272.806 352.769 268.553C352.769 268.553 350.676 276.543 357.663 276.357C360.334 276.357 359.698 274.581 358.861 273.278C357.764 271.588 356.133 269.827 359.424 265.703C359.346 267.186 359.78 268.65 360.654 269.856C361.528 271.061 362.789 271.935 364.231 272.333C367.653 273.593 369.832 278.491 366.382 281.211C366.382 281.211 372.157 282.514 375.044 278.261C374.972 278.261 377.599 288.915 358.977 288.915Z" fill="#FF002D"/>
<g filter="url(#filter17_bii_4202_39411)">
<path d="M355.872 288.218C340.631 288.218 333.709 280.585 333.709 270.409C333.709 260.493 345.246 257.204 345.246 244.59C345.246 244.59 352.192 254.364 349.044 261.807C349.044 261.807 357.233 253.003 351.08 242.235C344.926 231.467 359.445 227.953 359.445 227.953C359.445 227.953 350.594 232.84 356.866 239.111C363.137 245.383 366.072 247.525 365.575 254.175C365.575 254.175 370.107 247.714 366.817 240.863C366.817 240.863 377.762 250.648 372.734 269.048C372.734 269.048 381.821 265.972 379.182 255.808C384.838 260.103 393.595 288.218 355.872 288.218Z" fill="#FF002D" fill-opacity="0.2"/>
</g>
<g filter="url(#filter18_i_4202_39411)">
<path d="M358.062 287.365C349.625 287.365 340.975 284.135 339.887 275.876C338.798 267.616 345.614 266.504 344.927 262.102C344.927 262.102 347.578 265.427 346.513 268.019C346.513 268.019 360.109 263.948 359.896 250.896C359.896 250.896 365.292 257.724 364.487 263.581C364.487 263.581 369.433 260.836 370.179 257.121C370.179 257.121 372.675 266.587 370.179 273.888C370.179 273.888 377.278 273.888 380.047 270.409C380.106 270.361 380.568 287.365 358.062 287.365Z" fill="#CCD6FF" fill-opacity="0.15"/>
</g>
<g filter="url(#filter19_i_4202_39411)">
<path d="M358.63 286.656C353.542 286.656 342.194 283.331 346.004 273.734C346.004 273.734 346.986 277.461 350.311 278.337C350.311 278.337 346.69 273.344 353.542 269.829C353.542 269.829 351.826 276.432 357.553 276.278C359.742 276.278 359.221 274.811 358.535 273.734C357.636 272.338 356.299 270.882 358.997 267.475C358.933 268.7 359.288 269.91 360.004 270.906C360.721 271.902 361.755 272.624 362.937 272.953C365.741 273.994 367.528 278.041 364.7 280.29C364.7 280.29 369.433 281.366 371.8 277.852C371.74 277.852 373.894 286.656 358.63 286.656Z" fill="#CCD6FF" fill-opacity="0.15"/>
</g>
<g filter="url(#filter20_bii_4202_39411)">
<path d="M397.699 294.066C397.308 294.891 396.729 295.613 396.007 296.172C394.966 297.379 393.574 298.23 392.025 298.608C390.477 298.985 388.849 298.87 387.369 298.279L386.86 298.113C385.788 297.783 384.737 297.388 383.713 296.93C382.336 296.414 381.179 295.441 380.435 294.173C380.036 293.162 379.874 292.073 379.962 290.99C379.962 289.889 379.962 288.8 379.962 287.7C379.92 286.949 380.024 286.198 380.269 285.487C380.285 285.449 380.304 285.414 380.329 285.381C381.11 283.653 383.334 283.097 385.263 283.168C389.996 283.357 395.191 286.28 397.344 290.587C397.634 291.114 397.815 291.693 397.876 292.29C397.937 292.888 397.877 293.492 397.699 294.066Z" fill="url(#paint5_linear_4202_39411)" fill-opacity="0.6"/>
</g>
<path d="M387.653 294.125C387.709 295.499 387.437 296.865 386.86 298.113C385.788 297.783 384.737 297.388 383.713 296.93C382.336 296.414 381.179 295.441 380.435 294.173C380.036 293.162 379.874 292.073 379.962 290.99C379.962 289.889 379.962 288.801 379.962 287.7C379.92 286.95 380.024 286.198 380.269 285.487C380.285 285.45 380.304 285.414 380.329 285.381C383.63 286.327 386.801 288.304 387.523 291.64C387.657 292.461 387.7 293.295 387.653 294.125Z" fill="#181A33"/>
<g filter="url(#filter21_bii_4202_39411)">
<path d="M330.264 296.916C330.143 297.066 330.013 297.208 329.874 297.342C326.265 300.892 322.774 302.868 318.503 297.342C316.136 294.313 317.39 289.378 321.283 286.337C325.176 283.296 329.211 281.888 331.578 284.929C332.096 285.592 332.475 286.352 332.69 287.166C333.11 288.866 333.108 290.642 332.686 292.341C332.263 294.041 331.432 295.611 330.264 296.916Z" fill="url(#paint6_linear_4202_39411)" fill-opacity="0.6"/>
</g>
<g filter="url(#filter22_bii_4202_39411)">
<path d="M355.02 291.496C354.717 293.648 353.865 295.685 352.546 297.412C352.494 297.485 352.434 297.552 352.369 297.613C351.706 298.425 350.867 299.074 349.916 299.513C348.965 299.952 347.926 300.168 346.879 300.146C346.339 300.104 345.813 299.96 345.328 299.72C344.873 299.511 344.496 299.163 344.252 298.726C344.06 298.312 343.944 297.867 343.909 297.412C343.698 295.052 344.401 292.702 345.873 290.845C346.075 290.58 346.296 290.331 346.535 290.1C347.825 288.798 351.742 286.55 353.824 287.567C354.126 287.722 354.389 287.943 354.594 288.213C354.799 288.484 354.94 288.797 355.008 289.129C355.19 289.907 355.194 290.716 355.02 291.496Z" fill="url(#paint7_linear_4202_39411)" fill-opacity="0.6"/>
</g>
<g filter="url(#filter23_bii_4202_39411)">
<path d="M385.573 294.124C385.502 295.887 385.371 297.852 384.058 299.035C382.841 299.907 381.365 300.345 379.869 300.277C377.873 300.538 375.846 300.422 373.894 299.934C372.908 299.593 371.969 299.128 371.101 298.55L370.604 298.242C369.638 297.653 368.827 296.842 368.238 295.875C367.682 294.666 367.45 293.333 367.563 292.006C367.567 290.558 367.848 289.124 368.391 287.782C368.828 286.637 369.67 285.694 370.758 285.131C371.773 284.715 372.872 284.549 373.965 284.646C378.236 284.824 384.425 286.812 385.442 291.627C385.589 292.451 385.632 293.29 385.573 294.124Z" fill="url(#paint8_linear_4202_39411)" fill-opacity="0.6"/>
</g>
<path d="M355.042 289.179C355.22 289.958 355.22 290.767 355.042 291.546C354.739 293.697 353.887 295.735 352.569 297.462C352.516 297.534 352.456 297.602 352.391 297.663C352.284 297.523 352.186 297.377 352.095 297.225C351.686 296.355 351.519 295.39 351.61 294.433C351.56 291.973 352.349 289.569 353.847 287.617C354.151 287.771 354.416 287.991 354.623 288.261C354.83 288.532 354.973 288.846 355.042 289.179Z" fill="#181A33"/>
<path d="M372.166 292.974C371.956 294.81 371.427 296.596 370.604 298.251C369.638 297.662 368.827 296.851 368.238 295.885C367.682 294.675 367.45 293.342 367.563 292.015C367.567 290.567 367.848 289.133 368.391 287.791C370.498 288.951 372.509 290.808 372.166 292.974Z" fill="#181A33"/>
<g filter="url(#filter24_bii_4202_39411)">
<path d="M355.527 287.937C354.696 288.777 354.046 289.778 353.618 290.879C353.191 291.981 352.995 293.158 353.042 294.339C352.971 295.15 353.114 295.966 353.457 296.705C353.721 297.162 354.07 297.564 354.486 297.889C356.901 299.934 359.927 301.12 363.088 301.261C363.884 301.312 364.683 301.236 365.455 301.036C367.066 300.506 368.41 299.374 369.206 297.877C369.984 296.404 370.481 294.799 370.673 293.144C371.076 290.41 367.372 288.411 365.1 287.559C362.13 286.399 358.213 285.654 355.527 287.937Z" fill="url(#paint9_linear_4202_39411)" fill-opacity="0.6"/>
</g>
<path d="M332.691 287.189C333.107 288.886 333.103 290.658 332.68 292.353C332.258 294.047 331.429 295.614 330.265 296.916C329.867 296.644 329.552 296.267 329.354 295.827C329.177 295.323 329.104 294.787 329.141 294.254C329.141 292.349 329.141 290.29 330.407 288.822C331.062 288.143 331.836 287.59 332.691 287.189Z" fill="#181A33"/>
<path d="M345.328 299.767C344.873 299.558 344.496 299.21 344.252 298.773C344.06 298.359 343.944 297.914 343.909 297.46C343.698 295.1 344.401 292.749 345.873 290.893C345.931 291.024 345.983 291.158 346.027 291.295C346.358 292.079 346.619 292.891 346.808 293.721C347.028 294.775 347.009 295.865 346.753 296.912C346.497 297.958 346.011 298.934 345.328 299.767Z" fill="#181A33"/>
<g filter="url(#filter25_bii_4202_39411)">
<path d="M337.791 285.094C336.608 285.756 335.661 286.656 334.525 287.33C333.405 287.825 332.374 288.5 331.472 289.33C330.574 290.713 330.185 292.365 330.372 294.004C330.344 294.462 330.408 294.92 330.561 295.353C330.871 295.933 331.344 296.41 331.922 296.725C333.537 297.806 335.216 298.786 336.951 299.66C337.675 300.065 338.452 300.367 339.258 300.559C340.18 300.719 341.127 300.639 342.008 300.326C342.889 300.013 343.674 299.478 344.287 298.772C344.885 298.056 345.313 297.213 345.539 296.307C345.764 295.401 345.781 294.456 345.589 293.542C345.425 292.83 345.199 292.133 344.915 291.46C344.264 289.768 343.613 288.087 342.95 286.407C341.992 283.922 340.028 283.804 337.791 285.094Z" fill="url(#paint10_linear_4202_39411)" fill-opacity="0.6"/>
</g>
<g filter="url(#filter26_i_4202_39411)">
<path d="M342.685 99.0062C354.258 98.6867 365.167 110.839 374.847 111.04C381.426 111.206 371.983 102.461 380.952 102.757C386.097 102.751 391.088 104.509 395.093 107.739C398.311 110.448 404.346 112.034 410.688 112.129C428.437 112.425 433.798 117.631 433.798 117.631H338.91C332.45 109.537 331.101 99.3375 342.685 99.0062Z" fill="#CCD6FF" fill-opacity="0.5"/>
</g>
<defs>
<filter id="filter0_f_4202_39411" x="210.001" y="73" width="178.921" height="178.922" filterUnits="userSpaceOnUse" color-interpolation-filters="sRGB">
<feFlood flood-opacity="0" result="BackgroundImageFix"/>
<feBlend mode="normal" in="SourceGraphic" in2="BackgroundImageFix" result="shape"/>
<feGaussianBlur stdDeviation="25" result="effect1_foregroundBlur_4202_39411"/>
</filter>
<filter id="filter1_f_4202_39411" x="262.001" y="125" width="76.4238" height="76.4238" filterUnits="userSpaceOnUse" color-interpolation-filters="sRGB">
<feFlood flood-opacity="0" result="BackgroundImageFix"/>
<feBlend mode="normal" in="SourceGraphic" in2="BackgroundImageFix" result="shape"/>
<feGaussianBlur stdDeviation="7.5" result="effect1_foregroundBlur_4202_39411"/>
</filter>
<filter id="filter2_bi_4202_39411" x="91" y="167" width="123" height="28" filterUnits="userSpaceOnUse" color-interpolation-filters="sRGB">
<feFlood flood-opacity="0" result="BackgroundImageFix"/>
<feGaussianBlur in="BackgroundImage" stdDeviation="1.5"/>
<feComposite in2="SourceAlpha" operator="in" result="effect1_backgroundBlur_4202_39411"/>
<feBlend mode="normal" in="SourceGraphic" in2="effect1_backgroundBlur_4202_39411" result="shape"/>
<feColorMatrix in="SourceAlpha" type="matrix" values="0 0 0 0 0 0 0 0 0 0 0 0 0 0 0 0 0 0 127 0" result="hardAlpha"/>
<feOffset dy="0.5"/>
<feGaussianBlur stdDeviation="0.25"/>
<feComposite in2="hardAlpha" operator="arithmetic" k2="-1" k3="1"/>
<feColorMatrix type="matrix" values="0 0 0 0 1 0 0 0 0 1 0 0 0 0 1 0 0 0 0.3 0"/>
<feBlend mode="normal" in2="shape" result="effect2_innerShadow_4202_39411"/>
</filter>
<filter id="filter3_bi_4202_39411" x="148.944" y="147.186" width="188.834" height="170.398" filterUnits="userSpaceOnUse" color-interpolation-filters="sRGB">
<feFlood flood-opacity="0" result="BackgroundImageFix"/>
<feGaussianBlur in="BackgroundImage" stdDeviation="35"/>
<feComposite in2="SourceAlpha" operator="in" result="effect1_backgroundBlur_4202_39411"/>
<feBlend mode="normal" in="SourceGraphic" in2="effect1_backgroundBlur_4202_39411" result="shape"/>
<feColorMatrix in="SourceAlpha" type="matrix" values="0 0 0 0 0 0 0 0 0 0 0 0 0 0 0 0 0 0 127 0" result="hardAlpha"/>
<feOffset dy="0.5"/>
<feGaussianBlur stdDeviation="0.25"/>
<feComposite in2="hardAlpha" operator="arithmetic" k2="-1" k3="1"/>
<feColorMatrix type="matrix" values="0 0 0 0 1 0 0 0 0 1 0 0 0 0 1 0 0 0 0.3 0"/>
<feBlend mode="normal" in2="shape" result="effect2_innerShadow_4202_39411"/>
</filter>
<filter id="filter4_bi_4202_39411" x="215.667" y="148.283" width="187.592" height="167.729" filterUnits="userSpaceOnUse" color-interpolation-filters="sRGB">
<feFlood flood-opacity="0" result="BackgroundImageFix"/>
<feGaussianBlur in="BackgroundImage" stdDeviation="35"/>
<feComposite in2="SourceAlpha" operator="in" result="effect1_backgroundBlur_4202_39411"/>
<feBlend mode="normal" in="SourceGraphic" in2="effect1_backgroundBlur_4202_39411" result="shape"/>
<feColorMatrix in="SourceAlpha" type="matrix" values="0 0 0 0 0 0 0 0 0 0 0 0 0 0 0 0 0 0 127 0" result="hardAlpha"/>
<feOffset dy="0.5"/>
<feGaussianBlur stdDeviation="0.25"/>
<feComposite in2="hardAlpha" operator="arithmetic" k2="-1" k3="1"/>
<feColorMatrix type="matrix" values="0 0 0 0 1 0 0 0 0 1 0 0 0 0 1 0 0 0 0.3 0"/>
<feBlend mode="normal" in2="shape" result="effect2_innerShadow_4202_39411"/>
</filter>
<filter id="filter5_bii_4202_39411" x="190.12" y="247.609" width="73.3369" height="42.291" filterUnits="userSpaceOnUse" color-interpolation-filters="sRGB">
<feFlood flood-opacity="0" result="BackgroundImageFix"/>
<feGaussianBlur in="BackgroundImage" stdDeviation="4"/>
<feComposite in2="SourceAlpha" operator="in" result="effect1_backgroundBlur_4202_39411"/>
<feBlend mode="normal" in="SourceGraphic" in2="effect1_backgroundBlur_4202_39411" result="shape"/>
<feColorMatrix in="SourceAlpha" type="matrix" values="0 0 0 0 0 0 0 0 0 0 0 0 0 0 0 0 0 0 127 0" result="hardAlpha"/>
<feOffset dy="1"/>
<feGaussianBlur stdDeviation="0.5"/>
<feComposite in2="hardAlpha" operator="arithmetic" k2="-1" k3="1"/>
<feColorMatrix type="matrix" values="0 0 0 0 1 0 0 0 0 1 0 0 0 0 1 0 0 0 0.15 0"/>
<feBlend mode="normal" in2="shape" result="effect2_innerShadow_4202_39411"/>
<feColorMatrix in="SourceAlpha" type="matrix" values="0 0 0 0 0 0 0 0 0 0 0 0 0 0 0 0 0 0 127 0" result="hardAlpha"/>
<feOffset/>
<feGaussianBlur stdDeviation="4"/>
<feComposite in2="hardAlpha" operator="arithmetic" k2="-1" k3="1"/>
<feColorMatrix type="matrix" values="0 0 0 0 1 0 0 0 0 1 0 0 0 0 1 0 0 0 0.05 0"/>
<feBlend mode="normal" in2="effect2_innerShadow_4202_39411" result="effect3_innerShadow_4202_39411"/>
</filter>
<filter id="filter6_bii_4202_39411" x="288.315" y="246.412" width="72.0459" height="42.877" filterUnits="userSpaceOnUse" color-interpolation-filters="sRGB">
<feFlood flood-opacity="0" result="BackgroundImageFix"/>
<feGaussianBlur in="BackgroundImage" stdDeviation="4"/>
<feComposite in2="SourceAlpha" operator="in" result="effect1_backgroundBlur_4202_39411"/>
<feBlend mode="normal" in="SourceGraphic" in2="effect1_backgroundBlur_4202_39411" result="shape"/>
<feColorMatrix in="SourceAlpha" type="matrix" values="0 0 0 0 0 0 0 0 0 0 0 0 0 0 0 0 0 0 127 0" result="hardAlpha"/>
<feOffset dy="1"/>
<feGaussianBlur stdDeviation="0.5"/>
<feComposite in2="hardAlpha" operator="arithmetic" k2="-1" k3="1"/>
<feColorMatrix type="matrix" values="0 0 0 0 1 0 0 0 0 1 0 0 0 0 1 0 0 0 0.15 0"/>
<feBlend mode="normal" in2="shape" result="effect2_innerShadow_4202_39411"/>
<feColorMatrix in="SourceAlpha" type="matrix" values="0 0 0 0 0 0 0 0 0 0 0 0 0 0 0 0 0 0 127 0" result="hardAlpha"/>
<feOffset/>
<feGaussianBlur stdDeviation="4"/>
<feComposite in2="hardAlpha" operator="arithmetic" k2="-1" k3="1"/>
<feColorMatrix type="matrix" values="0 0 0 0 1 0 0 0 0 1 0 0 0 0 1 0 0 0 0.05 0"/>
<feBlend mode="normal" in2="effect2_innerShadow_4202_39411" result="effect3_innerShadow_4202_39411"/>
</filter>
<filter id="filter7_bii_4202_39411" x="221.188" y="191.449" width="58.9297" height="35.252" filterUnits="userSpaceOnUse" color-interpolation-filters="sRGB">
<feFlood flood-opacity="0" result="BackgroundImageFix"/>
<feGaussianBlur in="BackgroundImage" stdDeviation="4"/>
<feComposite in2="SourceAlpha" operator="in" result="effect1_backgroundBlur_4202_39411"/>
<feBlend mode="normal" in="SourceGraphic" in2="effect1_backgroundBlur_4202_39411" result="shape"/>
<feColorMatrix in="SourceAlpha" type="matrix" values="0 0 0 0 0 0 0 0 0 0 0 0 0 0 0 0 0 0 127 0" result="hardAlpha"/>
<feOffset dy="1"/>
<feGaussianBlur stdDeviation="0.5"/>
<feComposite in2="hardAlpha" operator="arithmetic" k2="-1" k3="1"/>
<feColorMatrix type="matrix" values="0 0 0 0 1 0 0 0 0 1 0 0 0 0 1 0 0 0 0.15 0"/>
<feBlend mode="normal" in2="shape" result="effect2_innerShadow_4202_39411"/>
<feColorMatrix in="SourceAlpha" type="matrix" values="0 0 0 0 0 0 0 0 0 0 0 0 0 0 0 0 0 0 127 0" result="hardAlpha"/>
<feOffset/>
<feGaussianBlur stdDeviation="4"/>
<feComposite in2="hardAlpha" operator="arithmetic" k2="-1" k3="1"/>
<feColorMatrix type="matrix" values="0 0 0 0 1 0 0 0 0 1 0 0 0 0 1 0 0 0 0.05 0"/>
<feBlend mode="normal" in2="effect2_innerShadow_4202_39411" result="effect3_innerShadow_4202_39411"/>
</filter>
<filter id="filter8_bii_4202_39411" x="271.302" y="193.213" width="59.0596" height="33.7246" filterUnits="userSpaceOnUse" color-interpolation-filters="sRGB">
<feFlood flood-opacity="0" result="BackgroundImageFix"/>
<feGaussianBlur in="BackgroundImage" stdDeviation="4"/>
<feComposite in2="SourceAlpha" operator="in" result="effect1_backgroundBlur_4202_39411"/>
<feBlend mode="normal" in="SourceGraphic" in2="effect1_backgroundBlur_4202_39411" result="shape"/>
<feColorMatrix in="SourceAlpha" type="matrix" values="0 0 0 0 0 0 0 0 0 0 0 0 0 0 0 0 0 0 127 0" result="hardAlpha"/>
<feOffset dy="1"/>
<feGaussianBlur stdDeviation="0.5"/>
<feComposite in2="hardAlpha" operator="arithmetic" k2="-1" k3="1"/>
<feColorMatrix type="matrix" values="0 0 0 0 1 0 0 0 0 1 0 0 0 0 1 0 0 0 0.15 0"/>
<feBlend mode="normal" in2="shape" result="effect2_innerShadow_4202_39411"/>
<feColorMatrix in="SourceAlpha" type="matrix" values="0 0 0 0 0 0 0 0 0 0 0 0 0 0 0 0 0 0 127 0" result="hardAlpha"/>
<feOffset/>
<feGaussianBlur stdDeviation="4"/>
<feComposite in2="hardAlpha" operator="arithmetic" k2="-1" k3="1"/>
<feColorMatrix type="matrix" values="0 0 0 0 1 0 0 0 0 1 0 0 0 0 1 0 0 0 0.05 0"/>
<feBlend mode="normal" in2="effect2_innerShadow_4202_39411" result="effect3_innerShadow_4202_39411"/>
</filter>
<filter id="filter9_bii_4202_39411" x="198.175" y="234.201" width="70.2773" height="38.9316" filterUnits="userSpaceOnUse" color-interpolation-filters="sRGB">
<feFlood flood-opacity="0" result="BackgroundImageFix"/>
<feGaussianBlur in="BackgroundImage" stdDeviation="4"/>
<feComposite in2="SourceAlpha" operator="in" result="effect1_backgroundBlur_4202_39411"/>
<feBlend mode="normal" in="SourceGraphic" in2="effect1_backgroundBlur_4202_39411" result="shape"/>
<feColorMatrix in="SourceAlpha" type="matrix" values="0 0 0 0 0 0 0 0 0 0 0 0 0 0 0 0 0 0 127 0" result="hardAlpha"/>
<feOffset dy="1"/>
<feGaussianBlur stdDeviation="0.5"/>
<feComposite in2="hardAlpha" operator="arithmetic" k2="-1" k3="1"/>
<feColorMatrix type="matrix" values="0 0 0 0 1 0 0 0 0 1 0 0 0 0 1 0 0 0 0.15 0"/>
<feBlend mode="normal" in2="shape" result="effect2_innerShadow_4202_39411"/>
<feColorMatrix in="SourceAlpha" type="matrix" values="0 0 0 0 0 0 0 0 0 0 0 0 0 0 0 0 0 0 127 0" result="hardAlpha"/>
<feOffset/>
<feGaussianBlur stdDeviation="4"/>
<feComposite in2="hardAlpha" operator="arithmetic" k2="-1" k3="1"/>
<feColorMatrix type="matrix" values="0 0 0 0 1 0 0 0 0 1 0 0 0 0 1 0 0 0 0.05 0"/>
<feBlend mode="normal" in2="effect2_innerShadow_4202_39411" result="effect3_innerShadow_4202_39411"/>
</filter>
<filter id="filter10_bii_4202_39411" x="283.582" y="233.053" width="68.1826" height="39.5703" filterUnits="userSpaceOnUse" color-interpolation-filters="sRGB">
<feFlood flood-opacity="0" result="BackgroundImageFix"/>
<feGaussianBlur in="BackgroundImage" stdDeviation="4"/>
<feComposite in2="SourceAlpha" operator="in" result="effect1_backgroundBlur_4202_39411"/>
<feBlend mode="normal" in="SourceGraphic" in2="effect1_backgroundBlur_4202_39411" result="shape"/>
<feColorMatrix in="SourceAlpha" type="matrix" values="0 0 0 0 0 0 0 0 0 0 0 0 0 0 0 0 0 0 127 0" result="hardAlpha"/>
<feOffset dy="1"/>
<feGaussianBlur stdDeviation="0.5"/>
<feComposite in2="hardAlpha" operator="arithmetic" k2="-1" k3="1"/>
<feColorMatrix type="matrix" values="0 0 0 0 1 0 0 0 0 1 0 0 0 0 1 0 0 0 0.15 0"/>
<feBlend mode="normal" in2="shape" result="effect2_innerShadow_4202_39411"/>
<feColorMatrix in="SourceAlpha" type="matrix" values="0 0 0 0 0 0 0 0 0 0 0 0 0 0 0 0 0 0 127 0" result="hardAlpha"/>
<feOffset/>
<feGaussianBlur stdDeviation="4"/>
<feComposite in2="hardAlpha" operator="arithmetic" k2="-1" k3="1"/>
<feColorMatrix type="matrix" values="0 0 0 0 1 0 0 0 0 1 0 0 0 0 1 0 0 0 0.05 0"/>
<feBlend mode="normal" in2="effect2_innerShadow_4202_39411" result="effect3_innerShadow_4202_39411"/>
</filter>
<filter id="filter11_bii_4202_39411" x="239.896" y="161.643" width="71.5547" height="26.5254" filterUnits="userSpaceOnUse" color-interpolation-filters="sRGB">
<feFlood flood-opacity="0" result="BackgroundImageFix"/>
<feGaussianBlur in="BackgroundImage" stdDeviation="4"/>
<feComposite in2="SourceAlpha" operator="in" result="effect1_backgroundBlur_4202_39411"/>
<feBlend mode="normal" in="SourceGraphic" in2="effect1_backgroundBlur_4202_39411" result="shape"/>
<feColorMatrix in="SourceAlpha" type="matrix" values="0 0 0 0 0 0 0 0 0 0 0 0 0 0 0 0 0 0 127 0" result="hardAlpha"/>
<feOffset dy="1"/>
<feGaussianBlur stdDeviation="0.5"/>
<feComposite in2="hardAlpha" operator="arithmetic" k2="-1" k3="1"/>
<feColorMatrix type="matrix" values="0 0 0 0 1 0 0 0 0 1 0 0 0 0 1 0 0 0 0.15 0"/>
<feBlend mode="normal" in2="shape" result="effect2_innerShadow_4202_39411"/>
<feColorMatrix in="SourceAlpha" type="matrix" values="0 0 0 0 0 0 0 0 0 0 0 0 0 0 0 0 0 0 127 0" result="hardAlpha"/>
<feOffset/>
<feGaussianBlur stdDeviation="4"/>
<feComposite in2="hardAlpha" operator="arithmetic" k2="-1" k3="1"/>
<feColorMatrix type="matrix" values="0 0 0 0 1 0 0 0 0 1 0 0 0 0 1 0 0 0 0.05 0"/>
<feBlend mode="normal" in2="effect2_innerShadow_4202_39411" result="effect3_innerShadow_4202_39411"/>
</filter>
<filter id="filter12_bi_4202_39411" x="188.429" y="66.1309" width="175.806" height="174.338" filterUnits="userSpaceOnUse" color-interpolation-filters="sRGB">
<feFlood flood-opacity="0" result="BackgroundImageFix"/>
<feGaussianBlur in="BackgroundImage" stdDeviation="35"/>
<feComposite in2="SourceAlpha" operator="in" result="effect1_backgroundBlur_4202_39411"/>
<feBlend mode="normal" in="SourceGraphic" in2="effect1_backgroundBlur_4202_39411" result="shape"/>
<feColorMatrix in="SourceAlpha" type="matrix" values="0 0 0 0 0 0 0 0 0 0 0 0 0 0 0 0 0 0 127 0" result="hardAlpha"/>
<feOffset dy="0.5"/>
<feGaussianBlur stdDeviation="0.25"/>
<feComposite in2="hardAlpha" operator="arithmetic" k2="-1" k3="1"/>
<feColorMatrix type="matrix" values="0 0 0 0 1 0 0 0 0 1 0 0 0 0 1 0 0 0 0.3 0"/>
<feBlend mode="normal" in2="shape" result="effect2_innerShadow_4202_39411"/>
</filter>
<filter id="filter13_bi_4202_39411" x="170.479" y="110.258" width="211.494" height="163.168" filterUnits="userSpaceOnUse" color-interpolation-filters="sRGB">
<feFlood flood-opacity="0" result="BackgroundImageFix"/>
<feGaussianBlur in="BackgroundImage" stdDeviation="35"/>
<feComposite in2="SourceAlpha" operator="in" result="effect1_backgroundBlur_4202_39411"/>
<feBlend mode="normal" in="SourceGraphic" in2="effect1_backgroundBlur_4202_39411" result="shape"/>
<feColorMatrix in="SourceAlpha" type="matrix" values="0 0 0 0 0 0 0 0 0 0 0 0 0 0 0 0 0 0 127 0" result="hardAlpha"/>
<feOffset dy="0.5"/>
<feGaussianBlur stdDeviation="0.25"/>
<feComposite in2="hardAlpha" operator="arithmetic" k2="-1" k3="1"/>
<feColorMatrix type="matrix" values="0 0 0 0 1 0 0 0 0 1 0 0 0 0 1 0 0 0 0.3 0"/>
<feBlend mode="normal" in2="shape" result="effect2_innerShadow_4202_39411"/>
</filter>
<filter id="filter14_i_4202_39411" x="336.485" y="238.914" width="5.05566" height="13.6113" filterUnits="userSpaceOnUse" color-interpolation-filters="sRGB">
<feFlood flood-opacity="0" result="BackgroundImageFix"/>
<feBlend mode="normal" in="SourceGraphic" in2="BackgroundImageFix" result="shape"/>
<feColorMatrix in="SourceAlpha" type="matrix" values="0 0 0 0 0 0 0 0 0 0 0 0 0 0 0 0 0 0 127 0" result="hardAlpha"/>
<feOffset dy="0.5"/>
<feGaussianBlur stdDeviation="0.25"/>
<feComposite in2="hardAlpha" operator="arithmetic" k2="-1" k3="1"/>
<feColorMatrix type="matrix" values="0 0 0 0 1 0 0 0 0 1 0 0 0 0 1 0 0 0 0.3 0"/>
<feBlend mode="normal" in2="shape" result="effect1_innerShadow_4202_39411"/>
</filter>
<filter id="filter15_i_4202_39411" x="375.638" y="238.914" width="5.04785" height="11.2676" filterUnits="userSpaceOnUse" color-interpolation-filters="sRGB">
<feFlood flood-opacity="0" result="BackgroundImageFix"/>
<feBlend mode="normal" in="SourceGraphic" in2="BackgroundImageFix" result="shape"/>
<feColorMatrix in="SourceAlpha" type="matrix" values="0 0 0 0 0 0 0 0 0 0 0 0 0 0 0 0 0 0 127 0" result="hardAlpha"/>
<feOffset dy="0.5"/>
<feGaussianBlur stdDeviation="0.25"/>
<feComposite in2="hardAlpha" operator="arithmetic" k2="-1" k3="1"/>
<feColorMatrix type="matrix" values="0 0 0 0 1 0 0 0 0 1 0 0 0 0 1 0 0 0 0.3 0"/>
<feBlend mode="normal" in2="shape" result="effect1_innerShadow_4202_39411"/>
</filter>
<filter id="filter16_i_4202_39411" x="363.848" y="231.932" width="2.90332" height="5.32812" filterUnits="userSpaceOnUse" color-interpolation-filters="sRGB">
<feFlood flood-opacity="0" result="BackgroundImageFix"/>
<feBlend mode="normal" in="SourceGraphic" in2="BackgroundImageFix" result="shape"/>
<feColorMatrix in="SourceAlpha" type="matrix" values="0 0 0 0 0 0 0 0 0 0 0 0 0 0 0 0 0 0 127 0" result="hardAlpha"/>
<feOffset dy="0.5"/>
<feGaussianBlur stdDeviation="0.25"/>
<feComposite in2="hardAlpha" operator="arithmetic" k2="-1" k3="1"/>
<feColorMatrix type="matrix" values="0 0 0 0 1 0 0 0 0 1 0 0 0 0 1 0 0 0 0.3 0"/>
<feBlend mode="normal" in2="shape" result="effect1_innerShadow_4202_39411"/>
</filter>
<filter id="filter17_bii_4202_39411" x="325.709" y="219.953" width="66.5771" height="76.2637" filterUnits="userSpaceOnUse" color-interpolation-filters="sRGB">
<feFlood flood-opacity="0" result="BackgroundImageFix"/>
<feGaussianBlur in="BackgroundImage" stdDeviation="4"/>
<feComposite in2="SourceAlpha" operator="in" result="effect1_backgroundBlur_4202_39411"/>
<feBlend mode="normal" in="SourceGraphic" in2="effect1_backgroundBlur_4202_39411" result="shape"/>
<feColorMatrix in="SourceAlpha" type="matrix" values="0 0 0 0 0 0 0 0 0 0 0 0 0 0 0 0 0 0 127 0" result="hardAlpha"/>
<feOffset dy="1"/>
<feGaussianBlur stdDeviation="0.5"/>
<feComposite in2="hardAlpha" operator="arithmetic" k2="-1" k3="1"/>
<feColorMatrix type="matrix" values="0 0 0 0 1 0 0 0 0 1 0 0 0 0 1 0 0 0 0.15 0"/>
<feBlend mode="normal" in2="shape" result="effect2_innerShadow_4202_39411"/>
<feColorMatrix in="SourceAlpha" type="matrix" values="0 0 0 0 0 0 0 0 0 0 0 0 0 0 0 0 0 0 127 0" result="hardAlpha"/>
<feOffset/>
<feGaussianBlur stdDeviation="4"/>
<feComposite in2="hardAlpha" operator="arithmetic" k2="-1" k3="1"/>
<feColorMatrix type="matrix" values="0 0 0 0 1 0 0 0 0 1 0 0 0 0 1 0 0 0 0.05 0"/>
<feBlend mode="normal" in2="effect2_innerShadow_4202_39411" result="effect3_innerShadow_4202_39411"/>
</filter>
<filter id="filter18_i_4202_39411" x="339.769" y="250.896" width="40.2891" height="36.9688" filterUnits="userSpaceOnUse" color-interpolation-filters="sRGB">
<feFlood flood-opacity="0" result="BackgroundImageFix"/>
<feBlend mode="normal" in="SourceGraphic" in2="BackgroundImageFix" result="shape"/>
<feColorMatrix in="SourceAlpha" type="matrix" values="0 0 0 0 0 0 0 0 0 0 0 0 0 0 0 0 0 0 127 0" result="hardAlpha"/>
<feOffset dy="0.5"/>
<feGaussianBlur stdDeviation="0.25"/>
<feComposite in2="hardAlpha" operator="arithmetic" k2="-1" k3="1"/>
<feColorMatrix type="matrix" values="0 0 0 0 1 0 0 0 0 1 0 0 0 0 1 0 0 0 0.3 0"/>
<feBlend mode="normal" in2="shape" result="effect1_innerShadow_4202_39411"/>
</filter>
<filter id="filter19_i_4202_39411" x="345.236" y="267.475" width="26.6367" height="19.6816" filterUnits="userSpaceOnUse" color-interpolation-filters="sRGB">
<feFlood flood-opacity="0" result="BackgroundImageFix"/>
<feBlend mode="normal" in="SourceGraphic" in2="BackgroundImageFix" result="shape"/>
<feColorMatrix in="SourceAlpha" type="matrix" values="0 0 0 0 0 0 0 0 0 0 0 0 0 0 0 0 0 0 127 0" result="hardAlpha"/>
<feOffset dy="0.5"/>
<feGaussianBlur stdDeviation="0.25"/>
<feComposite in2="hardAlpha" operator="arithmetic" k2="-1" k3="1"/>
<feColorMatrix type="matrix" values="0 0 0 0 1 0 0 0 0 1 0 0 0 0 1 0 0 0 0.3 0"/>
<feBlend mode="normal" in2="shape" result="effect1_innerShadow_4202_39411"/>
</filter>
<filter id="filter20_bii_4202_39411" x="371.938" y="275.162" width="33.96" height="31.6641" filterUnits="userSpaceOnUse" color-interpolation-filters="sRGB">
<feFlood flood-opacity="0" result="BackgroundImageFix"/>
<feGaussianBlur in="BackgroundImage" stdDeviation="4"/>
<feComposite in2="SourceAlpha" operator="in" result="effect1_backgroundBlur_4202_39411"/>
<feBlend mode="normal" in="SourceGraphic" in2="effect1_backgroundBlur_4202_39411" result="shape"/>
<feColorMatrix in="SourceAlpha" type="matrix" values="0 0 0 0 0 0 0 0 0 0 0 0 0 0 0 0 0 0 127 0" result="hardAlpha"/>
<feOffset dy="1"/>
<feGaussianBlur stdDeviation="0.5"/>
<feComposite in2="hardAlpha" operator="arithmetic" k2="-1" k3="1"/>
<feColorMatrix type="matrix" values="0 0 0 0 1 0 0 0 0 1 0 0 0 0 1 0 0 0 0.15 0"/>
<feBlend mode="normal" in2="shape" result="effect2_innerShadow_4202_39411"/>
<feColorMatrix in="SourceAlpha" type="matrix" values="0 0 0 0 0 0 0 0 0 0 0 0 0 0 0 0 0 0 127 0" result="hardAlpha"/>
<feOffset/>
<feGaussianBlur stdDeviation="4"/>
<feComposite in2="hardAlpha" operator="arithmetic" k2="-1" k3="1"/>
<feColorMatrix type="matrix" values="0 0 0 0 1 0 0 0 0 1 0 0 0 0 1 0 0 0 0.05 0"/>
<feBlend mode="normal" in2="effect2_innerShadow_4202_39411" result="effect3_innerShadow_4202_39411"/>
</filter>
<filter id="filter21_bii_4202_39411" x="309.306" y="275.234" width="31.6982" height="33.5508" filterUnits="userSpaceOnUse" color-interpolation-filters="sRGB">
<feFlood flood-opacity="0" result="BackgroundImageFix"/>
<feGaussianBlur in="BackgroundImage" stdDeviation="4"/>
<feComposite in2="SourceAlpha" operator="in" result="effect1_backgroundBlur_4202_39411"/>
<feBlend mode="normal" in="SourceGraphic" in2="effect1_backgroundBlur_4202_39411" result="shape"/>
<feColorMatrix in="SourceAlpha" type="matrix" values="0 0 0 0 0 0 0 0 0 0 0 0 0 0 0 0 0 0 127 0" result="hardAlpha"/>
<feOffset dy="1"/>
<feGaussianBlur stdDeviation="0.5"/>
<feComposite in2="hardAlpha" operator="arithmetic" k2="-1" k3="1"/>
<feColorMatrix type="matrix" values="0 0 0 0 1 0 0 0 0 1 0 0 0 0 1 0 0 0 0.15 0"/>
<feBlend mode="normal" in2="shape" result="effect2_innerShadow_4202_39411"/>
<feColorMatrix in="SourceAlpha" type="matrix" values="0 0 0 0 0 0 0 0 0 0 0 0 0 0 0 0 0 0 127 0" result="hardAlpha"/>
<feOffset/>
<feGaussianBlur stdDeviation="4"/>
<feComposite in2="hardAlpha" operator="arithmetic" k2="-1" k3="1"/>
<feColorMatrix type="matrix" values="0 0 0 0 1 0 0 0 0 1 0 0 0 0 1 0 0 0 0.05 0"/>
<feBlend mode="normal" in2="effect2_innerShadow_4202_39411" result="effect3_innerShadow_4202_39411"/>
</filter>
<filter id="filter22_bii_4202_39411" x="335.872" y="279.311" width="27.2754" height="28.8359" filterUnits="userSpaceOnUse" color-interpolation-filters="sRGB">
<feFlood flood-opacity="0" result="BackgroundImageFix"/>
<feGaussianBlur in="BackgroundImage" stdDeviation="4"/>
<feComposite in2="SourceAlpha" operator="in" result="effect1_backgroundBlur_4202_39411"/>
<feBlend mode="normal" in="SourceGraphic" in2="effect1_backgroundBlur_4202_39411" result="shape"/>
<feColorMatrix in="SourceAlpha" type="matrix" values="0 0 0 0 0 0 0 0 0 0 0 0 0 0 0 0 0 0 127 0" result="hardAlpha"/>
<feOffset dy="1"/>
<feGaussianBlur stdDeviation="0.5"/>
<feComposite in2="hardAlpha" operator="arithmetic" k2="-1" k3="1"/>
<feColorMatrix type="matrix" values="0 0 0 0 1 0 0 0 0 1 0 0 0 0 1 0 0 0 0.15 0"/>
<feBlend mode="normal" in2="shape" result="effect2_innerShadow_4202_39411"/>
<feColorMatrix in="SourceAlpha" type="matrix" values="0 0 0 0 0 0 0 0 0 0 0 0 0 0 0 0 0 0 127 0" result="hardAlpha"/>
<feOffset/>
<feGaussianBlur stdDeviation="4"/>
<feComposite in2="hardAlpha" operator="arithmetic" k2="-1" k3="1"/>
<feColorMatrix type="matrix" values="0 0 0 0 1 0 0 0 0 1 0 0 0 0 1 0 0 0 0.05 0"/>
<feBlend mode="normal" in2="effect2_innerShadow_4202_39411" result="effect3_innerShadow_4202_39411"/>
</filter>
<filter id="filter23_bii_4202_39411" x="359.535" y="276.619" width="34.0635" height="31.793" filterUnits="userSpaceOnUse" color-interpolation-filters="sRGB">
<feFlood flood-opacity="0" result="BackgroundImageFix"/>
<feGaussianBlur in="BackgroundImage" stdDeviation="4"/>
<feComposite in2="SourceAlpha" operator="in" result="effect1_backgroundBlur_4202_39411"/>
<feBlend mode="normal" in="SourceGraphic" in2="effect1_backgroundBlur_4202_39411" result="shape"/>
<feColorMatrix in="SourceAlpha" type="matrix" values="0 0 0 0 0 0 0 0 0 0 0 0 0 0 0 0 0 0 127 0" result="hardAlpha"/>
<feOffset dy="1"/>
<feGaussianBlur stdDeviation="0.5"/>
<feComposite in2="hardAlpha" operator="arithmetic" k2="-1" k3="1"/>
<feColorMatrix type="matrix" values="0 0 0 0 1 0 0 0 0 1 0 0 0 0 1 0 0 0 0.15 0"/>
<feBlend mode="normal" in2="shape" result="effect2_innerShadow_4202_39411"/>
<feColorMatrix in="SourceAlpha" type="matrix" values="0 0 0 0 0 0 0 0 0 0 0 0 0 0 0 0 0 0 127 0" result="hardAlpha"/>
<feOffset/>
<feGaussianBlur stdDeviation="4"/>
<feComposite in2="hardAlpha" operator="arithmetic" k2="-1" k3="1"/>
<feColorMatrix type="matrix" values="0 0 0 0 1 0 0 0 0 1 0 0 0 0 1 0 0 0 0.05 0"/>
<feBlend mode="normal" in2="effect2_innerShadow_4202_39411" result="effect3_innerShadow_4202_39411"/>
</filter>
<filter id="filter24_bii_4202_39411" x="345.024" y="278.453" width="33.6787" height="30.8242" filterUnits="userSpaceOnUse" color-interpolation-filters="sRGB">
<feFlood flood-opacity="0" result="BackgroundImageFix"/>
<feGaussianBlur in="BackgroundImage" stdDeviation="4"/>
<feComposite in2="SourceAlpha" operator="in" result="effect1_backgroundBlur_4202_39411"/>
<feBlend mode="normal" in="SourceGraphic" in2="effect1_backgroundBlur_4202_39411" result="shape"/>
<feColorMatrix in="SourceAlpha" type="matrix" values="0 0 0 0 0 0 0 0 0 0 0 0 0 0 0 0 0 0 127 0" result="hardAlpha"/>
<feOffset dy="1"/>
<feGaussianBlur stdDeviation="0.5"/>
<feComposite in2="hardAlpha" operator="arithmetic" k2="-1" k3="1"/>
<feColorMatrix type="matrix" values="0 0 0 0 1 0 0 0 0 1 0 0 0 0 1 0 0 0 0.15 0"/>
<feBlend mode="normal" in2="shape" result="effect2_innerShadow_4202_39411"/>
<feColorMatrix in="SourceAlpha" type="matrix" values="0 0 0 0 0 0 0 0 0 0 0 0 0 0 0 0 0 0 127 0" result="hardAlpha"/>
<feOffset/>
<feGaussianBlur stdDeviation="4"/>
<feComposite in2="hardAlpha" operator="arithmetic" k2="-1" k3="1"/>
<feColorMatrix type="matrix" values="0 0 0 0 1 0 0 0 0 1 0 0 0 0 1 0 0 0 0.05 0"/>
<feBlend mode="normal" in2="effect2_innerShadow_4202_39411" result="effect3_innerShadow_4202_39411"/>
</filter>
<filter id="filter25_bii_4202_39411" x="322.326" y="276.283" width="31.3955" height="32.3555" filterUnits="userSpaceOnUse" color-interpolation-filters="sRGB">
<feFlood flood-opacity="0" result="BackgroundImageFix"/>
<feGaussianBlur in="BackgroundImage" stdDeviation="4"/>
<feComposite in2="SourceAlpha" operator="in" result="effect1_backgroundBlur_4202_39411"/>
<feBlend mode="normal" in="SourceGraphic" in2="effect1_backgroundBlur_4202_39411" result="shape"/>
<feColorMatrix in="SourceAlpha" type="matrix" values="0 0 0 0 0 0 0 0 0 0 0 0 0 0 0 0 0 0 127 0" result="hardAlpha"/>
<feOffset dy="1"/>
<feGaussianBlur stdDeviation="0.5"/>
<feComposite in2="hardAlpha" operator="arithmetic" k2="-1" k3="1"/>
<feColorMatrix type="matrix" values="0 0 0 0 1 0 0 0 0 1 0 0 0 0 1 0 0 0 0.15 0"/>
<feBlend mode="normal" in2="shape" result="effect2_innerShadow_4202_39411"/>
<feColorMatrix in="SourceAlpha" type="matrix" values="0 0 0 0 0 0 0 0 0 0 0 0 0 0 0 0 0 0 127 0" result="hardAlpha"/>
<feOffset/>
<feGaussianBlur stdDeviation="4"/>
<feComposite in2="hardAlpha" operator="arithmetic" k2="-1" k3="1"/>
<feColorMatrix type="matrix" values="0 0 0 0 1 0 0 0 0 1 0 0 0 0 1 0 0 0 0.05 0"/>
<feBlend mode="normal" in2="effect2_innerShadow_4202_39411" result="effect3_innerShadow_4202_39411"/>
</filter>
<filter id="filter26_i_4202_39411" x="334" y="99" width="99.7979" height="19.1309" filterUnits="userSpaceOnUse" color-interpolation-filters="sRGB">
<feFlood flood-opacity="0" result="BackgroundImageFix"/>
<feBlend mode="normal" in="SourceGraphic" in2="BackgroundImageFix" result="shape"/>
<feColorMatrix in="SourceAlpha" type="matrix" values="0 0 0 0 0 0 0 0 0 0 0 0 0 0 0 0 0 0 127 0" result="hardAlpha"/>
<feOffset dy="0.5"/>
<feGaussianBlur stdDeviation="0.25"/>
<feComposite in2="hardAlpha" operator="arithmetic" k2="-1" k3="1"/>
<feColorMatrix type="matrix" values="0 0 0 0 1 0 0 0 0 1 0 0 0 0 1 0 0 0 0.3 0"/>
<feBlend mode="normal" in2="shape" result="effect1_innerShadow_4202_39411"/>
</filter>
<linearGradient id="paint0_linear_4202_39411" x1="59.5" y1="132.5" x2="493.5" y2="133.5" gradientUnits="userSpaceOnUse">
<stop stop-color="#0D0E1D"/>
<stop offset="0.489583" stop-color="#0D0E1D" stop-opacity="0"/>
<stop offset="0.988128" stop-color="#0D0E1D"/>
</linearGradient>
<linearGradient id="paint1_linear_4202_39411" x1="245.74" y1="107.578" x2="245.74" y2="282.505" gradientUnits="userSpaceOnUse">
<stop stop-color="#181A33"/>
<stop offset="0.276042" stop-color="#181A33" stop-opacity="0"/>
<stop offset="0.760417" stop-color="#181A33" stop-opacity="0"/>
<stop offset="1" stop-color="#181A33"/>
</linearGradient>
<linearGradient id="paint2_linear_4202_39411" x1="304.069" y1="107.574" x2="304.069" y2="282.446" gradientUnits="userSpaceOnUse">
<stop stop-color="#181A33"/>
<stop offset="0.276042" stop-color="#181A33" stop-opacity="0"/>
<stop offset="0.760417" stop-color="#181A33" stop-opacity="0"/>
<stop offset="1" stop-color="#181A33"/>
</linearGradient>
<linearGradient id="paint3_linear_4202_39411" x1="198.12" y1="268.747" x2="255.463" y2="268.747" gradientUnits="userSpaceOnUse">
<stop stop-color="#6C7EB7"/>
<stop offset="1" stop-color="#465D99"/>
</linearGradient>
<linearGradient id="paint4_linear_4202_39411" x1="296.315" y1="267.842" x2="352.367" y2="267.842" gradientUnits="userSpaceOnUse">
<stop stop-color="#6C7EB7"/>
<stop offset="1" stop-color="#465D99"/>
</linearGradient>
<linearGradient id="paint5_linear_4202_39411" x1="379.938" y1="290.989" x2="397.901" y2="290.989" gradientUnits="userSpaceOnUse">
<stop stop-color="#6C7EB7"/>
<stop offset="1" stop-color="#465D99"/>
</linearGradient>
<linearGradient id="paint6_linear_4202_39411" x1="317.306" y1="292.004" x2="333.005" y2="292.004" gradientUnits="userSpaceOnUse">
<stop stop-color="#6C7EB7"/>
<stop offset="1" stop-color="#465D99"/>
</linearGradient>
<linearGradient id="paint7_linear_4202_39411" x1="343.872" y1="293.725" x2="355.149" y2="293.725" gradientUnits="userSpaceOnUse">
<stop stop-color="#6C7EB7"/>
<stop offset="1" stop-color="#465D99"/>
</linearGradient>
<linearGradient id="paint8_linear_4202_39411" x1="367.535" y1="292.511" x2="385.6" y2="292.511" gradientUnits="userSpaceOnUse">
<stop stop-color="#6C7EB7"/>
<stop offset="1" stop-color="#465D99"/>
</linearGradient>
<linearGradient id="paint9_linear_4202_39411" x1="353.024" y1="293.86" x2="370.705" y2="293.86" gradientUnits="userSpaceOnUse">
<stop stop-color="#6C7EB7"/>
<stop offset="1" stop-color="#465D99"/>
</linearGradient>
<linearGradient id="paint10_linear_4202_39411" x1="330.326" y1="292.456" x2="345.723" y2="292.456" gradientUnits="userSpaceOnUse">
<stop stop-color="#6C7EB7"/>
<stop offset="1" stop-color="#465D99"/>
</linearGradient>
</defs>
</svg>
