<svg xmlns="http://www.w3.org/2000/svg" width="18" height="18" viewBox="0 0 18 18" fill="none">
  <path fill-rule="evenodd" clip-rule="evenodd" d="M9 4.02944C10.3726 2.65685 12.598 2.65685 13.9706 4.02944C15.3431 5.40202 15.3431 7.62742 13.9706 9L13.1421 9.82843C12.9134 10.0572 12.5425 10.0572 12.3137 9.82843C12.0849 9.59966 12.0849 9.22876 12.3137 9L13.1421 8.17157C14.0572 7.25652 14.0572 5.77292 13.1421 4.85786C12.2271 3.94281 10.7435 3.94281 9.82843 4.85786L9 5.68629C8.77124 5.91506 8.40034 5.91506 8.17157 5.68629C7.94281 5.45753 7.94281 5.08663 8.17157 4.85786L9 4.02944ZM11.4645 6.53552C11.6932 6.76428 11.6932 7.13518 11.4645 7.36395L7.36396 11.4645C7.1352 11.6932 6.7643 11.6932 6.53553 11.4645C6.30677 11.2357 6.30677 10.8648 6.53553 10.636L10.636 6.53552C10.8648 6.30676 11.2357 6.30676 11.4645 6.53552ZM5.68629 8.17157C5.91506 8.40034 5.91506 8.77124 5.68629 9L4.85786 9.82843C3.94281 10.7435 3.94281 12.2271 4.85786 13.1421C5.77292 14.0572 7.25652 14.0572 8.17157 13.1421L9 12.3137C9.22876 12.0849 9.59966 12.0849 9.82843 12.3137C10.0572 12.5425 10.0572 12.9134 9.82843 13.1421L9 13.9706C7.62742 15.3431 5.40202 15.3431 4.02944 13.9706C2.65685 12.598 2.65685 10.3726 4.02944 9L4.85786 8.17157C5.08663 7.94281 5.45753 7.94281 5.68629 8.17157Z" fill="white"/>
</svg>