<svg width="28" height="28" viewBox="0 0 28 28" fill="none" xmlns="http://www.w3.org/2000/svg">
<mask id="mask0_262_7529" style="mask-type:alpha" maskUnits="userSpaceOnUse" x="1" y="1" width="24" height="27">
<path d="M1.8667 4.94112C1.8667 3.12183 3.34153 1.647 5.16082 1.647H13.6787C14.5524 1.647 15.3902 1.99406 16.008 2.61183L23.9607 10.5645C24.5785 11.1823 24.9255 12.0202 24.9255 12.8938V24.7058C24.9255 26.5251 23.4507 27.9999 21.6314 27.9999H5.16082C3.34153 27.9999 1.8667 26.5251 1.8667 24.7058V4.94112Z" fill="white"/>
</mask>
<g mask="url(#mask0_262_7529)">
<g filter="url(#filter0_f_262_7529)">
<path d="M15.4434 2.32929C16.7298 1.04286 18.8156 1.04286 20.102 2.32929L24.3853 6.61262C25.6718 7.89905 25.6718 9.98477 24.3853 11.2712L19.7267 15.9298C18.4403 17.2162 16.3546 17.2162 15.0682 15.9298L10.7848 11.6465C9.49839 10.36 9.49839 8.27431 10.7848 6.98788L15.4434 2.32929Z" fill="url(#paint0_linear_262_7529)" fill-opacity="var(--opacity)"/>
</g>
</g>
<path fill-rule="evenodd" clip-rule="evenodd" d="M15.5482 2.22889C15.7117 2.34155 15.8657 2.46951 16.008 2.61183L23.9607 10.5645C24.1526 10.7565 24.3184 10.9696 24.4558 11.1985C25.6713 9.90739 25.6478 7.8751 24.3853 6.61262L20.102 2.3293C18.8499 1.07725 16.8407 1.04378 15.5482 2.22889Z" fill="url(#paint1_linear_262_7529)" fill-opacity="var(--opacity)"/>
<g filter="url(#filter1_ii_262_7529)">
<path d="M1.8667 4.94112C1.8667 3.12183 3.34153 1.647 5.16082 1.647H13.6787C14.5524 1.647 15.3902 1.99406 16.008 2.61183L23.9607 10.5645C24.5785 11.1823 24.9255 12.0202 24.9255 12.8938V24.7058C24.9255 26.5251 23.4507 27.9999 21.6314 27.9999H5.16082C3.34153 27.9999 1.8667 26.5251 1.8667 24.7058V4.94112Z" fill="#CCD6FF" fill-opacity="0.08"/>
</g>
<g filter="url(#filter2_i_262_7529)">
<path fill-rule="evenodd" clip-rule="evenodd" d="M12.6 15.4518C14.533 15.4518 16.1 13.8732 16.1 11.9259C16.1 9.9786 14.533 8.39999 12.6 8.39999C10.667 8.39999 9.09998 9.9786 9.09998 11.9259C9.09998 13.8732 10.667 15.4518 12.6 15.4518ZM19.6 21.6222C19.6 23.8001 15.7111 24.2667 12.6 24.2667C9.48886 24.2667 5.59998 23.8001 5.59998 21.6222C5.59998 19.4443 8.73398 16.3333 12.6 16.3333C16.466 16.3333 19.6 19.4443 19.6 21.6222Z" fill="#CCD6FF" fill-opacity="0.15"/>
</g>
<defs>
<filter id="filter0_f_262_7529" x="0.819946" y="-7.63553" width="33.5302" height="33.5301" filterUnits="userSpaceOnUse" color-interpolation-filters="sRGB">
<feFlood flood-opacity="0" result="BackgroundImageFix"/>
<feBlend mode="normal" in="SourceGraphic" in2="BackgroundImageFix" result="shape"/>
<feGaussianBlur stdDeviation="4.5" result="effect1_foregroundBlur_262_7529"/>
</filter>
<filter id="filter1_ii_262_7529" x="1.8667" y="1.647" width="23.0588" height="27.3529" filterUnits="userSpaceOnUse" color-interpolation-filters="sRGB">
<feFlood flood-opacity="0" result="BackgroundImageFix"/>
<feBlend mode="normal" in="SourceGraphic" in2="BackgroundImageFix" result="shape"/>
<feColorMatrix in="SourceAlpha" type="matrix" values="0 0 0 0 0 0 0 0 0 0 0 0 0 0 0 0 0 0 127 0" result="hardAlpha"/>
<feOffset dy="1"/>
<feGaussianBlur stdDeviation="0.5"/>
<feComposite in2="hardAlpha" operator="arithmetic" k2="-1" k3="1"/>
<feColorMatrix type="matrix" values="0 0 0 0 1 0 0 0 0 1 0 0 0 0 1 0 0 0 0.15 0"/>
<feBlend mode="normal" in2="shape" result="effect1_innerShadow_262_7529"/>
<feColorMatrix in="SourceAlpha" type="matrix" values="0 0 0 0 0 0 0 0 0 0 0 0 0 0 0 0 0 0 127 0" result="hardAlpha"/>
<feOffset/>
<feGaussianBlur stdDeviation="4"/>
<feComposite in2="hardAlpha" operator="arithmetic" k2="-1" k3="1"/>
<feColorMatrix type="matrix" values="0 0 0 0 1 0 0 0 0 1 0 0 0 0 1 0 0 0 0.05 0"/>
<feBlend mode="normal" in2="effect1_innerShadow_262_7529" result="effect2_innerShadow_262_7529"/>
</filter>
<filter id="filter2_i_262_7529" x="5.59998" y="8.39999" width="14" height="16.3667" filterUnits="userSpaceOnUse" color-interpolation-filters="sRGB">
<feFlood flood-opacity="0" result="BackgroundImageFix"/>
<feBlend mode="normal" in="SourceGraphic" in2="BackgroundImageFix" result="shape"/>
<feColorMatrix in="SourceAlpha" type="matrix" values="0 0 0 0 0 0 0 0 0 0 0 0 0 0 0 0 0 0 127 0" result="hardAlpha"/>
<feOffset dy="0.5"/>
<feGaussianBlur stdDeviation="0.25"/>
<feComposite in2="hardAlpha" operator="arithmetic" k2="-1" k3="1"/>
<feColorMatrix type="matrix" values="0 0 0 0 1 0 0 0 0 1 0 0 0 0 1 0 0 0 0.3 0"/>
<feBlend mode="normal" in2="shape" result="effect1_innerShadow_262_7529"/>
</filter>
<linearGradient id="paint0_linear_262_7529" x1="26.599" y1="7.2062" x2="10.0567" y2="8.31548" gradientUnits="userSpaceOnUse">
<stop offset="0.00121575" stop-color="var(--color-1)"/>
<stop offset="1" stop-color="var(--color-2)"/>
</linearGradient>
<linearGradient id="paint1_linear_262_7529" x1="26.599" y1="7.20619" x2="10.0567" y2="8.31547" gradientUnits="userSpaceOnUse">
<stop offset="0.00121575" stop-color="var(--color-1)"/>
<stop offset="1" stop-color="var(--color-2)"/>
</linearGradient>
</defs>
</svg>
