<svg width="24" height="24" viewBox="0 0 24 24" fill="none" xmlns="http://www.w3.org/2000/svg">
<path d="M8 5.6C8 4.71634 8.71634 4 9.6 4H14.4C15.2837 4 16 4.71634 16 5.6V7.2H17.5917C17.5967 7.19995 17.6016 7.19995 17.6066 7.2H19.2C19.6418 7.2 20 7.55817 20 8C20 8.44183 19.6418 8.8 19.2 8.8H18.3449L17.651 18.514C17.5912 19.3513 16.8945 20 16.0551 20H7.9449C7.10547 20 6.40877 19.3513 6.34896 18.514L5.6551 8.8H4.8C4.35817 8.8 4 8.44183 4 8C4 7.55817 4.35817 7.2 4.8 7.2H6.3934C6.39836 7.19995 6.40331 7.19995 6.40826 7.2H8V5.6ZM9.6 7.2H14.4V5.6H9.6V7.2ZM7.25918 8.8L7.9449 18.4H16.0551L16.7408 8.8H7.25918ZM10.4 10.4C10.8418 10.4 11.2 10.7582 11.2 11.2V16C11.2 16.4418 10.8418 16.8 10.4 16.8C9.95817 16.8 9.6 16.4418 9.6 16V11.2C9.6 10.7582 9.95817 10.4 10.4 10.4ZM13.6 10.4C14.0418 10.4 14.4 10.7582 14.4 11.2V16C14.4 16.4418 14.0418 16.8 13.6 16.8C13.1582 16.8 12.8 16.4418 12.8 16V11.2C12.8 10.7582 13.1582 10.4 13.6 10.4Z" fill="#F8FCFD"/>
</svg>
