<svg width="20" height="20" viewBox="0 0 20 20" fill="none" xmlns="http://www.w3.org/2000/svg">
<path d="M5 2C5 0.89543 5.89543 0 7 0H13C14.1046 0 15 0.895431 15 2V4H16.9897C16.9959 3.99994 17.0021 3.99994 17.0083 4H19C19.5523 4 20 4.44772 20 5C20 5.55228 19.5523 6 19 6H17.9311L17.0638 18.1425C16.989 19.1891 16.1182 20 15.0689 20H4.93112C3.88184 20 3.01096 19.1891 2.9362 18.1425L2.06888 6H1C0.447715 6 0 5.55228 0 5C0 4.44772 0.447715 4 1 4H2.99174C2.99795 3.99994 3.00414 3.99994 3.01032 4H5V2ZM7 4H13V2H7V4ZM4.07398 6L4.93112 18H15.0689L15.926 6H4.07398Z" fill="#F8F9FD"/>
</svg>
