<svg width="16" height="16" viewBox="0 0 16 16" fill="none" xmlns="http://www.w3.org/2000/svg">
<path d="M8.00002 1.33331C8.36821 1.33331 8.66669 1.63179 8.66669 1.99998V9.05717L10.1953 7.52858C10.4556 7.26823 10.8777 7.26823 11.1381 7.52858C11.3984 7.78892 11.3984 8.21103 11.1381 8.47138L8.47142 11.1381C8.21108 11.3984 7.78896 11.3984 7.52862 11.1381L4.86195 8.47138C4.6016 8.21103 4.6016 7.78892 4.86195 7.52858C5.1223 7.26823 5.54441 7.26823 5.80476 7.52858L7.33335 9.05717V1.99998C7.33335 1.63179 7.63183 1.33331 8.00002 1.33331ZM3.33335 11.3333C3.70154 11.3333 4.00002 11.6318 4.00002 12V13.3333H12V12C12 11.6318 12.2985 11.3333 12.6667 11.3333C13.0349 11.3333 13.3334 11.6318 13.3334 12V13.3333C13.3334 14.0697 12.7364 14.6666 12 14.6666H4.00002C3.26364 14.6666 2.66669 14.0697 2.66669 13.3333V12C2.66669 11.6318 2.96516 11.3333 3.33335 11.3333Z" fill="#F8FCFD"/>
</svg>
