<svg width="24" height="24" viewBox="0 0 24 24" fill="none" xmlns="http://www.w3.org/2000/svg">
    <path d="M14.8619 5.52876C15.1223 5.26841 15.5444 5.26841 15.8047 5.52876L18.4714 8.19543C18.7318 8.45578 18.7318 8.87788 18.4714 9.13823L9.80474 17.8049C9.67971 17.9299 9.51014 18.0002 9.33333 18.0002H6.66667C6.29848 18.0002 6 17.7017 6 17.3335V14.6668C6 14.49 6.07024 14.3204 6.19526 14.1954L12.8618 7.5289L14.8619 5.52876ZM13.3333 8.94297L7.33333 14.943V16.6668H9.05719L15.0572 10.6668L13.3333 8.94297ZM16 9.72402L17.0572 8.66683L15.3333 6.94297L14.2761 8.00016L16 9.72402Z" fill="#F8FCFD"/>
</svg>
