<svg width="32" height="32" viewBox="0 0 32 32" fill="none" xmlns="http://www.w3.org/2000/svg">
<path d="M25.7098 6.05248L25.6841 6.02906C25.1931 5.58053 24.5566 5.3335 23.8918 5.3335C23.1466 5.3335 22.4311 5.64896 21.9287 6.19892L12.4293 16.5989C12.3428 16.6936 12.2771 16.8055 12.2365 16.9272L11.1195 20.2758C10.9903 20.663 11.0552 21.0911 11.2928 21.4211C11.5324 21.7536 11.9184 21.9521 12.3254 21.9521H12.3255C12.5015 21.9521 12.6736 21.9159 12.8368 21.8445L16.0709 20.4297C16.1885 20.3782 16.294 20.3027 16.3805 20.2079L25.88 9.80807C26.8685 8.72593 26.7922 7.0413 25.7098 6.05248ZM13.2596 19.6572L13.9151 17.6923L13.9703 17.6318L15.2126 18.7664L15.1573 18.827L13.2596 19.6572ZM24.5255 8.57086L16.4498 17.4121L15.2075 16.2774L23.2832 7.43613C23.4412 7.26321 23.6573 7.16794 23.8919 7.16794C24.0977 7.16794 24.2948 7.2445 24.4473 7.38379L24.4729 7.40721C24.8082 7.7135 24.8318 8.23552 24.5255 8.57086Z" fill="#F8FCFD" stroke="#F8FCFD" stroke-width="0.1"/>
<path d="M23.8669 13.7958C23.3603 13.7958 22.9496 14.2065 22.9496 14.713V22.5C22.9496 23.7862 21.9032 24.8327 20.617 24.8327H9.50038C8.21413 24.8327 7.16777 23.7862 7.16777 22.5V11.4737C7.16777 10.1875 8.2142 9.14108 9.50038 9.14108H17.5467C18.0532 9.14108 18.4639 8.73041 18.4639 8.22386C18.4639 7.71731 18.0532 7.30664 17.5467 7.30664H9.50038C7.20262 7.30664 5.33333 9.176 5.33333 11.4737V22.5C5.33333 24.7977 7.20268 26.667 9.50038 26.667H20.617C22.9147 26.667 24.784 24.7977 24.784 22.5V14.713C24.7841 14.2065 24.3734 13.7958 23.8669 13.7958Z" fill="#F8FCFD" stroke="#F8FCFD" stroke-width="0.1"/>
</svg>
