<svg width="30" height="30" viewBox="0 0 30 30" fill="none" xmlns="http://www.w3.org/2000/svg">
<path d="M24.1029 5.67404L24.0788 5.65209C23.6185 5.2316 23.0218 5 22.3986 5C21.7 5 21.0292 5.29575 20.5582 5.81134L11.6525 15.5613C11.5713 15.6501 11.5098 15.755 11.4717 15.8691L10.4245 19.0084C10.3034 19.3714 10.3642 19.7728 10.587 20.0821C10.8116 20.3938 11.1735 20.58 11.5551 20.58H11.5551C11.7202 20.58 11.8815 20.546 12.0345 20.4791L15.0665 19.1527C15.1767 19.1045 15.2756 19.0337 15.3567 18.9448L24.2625 9.19491C25.1892 8.18041 25.1177 6.60107 24.1029 5.67404ZM12.4309 18.4285L13.0454 16.5864L13.0972 16.5296L14.2618 17.5934L14.21 17.6501L12.4309 18.4285ZM22.9927 8.03503L15.4217 16.3237L14.2571 15.2599L21.828 6.97122C21.9761 6.8091 22.1788 6.71979 22.3987 6.71979C22.5916 6.71979 22.7763 6.79156 22.9193 6.92215L22.9433 6.94411C23.2577 7.23126 23.2798 7.72065 22.9927 8.03503Z" fill="#F8F9FD" stroke="#F8F9FD" stroke-width="0.1"/>
<path d="M22.3752 12.9332C21.9003 12.9332 21.5153 13.3182 21.5153 13.7931V21.0934C21.5153 22.2992 20.5343 23.2803 19.3285 23.2803H8.90661C7.70076 23.2803 6.71979 22.2992 6.71979 21.0934V10.7562C6.71979 9.55043 7.70081 8.5694 8.90661 8.5694H16.45C16.9249 8.5694 17.3099 8.1844 17.3099 7.7095C17.3099 7.23461 16.9249 6.84961 16.45 6.84961H8.90661C6.75246 6.84961 5 8.60213 5 10.7562V21.0934C5 23.2475 6.75252 25 8.90661 25H19.3284C21.4825 25 23.235 23.2475 23.235 21.0934V13.7931C23.2351 13.3182 22.8501 12.9332 22.3752 12.9332Z" fill="#F8F9FD" stroke="#F8F9FD" stroke-width="0.1"/>
</svg>
