<svg width="32" height="33" viewBox="0 0 32 33" fill="none" xmlns="http://www.w3.org/2000/svg">
<path fill-rule="evenodd" clip-rule="evenodd" d="M3.05758 3.45083C3.57828 2.93013 4.4225 2.93013 4.9432 3.45083L9.79484 8.30247C9.87257 8.36421 9.94433 8.43548 10.0083 8.51595L23.863 22.3707C23.9534 22.44 24.0361 22.5219 24.1083 22.6159L28.9432 27.4508C29.4639 27.9715 29.4639 28.8157 28.9432 29.3364C28.4225 29.8571 27.5783 29.8571 27.0576 29.3364L22.8526 25.1315C20.9261 26.2587 18.6292 27.0603 16.0004 27.0603C12.1848 27.0603 9.07419 25.374 6.76939 23.4504C4.46772 21.5294 2.88968 19.3079 2.09935 18.0565C2.0889 18.04 2.07818 18.0231 2.06723 18.0059C1.91039 17.759 1.70674 17.4384 1.60381 16.9893C1.52071 16.6267 1.52074 16.1602 1.60388 15.7976C1.70688 15.3484 1.9111 15.0271 2.06835 14.7796C2.07939 14.7623 2.0902 14.7452 2.10073 14.7286C2.90388 13.4572 4.53493 11.1606 6.92751 9.20638L3.05758 5.33645C2.53688 4.81575 2.53688 3.97153 3.05758 3.45083ZM8.82422 11.1031C6.63865 12.8286 5.11191 14.9549 4.35523 16.1528C4.3079 16.2277 4.27473 16.2803 4.247 16.3259C4.22849 16.3564 4.21631 16.3774 4.20817 16.3921C4.20817 16.3926 4.20817 16.3931 4.20817 16.3936C4.20817 16.3941 4.20817 16.3947 4.20817 16.3952C4.2162 16.4097 4.2282 16.4304 4.24637 16.4603C4.27392 16.5057 4.30689 16.558 4.35402 16.6326C5.06423 17.7571 6.46971 19.7269 8.47809 21.4031C10.4833 23.0767 13.0093 24.3936 16.0004 24.3936C17.8043 24.3936 19.4369 23.9155 20.8897 23.1686L18.7095 20.9883C17.9156 21.4572 16.9889 21.727 16.0004 21.727C13.0549 21.727 10.6671 19.3392 10.6671 16.3936C10.6671 15.4051 10.9368 14.4785 11.4057 13.6845L8.82422 11.1031ZM13.4238 15.7027C13.365 15.923 13.3337 16.1545 13.3337 16.3936C13.3337 17.8664 14.5276 19.0603 16.0004 19.0603C16.2395 19.0603 16.4711 19.029 16.6913 18.9702L13.4238 15.7027Z" fill="#F8FCFD"/>
<path opacity="0.4" fill-rule="evenodd" clip-rule="evenodd" d="M16.0004 8.39347C15.4912 8.39347 14.9974 8.43146 14.5188 8.50223C13.7903 8.60993 13.1125 8.1067 13.0048 7.37824C12.897 6.64978 13.4003 5.97194 14.1287 5.86424C14.7338 5.77477 15.358 5.72681 16.0004 5.72681C19.8159 5.72681 22.9266 7.4131 25.2314 9.33671C27.533 11.2577 29.1111 13.4792 29.9014 14.7306C29.9119 14.7471 29.9226 14.764 29.9335 14.7813C30.0904 15.0282 30.294 15.3487 30.397 15.7979C30.4801 16.1605 30.48 16.627 30.3969 16.9896C30.2938 17.4389 30.0893 17.7607 29.9318 18.0085C29.9207 18.0259 29.9098 18.043 29.8993 18.0597C29.4748 18.7315 28.8308 19.6709 27.9774 20.6901C27.5047 21.2547 26.6638 21.3291 26.0992 20.8564C25.5346 20.3836 25.4601 19.5427 25.9329 18.9781C26.6946 18.0683 27.2697 17.2291 27.6449 16.6354C27.6923 16.5603 27.7256 16.5075 27.7534 16.4617C27.7721 16.431 27.7844 16.4098 27.7926 16.395C27.7926 16.3945 27.7926 16.394 27.7926 16.3935C27.7926 16.393 27.7926 16.3924 27.7926 16.3919C27.7846 16.3775 27.7726 16.3567 27.7544 16.3268C27.7268 16.2814 27.6939 16.2292 27.6467 16.1545C26.9365 15.03 25.5311 13.0602 23.5227 11.384C21.5174 9.71041 18.9915 8.39347 16.0004 8.39347Z" fill="#F8FCFD"/>
</svg>
