<svg width="16" height="16" viewBox="0 0 16 16" fill="none" xmlns="http://www.w3.org/2000/svg">
<path d="M3.13808 2.19526C2.87773 1.93491 2.45562 1.93491 2.19527 2.19526C1.93492 2.45561 1.93492 2.87772 2.19527 3.13807L3.81138 4.75418C2.85761 5.47158 2.02618 6.45695 1.40373 7.70186C1.30988 7.88954 1.30988 8.11046 1.40373 8.29814C2.84254 11.1758 5.39793 12.6667 8.00001 12.6667C9.03678 12.6667 10.0661 12.43 11.0204 11.9632L12.8619 13.8047C13.1223 14.0651 13.5444 14.0651 13.8047 13.8047C14.0651 13.5444 14.0651 13.1223 13.8047 12.8619L3.13808 2.19526ZM10.0092 10.952C9.35619 11.2074 8.6756 11.3333 8.00001 11.3333C6.02082 11.3333 3.99871 10.2528 2.75312 8C3.29815 7.01424 3.99186 6.25293 4.7656 5.70839L6.19493 7.13772C6.06998 7.39882 6.00001 7.69124 6.00001 8.00001C6.00001 9.10458 6.89544 10 8.00001 10C8.30878 10 8.6012 9.93004 8.86229 9.80509L10.0092 10.952Z" fill="#F8FCFD"/>
<path d="M12.3682 9.26365C12.6902 8.89344 12.9856 8.47251 13.2469 8C12.0013 5.74719 9.97918 4.66667 7.99998 4.66667C7.92532 4.66667 7.85059 4.6682 7.77584 4.67129L6.58627 3.48172C7.05162 3.38301 7.52502 3.33333 7.99998 3.33333C10.6021 3.33333 13.1575 4.82423 14.5963 7.70186C14.6901 7.88954 14.6901 8.11046 14.5963 8.29814C14.2336 9.02344 13.8 9.66065 13.3126 10.2081L12.3682 9.26365Z" fill="#F8FCFD"/>
</svg>
