<svg width="18" height="18" viewBox="0 0 18 18" xmlns="http://www.w3.org/2000/svg" fill="currentColor">
<path d="M1.50195 9.0019C1.50283 12.6914 4.18575 15.8329 7.8297 16.4112V11.1694H5.92695V9.0019H7.83195V7.3519C7.74679 6.57005 8.01384 5.79084 8.56068 5.2256C9.10752 4.66035 9.87747 4.36766 10.6617 4.4269C11.2246 4.43599 11.7861 4.48612 12.3417 4.5769V6.42115H11.3937C11.0673 6.3784 10.7392 6.48619 10.5018 6.71415C10.2643 6.94211 10.1433 7.26556 10.1727 7.5934V9.0019H12.251L11.9187 11.1701H10.1727V16.4112C14.1136 15.7883 16.877 12.1892 16.4611 8.22121C16.0451 4.25318 12.5954 1.30535 8.61107 1.51328C4.62672 1.72122 1.50259 5.01213 1.50195 9.0019Z" />
</svg>
