<svg width="16" height="22" viewBox="0 0 16 22" fill="none" xmlns="http://www.w3.org/2000/svg">
<mask id="mask0_2930_33581" style="mask-type:alpha" maskUnits="userSpaceOnUse" x="0" y="0" width="16" height="22">
<path d="M4.82192 14.9867V14.4858C4.82192 13.3378 4.9169 12.4228 5.10685 11.741C5.2968 11.0591 5.57808 10.513 5.95069 10.1025C6.32329 9.68501 6.77991 9.3093 7.32055 8.97533C7.78813 8.68311 8.20457 8.40133 8.56986 8.12998C8.94247 7.85863 9.2347 7.56989 9.44658 7.26376C9.66575 6.95762 9.77534 6.60974 9.77534 6.22012C9.77534 5.87223 9.68767 5.5661 9.51233 5.30171C9.33699 5.03732 9.09954 4.83207 8.8 4.68596C8.50046 4.53985 8.16804 4.46679 7.80274 4.46679C7.40822 4.46679 7.04292 4.55376 6.70685 4.72771C6.37808 4.90165 6.11142 5.14168 5.90685 5.44782C5.70959 5.75395 5.61096 6.10879 5.61096 6.51233H0C0.0146119 4.98166 0.379909 3.73972 1.09589 2.78653C1.81187 1.82638 2.76164 1.12366 3.94521 0.678368C5.12877 0.226123 6.42922 0 7.84658 0C9.41005 0 10.8055 0.219165 12.0329 0.657496C13.2603 1.08887 14.2283 1.74288 14.937 2.61954C15.6457 3.48925 16 4.57812 16 5.88615C16 6.72802 15.8466 7.46901 15.5397 8.10911C15.2402 8.74225 14.8201 9.30234 14.2795 9.78937C13.7461 10.2695 13.1215 10.7078 12.4055 11.1044C11.8795 11.3966 11.4374 11.6992 11.0795 12.0123C10.7215 12.3185 10.4511 12.6698 10.2685 13.0664C10.0858 13.456 9.99452 13.9292 9.99452 14.4858V14.9867H4.82192ZM7.49589 22C6.6484 22 5.92146 21.7182 5.31507 21.1546C4.71598 20.5841 4.42009 19.8918 4.4274 19.0778C4.42009 18.2846 4.71598 17.6063 5.31507 17.0427C5.92146 16.4791 6.6484 16.1973 7.49589 16.1973C8.29954 16.1973 9.00822 16.4791 9.62192 17.0427C10.2429 17.6063 10.5571 18.2846 10.5644 19.0778C10.5571 19.6205 10.4073 20.1145 10.1151 20.5598C9.83014 20.9981 9.45753 21.3495 8.99726 21.6139C8.53699 21.8713 8.03653 22 7.49589 22Z" fill="white"/>
</mask>
<g mask="url(#mask0_2930_33581)">
<g filter="url(#filter0_f_2930_33581)">
<path d="M3.6748 5.3252C5.54793 3.45207 8.64086 3.50805 10.583 5.45023L17.0498 11.917C18.992 13.8591 19.0479 16.9521 17.1748 18.8252L10.3916 25.6084C8.51847 27.4815 5.42555 27.4255 3.48336 25.4834L-2.98337 19.0166C-4.92555 17.0744 -4.98153 13.9815 -3.1084 12.1084L3.6748 5.3252Z" fill="url(#paint0_linear_2930_33581)" fill-opacity="0.8"/>
</g>
</g>
<g filter="url(#filter1_ii_2930_33581)">
<path d="M4.82192 14.9867V14.4858C4.82192 13.3378 4.9169 12.4228 5.10685 11.741C5.2968 11.0591 5.57808 10.513 5.95069 10.1025C6.32329 9.68501 6.77991 9.3093 7.32055 8.97533C7.78813 8.68311 8.20457 8.40133 8.56986 8.12998C8.94247 7.85863 9.2347 7.56989 9.44658 7.26376C9.66575 6.95762 9.77534 6.60974 9.77534 6.22012C9.77534 5.87223 9.68767 5.5661 9.51233 5.30171C9.33699 5.03732 9.09954 4.83207 8.8 4.68596C8.50046 4.53985 8.16804 4.46679 7.80274 4.46679C7.40822 4.46679 7.04292 4.55376 6.70685 4.72771C6.37808 4.90165 6.11142 5.14168 5.90685 5.44782C5.70959 5.75395 5.61096 6.10879 5.61096 6.51233H0C0.0146119 4.98166 0.379909 3.73972 1.09589 2.78653C1.81187 1.82638 2.76164 1.12366 3.94521 0.678368C5.12877 0.226123 6.42922 0 7.84658 0C9.41005 0 10.8055 0.219165 12.0329 0.657496C13.2603 1.08887 14.2283 1.74288 14.937 2.61954C15.6457 3.48925 16 4.57812 16 5.88615C16 6.72802 15.8466 7.46901 15.5397 8.10911C15.2402 8.74225 14.8201 9.30234 14.2795 9.78937C13.7461 10.2695 13.1215 10.7078 12.4055 11.1044C11.8795 11.3966 11.4374 11.6992 11.0795 12.0123C10.7215 12.3185 10.4511 12.6698 10.2685 13.0664C10.0858 13.456 9.99452 13.9292 9.99452 14.4858V14.9867H4.82192ZM7.49589 22C6.6484 22 5.92146 21.7182 5.31507 21.1546C4.71598 20.5841 4.42009 19.8918 4.4274 19.0778C4.42009 18.2846 4.71598 17.6063 5.31507 17.0427C5.92146 16.4791 6.6484 16.1973 7.49589 16.1973C8.29954 16.1973 9.00822 16.4791 9.62192 17.0427C10.2429 17.6063 10.5571 18.2846 10.5644 19.0778C10.5571 19.6205 10.4073 20.1145 10.1151 20.5598C9.83014 20.9981 9.45753 21.3495 8.99726 21.6139C8.53699 21.8713 8.03653 22 7.49589 22Z" fill="#CCF9FF" fill-opacity="0.08"/>
</g>
<defs>
<filter id="filter0_f_2930_33581" x="-12.4775" y="-4.04395" width="39.0215" height="39.0215" filterUnits="userSpaceOnUse" color-interpolation-filters="sRGB">
<feFlood flood-opacity="0" result="BackgroundImageFix"/>
<feBlend mode="normal" in="SourceGraphic" in2="BackgroundImageFix" result="shape"/>
<feGaussianBlur stdDeviation="4" result="effect1_foregroundBlur_2930_33581"/>
</filter>
<filter id="filter1_ii_2930_33581" x="0" y="0" width="16" height="23" filterUnits="userSpaceOnUse" color-interpolation-filters="sRGB">
<feFlood flood-opacity="0" result="BackgroundImageFix"/>
<feBlend mode="normal" in="SourceGraphic" in2="BackgroundImageFix" result="shape"/>
<feColorMatrix in="SourceAlpha" type="matrix" values="0 0 0 0 0 0 0 0 0 0 0 0 0 0 0 0 0 0 127 0" result="hardAlpha"/>
<feOffset dy="1"/>
<feGaussianBlur stdDeviation="0.5"/>
<feComposite in2="hardAlpha" operator="arithmetic" k2="-1" k3="1"/>
<feColorMatrix type="matrix" values="0 0 0 0 1 0 0 0 0 1 0 0 0 0 1 0 0 0 0.15 0"/>
<feBlend mode="normal" in2="shape" result="effect1_innerShadow_2930_33581"/>
<feColorMatrix in="SourceAlpha" type="matrix" values="0 0 0 0 0 0 0 0 0 0 0 0 0 0 0 0 0 0 127 0" result="hardAlpha"/>
<feOffset/>
<feGaussianBlur stdDeviation="4"/>
<feComposite in2="hardAlpha" operator="arithmetic" k2="-1" k3="1"/>
<feColorMatrix type="matrix" values="0 0 0 0 1 0 0 0 0 1 0 0 0 0 1 0 0 0 0.05 0"/>
<feBlend mode="normal" in2="effect1_innerShadow_2930_33581" result="effect2_innerShadow_2930_33581"/>
</filter>
<linearGradient id="paint0_linear_2930_33581" x1="20.3484" y1="12.8566" x2="-4.07798" y2="14.9341" gradientUnits="userSpaceOnUse">
<stop offset="0.00121575" stop-color="#80EF6E"/>
<stop offset="1" stop-color="#80EF6E"/>
</linearGradient>
</defs>
</svg>
