<svg width="12" height="12" viewBox="0 0 14 14" fill="currentColor" xmlns="http://www.w3.org/2000/svg">
<path fill-rule="evenodd" clip-rule="evenodd" d="M1.91862 0.0036512C1.44576 0.0643706 1.08946 0.359248 0.926917 0.824413L0.881692 0.953801L0.874686 6.74921L0.867679 12.5446L0.730112 12.5508C-0.0511546 12.5858 -0.280574 13.5775 0.414025 13.9171C0.597203 14.0067 0.349497 14.0025 5.17652 13.9981L9.61147 13.9941L9.70574 13.9574C9.94255 13.8653 10.1053 13.6982 10.1665 13.4846C10.3033 13.0064 9.98872 12.5832 9.47156 12.5498L9.32421 12.5403V9.32617V6.11207L9.60797 6.11817C9.97254 6.12598 10.088 6.17987 10.181 6.38559L10.214 6.45846L10.2214 8.69254L10.2289 10.9266L10.2656 11.0737C10.4241 11.7078 10.9526 12.2879 11.5106 12.4402C12.6487 12.7507 13.6398 12.193 13.9478 11.0688C14.0008 10.8749 14.002 10.7811 13.9991 6.64755L13.9963 2.57859L13.9653 2.48054C13.8633 2.15866 13.8289 2.08317 13.7161 1.93427C13.6486 1.84516 12.0505 0.237739 11.9516 0.159477C11.4822 -0.211913 10.8165 0.110208 10.8165 0.708682C10.8165 1.01406 10.8199 1.0189 11.4972 1.69774L12.0187 2.22047L11.9361 2.30854C11.85 2.40024 11.7034 2.55393 11.3856 2.88544C11.0254 3.26107 10.9922 3.59408 11.2852 3.89008C11.4557 4.06229 11.4526 4.06159 12.0531 4.06744L12.5471 4.07223V7.40434C12.5471 11.2171 12.5617 10.8208 12.4165 10.958C12.187 11.1749 11.8553 11.1174 11.7108 10.8356L11.6713 10.7585L11.6678 10.3313C11.6659 10.0964 11.6625 9.10049 11.6601 8.11826L11.6559 6.3324L11.6193 6.17132C11.4771 5.54641 10.9949 4.97434 10.4683 4.80587C10.4364 4.79565 10.3755 4.77464 10.3331 4.75916C10.1678 4.69883 10.045 4.68279 9.68153 4.67403L9.33122 4.66559L9.32421 2.80269L9.31721 0.939794L9.27899 0.827144C9.20161 0.599114 9.08698 0.429317 8.901 0.267154C8.77514 0.157481 8.70045 0.120363 8.42742 0.0319799L8.33633 0.00253066L5.14849 0.00039463C3.39518 -0.000760929 1.94174 0.000709782 1.91862 0.0036512ZM7.41946 1.47342C7.6493 1.54103 7.82884 1.74326 7.86727 1.97787C7.88524 2.08758 7.88538 5.19775 7.86741 5.30739C7.82968 5.53773 7.6789 5.71057 7.43603 5.80196L7.34782 5.83516H5.10033H2.85283L2.74073 5.79237C2.53394 5.71344 2.37195 5.52011 2.33198 5.30448C2.32316 5.25703 2.31808 4.6387 2.31822 3.63767C2.31846 1.95486 2.31965 1.92135 2.38253 1.81963C2.47954 1.66279 2.50798 1.62882 2.58845 1.57381C2.6362 1.54117 2.71628 1.50034 2.76637 1.48312L2.85745 1.45178L5.1004 1.45139C7.11497 1.45108 7.35112 1.45332 7.41946 1.47342Z" />
</svg>
