<svg width="24" height="24" viewBox="0 0 24 24" fill="none" xmlns="http://www.w3.org/2000/svg">
<path d="M19.8897 9.65281C19.5611 9.60507 19.2474 9.4838 18.9721 9.29803C18.6968 9.11225 18.4669 8.86677 18.2996 8.57984C18.1324 8.29292 18.032 7.97196 18.0059 7.64086C17.9799 7.30976 18.0289 6.97705 18.1492 6.66751C18.2258 6.46514 18.237 6.2439 18.1815 6.03481C18.1259 5.82571 18.0063 5.63924 17.8394 5.50155C17.1027 4.88289 16.2641 4.39689 15.3611 4.06522C15.1554 3.98883 14.9309 3.97929 14.7196 4.03795C14.5082 4.09661 14.3207 4.22048 14.1839 4.39191C13.9779 4.65533 13.7146 4.86837 13.414 5.01489C13.1134 5.16141 12.7834 5.23756 12.449 5.23756C12.1146 5.23756 11.7846 5.16141 11.484 5.01489C11.1834 4.86837 10.9201 4.65533 10.7141 4.39191C10.5773 4.22048 10.3898 4.09661 10.1784 4.03795C9.96705 3.97929 9.74255 3.98883 9.53691 4.06522C8.70309 4.37143 7.92349 4.80877 7.22752 5.36073C7.05209 5.49961 6.92573 5.69101 6.86694 5.9069C6.80816 6.12279 6.82003 6.35183 6.90083 6.56049C7.03081 6.87822 7.08451 7.22199 7.05763 7.56422C7.03075 7.90646 6.92403 8.23763 6.74604 8.53118C6.56806 8.82472 6.32375 9.07246 6.03272 9.25453C5.74169 9.4366 5.41204 9.54793 5.07022 9.57959C4.84829 9.60332 4.63985 9.69767 4.47558 9.84876C4.31131 9.99985 4.19989 10.1997 4.15773 10.4189C4.05285 10.938 4.00001 11.4663 4.00001 11.996C3.99924 12.4394 4.03504 12.8821 4.10703 13.3197C4.14286 13.5459 4.25221 13.754 4.41817 13.9118C4.58413 14.0696 4.79745 14.1683 5.02516 14.1927C5.37449 14.2255 5.71089 14.3415 6.0062 14.531C6.30151 14.7205 6.54713 14.9779 6.72252 15.2818C6.8979 15.5857 6.99794 15.9272 7.01427 16.2777C7.03059 16.6282 6.96272 16.9775 6.81634 17.2963C6.72054 17.5037 6.69678 17.7372 6.74883 17.9597C6.80087 18.1821 6.92574 18.3809 7.1036 18.5242C7.83591 19.1317 8.66643 19.6098 9.55944 19.938C9.67364 19.9776 9.79346 19.9985 9.9143 20C10.08 19.9996 10.2432 19.9596 10.3902 19.8831C10.5372 19.8067 10.6637 19.6961 10.7592 19.5607C10.96 19.2682 11.2291 19.0291 11.5432 18.8642C11.8573 18.6993 12.2069 18.6135 12.5616 18.6144C12.9054 18.6148 13.2443 18.6955 13.5513 18.85C13.8584 19.0045 14.1251 19.2286 14.3303 19.5043C14.4668 19.6878 14.6601 19.821 14.8802 19.8831C15.1002 19.9453 15.3347 19.9329 15.547 19.8479C16.3635 19.5193 17.1237 19.0651 17.8 18.5017C17.9699 18.3613 18.0909 18.1705 18.1455 17.957C18.2002 17.7434 18.1857 17.518 18.1042 17.3132C17.9717 16.9996 17.9139 16.6594 17.9354 16.3197C17.957 15.9799 18.0572 15.6497 18.2281 15.3553C18.3991 15.0609 18.6362 14.8102 18.9206 14.6231C19.2051 14.436 19.5291 14.3176 19.8672 14.2772C20.0864 14.2469 20.2903 14.1476 20.4493 13.9937C20.6083 13.8397 20.7141 13.6392 20.7515 13.4211C20.842 12.9512 20.891 12.4744 20.898 11.996C20.8981 11.4914 20.8509 10.9879 20.7572 10.4921C20.7191 10.2788 20.6148 10.0829 20.4591 9.93221C20.3034 9.78155 20.1042 9.68379 19.8897 9.65281V9.65281ZM19.6532 13.1676C19.1574 13.24 18.6844 13.4234 18.2694 13.7041C17.8544 13.9848 17.5081 14.3555 17.2563 14.7887C17.0045 15.2218 16.8538 15.7062 16.8153 16.2058C16.7768 16.7053 16.8515 17.2071 17.034 17.6737C16.4754 18.1418 15.8486 18.5217 15.1752 18.8002C14.8653 18.3976 14.4668 18.0718 14.0106 17.8481C13.5544 17.6244 13.0528 17.5088 12.5447 17.5104C12.022 17.5132 11.5072 17.6385 11.0415 17.8762C10.5759 18.1139 10.1725 18.4574 9.86361 18.8791C9.13419 18.6017 8.45353 18.21 7.84712 17.7188C8.05259 17.2463 8.14483 16.7324 8.11647 16.218C8.08811 15.7036 7.93994 15.203 7.68377 14.756C7.42487 14.3041 7.06389 13.919 6.62966 13.6315C6.19542 13.344 5.69997 13.1619 5.18287 13.1C5.13767 12.7338 5.11884 12.3649 5.12654 11.996C5.12669 11.5593 5.16818 11.1237 5.25046 10.6949C5.75484 10.6358 6.23897 10.4619 6.66566 10.1865C7.09236 9.91116 7.45028 9.54168 7.71193 9.10645C7.97322 8.67565 8.13243 8.19075 8.17734 7.68891C8.22225 7.18707 8.15168 6.68161 7.97103 6.21126C8.54584 5.76034 9.1859 5.39948 9.86924 5.14106C10.182 5.52295 10.5757 5.83064 11.0218 6.04191C11.4679 6.25319 11.9554 6.36278 12.449 6.36278C12.9426 6.36278 13.4301 6.25319 13.8762 6.04191C14.3223 5.83064 14.716 5.52295 15.0287 5.14106C15.7713 5.4216 16.4622 5.8232 17.0734 6.32955C16.9064 6.78946 16.8426 7.28049 16.8867 7.76781C16.9307 8.25512 17.0814 8.72678 17.3282 9.14931C17.5749 9.57183 17.9116 9.93488 18.3144 10.2127C18.7172 10.4905 19.1762 10.6763 19.6588 10.7568C19.7321 11.1658 19.7698 11.5805 19.7714 11.996C19.7699 12.3884 19.7379 12.7801 19.6757 13.1676H19.6532Z" fill="#F8FCFD" stroke="#F8FCFD" stroke-width="0.5"/>
<path d="M12.4489 8.61639C11.7805 8.61639 11.1271 8.8146 10.5713 9.18596C10.0156 9.55731 9.58239 10.0851 9.32659 10.7027C9.0708 11.3202 9.00387 11.9997 9.13428 12.6553C9.26468 13.3109 9.58655 13.9131 10.0592 14.3857C10.5318 14.8584 11.134 15.1802 11.7896 15.3106C12.4452 15.441 13.1247 15.3741 13.7422 15.1183C14.3598 14.8625 14.8876 14.4294 15.259 13.8736C15.6303 13.3178 15.8285 12.6644 15.8285 11.996C15.8285 11.0997 15.4725 10.2401 14.8387 9.60625C14.2049 8.97246 13.3453 8.61639 12.4489 8.61639ZM12.4489 14.249C12.0033 14.249 11.5677 14.1169 11.1972 13.8693C10.8267 13.6218 10.5379 13.2699 10.3674 12.8582C10.1968 12.4465 10.1522 11.9935 10.2392 11.5564C10.3261 11.1194 10.5407 10.7179 10.8558 10.4028C11.1709 10.0877 11.5723 9.87315 12.0094 9.78622C12.4464 9.69928 12.8994 9.7439 13.3111 9.91443C13.7228 10.085 14.0747 10.3737 14.3223 10.7443C14.5699 11.1148 14.702 11.5504 14.702 11.996C14.702 12.5935 14.4646 13.1666 14.0421 13.5891C13.6196 14.0117 13.0465 14.249 12.4489 14.249Z" fill="#F8FCFD" stroke="#F8FCFD" stroke-width="0.5"/>
</svg>
