<svg width="40" height="40" viewBox="0 0 40 40" fill="none" xmlns="http://www.w3.org/2000/svg">
  <path
    d="M20.0437 3.3335C11.8886 3.33245 4.93671 9.24681 3.63102 17.2967C2.32532 25.3466 7.05134 33.1551 14.7887 35.7318C15.622 35.8818 15.9204 35.3702 15.9204 34.9302C15.9204 34.5352 15.907 33.4885 15.902 32.0968C11.277 33.0968 10.3004 29.8668 10.3004 29.8668C9.99588 28.8617 9.34131 27.999 8.45535 27.4352C6.95535 26.4035 8.57035 26.4268 8.57035 26.4268C9.63815 26.5732 10.5779 27.2059 11.1154 28.1402C11.5702 28.9673 12.3366 29.5784 13.2442 29.8379C14.1518 30.0973 15.1254 29.9835 15.9487 29.5218C16.0261 28.6785 16.4012 27.8903 17.007 27.2985C13.317 26.8802 9.43702 25.4535 9.43702 19.0818C9.41654 17.4338 10.0285 15.8407 11.147 14.6302C10.6409 13.1957 10.7005 11.6223 11.3137 10.2302C11.3137 10.2302 12.7087 9.78183 15.8837 11.9318C18.6068 11.1852 21.4806 11.1852 24.2037 11.9318C27.3804 9.78016 28.7737 10.2302 28.7737 10.2302C29.3897 11.6216 29.4493 13.1961 28.9404 14.6302C30.0629 15.8405 30.6744 17.4379 30.647 19.0885C30.647 25.4768 26.7637 26.8802 23.0604 27.2918C23.8592 28.1086 24.2689 29.2291 24.1854 30.3685C24.1854 32.5918 24.1654 34.3852 24.1654 34.9302C24.1654 35.3752 24.462 35.8918 25.3104 35.7285C33.0445 33.1474 37.7654 25.3385 36.457 17.2907C35.1487 9.24292 28.1971 3.33163 20.0437 3.3335Z" />
</svg>
