<svg width="18" height="18" viewBox="0 0 18 18" xmlns="http://www.w3.org/2000/svg" fill="currentColor">
    <path d="M8.96703 7.76705V10.3553H12.561C12.2265 12 10.8263 12.945 8.96703 12.945C6.80144 12.9152 5.06153 11.1512 5.06153 8.98542C5.06153 6.81963 6.80144 5.0556 8.96703 5.02579C9.86719 5.02472 10.7396 5.3371 11.4345 5.9093L13.3845 3.9593C11.1477 1.99285 7.88104 1.73992 5.3682 3.33863C2.85536 4.93734 1.7003 8.00345 2.53372 10.8628C3.36714 13.7221 5.98874 15.6874 8.96703 15.6855C12.3173 15.6855 15.3638 13.2488 15.3638 8.98505C15.3586 8.57453 15.3083 8.16582 15.2138 7.76629L8.96703 7.76705Z" />
</svg>
