<svg width="440" height="112" viewBox="0 0 440 112" fill="none" xmlns="http://www.w3.org/2000/svg">
<g clip-path="url(#clip0_4015_38355)">
<g filter="url(#filter0_f_4015_38355)">
<path fill-rule="evenodd" clip-rule="evenodd" d="M41 16H43V19.2002H53.2V16H55.2V19.2002V20V27.2002H16.7V19.2002H32.5V16H34.5V19.2002H41V16ZM162 19.2002H123V27.2002H162V19.2002ZM58 16H60V19.2002H78V27.2002H75V30H71V27.2002H58V20V19.2002V16ZM89.5 16H87.5V19.2002H82V27.2002H118V20V19.2002V16H116V19.2002H110V16H108V19.2002H93.5V16H91.5V19.2002H89.5V16ZM169 16H167V19.2002V20V27.2002H194V20V19.2002V16H192V19.2002H177V16H175V19.2002H169V16ZM267.5 16H265.5V19.2002H257V26V27.2002V30H264V27.2002H314.5V30H318.5V27.2002H321V19.2002H313.5V16H309.5V19.2002H307.5V16H305.5V19.2002H300.5V16H298.5V19.2002H267.5V16ZM217.5 16H219.5V19.2002H252V27.2002H198.5V19.2002H199.5V16H203.5V19.2002H217.5V16ZM344.5 16H342.5V19.2002H326V27.2002H379V19.2002H377.5V16H375.5V19.2002H344.5V16ZM415 16H413V19.2002H384V27.2002H415V20V19.2002V16ZM159 36H161V39.2002H196.7V36H198.7V40L198.7 47.2002H123.7V39.2002H154V36H158V39.2002H159V36ZM99 36H97V39.2002H75.5V36H71.5V39.2002H70.7V47.2002H121.7V39.2002H111V36H107V39.2002H99V36ZM29.5 36H31.5V39.2002H34V36H41V39.2002H50V36H52V39.2002H62V36H64V39.2002H65.7V47.2002H20.7V50H16.7V47.2002V46V39.2002H29.5V36Z" fill="#F8FCFD" fill-opacity="0.4"/>
</g>
</g>
<defs>
<filter id="filter0_f_4015_38355" x="-1.30005" y="-2" width="434.3" height="70" filterUnits="userSpaceOnUse" color-interpolation-filters="sRGB">
<feFlood flood-opacity="0" result="BackgroundImageFix"/>
<feBlend mode="normal" in="SourceGraphic" in2="BackgroundImageFix" result="shape"/>
<feGaussianBlur stdDeviation="9" result="effect1_foregroundBlur_4015_38355"/>
</filter>
<clipPath id="clip0_4015_38355">
<rect width="440" height="112" fill="white"/>
</clipPath>
</defs>
</svg>
