<svg width="440" height="112" viewBox="0 0 440 112" fill="none" xmlns="http://www.w3.org/2000/svg">
<g clip-path="url(#clip0_4015_38355)">
<g filter="url(#filter0_f_4015_38355)">
<path d="M22.7216 21.2279L21.3743 21.4665C21.3179 21.2942 21.2284 21.1301 21.1058 20.9743C20.9865 20.8186 20.8241 20.691 20.6186 20.5915C20.4131 20.4921 20.1562 20.4424 19.848 20.4424C19.4271 20.4424 19.0757 20.5368 18.794 20.7258C18.5123 20.9114 18.3714 21.1517 18.3714 21.4466C18.3714 21.7019 18.4659 21.9073 18.6548 22.0631C18.8437 22.2189 19.1487 22.3465 19.5696 22.4459L20.7826 22.7243C21.4853 22.8867 22.009 23.137 22.3537 23.4751C22.6984 23.8131 22.8707 24.2523 22.8707 24.7925C22.8707 25.2499 22.7381 25.6576 22.473 26.0155C22.2112 26.3702 21.8449 26.6486 21.3743 26.8508C20.9069 27.0529 20.365 27.154 19.7486 27.154C18.8934 27.154 18.1958 26.9717 17.6555 26.6072C17.1153 26.2393 16.7838 25.7172 16.6612 25.0411L18.098 24.8224C18.1875 25.1969 18.3714 25.4803 18.6498 25.6725C18.9282 25.8614 19.2912 25.9559 19.7386 25.9559C20.2258 25.9559 20.6153 25.8548 20.9069 25.6526C21.1986 25.4471 21.3444 25.1969 21.3444 24.9019C21.3444 24.6633 21.2549 24.4627 21.076 24.3003C20.9003 24.1379 20.6302 24.0153 20.2656 23.9324L18.973 23.6491C18.2604 23.4867 17.7334 23.2281 17.392 22.8735C17.054 22.5189 16.8849 22.0698 16.8849 21.5262C16.8849 21.0754 17.0109 20.681 17.2628 20.343C17.5147 20.0049 17.8627 19.7414 18.3068 19.5525C18.7509 19.3602 19.2597 19.2641 19.8331 19.2641C20.6584 19.2641 21.308 19.4431 21.7819 19.801C22.2559 20.1557 22.5691 20.6313 22.7216 21.2279Z" fill="#F8F9FD"/>
<path d="M27.7963 27.154C27.044 27.154 26.396 26.9933 25.8524 26.6718C25.3122 26.347 24.8946 25.8912 24.5996 25.3046C24.3079 24.7146 24.1621 24.0236 24.1621 23.2314C24.1621 22.4492 24.3079 21.7599 24.5996 21.1633C24.8946 20.5667 25.3056 20.101 25.8325 19.7662C26.3628 19.4315 26.9826 19.2641 27.6919 19.2641C28.1228 19.2641 28.5404 19.3354 28.9448 19.4779C29.3491 19.6204 29.712 19.8441 30.0335 20.1491C30.355 20.454 30.6086 20.8501 30.7942 21.3373C30.9798 21.8212 31.0726 22.4095 31.0726 23.1022V23.6292H25.0023V22.5155H29.6159C29.6159 22.1244 29.5364 21.7781 29.3773 21.4765C29.2182 21.1715 28.9945 20.9313 28.7061 20.7556C28.4211 20.5799 28.0863 20.4921 27.7019 20.4921C27.2842 20.4921 26.9197 20.5948 26.6081 20.8003C26.2999 21.0025 26.0612 21.2677 25.8922 21.5958C25.7265 21.9206 25.6436 22.2736 25.6436 22.6547V23.5248C25.6436 24.0352 25.7331 24.4694 25.9121 24.8273C26.0944 25.1853 26.3479 25.4587 26.6727 25.6476C26.9976 25.8332 27.377 25.926 27.8112 25.926C28.093 25.926 28.3498 25.8863 28.5818 25.8067C28.8138 25.7239 29.0144 25.6012 29.1834 25.4388C29.3524 25.2764 29.4817 25.0759 29.5712 24.8373L30.9781 25.0908C30.8654 25.5051 30.6633 25.868 30.3716 26.1796C30.0833 26.4878 29.7203 26.7281 29.2828 26.9005C28.8486 27.0695 28.3531 27.154 27.7963 27.154Z" fill="#F8F9FD"/>
<path d="M32.7219 26.9999V19.3635H34.2084V26.9999H32.7219ZM33.4726 18.1853C33.2141 18.1853 32.992 18.0991 32.8064 17.9268C32.6241 17.7511 32.533 17.5423 32.533 17.3003C32.533 17.0551 32.6241 16.8463 32.8064 16.6739C32.992 16.4983 33.2141 16.4104 33.4726 16.4104C33.7312 16.4104 33.9516 16.4983 34.1339 16.6739C34.3195 16.8463 34.4123 17.0551 34.4123 17.3003C34.4123 17.5423 34.3195 17.7511 34.1339 17.9268C33.9516 18.0991 33.7312 18.1853 33.4726 18.1853Z" fill="#F8F9FD"/>
<path d="M39.0669 27.1491C38.4504 27.1491 37.9002 26.9916 37.4163 26.6768C36.9358 26.3586 36.5579 25.9062 36.2828 25.3195C36.011 24.7296 35.8752 24.0219 35.8752 23.1966C35.8752 22.3714 36.0127 21.6654 36.2878 21.0787C36.5662 20.4921 36.9474 20.043 37.4313 19.7314C37.9152 19.4199 38.4637 19.2641 39.0769 19.2641C39.5508 19.2641 39.932 19.3437 40.2203 19.5028C40.512 19.6585 40.7374 19.8408 40.8965 20.0496C41.0589 20.2584 41.1848 20.4424 41.2743 20.6015H41.3638V16.8181H42.8503V26.9999H41.3986V25.8117H41.2743C41.1848 25.9741 41.0556 26.1597 40.8865 26.3685C40.7208 26.5773 40.4921 26.7596 40.2004 26.9154C39.9088 27.0712 39.5309 27.1491 39.0669 27.1491ZM39.395 25.8813C39.8226 25.8813 40.1839 25.7686 40.4788 25.5432C40.7771 25.3145 41.0025 24.998 41.155 24.5937C41.3108 24.1893 41.3886 23.7187 41.3886 23.1817C41.3886 22.6514 41.3124 22.1874 41.16 21.7897C41.0075 21.392 40.7838 21.0821 40.4888 20.86C40.1938 20.6379 39.8292 20.5269 39.395 20.5269C38.9476 20.5269 38.5747 20.6429 38.2764 20.8749C37.9781 21.1069 37.7528 21.4234 37.6003 21.8245C37.4511 22.2255 37.3766 22.6779 37.3766 23.1817C37.3766 23.6921 37.4528 24.1512 37.6053 24.5589C37.7577 24.9665 37.9831 25.2897 38.2814 25.5283C38.583 25.7636 38.9542 25.8813 39.395 25.8813Z" fill="#F8F9FD"/>
<path d="M51.5357 27.1491C50.9192 27.1491 50.369 26.9916 49.8851 26.6768C49.4045 26.3586 49.0267 25.9062 48.7516 25.3195C48.4798 24.7296 48.3439 24.0219 48.3439 23.1966C48.3439 22.3714 48.4815 21.6654 48.7565 21.0787C49.035 20.4921 49.4161 20.043 49.9 19.7314C50.3839 19.4199 50.9324 19.2641 51.5456 19.2641C52.0196 19.2641 52.4007 19.3437 52.6891 19.5028C52.9807 19.6585 53.2061 19.8408 53.3652 20.0496C53.5276 20.2584 53.6536 20.4424 53.7431 20.6015H53.8325V16.8181H55.319V26.9999H53.8673V25.8117H53.7431C53.6536 25.9741 53.5243 26.1597 53.3553 26.3685C53.1895 26.5773 52.9609 26.7596 52.6692 26.9154C52.3775 27.0712 51.9997 27.1491 51.5357 27.1491ZM51.8638 25.8813C52.2913 25.8813 52.6526 25.7686 52.9476 25.5432C53.2459 25.3145 53.4713 24.998 53.6237 24.5937C53.7795 24.1893 53.8574 23.7187 53.8574 23.1817C53.8574 22.6514 53.7812 22.1874 53.6287 21.7897C53.4762 21.392 53.2525 21.0821 52.9575 20.86C52.6626 20.6379 52.298 20.5269 51.8638 20.5269C51.4163 20.5269 51.0435 20.6429 50.7452 20.8749C50.4469 21.1069 50.2215 21.4234 50.069 21.8245C49.9199 22.2255 49.8453 22.6779 49.8453 23.1817C49.8453 23.6921 49.9216 24.1512 50.074 24.5589C50.2265 24.9665 50.4519 25.2897 50.7502 25.5283C51.0518 25.7636 51.423 25.8813 51.8638 25.8813Z" fill="#F8F9FD"/>
<path d="M61.0053 19.3635V20.5567H56.8341V19.3635H61.0053ZM57.9527 17.534H59.4393V24.7577C59.4393 25.0461 59.4823 25.2632 59.5685 25.409C59.6547 25.5515 59.7657 25.6493 59.9016 25.7023C60.0408 25.752 60.1916 25.7769 60.354 25.7769C60.4733 25.7769 60.5777 25.7686 60.6672 25.752C60.7567 25.7355 60.8263 25.7222 60.876 25.7123L61.1445 26.9403C61.0583 26.9734 60.9357 27.0065 60.7766 27.0397C60.6175 27.0761 60.4187 27.096 60.18 27.0993C59.7889 27.106 59.4243 27.0364 59.0863 26.8905C58.7482 26.7447 58.4748 26.5193 58.266 26.2144C58.0572 25.9095 57.9527 25.5267 57.9527 25.066V17.534Z" fill="#F8F9FD"/>
<path d="M67.487 23.833V19.3635H68.9785V26.9999H67.5168V25.6775H67.4373C67.2616 26.0851 66.9799 26.4249 66.5921 26.6966C66.2077 26.9651 65.7287 27.0993 65.1553 27.0993C64.6648 27.0993 64.2306 26.9916 63.8528 26.7762C63.4783 26.5574 63.1833 26.2343 62.9678 25.8067C62.7557 25.3792 62.6497 24.8505 62.6497 24.2208V19.3635H64.1362V24.0418C64.1362 24.5622 64.2803 24.9765 64.5687 25.2847C64.857 25.593 65.2316 25.7471 65.6923 25.7471C65.9707 25.7471 66.2474 25.6775 66.5225 25.5383C66.8009 25.3991 67.0313 25.1886 67.2136 24.9069C67.3992 24.6251 67.4903 24.2672 67.487 23.833Z" fill="#F8F9FD"/>
<path d="M71.9155 29.8635C71.6934 29.8635 71.4912 29.8453 71.3089 29.8089C71.1266 29.7757 70.9907 29.7393 70.9013 29.6995L71.2592 28.4814C71.531 28.5544 71.7729 28.5858 71.9851 28.5759C72.1972 28.566 72.3844 28.4864 72.5469 28.3373C72.7126 28.1881 72.8584 27.9445 72.9844 27.6064L73.1683 27.0993L70.3743 19.3635H71.9652L73.8991 25.2897H73.9787L75.9126 19.3635H77.5085L74.3615 28.0191C74.2157 28.4168 74.03 28.7532 73.8047 29.0283C73.5793 29.3067 73.3108 29.5155 72.9993 29.6547C72.6877 29.7939 72.3264 29.8635 71.9155 29.8635Z" fill="#F8F9FD"/>
<path d="M85.4693 27.1491C84.8528 27.1491 84.3026 26.9916 83.8187 26.6768C83.3381 26.3586 82.9603 25.9062 82.6852 25.3195C82.4134 24.7296 82.2775 24.0219 82.2775 23.1966C82.2775 22.3714 82.415 21.6654 82.6901 21.0787C82.9685 20.4921 83.3497 20.043 83.8336 19.7314C84.3175 19.4199 84.866 19.2641 85.4792 19.2641C85.9532 19.2641 86.3343 19.3437 86.6227 19.5028C86.9143 19.6585 87.1397 19.8408 87.2988 20.0496C87.4612 20.2584 87.5872 20.4424 87.6766 20.6015H87.7661V16.8181H89.2526V26.9999H87.8009V25.8117H87.6766C87.5872 25.9741 87.4579 26.1597 87.2889 26.3685C87.1231 26.5773 86.8944 26.7596 86.6028 26.9154C86.3111 27.0712 85.9333 27.1491 85.4693 27.1491ZM85.7974 25.8813C86.2249 25.8813 86.5862 25.7686 86.8812 25.5432C87.1795 25.3145 87.4049 24.998 87.5573 24.5937C87.7131 24.1893 87.791 23.7187 87.791 23.1817C87.791 22.6514 87.7148 22.1874 87.5623 21.7897C87.4098 21.392 87.1861 21.0821 86.8911 20.86C86.5962 20.6379 86.2316 20.5269 85.7974 20.5269C85.3499 20.5269 84.9771 20.6429 84.6788 20.8749C84.3805 21.1069 84.1551 21.4234 84.0026 21.8245C83.8535 22.2255 83.7789 22.6779 83.7789 23.1817C83.7789 23.6921 83.8552 24.1512 84.0076 24.5589C84.1601 24.9665 84.3855 25.2897 84.6837 25.5283C84.9854 25.7636 85.3566 25.8813 85.7974 25.8813Z" fill="#F8F9FD"/>
<path d="M94.9389 19.3635V20.5567H90.7677V19.3635H94.9389ZM91.8863 17.534H93.3728V24.7577C93.3728 25.0461 93.4159 25.2632 93.5021 25.409C93.5883 25.5515 93.6993 25.6493 93.8352 25.7023C93.9744 25.752 94.1252 25.7769 94.2876 25.7769C94.4069 25.7769 94.5113 25.7686 94.6008 25.752C94.6903 25.7355 94.7599 25.7222 94.8096 25.7123L95.0781 26.9403C94.9919 26.9734 94.8693 27.0065 94.7102 27.0397C94.5511 27.0761 94.3523 27.096 94.1136 27.0993C93.7225 27.106 93.3579 27.0364 93.0199 26.8905C92.6818 26.7447 92.4084 26.5193 92.1996 26.2144C91.9907 25.9095 91.8863 25.5267 91.8863 25.066V17.534Z" fill="#F8F9FD"/>
<path d="M98.2388 26.9999L95.9916 19.3635H97.5279L99.0243 24.9715H99.0989L100.6 19.3635H102.137L103.628 24.9466H103.703L105.189 19.3635H106.725L104.483 26.9999H102.967L101.416 21.4864H101.301L99.7502 26.9999H98.2388Z" fill="#F8F9FD"/>
<path d="M109.622 22.4658V26.9999H108.136V16.8181H109.603V20.6064H109.697C109.876 20.1955 110.149 19.869 110.517 19.627C110.885 19.3851 111.366 19.2641 111.959 19.2641C112.483 19.2641 112.94 19.3718 113.331 19.5873C113.726 19.8027 114.031 20.1242 114.246 20.5518C114.465 20.976 114.574 21.5063 114.574 22.1427V26.9999H113.088V22.3216C113.088 21.7615 112.944 21.3273 112.655 21.0191C112.367 20.7075 111.966 20.5518 111.452 20.5518C111.101 20.5518 110.786 20.6263 110.507 20.7755C110.232 20.9246 110.015 21.1434 109.856 21.4317C109.7 21.7168 109.622 22.0615 109.622 22.4658Z" fill="#F8F9FD"/>
<path d="M116.558 26.9999V19.3635H118.044V26.9999H116.558ZM117.309 18.1853C117.05 18.1853 116.828 18.0991 116.642 17.9268C116.46 17.7511 116.369 17.5423 116.369 17.3003C116.369 17.0551 116.46 16.8463 116.642 16.6739C116.828 16.4983 117.05 16.4104 117.309 16.4104C117.567 16.4104 117.788 16.4983 117.97 16.6739C118.155 16.8463 118.248 17.0551 118.248 17.3003C118.248 17.5423 118.155 17.7511 117.97 17.9268C117.788 18.0991 117.567 18.1853 117.309 18.1853Z" fill="#F8F9FD"/>
<path d="M125.972 27.1689C125.488 27.1689 125.05 27.0795 124.659 26.9005C124.268 26.7182 123.958 26.4547 123.729 26.11C123.504 25.7653 123.391 25.3427 123.391 24.8422C123.391 24.4114 123.474 24.0567 123.64 23.7783C123.806 23.4999 124.029 23.2795 124.311 23.1171C124.593 22.9547 124.908 22.8321 125.256 22.7492C125.604 22.6663 125.958 22.6034 126.32 22.5603C126.777 22.5073 127.148 22.4642 127.433 22.431C127.718 22.3946 127.925 22.3366 128.055 22.257C128.184 22.1775 128.249 22.0482 128.249 21.8692V21.8344C128.249 21.4002 128.126 21.0638 127.881 20.8252C127.639 20.5866 127.277 20.4672 126.797 20.4672C126.296 20.4672 125.902 20.5783 125.614 20.8003C125.329 21.0191 125.131 21.2627 125.022 21.5312L123.625 21.213C123.791 20.749 124.033 20.3744 124.351 20.0894C124.672 19.801 125.042 19.5922 125.459 19.463C125.877 19.3304 126.316 19.2641 126.777 19.2641C127.082 19.2641 127.405 19.3006 127.746 19.3735C128.091 19.4431 128.413 19.5724 128.711 19.7613C129.013 19.9502 129.259 20.2203 129.452 20.5716C129.644 20.9197 129.74 21.3721 129.74 21.9289V26.9999H128.288V25.9559H128.229C128.133 26.1481 127.988 26.337 127.796 26.5226C127.604 26.7082 127.357 26.8624 127.055 26.985C126.754 27.1076 126.392 27.1689 125.972 27.1689ZM126.295 25.9758C126.706 25.9758 127.057 25.8946 127.349 25.7322C127.644 25.5698 127.867 25.3576 128.02 25.0958C128.176 24.8306 128.254 24.5473 128.254 24.2457V23.2613C128.2 23.3143 128.098 23.364 127.945 23.4104C127.796 23.4535 127.625 23.4916 127.433 23.5248C127.241 23.5546 127.054 23.5828 126.871 23.6093C126.689 23.6325 126.537 23.6524 126.414 23.6689C126.126 23.7054 125.862 23.7667 125.624 23.8529C125.388 23.9391 125.199 24.0634 125.057 24.2258C124.918 24.3849 124.848 24.597 124.848 24.8621C124.848 25.23 124.984 25.5084 125.256 25.6974C125.527 25.883 125.874 25.9758 126.295 25.9758Z" fill="#F8F9FD"/>
<path d="M137.442 21.2279L136.095 21.4665C136.039 21.2942 135.949 21.1301 135.827 20.9743C135.707 20.8186 135.545 20.691 135.339 20.5915C135.134 20.4921 134.877 20.4424 134.569 20.4424C134.148 20.4424 133.796 20.5368 133.515 20.7258C133.233 20.9114 133.092 21.1517 133.092 21.4466C133.092 21.7019 133.187 21.9073 133.376 22.0631C133.564 22.2189 133.869 22.3465 134.29 22.4459L135.503 22.7243C136.206 22.8867 136.73 23.137 137.074 23.4751C137.419 23.8131 137.591 24.2523 137.591 24.7925C137.591 25.2499 137.459 25.6576 137.194 26.0155C136.932 26.3702 136.566 26.6486 136.095 26.8508C135.628 27.0529 135.086 27.154 134.469 27.154C133.614 27.154 132.916 26.9717 132.376 26.6072C131.836 26.2393 131.505 25.7172 131.382 25.0411L132.819 24.8224C132.908 25.1969 133.092 25.4803 133.371 25.6725C133.649 25.8614 134.012 25.9559 134.459 25.9559C134.947 25.9559 135.336 25.8548 135.628 25.6526C135.919 25.4471 136.065 25.1969 136.065 24.9019C136.065 24.6633 135.976 24.4627 135.797 24.3003C135.621 24.1379 135.351 24.0153 134.986 23.9324L133.694 23.6491C132.981 23.4867 132.454 23.2281 132.113 22.8735C131.775 22.5189 131.606 22.0698 131.606 21.5262C131.606 21.0754 131.732 20.681 131.983 20.343C132.235 20.0049 132.583 19.7414 133.027 19.5525C133.472 19.3602 133.98 19.2641 134.554 19.2641C135.379 19.2641 136.029 19.4431 136.503 19.801C136.977 20.1557 137.29 20.6313 137.442 21.2279Z" fill="#F8F9FD"/>
<path d="M142.517 27.154C141.765 27.154 141.117 26.9933 140.573 26.6718C140.033 26.347 139.615 25.8912 139.32 25.3046C139.029 24.7146 138.883 24.0236 138.883 23.2314C138.883 22.4492 139.029 21.7599 139.32 21.1633C139.615 20.5667 140.026 20.101 140.553 19.7662C141.084 19.4315 141.703 19.2641 142.413 19.2641C142.843 19.2641 143.261 19.3354 143.665 19.4779C144.07 19.6204 144.433 19.8441 144.754 20.1491C145.076 20.454 145.329 20.8501 145.515 21.3373C145.7 21.8212 145.793 22.4095 145.793 23.1022V23.6292H139.723V22.5155H144.337C144.337 22.1244 144.257 21.7781 144.098 21.4765C143.939 21.1715 143.715 20.9313 143.427 20.7556C143.142 20.5799 142.807 20.4921 142.423 20.4921C142.005 20.4921 141.64 20.5948 141.329 20.8003C141.021 21.0025 140.782 21.2677 140.613 21.5958C140.447 21.9206 140.364 22.2736 140.364 22.6547V23.5248C140.364 24.0352 140.454 24.4694 140.633 24.8273C140.815 25.1853 141.069 25.4587 141.393 25.6476C141.718 25.8332 142.098 25.926 142.532 25.926C142.814 25.926 143.071 25.8863 143.303 25.8067C143.535 25.7239 143.735 25.6012 143.904 25.4388C144.073 25.2764 144.202 25.0759 144.292 24.8373L145.699 25.0908C145.586 25.5051 145.384 25.868 145.092 26.1796C144.804 26.4878 144.441 26.7281 144.004 26.9005C143.569 27.0695 143.074 27.154 142.517 27.154Z" fill="#F8F9FD"/>
<path d="M150.659 27.154C149.92 27.154 149.284 26.9867 148.75 26.6519C148.22 26.3138 147.812 25.8482 147.527 25.2549C147.242 24.6616 147.1 23.9822 147.1 23.2165C147.1 22.441 147.245 21.7565 147.537 21.1633C147.829 20.5667 148.24 20.101 148.77 19.7662C149.3 19.4315 149.925 19.2641 150.644 19.2641C151.224 19.2641 151.741 19.3718 152.195 19.5873C152.65 19.7994 153.016 20.0977 153.294 20.4822C153.576 20.8666 153.743 21.3157 153.796 21.8295H152.35C152.27 21.4715 152.088 21.1633 151.803 20.9047C151.521 20.6462 151.143 20.517 150.669 20.517C150.255 20.517 149.892 20.6263 149.58 20.8451C149.272 21.0605 149.032 21.3688 148.86 21.7698C148.687 22.1675 148.601 22.6382 148.601 23.1817C148.601 23.7385 148.686 24.2191 148.855 24.6235C149.024 25.0278 149.262 25.3411 149.57 25.5631C149.882 25.7852 150.248 25.8962 150.669 25.8962C150.951 25.8962 151.206 25.8448 151.435 25.7421C151.667 25.636 151.861 25.4852 152.016 25.2897C152.176 25.0941 152.287 24.8588 152.35 24.5837H153.796C153.743 25.0776 153.583 25.5184 153.314 25.9062C153.046 26.2939 152.686 26.5989 152.235 26.8209C151.788 27.043 151.262 27.154 150.659 27.154Z" fill="#F8F9FD"/>
<path d="M160.223 23.833V19.3635H161.715V26.9999H160.253V25.6775H160.174C159.998 26.0851 159.716 26.4249 159.328 26.6966C158.944 26.9651 158.465 27.0993 157.892 27.0993C157.401 27.0993 156.967 26.9916 156.589 26.7762C156.215 26.5574 155.92 26.2343 155.704 25.8067C155.492 25.3792 155.386 24.8505 155.386 24.2208V19.3635H156.872V24.0418C156.872 24.5622 157.017 24.9765 157.305 25.2847C157.593 25.593 157.968 25.7471 158.429 25.7471C158.707 25.7471 158.984 25.6775 159.259 25.5383C159.537 25.3991 159.768 25.1886 159.95 24.9069C160.136 24.6251 160.227 24.2672 160.223 23.833Z" fill="#F8F9FD"/>
<path d="M168.784 24.4097L168.774 22.5951H169.033L172.076 19.3635H173.855L170.385 23.0425H170.152L168.784 24.4097ZM167.417 26.9999V16.8181H168.904V26.9999H167.417ZM172.24 26.9999L169.505 23.3706L170.529 22.3316L174.064 26.9999H172.24Z" fill="#F8F9FD"/>
<path d="M175.33 26.9999V16.8181H176.816V20.6015H176.906C176.992 20.4424 177.116 20.2584 177.278 20.0496C177.441 19.8408 177.666 19.6585 177.955 19.5028C178.243 19.3437 178.624 19.2641 179.098 19.2641C179.714 19.2641 180.265 19.4199 180.749 19.7314C181.232 20.043 181.612 20.4921 181.887 21.0787C182.165 21.6654 182.305 22.3714 182.305 23.1966C182.305 24.0219 182.167 24.7296 181.892 25.3195C181.617 25.9062 181.239 26.3586 180.759 26.6768C180.278 26.9916 179.729 27.1491 179.113 27.1491C178.649 27.1491 178.269 27.0712 177.974 26.9154C177.683 26.7596 177.454 26.5773 177.288 26.3685C177.123 26.1597 176.995 25.9741 176.906 25.8117H176.781V26.9999H175.33ZM176.786 23.1817C176.786 23.7187 176.864 24.1893 177.02 24.5937C177.176 24.998 177.401 25.3145 177.696 25.5432C177.991 25.7686 178.352 25.8813 178.78 25.8813C179.224 25.8813 179.595 25.7636 179.893 25.5283C180.192 25.2897 180.417 24.9665 180.57 24.5589C180.725 24.1512 180.803 23.6921 180.803 23.1817C180.803 22.6779 180.727 22.2255 180.575 21.8245C180.425 21.4234 180.2 21.1069 179.898 20.8749C179.6 20.6429 179.227 20.5269 178.78 20.5269C178.349 20.5269 177.984 20.6379 177.686 20.86C177.391 21.0821 177.167 21.392 177.015 21.7897C176.862 22.1874 176.786 22.6514 176.786 23.1817Z" fill="#F8F9FD"/>
<path d="M187.265 27.154C186.513 27.154 185.865 26.9933 185.321 26.6718C184.781 26.347 184.363 25.8912 184.068 25.3046C183.777 24.7146 183.631 24.0236 183.631 23.2314C183.631 22.4492 183.777 21.7599 184.068 21.1633C184.363 20.5667 184.774 20.101 185.301 19.7662C185.832 19.4315 186.451 19.2641 187.161 19.2641C187.592 19.2641 188.009 19.3354 188.414 19.4779C188.818 19.6204 189.181 19.8441 189.502 20.1491C189.824 20.454 190.077 20.8501 190.263 21.3373C190.449 21.8212 190.541 22.4095 190.541 23.1022V23.6292H184.471V22.5155H189.085C189.085 22.1244 189.005 21.7781 188.846 21.4765C188.687 21.1715 188.463 20.9313 188.175 20.7556C187.89 20.5799 187.555 20.4921 187.171 20.4921C186.753 20.4921 186.388 20.5948 186.077 20.8003C185.769 21.0025 185.53 21.2677 185.361 21.5958C185.195 21.9206 185.112 22.2736 185.112 22.6547V23.5248C185.112 24.0352 185.202 24.4694 185.381 24.8273C185.563 25.1853 185.817 25.4587 186.141 25.6476C186.466 25.8332 186.846 25.926 187.28 25.926C187.562 25.926 187.819 25.8863 188.051 25.8067C188.283 25.7239 188.483 25.6012 188.652 25.4388C188.821 25.2764 188.95 25.0759 189.04 24.8373L190.447 25.0908C190.334 25.5051 190.132 25.868 189.84 26.1796C189.552 26.4878 189.189 26.7281 188.752 26.9005C188.317 27.0695 187.822 27.154 187.265 27.154Z" fill="#F8F9FD"/>
<path d="M192.191 26.9999V19.3635H193.677V26.9999H192.191ZM192.941 18.1853C192.683 18.1853 192.461 18.0991 192.275 17.9268C192.093 17.7511 192.002 17.5423 192.002 17.3003C192.002 17.0551 192.093 16.8463 192.275 16.6739C192.461 16.4983 192.683 16.4104 192.941 16.4104C193.2 16.4104 193.42 16.4983 193.603 16.6739C193.788 16.8463 193.881 17.0551 193.881 17.3003C193.881 17.5423 193.788 17.7511 193.603 17.9268C193.42 18.0991 193.2 18.1853 192.941 18.1853Z" fill="#F8F9FD"/>
<path d="M203.016 19.3635V20.5567H198.701V19.3635H203.016ZM199.884 26.9999V18.4786C199.884 18.0013 199.989 17.6053 200.197 17.2904C200.406 16.9722 200.683 16.7352 201.028 16.5795C201.372 16.4204 201.747 16.3408 202.151 16.3408C202.45 16.3408 202.705 16.3657 202.917 16.4154C203.129 16.4618 203.286 16.5049 203.389 16.5447L203.041 17.7478C202.972 17.7279 202.882 17.7047 202.773 17.6782C202.663 17.6483 202.531 17.6334 202.375 17.6334C202.014 17.6334 201.755 17.7229 201.599 17.9019C201.447 18.0809 201.371 18.3394 201.371 18.6775V26.9999H199.884Z" fill="#F8F9FD"/>
<path d="M207.54 27.154C206.788 27.154 206.14 26.9933 205.597 26.6718C205.056 26.347 204.639 25.8912 204.344 25.3046C204.052 24.7146 203.906 24.0236 203.906 23.2314C203.906 22.4492 204.052 21.7599 204.344 21.1633C204.639 20.5667 205.05 20.101 205.577 19.7662C206.107 19.4315 206.727 19.2641 207.436 19.2641C207.867 19.2641 208.285 19.3354 208.689 19.4779C209.093 19.6204 209.456 19.8441 209.778 20.1491C210.099 20.454 210.353 20.8501 210.538 21.3373C210.724 21.8212 210.817 22.4095 210.817 23.1022V23.6292H204.746V22.5155H209.36C209.36 22.1244 209.281 21.7781 209.121 21.4765C208.962 21.1715 208.739 20.9313 208.45 20.7556C208.165 20.5799 207.83 20.4921 207.446 20.4921C207.028 20.4921 206.664 20.5948 206.352 20.8003C206.044 21.0025 205.805 21.2677 205.636 21.5958C205.471 21.9206 205.388 22.2736 205.388 22.6547V23.5248C205.388 24.0352 205.477 24.4694 205.656 24.8273C205.839 25.1853 206.092 25.4587 206.417 25.6476C206.742 25.8332 207.121 25.926 207.555 25.926C207.837 25.926 208.094 25.8863 208.326 25.8067C208.558 25.7239 208.759 25.6012 208.928 25.4388C209.097 25.2764 209.226 25.0759 209.315 24.8373L210.722 25.0908C210.61 25.5051 210.407 25.868 210.116 26.1796C209.827 26.4878 209.464 26.7281 209.027 26.9005C208.593 27.0695 208.097 27.154 207.54 27.154Z" fill="#F8F9FD"/>
<path d="M215.325 27.1491C214.708 27.1491 214.158 26.9916 213.674 26.6768C213.194 26.3586 212.816 25.9062 212.541 25.3195C212.269 24.7296 212.133 24.0219 212.133 23.1966C212.133 22.3714 212.271 21.6654 212.546 21.0787C212.824 20.4921 213.205 20.043 213.689 19.7314C214.173 19.4199 214.722 19.2641 215.335 19.2641C215.809 19.2641 216.19 19.3437 216.478 19.5028C216.77 19.6585 216.995 19.8408 217.154 20.0496C217.317 20.2584 217.443 20.4424 217.532 20.6015H217.622V16.8181H219.108V26.9999H217.656V25.8117H217.532C217.443 25.9741 217.313 26.1597 217.144 26.3685C216.979 26.5773 216.75 26.7596 216.458 26.9154C216.167 27.0712 215.789 27.1491 215.325 27.1491ZM215.653 25.8813C216.08 25.8813 216.442 25.7686 216.737 25.5432C217.035 25.3145 217.26 24.998 217.413 24.5937C217.569 24.1893 217.646 23.7187 217.646 23.1817C217.646 22.6514 217.57 22.1874 217.418 21.7897C217.265 21.392 217.042 21.0821 216.747 20.86C216.452 20.6379 216.087 20.5269 215.653 20.5269C215.205 20.5269 214.833 20.6429 214.534 20.8749C214.236 21.1069 214.011 21.4234 213.858 21.8245C213.709 22.2255 213.634 22.6779 213.634 23.1817C213.634 23.6921 213.711 24.1512 213.863 24.5589C214.016 24.9665 214.241 25.2897 214.539 25.5283C214.841 25.7636 215.212 25.8813 215.653 25.8813Z" fill="#F8F9FD"/>
<path d="M222.716 22.4658V26.9999H221.23V19.3635H222.657V20.6064H222.751C222.927 20.2021 223.202 19.8773 223.576 19.632C223.954 19.3867 224.43 19.2641 225.003 19.2641C225.524 19.2641 225.979 19.3735 226.37 19.5922C226.761 19.8077 227.065 20.1292 227.28 20.5567C227.496 20.9843 227.603 21.5129 227.603 22.1427V26.9999H226.117V22.3216C226.117 21.7681 225.973 21.3356 225.684 21.0241C225.396 20.7092 225 20.5518 224.496 20.5518C224.151 20.5518 223.845 20.6263 223.576 20.7755C223.311 20.9246 223.101 21.1434 222.945 21.4317C222.792 21.7168 222.716 22.0615 222.716 22.4658Z" fill="#F8F9FD"/>
<path d="M232.888 27.154C232.136 27.154 231.488 26.9933 230.944 26.6718C230.404 26.347 229.986 25.8912 229.691 25.3046C229.4 24.7146 229.254 24.0236 229.254 23.2314C229.254 22.4492 229.4 21.7599 229.691 21.1633C229.986 20.5667 230.397 20.101 230.924 19.7662C231.455 19.4315 232.074 19.2641 232.784 19.2641C233.215 19.2641 233.632 19.3354 234.037 19.4779C234.441 19.6204 234.804 19.8441 235.125 20.1491C235.447 20.454 235.7 20.8501 235.886 21.3373C236.072 21.8212 236.164 22.4095 236.164 23.1022V23.6292H230.094V22.5155H234.708C234.708 22.1244 234.628 21.7781 234.469 21.4765C234.31 21.1715 234.086 20.9313 233.798 20.7556C233.513 20.5799 233.178 20.4921 232.794 20.4921C232.376 20.4921 232.011 20.5948 231.7 20.8003C231.392 21.0025 231.153 21.2677 230.984 21.5958C230.818 21.9206 230.735 22.2736 230.735 22.6547V23.5248C230.735 24.0352 230.825 24.4694 231.004 24.8273C231.186 25.1853 231.44 25.4587 231.765 25.6476C232.089 25.8332 232.469 25.926 232.903 25.926C233.185 25.926 233.442 25.8863 233.674 25.8067C233.906 25.7239 234.106 25.6012 234.275 25.4388C234.444 25.2764 234.573 25.0759 234.663 24.8373L236.07 25.0908C235.957 25.5051 235.755 25.868 235.463 26.1796C235.175 26.4878 234.812 26.7281 234.375 26.9005C233.94 27.0695 233.445 27.154 232.888 27.154Z" fill="#F8F9FD"/>
<path d="M241.105 27.154C240.353 27.154 239.705 26.9933 239.161 26.6718C238.621 26.347 238.203 25.8912 237.908 25.3046C237.617 24.7146 237.471 24.0236 237.471 23.2314C237.471 22.4492 237.617 21.7599 237.908 21.1633C238.203 20.5667 238.614 20.101 239.141 19.7662C239.671 19.4315 240.291 19.2641 241.001 19.2641C241.431 19.2641 241.849 19.3354 242.253 19.4779C242.658 19.6204 243.021 19.8441 243.342 20.1491C243.664 20.454 243.917 20.8501 244.103 21.3373C244.288 21.8212 244.381 22.4095 244.381 23.1022V23.6292H238.311V22.5155H242.925C242.925 22.1244 242.845 21.7781 242.686 21.4765C242.527 21.1715 242.303 20.9313 242.015 20.7556C241.73 20.5799 241.395 20.4921 241.01 20.4921C240.593 20.4921 240.228 20.5948 239.917 20.8003C239.608 21.0025 239.37 21.2677 239.201 21.5958C239.035 21.9206 238.952 22.2736 238.952 22.6547V23.5248C238.952 24.0352 239.042 24.4694 239.221 24.8273C239.403 25.1853 239.657 25.4587 239.981 25.6476C240.306 25.8332 240.686 25.926 241.12 25.926C241.402 25.926 241.658 25.8863 241.89 25.8067C242.122 25.7239 242.323 25.6012 242.492 25.4388C242.661 25.2764 242.79 25.0759 242.88 24.8373L244.287 25.0908C244.174 25.5051 243.972 25.868 243.68 26.1796C243.392 26.4878 243.029 26.7281 242.591 26.9005C242.157 27.0695 241.662 27.154 241.105 27.154Z" fill="#F8F9FD"/>
<path d="M251.753 21.2279L250.406 21.4665C250.349 21.2942 250.26 21.1301 250.137 20.9743C250.018 20.8186 249.855 20.691 249.65 20.5915C249.444 20.4921 249.187 20.4424 248.879 20.4424C248.458 20.4424 248.107 20.5368 247.825 20.7258C247.544 20.9114 247.403 21.1517 247.403 21.4466C247.403 21.7019 247.497 21.9073 247.686 22.0631C247.875 22.2189 248.18 22.3465 248.601 22.4459L249.814 22.7243C250.517 22.8867 251.04 23.137 251.385 23.4751C251.73 23.8131 251.902 24.2523 251.902 24.7925C251.902 25.2499 251.769 25.6576 251.504 26.0155C251.242 26.3702 250.876 26.6486 250.406 26.8508C249.938 27.0529 249.396 27.154 248.78 27.154C247.925 27.154 247.227 26.9717 246.687 26.6072C246.147 26.2393 245.815 25.7172 245.692 25.0411L247.129 24.8224C247.219 25.1969 247.403 25.4803 247.681 25.6725C247.96 25.8614 248.322 25.9559 248.77 25.9559C249.257 25.9559 249.647 25.8548 249.938 25.6526C250.23 25.4471 250.376 25.1969 250.376 24.9019C250.376 24.6633 250.286 24.4627 250.107 24.3003C249.932 24.1379 249.661 24.0153 249.297 23.9324L248.004 23.6491C247.292 23.4867 246.765 23.2281 246.423 22.8735C246.085 22.5189 245.916 22.0698 245.916 21.5262C245.916 21.0754 246.042 20.681 246.294 20.343C246.546 20.0049 246.894 19.7414 247.338 19.5525C247.782 19.3602 248.291 19.2641 248.864 19.2641C249.69 19.2641 250.339 19.4431 250.813 19.801C251.287 20.1557 251.6 20.6313 251.753 21.2279Z" fill="#F8F9FD"/>
<path d="M260.443 30.0226C259.837 30.0226 259.315 29.9431 258.877 29.784C258.443 29.6249 258.088 29.4144 257.813 29.1526C257.538 28.8908 257.333 28.6041 257.197 28.2925L258.474 27.7655C258.564 27.9114 258.683 28.0655 258.832 28.2279C258.985 28.3936 259.19 28.5345 259.449 28.6505C259.711 28.7665 260.047 28.8245 260.458 28.8245C261.022 28.8245 261.487 28.6869 261.855 28.4118C262.223 28.1401 262.407 27.7059 262.407 27.1093V25.6079H262.312C262.223 25.7703 262.094 25.9509 261.925 26.1498C261.759 26.3486 261.53 26.521 261.239 26.6668C260.947 26.8126 260.567 26.8856 260.1 26.8856C259.497 26.8856 258.953 26.7447 258.469 26.463C257.989 26.1779 257.608 25.7587 257.326 25.2052C257.048 24.6483 256.908 23.9639 256.908 23.1519C256.908 22.3399 257.046 21.6439 257.321 21.0638C257.599 20.4838 257.981 20.0397 258.464 19.7314C258.948 19.4199 259.497 19.2641 260.11 19.2641C260.584 19.2641 260.967 19.3437 261.259 19.5028C261.55 19.6585 261.777 19.8408 261.94 20.0496C262.105 20.2584 262.233 20.4424 262.322 20.6015H262.432V19.3635H263.888V27.1689C263.888 27.8252 263.736 28.3638 263.431 28.7847C263.126 29.2056 262.714 29.5172 262.193 29.7194C261.676 29.9215 261.093 30.0226 260.443 30.0226ZM260.428 25.6526C260.856 25.6526 261.217 25.5532 261.512 25.3543C261.81 25.1521 262.036 24.8638 262.188 24.4893C262.344 24.1114 262.422 23.659 262.422 23.132C262.422 22.6183 262.346 22.1659 262.193 21.7748C262.041 21.3837 261.817 21.0787 261.522 20.86C261.227 20.6379 260.862 20.5269 260.428 20.5269C259.981 20.5269 259.608 20.6429 259.31 20.8749C259.011 21.1036 258.786 21.4152 258.634 21.8096C258.484 22.204 258.41 22.6448 258.41 23.132C258.41 23.6325 258.486 24.0716 258.638 24.4495C258.791 24.8273 259.016 25.1223 259.315 25.3344C259.616 25.5466 259.987 25.6526 260.428 25.6526Z" fill="#F8F9FD"/>
<path d="M265.882 26.9999V19.3635H267.369V26.9999H265.882ZM266.633 18.1853C266.374 18.1853 266.152 18.0991 265.967 17.9268C265.784 17.7511 265.693 17.5423 265.693 17.3003C265.693 17.0551 265.784 16.8463 265.967 16.6739C266.152 16.4983 266.374 16.4104 266.633 16.4104C266.891 16.4104 267.112 16.4983 267.294 16.6739C267.48 16.8463 267.572 17.0551 267.572 17.3003C267.572 17.5423 267.48 17.7511 267.294 17.9268C267.112 18.0991 266.891 18.1853 266.633 18.1853Z" fill="#F8F9FD"/>
<path d="M270.855 22.4658V26.9999H269.368V19.3635H270.795V20.6064H270.89C271.065 20.2021 271.34 19.8773 271.715 19.632C272.093 19.3867 272.568 19.2641 273.142 19.2641C273.662 19.2641 274.118 19.3735 274.509 19.5922C274.9 19.8077 275.203 20.1292 275.419 20.5567C275.634 20.9843 275.742 21.5129 275.742 22.1427V26.9999H274.255V22.3216C274.255 21.7681 274.111 21.3356 273.823 21.0241C273.535 20.7092 273.139 20.5518 272.635 20.5518C272.29 20.5518 271.983 20.6263 271.715 20.7755C271.45 20.9246 271.239 21.1434 271.084 21.4317C270.931 21.7168 270.855 22.0615 270.855 22.4658Z" fill="#F8F9FD"/>
<path d="M281.027 27.154C280.274 27.154 279.626 26.9933 279.083 26.6718C278.543 26.347 278.125 25.8912 277.83 25.3046C277.538 24.7146 277.393 24.0236 277.393 23.2314C277.393 22.4492 277.538 21.7599 277.83 21.1633C278.125 20.5667 278.536 20.101 279.063 19.7662C279.593 19.4315 280.213 19.2641 280.922 19.2641C281.353 19.2641 281.771 19.3354 282.175 19.4779C282.58 19.6204 282.943 19.8441 283.264 20.1491C283.586 20.454 283.839 20.8501 284.025 21.3373C284.21 21.8212 284.303 22.4095 284.303 23.1022V23.6292H278.233V22.5155H282.846C282.846 22.1244 282.767 21.7781 282.608 21.4765C282.449 21.1715 282.225 20.9313 281.937 20.7556C281.652 20.5799 281.317 20.4921 280.932 20.4921C280.515 20.4921 280.15 20.5948 279.839 20.8003C279.53 21.0025 279.292 21.2677 279.123 21.5958C278.957 21.9206 278.874 22.2736 278.874 22.6547V23.5248C278.874 24.0352 278.964 24.4694 279.143 24.8273C279.325 25.1853 279.578 25.4587 279.903 25.6476C280.228 25.8332 280.608 25.926 281.042 25.926C281.323 25.926 281.58 25.8863 281.812 25.8067C282.044 25.7239 282.245 25.6012 282.414 25.4388C282.583 25.2764 282.712 25.0759 282.802 24.8373L284.209 25.0908C284.096 25.5051 283.894 25.868 283.602 26.1796C283.314 26.4878 282.951 26.7281 282.513 26.9005C282.079 27.0695 281.584 27.154 281.027 27.154Z" fill="#F8F9FD"/>
<path d="M291.675 21.2279L290.327 21.4665C290.271 21.2942 290.182 21.1301 290.059 20.9743C289.94 20.8186 289.777 20.691 289.572 20.5915C289.366 20.4921 289.109 20.4424 288.801 20.4424C288.38 20.4424 288.029 20.5368 287.747 20.7258C287.465 20.9114 287.325 21.1517 287.325 21.4466C287.325 21.7019 287.419 21.9073 287.608 22.0631C287.797 22.2189 288.102 22.3465 288.523 22.4459L289.736 22.7243C290.438 22.8867 290.962 23.137 291.307 23.4751C291.651 23.8131 291.824 24.2523 291.824 24.7925C291.824 25.2499 291.691 25.6576 291.426 26.0155C291.164 26.3702 290.798 26.6486 290.327 26.8508C289.86 27.0529 289.318 27.154 288.702 27.154C287.847 27.154 287.149 26.9717 286.609 26.6072C286.068 26.2393 285.737 25.7172 285.614 25.0411L287.051 24.8224C287.141 25.1969 287.325 25.4803 287.603 25.6725C287.881 25.8614 288.244 25.9559 288.692 25.9559C289.179 25.9559 289.568 25.8548 289.86 25.6526C290.152 25.4471 290.298 25.1969 290.298 24.9019C290.298 24.6633 290.208 24.4627 290.029 24.3003C289.853 24.1379 289.583 24.0153 289.219 23.9324L287.926 23.6491C287.214 23.4867 286.687 23.2281 286.345 22.8735C286.007 22.5189 285.838 22.0698 285.838 21.5262C285.838 21.0754 285.964 20.681 286.216 20.343C286.468 20.0049 286.816 19.7414 287.26 19.5525C287.704 19.3602 288.213 19.2641 288.786 19.2641C289.611 19.2641 290.261 19.4431 290.735 19.801C291.209 20.1557 291.522 20.6313 291.675 21.2279Z" fill="#F8F9FD"/>
<path d="M296.317 27.1491C295.7 27.1491 295.15 26.9916 294.666 26.6768C294.186 26.3586 293.808 25.9062 293.533 25.3195C293.261 24.7296 293.125 24.0219 293.125 23.1966C293.125 22.3714 293.263 21.6654 293.538 21.0787C293.816 20.4921 294.197 20.043 294.681 19.7314C295.165 19.4199 295.714 19.2641 296.327 19.2641C296.801 19.2641 297.182 19.3437 297.47 19.5028C297.762 19.6585 297.987 19.8408 298.146 20.0496C298.309 20.2584 298.435 20.4424 298.524 20.6015H298.614V16.8181H300.1V26.9999H298.649V25.8117H298.524C298.435 25.9741 298.306 26.1597 298.137 26.3685C297.971 26.5773 297.742 26.7596 297.45 26.9154C297.159 27.0712 296.781 27.1491 296.317 27.1491ZM296.645 25.8813C297.073 25.8813 297.434 25.7686 297.729 25.5432C298.027 25.3145 298.253 24.998 298.405 24.5937C298.561 24.1893 298.639 23.7187 298.639 23.1817C298.639 22.6514 298.562 22.1874 298.41 21.7897C298.257 21.392 298.034 21.0821 297.739 20.86C297.444 20.6379 297.079 20.5269 296.645 20.5269C296.198 20.5269 295.825 20.6429 295.526 20.8749C295.228 21.1069 295.003 21.4234 294.85 21.8245C294.701 22.2255 294.627 22.6779 294.627 23.1817C294.627 23.6921 294.703 24.1512 294.855 24.5589C295.008 24.9665 295.233 25.2897 295.531 25.5283C295.833 25.7636 296.204 25.8813 296.645 25.8813Z" fill="#F8F9FD"/>
<path d="M307.414 16.8181V26.9999H305.927V16.8181H307.414Z" fill="#F8F9FD"/>
<path d="M313.048 19.3635V20.5567H308.732V19.3635H313.048ZM309.915 26.9999V18.4786C309.915 18.0013 310.02 17.6053 310.229 17.2904C310.437 16.9722 310.714 16.7352 311.059 16.5795C311.404 16.4204 311.778 16.3408 312.182 16.3408C312.481 16.3408 312.736 16.3657 312.948 16.4154C313.16 16.4618 313.318 16.5049 313.42 16.5447L313.072 17.7478C313.003 17.7279 312.913 17.7047 312.804 17.6782C312.695 17.6483 312.562 17.6334 312.406 17.6334C312.045 17.6334 311.786 17.7229 311.631 17.9019C311.478 18.0809 311.402 18.3394 311.402 18.6775V26.9999H309.915Z" fill="#F8F9FD"/>
<path d="M315.521 29.8635C315.299 29.8635 315.097 29.8453 314.914 29.8089C314.732 29.7757 314.596 29.7393 314.507 29.6995L314.865 28.4814C315.136 28.5544 315.378 28.5858 315.591 28.5759C315.803 28.566 315.99 28.4864 316.152 28.3373C316.318 28.1881 316.464 27.9445 316.59 27.6064L316.774 27.0993L313.98 19.3635H315.571L317.505 25.2897H317.584L319.518 19.3635H321.114L317.967 28.0191C317.821 28.4168 317.636 28.7532 317.41 29.0283C317.185 29.3067 316.916 29.5155 316.605 29.6547C316.293 29.7939 315.932 29.8635 315.521 29.8635Z" fill="#F8F9FD"/>
<path d="M327.703 22.4658V26.9999H326.216V19.3635H327.643V20.6064H327.737C327.913 20.2021 328.188 19.8773 328.563 19.632C328.94 19.3867 329.416 19.2641 329.99 19.2641C330.51 19.2641 330.966 19.3735 331.357 19.5922C331.748 19.8077 332.051 20.1292 332.266 20.5567C332.482 20.9843 332.59 21.5129 332.59 22.1427V26.9999H331.103V22.3216C331.103 21.7681 330.959 21.3356 330.671 21.0241C330.382 20.7092 329.986 20.5518 329.482 20.5518C329.138 20.5518 328.831 20.6263 328.563 20.7755C328.298 20.9246 328.087 21.1434 327.931 21.4317C327.779 21.7168 327.703 22.0615 327.703 22.4658Z" fill="#F8F9FD"/>
<path d="M337.8 27.154C337.084 27.154 336.459 26.99 335.926 26.6618C335.392 26.3337 334.978 25.8747 334.683 25.2847C334.388 24.6948 334.24 24.0054 334.24 23.2165C334.24 22.4244 334.388 21.7317 334.683 21.1384C334.978 20.5451 335.392 20.0844 335.926 19.7563C336.459 19.4282 337.084 19.2641 337.8 19.2641C338.516 19.2641 339.141 19.4282 339.674 19.7563C340.208 20.0844 340.622 20.5451 340.917 21.1384C341.212 21.7317 341.36 22.4244 341.36 23.2165C341.36 24.0054 341.212 24.6948 340.917 25.2847C340.622 25.8747 340.208 26.3337 339.674 26.6618C339.141 26.99 338.516 27.154 337.8 27.154ZM337.805 25.9062C338.269 25.9062 338.653 25.7835 338.958 25.5383C339.263 25.293 339.489 24.9665 339.634 24.5589C339.784 24.1512 339.858 23.7021 339.858 23.2116C339.858 22.7243 339.784 22.2769 339.634 21.8692C339.489 21.4582 339.263 21.1285 338.958 20.8799C338.653 20.6313 338.269 20.507 337.805 20.507C337.338 20.507 336.95 20.6313 336.641 20.8799C336.337 21.1285 336.11 21.4582 335.96 21.8692C335.815 22.2769 335.742 22.7243 335.742 23.2116C335.742 23.7021 335.815 24.1512 335.96 24.5589C336.11 24.9665 336.337 25.293 336.641 25.5383C336.95 25.7835 337.338 25.9062 337.805 25.9062Z" fill="#F8F9FD"/>
<path d="M343.019 26.9999V19.3635H344.505V26.9999H343.019ZM343.77 18.1853C343.511 18.1853 343.289 18.0991 343.103 17.9268C342.921 17.7511 342.83 17.5423 342.83 17.3003C342.83 17.0551 342.921 16.8463 343.103 16.6739C343.289 16.4983 343.511 16.4104 343.77 16.4104C344.028 16.4104 344.248 16.4983 344.431 16.6739C344.616 16.8463 344.709 17.0551 344.709 17.3003C344.709 17.5423 344.616 17.7511 344.431 17.9268C344.248 18.0991 344.028 18.1853 343.77 18.1853Z" fill="#F8F9FD"/>
<path d="M349.796 27.154C349.044 27.154 348.396 26.9933 347.852 26.6718C347.312 26.347 346.895 25.8912 346.6 25.3046C346.308 24.7146 346.162 24.0236 346.162 23.2314C346.162 22.4492 346.308 21.7599 346.6 21.1633C346.895 20.5667 347.306 20.101 347.833 19.7662C348.363 19.4315 348.983 19.2641 349.692 19.2641C350.123 19.2641 350.54 19.3354 350.945 19.4779C351.349 19.6204 351.712 19.8441 352.034 20.1491C352.355 20.454 352.609 20.8501 352.794 21.3373C352.98 21.8212 353.073 22.4095 353.073 23.1022V23.6292H347.002V22.5155H351.616C351.616 22.1244 351.536 21.7781 351.377 21.4765C351.218 21.1715 350.994 20.9313 350.706 20.7556C350.421 20.5799 350.086 20.4921 349.702 20.4921C349.284 20.4921 348.92 20.5948 348.608 20.8003C348.3 21.0025 348.061 21.2677 347.892 21.5958C347.726 21.9206 347.644 22.2736 347.644 22.6547V23.5248C347.644 24.0352 347.733 24.4694 347.912 24.8273C348.094 25.1853 348.348 25.4587 348.673 25.6476C348.998 25.8332 349.377 25.926 349.811 25.926C350.093 25.926 350.35 25.8863 350.582 25.8067C350.814 25.7239 351.014 25.6012 351.183 25.4388C351.352 25.2764 351.482 25.0759 351.571 24.8373L352.978 25.0908C352.865 25.5051 352.663 25.868 352.372 26.1796C352.083 26.4878 351.72 26.7281 351.283 26.9005C350.849 27.0695 350.353 27.154 349.796 27.154Z" fill="#F8F9FD"/>
<path d="M354.722 26.9999V19.3635H356.149V20.6064H356.243C356.402 20.1855 356.663 19.8574 357.024 19.6221C357.385 19.3834 357.818 19.2641 358.321 19.2641C358.832 19.2641 359.259 19.3834 359.604 19.6221C359.952 19.8607 360.209 20.1888 360.375 20.6064H360.454C360.636 20.1988 360.926 19.874 361.324 19.632C361.722 19.3867 362.196 19.2641 362.746 19.2641C363.439 19.2641 364.004 19.4812 364.441 19.9154C364.882 20.3496 365.103 21.0042 365.103 21.8792V26.9999H363.616V22.0184C363.616 21.5013 363.475 21.1268 363.194 20.8948C362.912 20.6628 362.575 20.5468 362.184 20.5468C361.7 20.5468 361.324 20.6959 361.056 20.9942C360.787 21.2892 360.653 21.6687 360.653 22.1327V26.9999H359.171V21.9239C359.171 21.5096 359.042 21.1765 358.784 20.9246C358.525 20.6727 358.189 20.5468 357.774 20.5468C357.493 20.5468 357.233 20.6214 356.994 20.7705C356.759 20.9163 356.568 21.1202 356.422 21.382C356.28 21.6439 356.208 21.9471 356.208 22.2918V26.9999H354.722Z" fill="#F8F9FD"/>
<path d="M368.581 22.4658V26.9999H367.095V19.3635H368.522V20.6064H368.616C368.792 20.2021 369.067 19.8773 369.442 19.632C369.819 19.3867 370.295 19.2641 370.868 19.2641C371.389 19.2641 371.844 19.3735 372.236 19.5922C372.627 19.8077 372.93 20.1292 373.145 20.5567C373.361 20.9843 373.469 21.5129 373.469 22.1427V26.9999H371.982V22.3216C371.982 21.7681 371.838 21.3356 371.549 21.0241C371.261 20.7092 370.865 20.5518 370.361 20.5518C370.017 20.5518 369.71 20.6263 369.442 20.7755C369.176 20.9246 368.966 21.1434 368.81 21.4317C368.658 21.7168 368.581 22.0615 368.581 22.4658Z" fill="#F8F9FD"/>
<path d="M379.027 19.3635V20.5567H374.856V19.3635H379.027ZM375.974 17.534H377.461V24.7577C377.461 25.0461 377.504 25.2632 377.59 25.409C377.676 25.5515 377.787 25.6493 377.923 25.7023C378.062 25.752 378.213 25.7769 378.375 25.7769C378.495 25.7769 378.599 25.7686 378.689 25.752C378.778 25.7355 378.848 25.7222 378.898 25.7123L379.166 26.9403C379.08 26.9734 378.957 27.0065 378.798 27.0397C378.639 27.0761 378.44 27.096 378.202 27.0993C377.81 27.106 377.446 27.0364 377.108 26.8905C376.77 26.7447 376.496 26.5193 376.287 26.2144C376.079 25.9095 375.974 25.5267 375.974 25.066V17.534Z" fill="#F8F9FD"/>
<path d="M390.099 21.2279L388.751 21.4665C388.695 21.2942 388.605 21.1301 388.483 20.9743C388.363 20.8186 388.201 20.691 387.996 20.5915C387.79 20.4921 387.533 20.4424 387.225 20.4424C386.804 20.4424 386.453 20.5368 386.171 20.7258C385.889 20.9114 385.748 21.1517 385.748 21.4466C385.748 21.7019 385.843 21.9073 386.032 22.0631C386.221 22.2189 386.526 22.3465 386.947 22.4459L388.16 22.7243C388.862 22.8867 389.386 23.137 389.731 23.4751C390.075 23.8131 390.248 24.2523 390.248 24.7925C390.248 25.2499 390.115 25.6576 389.85 26.0155C389.588 26.3702 389.222 26.6486 388.751 26.8508C388.284 27.0529 387.742 27.154 387.125 27.154C386.27 27.154 385.573 26.9717 385.032 26.6072C384.492 26.2393 384.161 25.7172 384.038 25.0411L385.475 24.8224C385.564 25.1969 385.748 25.4803 386.027 25.6725C386.305 25.8614 386.668 25.9559 387.116 25.9559C387.603 25.9559 387.992 25.8548 388.284 25.6526C388.576 25.4471 388.721 25.1969 388.721 24.9019C388.721 24.6633 388.632 24.4627 388.453 24.3003C388.277 24.1379 388.007 24.0153 387.643 23.9324L386.35 23.6491C385.637 23.4867 385.11 23.2281 384.769 22.8735C384.431 22.5189 384.262 22.0698 384.262 21.5262C384.262 21.0754 384.388 20.681 384.64 20.343C384.892 20.0049 385.24 19.7414 385.684 19.5525C386.128 19.3602 386.637 19.2641 387.21 19.2641C388.035 19.2641 388.685 19.4431 389.159 19.801C389.633 20.1557 389.946 20.6313 390.099 21.2279Z" fill="#F8F9FD"/>
<path d="M395.173 27.154C394.421 27.154 393.773 26.9933 393.229 26.6718C392.689 26.347 392.272 25.8912 391.977 25.3046C391.685 24.7146 391.539 24.0236 391.539 23.2314C391.539 22.4492 391.685 21.7599 391.977 21.1633C392.272 20.5667 392.682 20.101 393.209 19.7662C393.74 19.4315 394.36 19.2641 395.069 19.2641C395.5 19.2641 395.917 19.3354 396.322 19.4779C396.726 19.6204 397.089 19.8441 397.41 20.1491C397.732 20.454 397.986 20.8501 398.171 21.3373C398.357 21.8212 398.45 22.4095 398.45 23.1022V23.6292H392.379V22.5155H396.993C396.993 22.1244 396.913 21.7781 396.754 21.4765C396.595 21.1715 396.371 20.9313 396.083 20.7556C395.798 20.5799 395.463 20.4921 395.079 20.4921C394.661 20.4921 394.297 20.5948 393.985 20.8003C393.677 21.0025 393.438 21.2677 393.269 21.5958C393.103 21.9206 393.021 22.2736 393.021 22.6547V23.5248C393.021 24.0352 393.11 24.4694 393.289 24.8273C393.471 25.1853 393.725 25.4587 394.05 25.6476C394.374 25.8332 394.754 25.926 395.188 25.926C395.47 25.926 395.727 25.8863 395.959 25.8067C396.191 25.7239 396.391 25.6012 396.56 25.4388C396.729 25.2764 396.859 25.0759 396.948 24.8373L398.355 25.0908C398.242 25.5051 398.04 25.868 397.749 26.1796C397.46 26.4878 397.097 26.7281 396.66 26.9005C396.226 27.0695 395.73 27.154 395.173 27.154Z" fill="#F8F9FD"/>
<path d="M403.39 27.154C402.638 27.154 401.99 26.9933 401.446 26.6718C400.906 26.347 400.488 25.8912 400.193 25.3046C399.902 24.7146 399.756 24.0236 399.756 23.2314C399.756 22.4492 399.902 21.7599 400.193 21.1633C400.488 20.5667 400.899 20.101 401.426 19.7662C401.957 19.4315 402.576 19.2641 403.286 19.2641C403.717 19.2641 404.134 19.3354 404.539 19.4779C404.943 19.6204 405.306 19.8441 405.627 20.1491C405.949 20.454 406.202 20.8501 406.388 21.3373C406.574 21.8212 406.666 22.4095 406.666 23.1022V23.6292H400.596V22.5155H405.21C405.21 22.1244 405.13 21.7781 404.971 21.4765C404.812 21.1715 404.588 20.9313 404.3 20.7556C404.015 20.5799 403.68 20.4921 403.296 20.4921C402.878 20.4921 402.513 20.5948 402.202 20.8003C401.894 21.0025 401.655 21.2677 401.486 21.5958C401.32 21.9206 401.237 22.2736 401.237 22.6547V23.5248C401.237 24.0352 401.327 24.4694 401.506 24.8273C401.688 25.1853 401.942 25.4587 402.266 25.6476C402.591 25.8332 402.971 25.926 403.405 25.926C403.687 25.926 403.944 25.8863 404.176 25.8067C404.408 25.7239 404.608 25.6012 404.777 25.4388C404.946 25.2764 405.075 25.0759 405.165 24.8373L406.572 25.0908C406.459 25.5051 406.257 25.868 405.965 26.1796C405.677 26.4878 405.314 26.7281 404.877 26.9005C404.442 27.0695 403.947 27.154 403.39 27.154Z" fill="#F8F9FD"/>
<path d="M411.174 27.1491C410.558 27.1491 410.008 26.9916 409.524 26.6768C409.043 26.3586 408.665 25.9062 408.39 25.3195C408.118 24.7296 407.983 24.0219 407.983 23.1966C407.983 22.3714 408.12 21.6654 408.395 21.0787C408.674 20.4921 409.055 20.043 409.539 19.7314C410.023 19.4199 410.571 19.2641 411.184 19.2641C411.658 19.2641 412.039 19.3437 412.328 19.5028C412.619 19.6585 412.845 19.8408 413.004 20.0496C413.166 20.2584 413.292 20.4424 413.382 20.6015H413.471V16.8181H414.958V26.9999H413.506V25.8117H413.382C413.292 25.9741 413.163 26.1597 412.994 26.3685C412.828 26.5773 412.6 26.7596 412.308 26.9154C412.016 27.0712 411.638 27.1491 411.174 27.1491ZM411.502 25.8813C411.93 25.8813 412.291 25.7686 412.586 25.5432C412.885 25.3145 413.11 24.998 413.262 24.5937C413.418 24.1893 413.496 23.7187 413.496 23.1817C413.496 22.6514 413.42 22.1874 413.267 21.7897C413.115 21.392 412.891 21.0821 412.596 20.86C412.301 20.6379 411.937 20.5269 411.502 20.5269C411.055 20.5269 410.682 20.6429 410.384 20.8749C410.086 21.1069 409.86 21.4234 409.708 21.8245C409.559 22.2255 409.484 22.6779 409.484 23.1817C409.484 23.6921 409.56 24.1512 409.713 24.5589C409.865 24.9665 410.091 25.2897 410.389 25.5283C410.69 25.7636 411.062 25.8813 411.502 25.8813Z" fill="#F8F9FD"/>
<path d="M17.9389 49.8635C17.7168 49.8635 17.5147 49.8453 17.3324 49.8089C17.1501 49.7757 17.0142 49.7393 16.9247 49.6995L17.2826 48.4814C17.5544 48.5544 17.7964 48.5858 18.0085 48.5759C18.2206 48.566 18.4079 48.4864 18.5703 48.3373C18.736 48.1881 18.8818 47.9445 19.0078 47.6064L19.1917 47.0993L16.3977 39.3635H17.9886L19.9226 45.2897H20.0021L21.9361 39.3635H23.5319L20.3849 48.0191C20.2391 48.4168 20.0535 48.7532 19.8281 49.0283C19.6027 49.3067 19.3343 49.5155 19.0227 49.6547C18.7112 49.7939 18.3499 49.8635 17.9389 49.8635Z" fill="#F8F9FD"/>
<path d="M27.5279 47.1491C26.9114 47.1491 26.3612 46.9916 25.8773 46.6768C25.3967 46.3586 25.0189 45.9062 24.7438 45.3195C24.472 44.7296 24.3361 44.0219 24.3361 43.1966C24.3361 42.3714 24.4736 41.6654 24.7487 41.0787C25.0271 40.4921 25.4083 40.043 25.8922 39.7314C26.3761 39.4199 26.9246 39.2641 27.5378 39.2641C28.0118 39.2641 28.3929 39.3437 28.6813 39.5028C28.9729 39.6585 29.1983 39.8408 29.3574 40.0496C29.5198 40.2584 29.6458 40.4424 29.7352 40.6015H29.8247V36.8181H31.3112V46.9999H29.8595V45.8117H29.7352C29.6458 45.9741 29.5165 46.1597 29.3475 46.3685C29.1817 46.5773 28.953 46.7596 28.6614 46.9154C28.3697 47.0712 27.9919 47.1491 27.5279 47.1491ZM27.856 45.8813C28.2835 45.8813 28.6448 45.7686 28.9398 45.5432C29.2381 45.3145 29.4635 44.998 29.6159 44.5937C29.7717 44.1893 29.8496 43.7187 29.8496 43.1817C29.8496 42.6514 29.7734 42.1874 29.6209 41.7897C29.4684 41.392 29.2447 41.0821 28.9497 40.86C28.6547 40.6379 28.2902 40.5269 27.856 40.5269C27.4085 40.5269 27.0357 40.6429 26.7374 40.8749C26.4391 41.1069 26.2137 41.4234 26.0612 41.8245C25.9121 42.2255 25.8375 42.6779 25.8375 43.1817C25.8375 43.6921 25.9137 44.1512 26.0662 44.5589C26.2187 44.9665 26.444 45.2897 26.7423 45.5283C27.044 45.7636 27.4152 45.8813 27.856 45.8813Z" fill="#F8F9FD"/>
<path d="M37.0671 39.3635V40.5567H32.7518V39.3635H37.0671ZM33.935 46.9999V38.4786C33.935 38.0013 34.0394 37.6053 34.2482 37.2904C34.457 36.9722 34.7338 36.7352 35.0785 36.5795C35.4232 36.4204 35.7977 36.3408 36.202 36.3408C36.5003 36.3408 36.7555 36.3657 36.9677 36.4154C37.1798 36.4618 37.3372 36.5049 37.44 36.5447L37.092 37.7478C37.0223 37.7279 36.9329 37.7047 36.8235 37.6782C36.7141 37.6483 36.5815 37.6334 36.4258 37.6334C36.0645 37.6334 35.806 37.7229 35.6502 37.9019C35.4977 38.0809 35.4215 38.3394 35.4215 38.6775V46.9999H33.935Z" fill="#F8F9FD"/>
<path d="M38.6008 46.9999V39.3635H40.0873V46.9999H38.6008ZM39.3515 38.1853C39.093 38.1853 38.871 38.0991 38.6853 37.9268C38.5031 37.7511 38.4119 37.5423 38.4119 37.3003C38.4119 37.0551 38.5031 36.8463 38.6853 36.6739C38.871 36.4983 39.093 36.4104 39.3515 36.4104C39.6101 36.4104 39.8305 36.4983 40.0128 36.6739C40.1984 36.8463 40.2912 37.0551 40.2912 37.3003C40.2912 37.5423 40.1984 37.7511 40.0128 37.9268C39.8305 38.0991 39.6101 38.1853 39.3515 38.1853Z" fill="#F8F9FD"/>
<path d="M43.5737 42.4658V46.9999H42.0872V39.3635H43.514V40.6064H43.6085C43.7841 40.2021 44.0592 39.8773 44.4337 39.632C44.8116 39.3867 45.2872 39.2641 45.8606 39.2641C46.381 39.2641 46.8367 39.3735 47.2278 39.5922C47.6189 39.8077 47.9221 40.1292 48.1376 40.5567C48.353 40.9843 48.4607 41.5129 48.4607 42.1427V46.9999H46.9742V42.3216C46.9742 41.7681 46.8301 41.3356 46.5417 41.0241C46.2534 40.7092 45.8573 40.5518 45.3535 40.5518C45.0088 40.5518 44.7022 40.6263 44.4337 40.7755C44.1686 40.9246 43.9581 41.1434 43.8024 41.4317C43.6499 41.7168 43.5737 42.0615 43.5737 42.4658Z" fill="#F8F9FD"/>
<path d="M50.4543 46.9999V39.3635H51.9408V46.9999H50.4543ZM51.2051 38.1853C50.9465 38.1853 50.7245 38.0991 50.5389 37.9268C50.3566 37.7511 50.2654 37.5423 50.2654 37.3003C50.2654 37.0551 50.3566 36.8463 50.5389 36.6739C50.7245 36.4983 50.9465 36.4104 51.2051 36.4104C51.4636 36.4104 51.684 36.4983 51.8663 36.6739C52.0519 36.8463 52.1447 37.0551 52.1447 37.3003C52.1447 37.5423 52.0519 37.7511 51.8663 37.9268C51.684 38.0991 51.4636 38.1853 51.2051 38.1853Z" fill="#F8F9FD"/>
<path d="M57.2319 47.154C56.4795 47.154 55.8315 46.9933 55.288 46.6718C54.7477 46.347 54.3301 45.8912 54.0351 45.3046C53.7435 44.7146 53.5976 44.0236 53.5976 43.2314C53.5976 42.4492 53.7435 41.7599 54.0351 41.1633C54.3301 40.5667 54.7411 40.101 55.2681 39.7662C55.7984 39.4315 56.4182 39.2641 57.1275 39.2641C57.5583 39.2641 57.9759 39.3354 58.3803 39.4779C58.7847 39.6204 59.1476 39.8441 59.4691 40.1491C59.7906 40.454 60.0441 40.8501 60.2297 41.3373C60.4153 41.8212 60.5081 42.4095 60.5081 43.1022V43.6292H54.4378V42.5155H59.0515C59.0515 42.1244 58.9719 41.7781 58.8128 41.4765C58.6537 41.1716 58.43 40.9313 58.1417 40.7556C57.8566 40.5799 57.5219 40.4921 57.1374 40.4921C56.7198 40.4921 56.3552 40.5948 56.0437 40.8003C55.7354 41.0025 55.4968 41.2677 55.3277 41.5958C55.162 41.9206 55.0792 42.2736 55.0792 42.6547V43.5248C55.0792 44.0352 55.1687 44.4694 55.3476 44.8273C55.5299 45.1853 55.7835 45.4587 56.1083 45.6476C56.4331 45.8332 56.8126 45.926 57.2468 45.926C57.5285 45.926 57.7854 45.8863 58.0174 45.8067C58.2494 45.7239 58.4499 45.6012 58.6189 45.4388C58.788 45.2764 58.9172 45.0759 59.0067 44.8373L60.4137 45.0908C60.301 45.5051 60.0988 45.868 59.8072 46.1796C59.5188 46.4878 59.1559 46.7281 58.7184 46.9005C58.2842 47.0695 57.7887 47.154 57.2319 47.154Z" fill="#F8F9FD"/>
<path d="M65.7221 39.3635V40.5567H61.5509V39.3635H65.7221ZM62.6695 37.534H64.156V44.7577C64.156 45.0461 64.1991 45.2632 64.2853 45.409C64.3715 45.5515 64.4825 45.6493 64.6184 45.7023C64.7576 45.752 64.9084 45.7769 65.0708 45.7769C65.1901 45.7769 65.2945 45.7686 65.384 45.752C65.4735 45.7355 65.5431 45.7222 65.5928 45.7123L65.8613 46.9403C65.7751 46.9734 65.6525 47.0065 65.4934 47.0397C65.3343 47.0761 65.1355 47.096 64.8968 47.0993C64.5057 47.106 64.1411 47.0364 63.8031 46.8905C63.465 46.7447 63.1916 46.5193 62.9828 46.2144C62.7739 45.9095 62.6695 45.5267 62.6695 45.066V37.534Z" fill="#F8F9FD"/>
<path d="M74.7058 39.3635V40.5567H70.3904V39.3635H74.7058ZM71.5737 46.9999V38.4786C71.5737 38.0013 71.6781 37.6053 71.8869 37.2904C72.0957 36.9722 72.3724 36.7352 72.7171 36.5795C73.0618 36.4204 73.4364 36.3408 73.8407 36.3408C74.139 36.3408 74.3942 36.3657 74.6063 36.4154C74.8185 36.4618 74.9759 36.5049 75.0786 36.5447L74.7306 37.7478C74.661 37.7279 74.5715 37.7047 74.4622 37.6782C74.3528 37.6483 74.2202 37.6334 74.0644 37.6334C73.7032 37.6334 73.4446 37.7229 73.2889 37.9019C73.1364 38.0809 73.0602 38.3394 73.0602 38.6775V46.9999H71.5737Z" fill="#F8F9FD"/>
<path d="M79.1553 47.154C78.4394 47.154 77.8147 46.99 77.281 46.6618C76.7474 46.3337 76.3331 45.8747 76.0382 45.2847C75.7432 44.6948 75.5957 44.0054 75.5957 43.2165C75.5957 42.4244 75.7432 41.7317 76.0382 41.1384C76.3331 40.5451 76.7474 40.0844 77.281 39.7563C77.8147 39.4282 78.4394 39.2641 79.1553 39.2641C79.8712 39.2641 80.496 39.4282 81.0296 39.7563C81.5632 40.0844 81.9775 40.5451 82.2725 41.1384C82.5675 41.7317 82.715 42.4244 82.715 43.2165C82.715 44.0054 82.5675 44.6948 82.2725 45.2847C81.9775 45.8747 81.5632 46.3337 81.0296 46.6618C80.496 46.99 79.8712 47.154 79.1553 47.154ZM79.1603 45.9062C79.6243 45.9062 80.0088 45.7835 80.3137 45.5383C80.6186 45.293 80.844 44.9665 80.9899 44.5589C81.139 44.1512 81.2136 43.7021 81.2136 43.2116C81.2136 42.7243 81.139 42.2769 80.9899 41.8692C80.844 41.4582 80.6186 41.1285 80.3137 40.8799C80.0088 40.6313 79.6243 40.507 79.1603 40.507C78.693 40.507 78.3052 40.6313 77.997 40.8799C77.692 41.1285 77.465 41.4582 77.3158 41.8692C77.17 42.2769 77.0971 42.7243 77.0971 43.2116C77.0971 43.7021 77.17 44.1512 77.3158 44.5589C77.465 44.9665 77.692 45.293 77.997 45.5383C78.3052 45.7835 78.693 45.9062 79.1603 45.9062Z" fill="#F8F9FD"/>
<path d="M86.5966 47.1689C86.1127 47.1689 85.6752 47.0795 85.2841 46.9005C84.893 46.7182 84.5831 46.4547 84.3544 46.11C84.129 45.7653 84.0163 45.3427 84.0163 44.8422C84.0163 44.4114 84.0992 44.0567 84.2649 43.7783C84.4306 43.4999 84.6543 43.2795 84.9361 43.1171C85.2178 42.9547 85.5326 42.8321 85.8807 42.7492C86.2287 42.6663 86.5833 42.6034 86.9446 42.5603C87.402 42.5073 87.7732 42.4642 88.0582 42.431C88.3433 42.3946 88.5504 42.3366 88.6797 42.257C88.8089 42.1775 88.8736 42.0482 88.8736 41.8692V41.8344C88.8736 41.4002 88.7509 41.0638 88.5057 40.8252C88.2637 40.5866 87.9024 40.4672 87.4219 40.4672C86.9214 40.4672 86.527 40.5783 86.2386 40.8003C85.9536 41.0191 85.7564 41.2627 85.647 41.5312L84.25 41.213C84.4157 40.749 84.6576 40.3744 84.9758 40.0894C85.2973 39.801 85.6669 39.5922 86.0845 39.463C86.5021 39.3304 86.9413 39.2641 87.402 39.2641C87.7069 39.2641 88.03 39.3006 88.3714 39.3735C88.7161 39.4431 89.0376 39.5724 89.3359 39.7613C89.6375 39.9502 89.8844 40.2203 90.0767 40.5716C90.2689 40.9197 90.365 41.3721 90.365 41.9289V46.9999H88.9133V45.9559H88.8537C88.7576 46.1481 88.6134 46.337 88.4211 46.5226C88.2289 46.7082 87.982 46.8624 87.6804 46.985C87.3788 47.1076 87.0175 47.1689 86.5966 47.1689ZM86.9197 45.9758C87.3307 45.9758 87.682 45.8946 87.9737 45.7322C88.2687 45.5697 88.4924 45.3576 88.6449 45.0958C88.8006 44.8306 88.8785 44.5473 88.8785 44.2457V43.2613C88.8255 43.3143 88.7228 43.364 88.5703 43.4104C88.4211 43.4535 88.2504 43.4916 88.0582 43.5248C87.866 43.5546 87.6787 43.5828 87.4964 43.6093C87.3141 43.6325 87.1617 43.6524 87.039 43.6689C86.7507 43.7054 86.4872 43.7667 86.2486 43.8529C86.0132 43.9391 85.8243 44.0634 85.6818 44.2258C85.5426 44.3849 85.473 44.597 85.473 44.8621C85.473 45.23 85.6089 45.5084 85.8807 45.6974C86.1524 45.883 86.4988 45.9758 86.9197 45.9758Z" fill="#F8F9FD"/>
<path d="M95.2036 47.1491C94.5872 47.1491 94.037 46.9916 93.5531 46.6768C93.0725 46.3586 92.6946 45.9062 92.4195 45.3195C92.1478 44.7296 92.0119 44.0219 92.0119 43.1966C92.0119 42.3714 92.1494 41.6654 92.4245 41.0787C92.7029 40.4921 93.0841 40.043 93.568 39.7314C94.0519 39.4199 94.6004 39.2641 95.2136 39.2641C95.6875 39.2641 96.0687 39.3437 96.357 39.5028C96.6487 39.6585 96.8741 39.8408 97.0332 40.0496C97.1956 40.2584 97.3215 40.4424 97.411 40.6015H97.5005V36.8181H98.987V46.9999H97.5353V45.8117H97.411C97.3215 45.9741 97.1923 46.1597 97.0232 46.3685C96.8575 46.5773 96.6288 46.7596 96.3372 46.9154C96.0455 47.0712 95.6677 47.1491 95.2036 47.1491ZM95.5318 45.8813C95.9593 45.8813 96.3206 45.7686 96.6156 45.5432C96.9139 45.3145 97.1392 44.998 97.2917 44.5937C97.4475 44.1893 97.5254 43.7187 97.5254 43.1817C97.5254 42.6514 97.4491 42.1874 97.2967 41.7897C97.1442 41.392 96.9205 41.0821 96.6255 40.86C96.3305 40.6379 95.9659 40.5269 95.5318 40.5269C95.0843 40.5269 94.7114 40.6429 94.4132 40.8749C94.1149 41.1069 93.8895 41.4234 93.737 41.8245C93.5879 42.2255 93.5133 42.6779 93.5133 43.1817C93.5133 43.6921 93.5895 44.1512 93.742 44.5589C93.8945 44.9665 94.1198 45.2897 94.4181 45.5283C94.7197 45.7636 95.0909 45.8813 95.5318 45.8813Z" fill="#F8F9FD"/>
<path d="M101.109 46.9999V39.3635H102.545V40.5766H102.625C102.764 40.1656 103.009 39.8425 103.361 39.6072C103.715 39.3685 104.116 39.2492 104.564 39.2492C104.657 39.2492 104.766 39.2525 104.892 39.2591C105.021 39.2658 105.122 39.2741 105.195 39.284V40.7059C105.136 40.6893 105.03 40.6711 104.877 40.6512C104.725 40.628 104.572 40.6164 104.42 40.6164C104.068 40.6164 103.755 40.691 103.48 40.8401C103.208 40.9859 102.993 41.1898 102.834 41.4516C102.675 41.7101 102.595 42.0051 102.595 42.3366V46.9999H101.109Z" fill="#F8F9FD"/>
<path d="M110.567 39.3635V40.5567H106.252V39.3635H110.567ZM107.435 46.9999V38.4786C107.435 38.0013 107.539 37.6053 107.748 37.2904C107.957 36.9722 108.234 36.7352 108.578 36.5795C108.923 36.4204 109.298 36.3408 109.702 36.3408C110 36.3408 110.256 36.3657 110.468 36.4154C110.68 36.4618 110.837 36.5049 110.94 36.5447L110.592 37.7478C110.522 37.7279 110.433 37.7047 110.323 37.6782C110.214 37.6483 110.082 37.6334 109.926 37.6334C109.564 37.6334 109.306 37.7229 109.15 37.9019C108.998 38.0809 108.921 38.3394 108.921 38.6775V46.9999H107.435Z" fill="#F8F9FD"/>
<path d="M118.028 47.1689C117.544 47.1689 117.107 47.0795 116.716 46.9005C116.325 46.7182 116.015 46.4547 115.786 46.11C115.561 45.7653 115.448 45.3427 115.448 44.8422C115.448 44.4114 115.531 44.0567 115.697 43.7783C115.862 43.4999 116.086 43.2795 116.368 43.1171C116.649 42.9547 116.964 42.8321 117.312 42.7492C117.66 42.6663 118.015 42.6034 118.376 42.5603C118.834 42.5073 119.205 42.4642 119.49 42.431C119.775 42.3946 119.982 42.3366 120.111 42.257C120.241 42.1775 120.305 42.0482 120.305 41.8692V41.8344C120.305 41.4002 120.183 41.0638 119.937 40.8252C119.695 40.5866 119.334 40.4672 118.853 40.4672C118.353 40.4672 117.959 40.5783 117.67 40.8003C117.385 41.0191 117.188 41.2627 117.079 41.5312L115.682 41.213C115.847 40.749 116.089 40.3744 116.407 40.0894C116.729 39.801 117.099 39.5922 117.516 39.463C117.934 39.3304 118.373 39.2641 118.834 39.2641C119.139 39.2641 119.462 39.3006 119.803 39.3735C120.148 39.4431 120.469 39.5724 120.768 39.7613C121.069 39.9502 121.316 40.2203 121.508 40.5716C121.701 40.9197 121.797 41.3721 121.797 41.9289V46.9999H120.345V45.9559H120.285C120.189 46.1481 120.045 46.337 119.853 46.5226C119.661 46.7082 119.414 46.8624 119.112 46.985C118.81 47.1076 118.449 47.1689 118.028 47.1689ZM118.351 45.9758C118.762 45.9758 119.114 45.8946 119.405 45.7322C119.7 45.5697 119.924 45.3576 120.077 45.0958C120.232 44.8306 120.31 44.5473 120.31 44.2457V43.2613C120.257 43.3143 120.154 43.364 120.002 43.4104C119.853 43.4535 119.682 43.4916 119.49 43.5248C119.298 43.5546 119.11 43.5828 118.928 43.6093C118.746 43.6325 118.593 43.6524 118.471 43.6689C118.182 43.7054 117.919 43.7667 117.68 43.8529C117.445 43.9391 117.256 44.0634 117.113 44.2258C116.974 44.3849 116.905 44.597 116.905 44.8621C116.905 45.23 117.041 45.5084 117.312 45.6974C117.584 45.883 117.93 45.9758 118.351 45.9758Z" fill="#F8F9FD"/>
<path d="M123.777 46.9999V39.3635H125.213V40.5766H125.293C125.432 40.1656 125.677 39.8425 126.029 39.6072C126.383 39.3685 126.784 39.2492 127.232 39.2492C127.325 39.2492 127.434 39.2525 127.56 39.2591C127.689 39.2658 127.79 39.2741 127.863 39.284V40.7059C127.804 40.6893 127.698 40.6711 127.545 40.6512C127.393 40.628 127.24 40.6164 127.088 40.6164C126.736 40.6164 126.423 40.691 126.148 40.8401C125.876 40.9859 125.661 41.1898 125.502 41.4516C125.343 41.7101 125.263 42.0051 125.263 42.3366V46.9999H123.777Z" fill="#F8F9FD"/>
<path d="M132.167 47.154C131.415 47.154 130.767 46.9933 130.224 46.6718C129.683 46.347 129.266 45.8912 128.971 45.3046C128.679 44.7146 128.533 44.0236 128.533 43.2314C128.533 42.4492 128.679 41.7599 128.971 41.1633C129.266 40.5667 129.677 40.101 130.204 39.7662C130.734 39.4315 131.354 39.2641 132.063 39.2641C132.494 39.2641 132.911 39.3354 133.316 39.4779C133.72 39.6204 134.083 39.8441 134.405 40.1491C134.726 40.454 134.98 40.8501 135.165 41.3373C135.351 41.8212 135.444 42.4095 135.444 43.1022V43.6292H129.373V42.5155H133.987C133.987 42.1244 133.907 41.7781 133.748 41.4765C133.589 41.1716 133.366 40.9313 133.077 40.7556C132.792 40.5799 132.457 40.4921 132.073 40.4921C131.655 40.4921 131.291 40.5948 130.979 40.8003C130.671 41.0025 130.432 41.2677 130.263 41.5958C130.098 41.9206 130.015 42.2736 130.015 42.6547V43.5248C130.015 44.0352 130.104 44.4694 130.283 44.8273C130.465 45.1853 130.719 45.4587 131.044 45.6476C131.369 45.8332 131.748 45.926 132.182 45.926C132.464 45.926 132.721 45.8863 132.953 45.8067C133.185 45.7239 133.385 45.6012 133.554 45.4388C133.724 45.2764 133.853 45.0759 133.942 44.8373L135.349 45.0908C135.237 45.5051 135.034 45.868 134.743 46.1796C134.454 46.4878 134.091 46.7281 133.654 46.9005C133.22 47.0695 132.724 47.154 132.167 47.154Z" fill="#F8F9FD"/>
<path d="M140.384 47.154C139.632 47.154 138.984 46.9933 138.44 46.6718C137.9 46.347 137.482 45.8912 137.187 45.3046C136.896 44.7146 136.75 44.0236 136.75 43.2314C136.75 42.4492 136.896 41.7599 137.187 41.1633C137.482 40.5667 137.893 40.101 138.42 39.7662C138.951 39.4315 139.571 39.2641 140.28 39.2641C140.711 39.2641 141.128 39.3354 141.533 39.4779C141.937 39.6204 142.3 39.8441 142.621 40.1491C142.943 40.454 143.196 40.8501 143.382 41.3373C143.568 41.8212 143.66 42.4095 143.66 43.1022V43.6292H137.59V42.5155H142.204C142.204 42.1244 142.124 41.7781 141.965 41.4765C141.806 41.1716 141.582 40.9313 141.294 40.7556C141.009 40.5799 140.674 40.4921 140.29 40.4921C139.872 40.4921 139.508 40.5948 139.196 40.8003C138.888 41.0025 138.649 41.2677 138.48 41.5958C138.314 41.9206 138.232 42.2736 138.232 42.6547V43.5248C138.232 44.0352 138.321 44.4694 138.5 44.8273C138.682 45.1853 138.936 45.4587 139.261 45.6476C139.585 45.8332 139.965 45.926 140.399 45.926C140.681 45.926 140.938 45.8863 141.17 45.8067C141.402 45.7239 141.602 45.6012 141.771 45.4388C141.94 45.2764 142.07 45.0759 142.159 44.8373L143.566 45.0908C143.453 45.5051 143.251 45.868 142.959 46.1796C142.671 46.4878 142.308 46.7281 141.871 46.9005C141.437 47.0695 140.941 47.154 140.384 47.154Z" fill="#F8F9FD"/>
<path d="M150.147 43.833V39.3635H151.639V46.9999H150.177V45.6775H150.097C149.922 46.0851 149.64 46.4249 149.252 46.6966C148.868 46.9651 148.389 47.0993 147.816 47.0993C147.325 47.0993 146.891 46.9916 146.513 46.7762C146.138 46.5574 145.843 46.2343 145.628 45.8067C145.416 45.3792 145.31 44.8505 145.31 44.2208V39.3635H146.796V44.0418C146.796 44.5622 146.94 44.9765 147.229 45.2847C147.517 45.593 147.892 45.7471 148.352 45.7471C148.631 45.7471 148.908 45.6775 149.183 45.5383C149.461 45.3991 149.691 45.1886 149.874 44.9069C150.059 44.6251 150.151 44.2672 150.147 43.833Z" fill="#F8F9FD"/>
<path d="M157.27 39.3635V40.5567H152.955V39.3635H157.27ZM154.138 46.9999V38.4786C154.138 38.0013 154.243 37.6053 154.451 37.2904C154.66 36.9722 154.937 36.7352 155.282 36.5795C155.626 36.4204 156.001 36.3408 156.405 36.3408C156.703 36.3408 156.959 36.3657 157.171 36.4154C157.383 36.4618 157.54 36.5049 157.643 36.5447L157.295 37.7478C157.225 37.7279 157.136 37.7047 157.027 37.6782C156.917 37.6483 156.785 37.6334 156.629 37.6334C156.268 37.6334 156.009 37.7229 155.853 37.9019C155.701 38.0809 155.625 38.3394 155.625 38.6775V46.9999H154.138Z" fill="#F8F9FD"/>
<path d="M162.369 39.3635V40.5567H158.197V39.3635H162.369ZM159.316 37.534H160.803V44.7577C160.803 45.0461 160.846 45.2632 160.932 45.409C161.018 45.5515 161.129 45.6493 161.265 45.7023C161.404 45.752 161.555 45.7769 161.717 45.7769C161.837 45.7769 161.941 45.7686 162.031 45.752C162.12 45.7355 162.19 45.7222 162.239 45.7123L162.508 46.9403C162.422 46.9734 162.299 47.0065 162.14 47.0397C161.981 47.0761 161.782 47.096 161.543 47.0993C161.152 47.106 160.788 47.0364 160.45 46.8905C160.111 46.7447 159.838 46.5193 159.629 46.2144C159.42 45.9095 159.316 45.5267 159.316 45.066V37.534Z" fill="#F8F9FD"/>
<path d="M173.44 41.2279L172.093 41.4665C172.037 41.2942 171.947 41.1301 171.825 40.9743C171.705 40.8186 171.543 40.691 171.337 40.5915C171.132 40.4921 170.875 40.4424 170.567 40.4424C170.146 40.4424 169.794 40.5368 169.513 40.7258C169.231 40.9114 169.09 41.1517 169.09 41.4466C169.09 41.7019 169.185 41.9073 169.374 42.0631C169.562 42.2189 169.867 42.3465 170.288 42.4459L171.501 42.7243C172.204 42.8867 172.728 43.137 173.072 43.4751C173.417 43.8131 173.589 44.2523 173.589 44.7925C173.589 45.2499 173.457 45.6576 173.192 46.0155C172.93 46.3702 172.564 46.6486 172.093 46.8508C171.626 47.0529 171.084 47.154 170.467 47.154C169.612 47.154 168.915 46.9717 168.374 46.6072C167.834 46.2393 167.503 45.7172 167.38 45.0411L168.817 44.8224C168.906 45.1969 169.09 45.4803 169.369 45.6725C169.647 45.8614 170.01 45.9559 170.457 45.9559C170.945 45.9559 171.334 45.8548 171.626 45.6526C171.917 45.4471 172.063 45.1969 172.063 44.9019C172.063 44.6633 171.974 44.4627 171.795 44.3003C171.619 44.1379 171.349 44.0153 170.984 43.9324L169.692 43.6491C168.979 43.4867 168.452 43.2281 168.111 42.8735C167.773 42.5189 167.604 42.0698 167.604 41.5262C167.604 41.0754 167.73 40.681 167.982 40.343C168.233 40.0049 168.581 39.7414 169.026 39.5525C169.47 39.3602 169.978 39.2641 170.552 39.2641C171.377 39.2641 172.027 39.4431 172.501 39.801C172.975 40.1557 173.288 40.6313 173.44 41.2279Z" fill="#F8F9FD"/>
<path d="M178.515 47.154C177.763 47.154 177.115 46.9933 176.571 46.6718C176.031 46.347 175.613 45.8912 175.318 45.3046C175.027 44.7146 174.881 44.0236 174.881 43.2314C174.881 42.4492 175.027 41.7599 175.318 41.1633C175.613 40.5667 176.024 40.101 176.551 39.7662C177.082 39.4315 177.701 39.2641 178.411 39.2641C178.842 39.2641 179.259 39.3354 179.664 39.4779C180.068 39.6204 180.431 39.8441 180.752 40.1491C181.074 40.454 181.327 40.8501 181.513 41.3373C181.699 41.8212 181.791 42.4095 181.791 43.1022V43.6292H175.721V42.5155H180.335C180.335 42.1244 180.255 41.7781 180.096 41.4765C179.937 41.1716 179.713 40.9313 179.425 40.7556C179.14 40.5799 178.805 40.4921 178.421 40.4921C178.003 40.4921 177.638 40.5948 177.327 40.8003C177.019 41.0025 176.78 41.2677 176.611 41.5958C176.445 41.9206 176.362 42.2736 176.362 42.6547V43.5248C176.362 44.0352 176.452 44.4694 176.631 44.8273C176.813 45.1853 177.067 45.4587 177.391 45.6476C177.716 45.8332 178.096 45.926 178.53 45.926C178.812 45.926 179.069 45.8863 179.301 45.8067C179.533 45.7239 179.733 45.6012 179.902 45.4388C180.071 45.2764 180.2 45.0759 180.29 44.8373L181.697 45.0908C181.584 45.5051 181.382 45.868 181.09 46.1796C180.802 46.4878 180.439 46.7281 180.002 46.9005C179.567 47.0695 179.072 47.154 178.515 47.154Z" fill="#F8F9FD"/>
<path d="M186.732 47.154C185.98 47.154 185.332 46.9933 184.788 46.6718C184.248 46.347 183.83 45.8912 183.535 45.3046C183.243 44.7146 183.098 44.0236 183.098 43.2314C183.098 42.4492 183.243 41.7599 183.535 41.1633C183.83 40.5667 184.241 40.101 184.768 39.7662C185.298 39.4315 185.918 39.2641 186.627 39.2641C187.058 39.2641 187.476 39.3354 187.88 39.4779C188.285 39.6204 188.648 39.8441 188.969 40.1491C189.291 40.454 189.544 40.8501 189.73 41.3373C189.915 41.8212 190.008 42.4095 190.008 43.1022V43.6292H183.938V42.5155H188.551C188.551 42.1244 188.472 41.7781 188.313 41.4765C188.154 41.1716 187.93 40.9313 187.642 40.7556C187.357 40.5799 187.022 40.4921 186.637 40.4921C186.22 40.4921 185.855 40.5948 185.544 40.8003C185.235 41.0025 184.997 41.2677 184.828 41.5958C184.662 41.9206 184.579 42.2736 184.579 42.6547V43.5248C184.579 44.0352 184.669 44.4694 184.848 44.8273C185.03 45.1853 185.283 45.4587 185.608 45.6476C185.933 45.8332 186.313 45.926 186.747 45.926C187.029 45.926 187.285 45.8863 187.517 45.8067C187.749 45.7239 187.95 45.6012 188.119 45.4388C188.288 45.2764 188.417 45.0759 188.507 44.8373L189.914 45.0908C189.801 45.5051 189.599 45.868 189.307 46.1796C189.019 46.4878 188.656 46.7281 188.218 46.9005C187.784 47.0695 187.289 47.154 186.732 47.154Z" fill="#F8F9FD"/>
<path d="M194.516 47.1491C193.9 47.1491 193.349 46.9916 192.866 46.6768C192.385 46.3586 192.007 45.9062 191.732 45.3195C191.46 44.7296 191.324 44.0219 191.324 43.1966C191.324 42.3714 191.462 41.6654 191.737 41.0787C192.015 40.4921 192.397 40.043 192.88 39.7314C193.364 39.4199 193.913 39.2641 194.526 39.2641C195 39.2641 195.381 39.3437 195.67 39.5028C195.961 39.6585 196.187 39.8408 196.346 40.0496C196.508 40.2584 196.634 40.4424 196.724 40.6015H196.813V36.8181H198.3V46.9999H196.848V45.8117H196.724C196.634 45.9741 196.505 46.1597 196.336 46.3685C196.17 46.5773 195.941 46.7596 195.65 46.9154C195.358 47.0712 194.98 47.1491 194.516 47.1491ZM194.844 45.8813C195.272 45.8813 195.633 45.7686 195.928 45.5432C196.226 45.3145 196.452 44.998 196.604 44.5937C196.76 44.1893 196.838 43.7187 196.838 43.1817C196.838 42.6514 196.762 42.1874 196.609 41.7897C196.457 41.392 196.233 41.0821 195.938 40.86C195.643 40.6379 195.278 40.5269 194.844 40.5269C194.397 40.5269 194.024 40.6429 193.726 40.8749C193.427 41.1069 193.202 41.4234 193.05 41.8245C192.9 42.2255 192.826 42.6779 192.826 43.1817C192.826 43.6921 192.902 44.1512 193.054 44.5589C193.207 44.9665 193.432 45.2897 193.731 45.5283C194.032 45.7636 194.403 45.8813 194.844 45.8813Z" fill="#F8F9FD"/>
</g>
</g>
<defs>
<filter id="filter0_f_4015_38355" x="-1.60229" y="-1.65918" width="434.56" height="69.5229" filterUnits="userSpaceOnUse" color-interpolation-filters="sRGB">
<feFlood flood-opacity="0" result="BackgroundImageFix"/>
<feBlend mode="normal" in="SourceGraphic" in2="BackgroundImageFix" result="shape"/>
<feGaussianBlur stdDeviation="9" result="effect1_foregroundBlur_4015_38355"/>
</filter>
<clipPath id="clip0_4015_38355">
<rect width="440" height="112" fill="white"/>
</clipPath>
</defs>
</svg>
