<svg width="24" height="24" viewBox="0 0 24 24" fill="none" xmlns="http://www.w3.org/2000/svg">
    <path d="M12 17C11.7348 17 11.4804 16.9097 11.2929 16.7489C11.1054 16.5882 11 16.3702 11 16.1429V11.8571C11 11.6298 11.1054 11.4118 11.2929 11.2511C11.4804 11.0903 11.7348 11 12 11C12.2652 11 12.5196 11.0903 12.7071 11.2511C12.8946 11.4118 13 11.6298 13 11.8571V16.1429C13 16.3702 12.8946 16.5882 12.7071 16.7489C12.5196 16.9097 12.2652 17 12 17Z" fill="#F8FCFD"/>
    <path d="M12 9C12.5523 9 13 8.55228 13 8C13 7.44771 12.5523 7 12 7C11.4477 7 11 7.44771 11 8C11 8.55228 11.4477 9 12 9Z" fill="#F8FCFD"/>
    <path d="M12 22C10.0222 22 8.08879 21.4135 6.4443 20.3147C4.79981 19.2159 3.51809 17.6541 2.76121 15.8268C2.00433 13.9996 1.8063 11.9889 2.19215 10.0491C2.578 8.10929 3.53041 6.32746 4.92894 4.92894C6.32746 3.53041 8.10929 2.578 10.0491 2.19215C11.9889 1.8063 13.9996 2.00433 15.8268 2.76121C17.6541 3.51809 19.2159 4.79981 20.3147 6.4443C21.4135 8.08879 22 10.0222 22 12C21.9971 14.6513 20.9426 17.1931 19.0679 19.0679C17.1931 20.9426 14.6513 21.9971 12 22ZM12 4C10.4178 4 8.87104 4.4692 7.55544 5.34825C6.23985 6.2273 5.21447 7.47673 4.60897 8.93854C4.00347 10.4003 3.84504 12.0089 4.15372 13.5607C4.4624 15.1126 5.22433 16.538 6.34315 17.6569C7.46197 18.7757 8.88743 19.5376 10.4393 19.8463C11.9911 20.155 13.5997 19.9965 15.0615 19.391C16.5233 18.7855 17.7727 17.7602 18.6518 16.4446C19.5308 15.129 20 13.5823 20 12C19.9976 9.879 19.154 7.84556 17.6542 6.34578C16.1545 4.84601 14.121 4.00239 12 4Z" fill="#F8FCFD"/>
</svg>
