<svg width="470" height="50" viewBox="0 0 470 50" fill="none" xmlns="http://www.w3.org/2000/svg">
    <g clip-path="url(#clip0_4976_48847)">
        <g filter="url(#filter0_ii_4976_48847)">
            <rect x="-23.0908" y="21.5908" width="87.5" height="6.81818" fill="#0E1314" fill-opacity="0.6"/>
        </g>
        <rect x="-22.5908" y="22.0908" width="86.5" height="5.81818" stroke="#F8FCFD" stroke-opacity="0.05"/>
        <g filter="url(#filter1_ii_4976_48847)">
            <path d="M64.4092 22.3184C64.4092 20.6615 65.7523 19.3184 67.4092 19.3184H72.3637V30.682H67.4092C65.7523 30.682 64.4092 29.3389 64.4092 27.682V22.3184Z" fill="#0E1314" fill-opacity="0.6"/>
        </g>
        <path d="M64.9092 22.3184C64.9092 20.9376 66.0285 19.8184 67.4092 19.8184H71.8637V30.182H67.4092C66.0285 30.182 64.9092 29.0627 64.9092 27.682V22.3184Z" stroke="#F8FCFD" stroke-opacity="0.05"/>
        <g filter="url(#filter2_ii_4976_48847)">
            <path d="M72.3638 14.7727C72.3638 13.5175 73.3813 12.5 74.6365 12.5H100.773V37.5H74.6365C73.3813 37.5 72.3638 36.4825 72.3638 35.2273V14.7727Z" fill="#0E1314" fill-opacity="0.6"/>
        </g>
        <path d="M72.8638 14.7727C72.8638 13.7937 73.6574 13 74.6365 13H100.273V37H74.6365C73.6574 37 72.8638 36.2063 72.8638 35.2273V14.7727Z" stroke="#F8FCFD" stroke-opacity="0.05"/>
        <path d="M113.5 30.7273C113.5 31.7063 112.706 32.5 111.727 32.5L101.5 32.5L101.5 17.5L111.727 17.5C112.706 17.5 113.5 18.2937 113.5 19.2727L113.5 30.7273Z" fill="#CCF9FF" fill-opacity="0.1" stroke="#323453"/>
        <mask id="path-8-inside-1_4976_48847" fill="white">
            <path fill-rule="evenodd" clip-rule="evenodd" d="M130.772 0C127.459 0 124.772 2.68629 124.772 6V44C124.772 47.3137 127.459 50 130.772 50H298.636C284.829 50 273.636 38.8071 273.636 25C273.636 11.1929 284.829 0 298.636 0H130.772Z"/>
        </mask>
        <g filter="url(#filter3_ii_4976_48847)">
            <path fill-rule="evenodd" clip-rule="evenodd" d="M130.772 0C127.459 0 124.772 2.68629 124.772 6V44C124.772 47.3137 127.459 50 130.772 50H298.636C284.829 50 273.636 38.8071 273.636 25C273.636 11.1929 284.829 0 298.636 0H130.772Z" fill="#0E1314" fill-opacity="0.6"/>
        </g>
        <path d="M125.772 6C125.772 3.23858 128.011 1 130.772 1V-1C126.906 -1 123.772 2.13401 123.772 6H125.772ZM125.772 44V6H123.772V44H125.772ZM130.772 49C128.011 49 125.772 46.7614 125.772 44H123.772C123.772 47.866 126.906 51 130.772 51V49ZM298.636 49H130.772V51H298.636V49ZM298.636 49C285.381 49 274.636 38.2548 274.636 25H272.636C272.636 39.3594 284.277 51 298.636 51V49ZM274.636 25C274.636 11.7452 285.381 1 298.636 1V-1C284.277 -1 272.636 10.6406 272.636 25H274.636ZM130.772 1H298.636V-1H130.772V1Z" fill="#F8FCFD" fill-opacity="0.05" mask="url(#path-8-inside-1_4976_48847)"/>
        <mask id="mask0_4976_48847" style="mask-type:alpha" maskUnits="userSpaceOnUse" x="273" y="0" width="197" height="50">
            <path d="M273.636 25C273.636 11.1929 284.829 0 298.636 0H469.091V50H298.636C284.829 50 273.636 38.8071 273.636 25Z" fill="white"/>
        </mask>
        <g mask="url(#mask0_4976_48847)">
            <g filter="url(#filter4_f_4976_48847)">
                <path d="M273.636 25C273.636 11.1929 284.829 0 298.636 0H469.091V50H298.636C284.829 50 273.636 38.8071 273.636 25Z" fill="#CCF9FF" fill-opacity="0.1"/>
                <path d="M274.136 25C274.136 11.469 285.105 0.5 298.636 0.5H468.591V49.5H298.636C285.105 49.5 274.136 38.531 274.136 25Z" stroke="#323453"/>
            </g>
        </g>
        <g filter="url(#filter5_ii_4976_48847)">
            <circle cx="152.045" cy="24.9994" r="14.9545" fill="#CCF9FF" fill-opacity="0.2"/>
        </g>
        <g filter="url(#filter6_ii_4976_48847)">
            <circle cx="300.954" cy="24.9994" r="14.9545" fill="#CCF9FF" fill-opacity="0.2"/>
        </g>
        <rect x="464.545" width="4.54545" height="50" fill="#F8FCFD" fill-opacity="0.2"/>
        <rect x="186" y="7.9541" width="77.2727" height="35.2273" rx="4.54545" fill="#F8FCFD" fill-opacity="0.08"/>
        <path d="M225.055 14C225.848 14 226.498 14.6761 226.498 15.5V17H223.613V15.5C223.613 14.6761 224.263 14 225.055 14ZM227.459 17V15.5C227.459 14.1239 226.379 13 225.055 13C223.732 13 222.652 14.1239 222.652 15.5V17H222.171C221.64 17 221.209 17.4477 221.209 18V22C221.209 22.5523 221.64 23 222.171 23H227.94C228.471 23 228.902 22.5523 228.902 22V18C228.902 17.4477 228.471 17 227.94 17H227.459ZM222.171 18H227.94V22H222.171V18Z" fill="#F8FCFD"/>
        <path d="M198.583 34V28.6587H202.182V29.5897H199.713V30.8625H201.997V31.7936H199.713V33.0689H202.193V34H198.583ZM204.17 31.684V34H203.059V29.994H204.118V30.7008H204.165C204.254 30.4678 204.403 30.2835 204.611 30.1479C204.82 30.0105 205.073 29.9418 205.37 29.9418C205.648 29.9418 205.891 30.0027 206.098 30.1244C206.305 30.2461 206.466 30.42 206.58 30.646C206.695 30.8703 206.752 31.1381 206.752 31.4493V34H205.641V31.6475C205.643 31.4024 205.581 31.2111 205.454 31.0737C205.327 30.9346 205.152 30.8651 204.929 30.8651C204.78 30.8651 204.648 30.8973 204.533 30.9616C204.42 31.0259 204.331 31.1198 204.267 31.2433C204.204 31.365 204.172 31.5119 204.17 31.684ZM209.759 29.994V30.8286H207.346V29.994H209.759ZM207.894 29.0342H209.005V32.769C209.005 32.8716 209.021 32.9516 209.052 33.0089C209.083 33.0646 209.127 33.1037 209.183 33.1263C209.24 33.1489 209.306 33.1602 209.381 33.1602C209.433 33.1602 209.485 33.1559 209.537 33.1472C209.589 33.1367 209.629 33.1289 209.657 33.1237L209.832 33.9504C209.776 33.9678 209.698 33.9878 209.597 34.0104C209.496 34.0348 209.374 34.0496 209.229 34.0548C208.962 34.0652 208.727 34.0296 208.525 33.9478C208.325 33.8661 208.17 33.7392 208.058 33.5671C207.947 33.3949 207.892 33.1776 207.894 32.915V29.0342ZM212.265 34.0782C211.853 34.0782 211.498 33.9948 211.201 33.8279C210.906 33.6592 210.678 33.421 210.518 33.1133C210.358 32.8038 210.278 32.4378 210.278 32.0153C210.278 31.6032 210.358 31.2415 210.518 30.9303C210.678 30.6191 210.903 30.3765 211.193 30.2026C211.485 30.0288 211.828 29.9418 212.221 29.9418C212.485 29.9418 212.731 29.9844 212.959 30.0696C213.189 30.1531 213.388 30.2791 213.559 30.4478C213.731 30.6164 213.865 30.8286 213.961 31.0842C214.056 31.338 214.104 31.6353 214.104 31.9761V32.2813H210.721V31.5927H213.058C213.058 31.4328 213.023 31.2911 212.954 31.1676C212.884 31.0442 212.788 30.9477 212.664 30.8781C212.543 30.8068 212.401 30.7712 212.239 30.7712C212.071 30.7712 211.921 30.8103 211.791 30.8886C211.662 30.9651 211.561 31.0685 211.488 31.1989C211.415 31.3276 211.378 31.471 211.376 31.6293V32.2839C211.376 32.4821 211.412 32.6534 211.485 32.7977C211.56 32.942 211.665 33.0533 211.801 33.1315C211.937 33.2098 212.097 33.2489 212.284 33.2489C212.407 33.2489 212.52 33.2315 212.623 33.1967C212.725 33.1619 212.813 33.1098 212.886 33.0402C212.959 32.9707 213.015 32.8855 213.053 32.7846L214.08 32.8524C214.028 33.0993 213.921 33.3149 213.76 33.4992C213.6 33.6818 213.393 33.8244 213.139 33.927C212.887 34.0278 212.596 34.0782 212.265 34.0782ZM214.829 34V29.994H215.906V30.693H215.948C216.021 30.4443 216.143 30.2565 216.316 30.1296C216.488 30.0009 216.686 29.9366 216.91 29.9366C216.966 29.9366 217.026 29.9401 217.09 29.947C217.155 29.954 217.211 29.9636 217.26 29.9757V30.9616C217.208 30.9459 217.135 30.932 217.043 30.9199C216.951 30.9077 216.867 30.9016 216.79 30.9016C216.627 30.9016 216.481 30.9372 216.352 31.0085C216.225 31.0781 216.124 31.1754 216.05 31.3006C215.977 31.4258 215.94 31.5701 215.94 31.7336V34H214.829ZM219.534 35.5023V29.994H220.629V30.6669H220.679C220.728 30.5591 220.798 30.4495 220.89 30.3383C220.984 30.2252 221.106 30.1313 221.255 30.0566C221.407 29.9801 221.594 29.9418 221.819 29.9418C222.111 29.9418 222.38 30.0183 222.627 30.1713C222.874 30.3226 223.071 30.5512 223.219 30.8573C223.367 31.1615 223.441 31.5432 223.441 32.0022C223.441 32.4491 223.369 32.8264 223.224 33.1341C223.082 33.4401 222.887 33.6723 222.64 33.8305C222.395 33.987 222.12 34.0652 221.816 34.0652C221.6 34.0652 221.417 34.0296 221.266 33.9583C221.116 33.887 220.994 33.7974 220.898 33.6896C220.802 33.5801 220.729 33.4697 220.679 33.3584H220.645V35.5023H219.534ZM220.622 31.997C220.622 32.2352 220.655 32.443 220.721 32.6203C220.787 32.7977 220.882 32.9359 221.008 33.035C221.133 33.1324 221.285 33.1811 221.464 33.1811C221.645 33.1811 221.798 33.1315 221.923 33.0324C222.048 32.9316 222.143 32.7925 222.207 32.6151C222.273 32.436 222.306 32.23 222.306 31.997C222.306 31.7657 222.274 31.5623 222.21 31.3867C222.146 31.2111 222.051 31.0737 221.926 30.9746C221.8 30.8755 221.647 30.826 221.464 30.826C221.283 30.826 221.13 30.8738 221.005 30.9694C220.881 31.065 220.787 31.2007 220.721 31.3763C220.655 31.5519 220.622 31.7588 220.622 31.997ZM224.182 34V29.994H225.293V34H224.182ZM224.74 29.4776C224.575 29.4776 224.433 29.4228 224.315 29.3133C224.198 29.202 224.14 29.069 224.14 28.9142C224.14 28.7612 224.198 28.63 224.315 28.5204C224.433 28.4091 224.575 28.3535 224.74 28.3535C224.905 28.3535 225.046 28.4091 225.162 28.5204C225.28 28.63 225.34 28.7612 225.34 28.9142C225.34 29.069 225.28 29.202 225.162 29.3133C225.046 29.4228 224.905 29.4776 224.74 29.4776ZM227.294 31.684V34H226.183V29.994H227.242V30.7008H227.288C227.377 30.4678 227.526 30.2835 227.734 30.1479C227.943 30.0105 228.196 29.9418 228.493 29.9418C228.772 29.9418 229.014 30.0027 229.221 30.1244C229.428 30.2461 229.589 30.42 229.704 30.646C229.818 30.8703 229.876 31.1381 229.876 31.4493V34H228.765V31.6475C228.766 31.4024 228.704 31.2111 228.577 31.0737C228.45 30.9346 228.275 30.8651 228.053 30.8651C227.903 30.8651 227.771 30.8973 227.656 30.9616C227.543 31.0259 227.455 31.1198 227.39 31.2433C227.328 31.365 227.295 31.5119 227.294 31.684ZM234.261 34.0782C233.851 34.0782 233.498 33.9913 233.202 33.8174C232.908 33.6418 232.682 33.3984 232.524 33.0872C232.368 32.7759 232.289 32.4178 232.289 32.0126C232.289 31.6023 232.369 31.2424 232.527 30.9329C232.687 30.6217 232.914 30.3791 233.208 30.2052C233.501 30.0296 233.851 29.9418 234.256 29.9418C234.605 29.9418 234.911 30.0053 235.174 30.1322C235.437 30.2591 235.644 30.4374 235.797 30.6669C235.95 30.8964 236.035 31.1659 236.05 31.4754H235.002C234.972 31.2754 234.894 31.1146 234.767 30.9929C234.642 30.8694 234.478 30.8077 234.274 30.8077C234.102 30.8077 233.952 30.8547 233.823 30.9485C233.696 31.0407 233.597 31.1754 233.526 31.3528C233.454 31.5301 233.419 31.7449 233.419 31.997C233.419 32.2526 233.454 32.4699 233.523 32.649C233.594 32.8281 233.694 32.9646 233.823 33.0585C233.952 33.1524 234.102 33.1993 234.274 33.1993C234.401 33.1993 234.515 33.1732 234.616 33.1211C234.718 33.0689 234.803 32.9933 234.869 32.8942C234.937 32.7933 234.981 32.6725 235.002 32.5317H236.05C236.033 32.8377 235.949 33.1072 235.8 33.3402C235.652 33.5714 235.448 33.7522 235.187 33.8826C234.926 34.013 234.618 34.0782 234.261 34.0782ZM238.572 34.0782C238.167 34.0782 237.816 33.9922 237.521 33.82C237.227 33.6462 237 33.4045 236.84 33.095C236.68 32.7838 236.6 32.423 236.6 32.0126C236.6 31.5988 236.68 31.2372 236.84 30.9277C237 30.6164 237.227 30.3748 237.521 30.2026C237.816 30.0288 238.167 29.9418 238.572 29.9418C238.977 29.9418 239.326 30.0288 239.62 30.2026C239.916 30.3748 240.143 30.6164 240.303 30.9277C240.463 31.2372 240.543 31.5988 240.543 32.0126C240.543 32.423 240.463 32.7838 240.303 33.095C240.143 33.4045 239.916 33.6462 239.62 33.82C239.326 33.9922 238.977 34.0782 238.572 34.0782ZM238.577 33.2176C238.761 33.2176 238.915 33.1654 239.039 33.0611C239.162 32.955 239.255 32.8107 239.318 32.6281C239.382 32.4456 239.414 32.2378 239.414 32.0048C239.414 31.7718 239.382 31.5641 239.318 31.3815C239.255 31.1989 239.162 31.0546 239.039 30.9485C238.915 30.8425 238.761 30.7895 238.577 30.7895C238.391 30.7895 238.234 30.8425 238.107 30.9485C237.982 31.0546 237.887 31.1989 237.823 31.3815C237.761 31.5641 237.729 31.7718 237.729 32.0048C237.729 32.2378 237.761 32.4456 237.823 32.6281C237.887 32.8107 237.982 32.955 238.107 33.0611C238.234 33.1654 238.391 33.2176 238.577 33.2176ZM242.742 34.0652C242.438 34.0652 242.162 33.987 241.915 33.8305C241.67 33.6723 241.475 33.4401 241.331 33.1341C241.188 32.8264 241.117 32.4491 241.117 32.0022C241.117 31.5432 241.191 31.1615 241.339 30.8573C241.487 30.5512 241.683 30.3226 241.928 30.1713C242.175 30.0183 242.446 29.9418 242.739 29.9418C242.964 29.9418 243.151 29.9801 243.3 30.0566C243.451 30.1313 243.573 30.2252 243.665 30.3383C243.759 30.4495 243.83 30.5591 243.879 30.6669H243.913V28.6587H245.021V34H243.926V33.3584H243.879C243.827 33.4697 243.753 33.5801 243.657 33.6896C243.564 33.7974 243.441 33.887 243.29 33.9583C243.14 34.0296 242.958 34.0652 242.742 34.0652ZM243.094 33.1811C243.273 33.1811 243.424 33.1324 243.548 33.035C243.673 32.9359 243.769 32.7977 243.835 32.6203C243.903 32.443 243.936 32.2352 243.936 31.997C243.936 31.7588 243.903 31.5519 243.837 31.3763C243.771 31.2007 243.676 31.065 243.551 30.9694C243.425 30.8738 243.273 30.826 243.094 30.826C242.912 30.826 242.758 30.8755 242.632 30.9746C242.507 31.0737 242.413 31.2111 242.348 31.3867C242.284 31.5623 242.252 31.7657 242.252 31.997C242.252 32.23 242.284 32.436 242.348 32.6151C242.414 32.7925 242.509 32.9316 242.632 33.0324C242.758 33.1315 242.912 33.1811 243.094 33.1811ZM247.761 34.0782C247.349 34.0782 246.994 33.9948 246.696 33.8279C246.401 33.6592 246.173 33.421 246.013 33.1133C245.853 32.8038 245.773 32.4378 245.773 32.0153C245.773 31.6032 245.853 31.2415 246.013 30.9303C246.173 30.6191 246.398 30.3765 246.689 30.2026C246.981 30.0288 247.323 29.9418 247.716 29.9418C247.981 29.9418 248.227 29.9844 248.454 30.0696C248.684 30.1531 248.884 30.2791 249.054 30.4478C249.226 30.6164 249.36 30.8286 249.456 31.0842C249.551 31.338 249.599 31.6353 249.599 31.9761V32.2813H246.217V31.5927H248.553C248.553 31.4328 248.519 31.2911 248.449 31.1676C248.38 31.0442 248.283 30.9477 248.16 30.8781C248.038 30.8068 247.896 30.7712 247.735 30.7712C247.566 30.7712 247.416 30.8103 247.286 30.8886C247.157 30.9651 247.056 31.0685 246.983 31.1989C246.91 31.3276 246.873 31.471 246.871 31.6293V32.2839C246.871 32.4821 246.908 32.6534 246.981 32.7977C247.056 32.942 247.161 33.0533 247.296 33.1315C247.432 33.2098 247.593 33.2489 247.779 33.2489C247.902 33.2489 248.015 33.2315 248.118 33.1967C248.22 33.1619 248.308 33.1098 248.381 33.0402C248.454 32.9707 248.51 32.8855 248.548 32.7846L249.576 32.8524C249.524 33.0993 249.417 33.3149 249.255 33.4992C249.095 33.6818 248.888 33.8244 248.634 33.927C248.382 34.0278 248.091 34.0782 247.761 34.0782Z" fill="#F8FCFD"/>
    </g>
    <defs>
        <filter id="filter0_ii_4976_48847" x="-23.0908" y="21.5908" width="87.5" height="7.81836" filterUnits="userSpaceOnUse" color-interpolation-filters="sRGB">
            <feFlood flood-opacity="0" result="BackgroundImageFix"/>
            <feBlend mode="normal" in="SourceGraphic" in2="BackgroundImageFix" result="shape"/>
            <feColorMatrix in="SourceAlpha" type="matrix" values="0 0 0 0 0 0 0 0 0 0 0 0 0 0 0 0 0 0 127 0" result="hardAlpha"/>
            <feOffset dy="1"/>
            <feGaussianBlur stdDeviation="0.5"/>
            <feComposite in2="hardAlpha" operator="arithmetic" k2="-1" k3="1"/>
            <feColorMatrix type="matrix" values="0 0 0 0 0.445833 0 0 0 0 0.445833 0 0 0 0 0.445833 0 0 0 0.15 0"/>
            <feBlend mode="normal" in2="shape" result="effect1_innerShadow_4976_48847"/>
            <feColorMatrix in="SourceAlpha" type="matrix" values="0 0 0 0 0 0 0 0 0 0 0 0 0 0 0 0 0 0 127 0" result="hardAlpha"/>
            <feOffset/>
            <feGaussianBlur stdDeviation="3.5"/>
            <feComposite in2="hardAlpha" operator="arithmetic" k2="-1" k3="1"/>
            <feColorMatrix type="matrix" values="0 0 0 0 1 0 0 0 0 1 0 0 0 0 1 0 0 0 0.05 0"/>
            <feBlend mode="normal" in2="effect1_innerShadow_4976_48847" result="effect2_innerShadow_4976_48847"/>
        </filter>
        <filter id="filter1_ii_4976_48847" x="64.4092" y="19.3184" width="7.95459" height="12.3638" filterUnits="userSpaceOnUse" color-interpolation-filters="sRGB">
            <feFlood flood-opacity="0" result="BackgroundImageFix"/>
            <feBlend mode="normal" in="SourceGraphic" in2="BackgroundImageFix" result="shape"/>
            <feColorMatrix in="SourceAlpha" type="matrix" values="0 0 0 0 0 0 0 0 0 0 0 0 0 0 0 0 0 0 127 0" result="hardAlpha"/>
            <feOffset dy="1"/>
            <feGaussianBlur stdDeviation="0.5"/>
            <feComposite in2="hardAlpha" operator="arithmetic" k2="-1" k3="1"/>
            <feColorMatrix type="matrix" values="0 0 0 0 0.445833 0 0 0 0 0.445833 0 0 0 0 0.445833 0 0 0 0.15 0"/>
            <feBlend mode="normal" in2="shape" result="effect1_innerShadow_4976_48847"/>
            <feColorMatrix in="SourceAlpha" type="matrix" values="0 0 0 0 0 0 0 0 0 0 0 0 0 0 0 0 0 0 127 0" result="hardAlpha"/>
            <feOffset/>
            <feGaussianBlur stdDeviation="3.5"/>
            <feComposite in2="hardAlpha" operator="arithmetic" k2="-1" k3="1"/>
            <feColorMatrix type="matrix" values="0 0 0 0 1 0 0 0 0 1 0 0 0 0 1 0 0 0 0.05 0"/>
            <feBlend mode="normal" in2="effect1_innerShadow_4976_48847" result="effect2_innerShadow_4976_48847"/>
        </filter>
        <filter id="filter2_ii_4976_48847" x="72.3638" y="12.5" width="28.4091" height="26" filterUnits="userSpaceOnUse" color-interpolation-filters="sRGB">
            <feFlood flood-opacity="0" result="BackgroundImageFix"/>
            <feBlend mode="normal" in="SourceGraphic" in2="BackgroundImageFix" result="shape"/>
            <feColorMatrix in="SourceAlpha" type="matrix" values="0 0 0 0 0 0 0 0 0 0 0 0 0 0 0 0 0 0 127 0" result="hardAlpha"/>
            <feOffset dy="1"/>
            <feGaussianBlur stdDeviation="0.5"/>
            <feComposite in2="hardAlpha" operator="arithmetic" k2="-1" k3="1"/>
            <feColorMatrix type="matrix" values="0 0 0 0 0.445833 0 0 0 0 0.445833 0 0 0 0 0.445833 0 0 0 0.15 0"/>
            <feBlend mode="normal" in2="shape" result="effect1_innerShadow_4976_48847"/>
            <feColorMatrix in="SourceAlpha" type="matrix" values="0 0 0 0 0 0 0 0 0 0 0 0 0 0 0 0 0 0 127 0" result="hardAlpha"/>
            <feOffset/>
            <feGaussianBlur stdDeviation="3.5"/>
            <feComposite in2="hardAlpha" operator="arithmetic" k2="-1" k3="1"/>
            <feColorMatrix type="matrix" values="0 0 0 0 1 0 0 0 0 1 0 0 0 0 1 0 0 0 0.05 0"/>
            <feBlend mode="normal" in2="effect1_innerShadow_4976_48847" result="effect2_innerShadow_4976_48847"/>
        </filter>
        <filter id="filter3_ii_4976_48847" x="124.772" y="0" width="173.864" height="51" filterUnits="userSpaceOnUse" color-interpolation-filters="sRGB">
            <feFlood flood-opacity="0" result="BackgroundImageFix"/>
            <feBlend mode="normal" in="SourceGraphic" in2="BackgroundImageFix" result="shape"/>
            <feColorMatrix in="SourceAlpha" type="matrix" values="0 0 0 0 0 0 0 0 0 0 0 0 0 0 0 0 0 0 127 0" result="hardAlpha"/>
            <feOffset dy="1"/>
            <feGaussianBlur stdDeviation="0.5"/>
            <feComposite in2="hardAlpha" operator="arithmetic" k2="-1" k3="1"/>
            <feColorMatrix type="matrix" values="0 0 0 0 0.445833 0 0 0 0 0.445833 0 0 0 0 0.445833 0 0 0 0.15 0"/>
            <feBlend mode="normal" in2="shape" result="effect1_innerShadow_4976_48847"/>
            <feColorMatrix in="SourceAlpha" type="matrix" values="0 0 0 0 0 0 0 0 0 0 0 0 0 0 0 0 0 0 127 0" result="hardAlpha"/>
            <feOffset/>
            <feGaussianBlur stdDeviation="3.5"/>
            <feComposite in2="hardAlpha" operator="arithmetic" k2="-1" k3="1"/>
            <feColorMatrix type="matrix" values="0 0 0 0 1 0 0 0 0 1 0 0 0 0 1 0 0 0 0.05 0"/>
            <feBlend mode="normal" in2="effect1_innerShadow_4976_48847" result="effect2_innerShadow_4976_48847"/>
        </filter>
        <filter id="filter4_f_4976_48847" x="270.636" y="-3" width="201.455" height="56" filterUnits="userSpaceOnUse" color-interpolation-filters="sRGB">
            <feFlood flood-opacity="0" result="BackgroundImageFix"/>
            <feBlend mode="normal" in="SourceGraphic" in2="BackgroundImageFix" result="shape"/>
            <feGaussianBlur stdDeviation="1.5" result="effect1_foregroundBlur_4976_48847"/>
        </filter>
        <filter id="filter5_ii_4976_48847" x="137.091" y="10.0449" width="29.9089" height="30.9087" filterUnits="userSpaceOnUse" color-interpolation-filters="sRGB">
            <feFlood flood-opacity="0" result="BackgroundImageFix"/>
            <feBlend mode="normal" in="SourceGraphic" in2="BackgroundImageFix" result="shape"/>
            <feColorMatrix in="SourceAlpha" type="matrix" values="0 0 0 0 0 0 0 0 0 0 0 0 0 0 0 0 0 0 127 0" result="hardAlpha"/>
            <feOffset dy="1"/>
            <feGaussianBlur stdDeviation="0.5"/>
            <feComposite in2="hardAlpha" operator="arithmetic" k2="-1" k3="1"/>
            <feColorMatrix type="matrix" values="0 0 0 0 1 0 0 0 0 1 0 0 0 0 1 0 0 0 0.15 0"/>
            <feBlend mode="normal" in2="shape" result="effect1_innerShadow_4976_48847"/>
            <feColorMatrix in="SourceAlpha" type="matrix" values="0 0 0 0 0 0 0 0 0 0 0 0 0 0 0 0 0 0 127 0" result="hardAlpha"/>
            <feOffset/>
            <feGaussianBlur stdDeviation="3.5"/>
            <feComposite in2="hardAlpha" operator="arithmetic" k2="-1" k3="1"/>
            <feColorMatrix type="matrix" values="0 0 0 0 1 0 0 0 0 1 0 0 0 0 1 0 0 0 0.05 0"/>
            <feBlend mode="normal" in2="effect1_innerShadow_4976_48847" result="effect2_innerShadow_4976_48847"/>
        </filter>
        <filter id="filter6_ii_4976_48847" x="286" y="10.0449" width="29.9089" height="30.9087" filterUnits="userSpaceOnUse" color-interpolation-filters="sRGB">
            <feFlood flood-opacity="0" result="BackgroundImageFix"/>
            <feBlend mode="normal" in="SourceGraphic" in2="BackgroundImageFix" result="shape"/>
            <feColorMatrix in="SourceAlpha" type="matrix" values="0 0 0 0 0 0 0 0 0 0 0 0 0 0 0 0 0 0 127 0" result="hardAlpha"/>
            <feOffset dy="1"/>
            <feGaussianBlur stdDeviation="0.5"/>
            <feComposite in2="hardAlpha" operator="arithmetic" k2="-1" k3="1"/>
            <feColorMatrix type="matrix" values="0 0 0 0 1 0 0 0 0 1 0 0 0 0 1 0 0 0 0.15 0"/>
            <feBlend mode="normal" in2="shape" result="effect1_innerShadow_4976_48847"/>
            <feColorMatrix in="SourceAlpha" type="matrix" values="0 0 0 0 0 0 0 0 0 0 0 0 0 0 0 0 0 0 127 0" result="hardAlpha"/>
            <feOffset/>
            <feGaussianBlur stdDeviation="3.5"/>
            <feComposite in2="hardAlpha" operator="arithmetic" k2="-1" k3="1"/>
            <feColorMatrix type="matrix" values="0 0 0 0 1 0 0 0 0 1 0 0 0 0 1 0 0 0 0.05 0"/>
            <feBlend mode="normal" in2="effect1_innerShadow_4976_48847" result="effect2_innerShadow_4976_48847"/>
        </filter>
        <clipPath id="clip0_4976_48847">
            <rect width="468.182" height="50" fill="white" transform="translate(0.90918)"/>
        </clipPath>
    </defs>
</svg>
