<svg width="470" height="50" viewBox="0 0 470 50" fill="none" xmlns="http://www.w3.org/2000/svg">
<g clip-path="url(#clip0_4976_48933)">
<g filter="url(#filter0_ii_4976_48933)">
<rect x="0.90918" y="21.5908" width="87.5" height="6.81818" fill="#0E1314" fill-opacity="0.6"/>
</g>
<rect x="1.40918" y="22.0908" width="86.5" height="5.81818" stroke="#F8FCFD" stroke-opacity="0.05"/>
<g filter="url(#filter1_ii_4976_48933)">
<path d="M88.4092 22.3184C88.4092 20.6615 89.7523 19.3184 91.4092 19.3184H96.3637V30.682H91.4092C89.7523 30.682 88.4092 29.3388 88.4092 27.682V22.3184Z" fill="#0E1314" fill-opacity="0.6"/>
</g>
<path d="M91.4092 19.8184H95.8637V30.182H91.4092C90.0285 30.182 88.9092 29.0627 88.9092 27.682V22.3184C88.9092 20.9376 90.0285 19.8184 91.4092 19.8184Z" stroke="#F8FCFD" stroke-opacity="0.05"/>
<g filter="url(#filter2_ii_4976_48933)">
<path d="M96.3638 14.7727C96.3638 13.5175 97.3813 12.5 98.6365 12.5H124.773V37.5H98.6365C97.3813 37.5 96.3638 36.4825 96.3638 35.2273V14.7727Z" fill="#0E1314" fill-opacity="0.6"/>
</g>
<path d="M98.6365 13H124.273V37H98.6365C97.6574 37 96.8638 36.2063 96.8638 35.2273V14.7727C96.8638 13.7937 97.6574 13 98.6365 13Z" stroke="#F8FCFD" stroke-opacity="0.05"/>
<g filter="url(#filter3_bii_4976_48933)">
<mask id="path-7-inside-1_4976_48933" fill="white">
<path fill-rule="evenodd" clip-rule="evenodd" d="M130.772 0C127.459 0 124.772 2.68629 124.772 6V44C124.772 47.3137 127.459 50 130.772 50H298.636C284.829 50 273.636 38.8071 273.636 25C273.636 11.1929 284.829 0 298.636 0H130.772Z"/>
</mask>
<path fill-rule="evenodd" clip-rule="evenodd" d="M130.772 0C127.459 0 124.772 2.68629 124.772 6V44C124.772 47.3137 127.459 50 130.772 50H298.636C284.829 50 273.636 38.8071 273.636 25C273.636 11.1929 284.829 0 298.636 0H130.772Z" fill="#0E1314" fill-opacity="0.6"/>
<path d="M125.772 6C125.772 3.23858 128.011 1 130.772 1V-1C126.906 -1 123.772 2.13401 123.772 6H125.772ZM125.772 44V6H123.772V44H125.772ZM130.772 49C128.011 49 125.772 46.7614 125.772 44H123.772C123.772 47.866 126.906 51 130.772 51V49ZM298.636 49H130.772V51H298.636V49ZM298.636 49C285.381 49 274.636 38.2548 274.636 25H272.636C272.636 39.3594 284.277 51 298.636 51V49ZM274.636 25C274.636 11.7452 285.381 1 298.636 1V-1C284.277 -1 272.636 10.6406 272.636 25H274.636ZM130.772 1H298.636V-1H130.772V1Z" fill="#F8FCFD" fill-opacity="0.05" mask="url(#path-7-inside-1_4976_48933)"/>
</g>
<mask id="mask0_4976_48933" style="mask-type:alpha" maskUnits="userSpaceOnUse" x="273" y="0" width="197" height="50">
<path d="M273.636 25C273.636 11.1929 284.829 0 298.636 0H469.091V50H298.636C284.829 50 273.636 38.8071 273.636 25V25Z" fill="white"/>
</mask>
<g mask="url(#mask0_4976_48933)">
<g filter="url(#filter4_f_4976_48933)">
<path d="M273.636 25C273.636 11.1929 284.829 0 298.636 0H469.091V50H298.636C284.829 50 273.636 38.8071 273.636 25V25Z" fill="#CCF9FF" fill-opacity="0.1"/>
<path d="M298.636 0.5H468.591V49.5H298.636C285.105 49.5 274.136 38.531 274.136 25C274.136 11.469 285.105 0.5 298.636 0.5Z" stroke="#323453"/>
</g>
</g>
<rect x="464.545" width="4.54545" height="50" fill="#F8FCFD" fill-opacity="0.2"/>
<rect x="186.136" y="7.9541" width="77.2727" height="35.2273" rx="4.54545" fill="#F8FCFD" fill-opacity="0.08"/>
<rect x="220" y="13" width="10" height="10" rx="2.27273" fill="#F8FCFD"/>
<path d="M212.373 31.3293C212.373 31.9118 212.262 32.4073 212.041 32.8159C211.822 33.2245 211.523 33.5366 211.144 33.7522C210.767 33.9661 210.343 34.073 209.871 34.073C209.397 34.073 208.971 33.9652 208.594 33.7496C208.216 33.534 207.918 33.2219 207.699 32.8133C207.48 32.4047 207.37 31.9101 207.37 31.3293C207.37 30.7469 207.48 30.2513 207.699 29.8427C207.918 29.4341 208.216 29.1229 208.594 28.909C208.971 28.6934 209.397 28.5856 209.871 28.5856C210.343 28.5856 210.767 28.6934 211.144 28.909C211.523 29.1229 211.822 29.4341 212.041 29.8427C212.262 30.2513 212.373 30.7469 212.373 31.3293ZM211.228 31.3293C211.228 30.952 211.171 30.6338 211.058 30.3748C210.947 30.1157 210.79 29.9192 210.586 29.7853C210.383 29.6515 210.144 29.5845 209.871 29.5845C209.599 29.5845 209.36 29.6515 209.157 29.7853C208.953 29.9192 208.795 30.1157 208.682 30.3748C208.571 30.6338 208.515 30.952 208.515 31.3293C208.515 31.7066 208.571 32.0248 208.682 32.2839C208.795 32.543 208.953 32.7394 209.157 32.8733C209.36 33.0072 209.599 33.0741 209.871 33.0741C210.144 33.0741 210.383 33.0072 210.586 32.8733C210.79 32.7394 210.947 32.543 211.058 32.2839C211.171 32.0248 211.228 31.7066 211.228 31.3293ZM213.188 35.5023V29.994H214.284V30.6669H214.333C214.382 30.5591 214.452 30.4495 214.545 30.3383C214.638 30.2252 214.76 30.1313 214.91 30.0566C215.061 29.9801 215.249 29.9418 215.473 29.9418C215.765 29.9418 216.035 30.0183 216.282 30.1713C216.528 30.3226 216.726 30.5512 216.874 30.8573C217.021 31.1615 217.095 31.5432 217.095 32.0022C217.095 32.4491 217.023 32.8264 216.879 33.1341C216.736 33.4401 216.541 33.6723 216.295 33.8305C216.049 33.987 215.775 34.0652 215.47 34.0652C215.255 34.0652 215.071 34.0296 214.92 33.9583C214.771 33.887 214.648 33.7974 214.552 33.6896C214.457 33.5801 214.384 33.4697 214.333 33.3584H214.299V35.5023H213.188ZM214.276 31.997C214.276 32.2352 214.309 32.443 214.375 32.6203C214.441 32.7977 214.537 32.9359 214.662 33.035C214.787 33.1324 214.939 33.1811 215.118 33.1811C215.299 33.1811 215.452 33.1315 215.577 33.0324C215.703 32.9316 215.797 32.7925 215.862 32.6151C215.928 32.436 215.961 32.23 215.961 31.997C215.961 31.7657 215.929 31.5623 215.864 31.3867C215.8 31.2111 215.705 31.0737 215.58 30.9746C215.455 30.8755 215.301 30.826 215.118 30.826C214.937 30.826 214.784 30.8738 214.659 30.9694C214.536 31.065 214.441 31.2007 214.375 31.3763C214.309 31.5519 214.276 31.7588 214.276 31.997ZM219.662 34.0782C219.25 34.0782 218.895 33.9948 218.597 33.8279C218.302 33.6592 218.074 33.421 217.914 33.1133C217.754 32.8038 217.674 32.4378 217.674 32.0153C217.674 31.6032 217.754 31.2415 217.914 30.9303C218.074 30.6191 218.299 30.3765 218.59 30.2026C218.882 30.0288 219.224 29.9418 219.617 29.9418C219.882 29.9418 220.128 29.9844 220.355 30.0696C220.585 30.1531 220.785 30.2791 220.955 30.4478C221.127 30.6164 221.261 30.8286 221.357 31.0842C221.452 31.338 221.5 31.6353 221.5 31.9761V32.2813H218.118V31.5927H220.454C220.454 31.4328 220.42 31.2911 220.35 31.1676C220.281 31.0442 220.184 30.9477 220.061 30.8781C219.939 30.8068 219.797 30.7712 219.635 30.7712C219.467 30.7712 219.317 30.8103 219.187 30.8886C219.058 30.9651 218.957 31.0685 218.884 31.1989C218.811 31.3276 218.774 31.471 218.772 31.6293V32.2839C218.772 32.4821 218.809 32.6534 218.882 32.7977C218.957 32.942 219.062 33.0533 219.197 33.1315C219.333 33.2098 219.494 33.2489 219.68 33.2489C219.803 33.2489 219.916 33.2315 220.019 33.1967C220.121 33.1619 220.209 33.1098 220.282 33.0402C220.355 32.9707 220.411 32.8855 220.449 32.7846L221.477 32.8524C221.425 33.0993 221.318 33.3149 221.156 33.4992C220.996 33.6818 220.789 33.8244 220.535 33.927C220.283 34.0278 219.992 34.0782 219.662 34.0782ZM223.336 31.684V34H222.225V29.994H223.284V30.7008H223.331C223.42 30.4678 223.568 30.2835 223.777 30.1479C223.986 30.0105 224.239 29.9418 224.536 29.9418C224.814 29.9418 225.057 30.0027 225.264 30.1244C225.471 30.2461 225.631 30.42 225.746 30.646C225.861 30.8703 225.918 31.1381 225.918 31.4493V34H224.807V31.6475C224.809 31.4024 224.746 31.2111 224.62 31.0737C224.493 30.9346 224.318 30.8651 224.095 30.8651C223.946 30.8651 223.814 30.8973 223.699 30.9616C223.586 31.0259 223.497 31.1198 223.433 31.2433C223.37 31.365 223.338 31.5119 223.336 31.684ZM229.636 34.0756C229.381 34.0756 229.153 34.0313 228.953 33.9426C228.753 33.8522 228.595 33.7192 228.478 33.5436C228.363 33.3662 228.306 33.1454 228.306 32.8811C228.306 32.6586 228.347 32.4717 228.429 32.3204C228.51 32.1691 228.622 32.0474 228.762 31.9553C228.903 31.8631 229.063 31.7936 229.242 31.7466C229.423 31.6997 229.613 31.6666 229.811 31.6475C230.044 31.6232 230.232 31.6006 230.374 31.5797C230.517 31.5571 230.62 31.5241 230.685 31.4806C230.749 31.4371 230.781 31.3728 230.781 31.2876V31.2719C230.781 31.1068 230.729 30.979 230.625 30.8886C230.522 30.7981 230.376 30.7529 230.186 30.7529C229.987 30.7529 229.827 30.7973 229.709 30.886C229.591 30.9729 229.513 31.0824 229.474 31.2146L228.447 31.1311C228.499 30.8877 228.602 30.6773 228.755 30.5C228.908 30.3209 229.105 30.1835 229.347 30.0879C229.59 29.9905 229.872 29.9418 230.192 29.9418C230.414 29.9418 230.627 29.9679 230.831 30.0201C231.036 30.0722 231.218 30.1531 231.376 30.2626C231.536 30.3722 231.662 30.513 231.754 30.6851C231.846 30.8555 231.892 31.0598 231.892 31.298V34H230.839V33.4445H230.807C230.743 33.5697 230.657 33.6801 230.549 33.7757C230.441 33.8696 230.312 33.9435 230.16 33.9974C230.009 34.0496 229.834 34.0756 229.636 34.0756ZM229.954 33.3089C230.118 33.3089 230.262 33.2767 230.387 33.2124C230.513 33.1463 230.611 33.0576 230.682 32.9463C230.753 32.8351 230.789 32.709 230.789 32.5682V32.143C230.754 32.1656 230.706 32.1865 230.646 32.2056C230.586 32.223 230.519 32.2395 230.445 32.2552C230.37 32.2691 230.295 32.2821 230.22 32.2943C230.146 32.3047 230.078 32.3143 230.017 32.323C229.887 32.3421 229.773 32.3726 229.675 32.4143C229.578 32.456 229.502 32.5125 229.448 32.5838C229.395 32.6534 229.368 32.7403 229.368 32.8446C229.368 32.9959 229.422 33.1115 229.532 33.1915C229.643 33.2697 229.784 33.3089 229.954 33.3089ZM232.754 35.5023V29.994H233.85V30.6669H233.899C233.948 30.5591 234.018 30.4495 234.11 30.3383C234.204 30.2252 234.326 30.1313 234.475 30.0566C234.627 29.9801 234.815 29.9418 235.039 29.9418C235.331 29.9418 235.6 30.0183 235.847 30.1713C236.094 30.3226 236.292 30.5512 236.439 30.8573C236.587 31.1615 236.661 31.5432 236.661 32.0022C236.661 32.4491 236.589 32.8264 236.445 33.1341C236.302 33.4401 236.107 33.6723 235.86 33.8305C235.615 33.987 235.34 34.0652 235.036 34.0652C234.821 34.0652 234.637 34.0296 234.486 33.9583C234.336 33.887 234.214 33.7974 234.118 33.6896C234.023 33.5801 233.95 33.4697 233.899 33.3584H233.865V35.5023H232.754ZM233.842 31.997C233.842 32.2352 233.875 32.443 233.941 32.6203C234.007 32.7977 234.103 32.9359 234.228 33.035C234.353 33.1324 234.505 33.1811 234.684 33.1811C234.865 33.1811 235.018 33.1315 235.143 33.0324C235.268 32.9316 235.363 32.7925 235.427 32.6151C235.493 32.436 235.527 32.23 235.527 31.997C235.527 31.7657 235.494 31.5623 235.43 31.3867C235.366 31.2111 235.271 31.0737 235.146 30.9746C235.021 30.8755 234.867 30.826 234.684 30.826C234.503 30.826 234.35 30.8738 234.225 30.9694C234.102 31.065 234.007 31.2007 233.941 31.3763C233.875 31.5519 233.842 31.7588 233.842 31.997ZM237.402 35.5023V29.994H238.497V30.6669H238.547C238.595 30.5591 238.666 30.4495 238.758 30.3383C238.852 30.2252 238.974 30.1313 239.123 30.0566C239.274 29.9801 239.462 29.9418 239.686 29.9418C239.979 29.9418 240.248 30.0183 240.495 30.1713C240.742 30.3226 240.939 30.5512 241.087 30.8573C241.235 31.1615 241.309 31.5432 241.309 32.0022C241.309 32.4491 241.236 32.8264 241.092 33.1341C240.95 33.4401 240.755 33.6723 240.508 33.8305C240.263 33.987 239.988 34.0652 239.684 34.0652C239.468 34.0652 239.285 34.0296 239.134 33.9583C238.984 33.887 238.861 33.7974 238.766 33.6896C238.67 33.5801 238.597 33.4697 238.547 33.3584H238.513V35.5023H237.402ZM238.489 31.997C238.489 32.2352 238.522 32.443 238.588 32.6203C238.654 32.7977 238.75 32.9359 238.875 33.035C239 33.1324 239.153 33.1811 239.332 33.1811C239.513 33.1811 239.666 33.1315 239.791 33.0324C239.916 32.9316 240.011 32.7925 240.075 32.6151C240.141 32.436 240.174 32.23 240.174 31.997C240.174 31.7657 240.142 31.5623 240.078 31.3867C240.013 31.2111 239.919 31.0737 239.793 30.9746C239.668 30.8755 239.514 30.826 239.332 30.826C239.151 30.826 238.998 30.8738 238.873 30.9694C238.749 31.065 238.654 31.2007 238.588 31.3763C238.522 31.5519 238.489 31.7588 238.489 31.997Z" fill="#F8FCFD"/>
<g filter="url(#filter5_f_4976_48933)" class="ledger-button-action">
<circle cx="152" cy="25" r="10" fill="url(#paint0_linear_4976_48933)"/>
</g>
<g filter="url(#filter6_f_4976_48933)" class="ledger-button-action">
<circle cx="301" cy="25" r="9" fill="url(#paint1_linear_4976_48933)"/>
</g>
<g filter="url(#filter7_ii_4976_48933)">
<circle cx="151.954" cy="24.9545" r="14.9545" fill="#CCF9FF" fill-opacity="0.2"/>
</g>
<g filter="url(#filter8_ii_4976_48933)">
<circle cx="300.954" cy="24.9545" r="14.9545" fill="#CCF9FF" fill-opacity="0.2"/>
</g>
</g>
<defs>
<filter id="filter0_ii_4976_48933" x="0.90918" y="21.5908" width="87.5" height="7.81836" filterUnits="userSpaceOnUse" color-interpolation-filters="sRGB">
<feFlood flood-opacity="0" result="BackgroundImageFix"/>
<feBlend mode="normal" in="SourceGraphic" in2="BackgroundImageFix" result="shape"/>
<feColorMatrix in="SourceAlpha" type="matrix" values="0 0 0 0 0 0 0 0 0 0 0 0 0 0 0 0 0 0 127 0" result="hardAlpha"/>
<feOffset dy="1"/>
<feGaussianBlur stdDeviation="0.5"/>
<feComposite in2="hardAlpha" operator="arithmetic" k2="-1" k3="1"/>
<feColorMatrix type="matrix" values="0 0 0 0 0.445833 0 0 0 0 0.445833 0 0 0 0 0.445833 0 0 0 0.15 0"/>
<feBlend mode="normal" in2="shape" result="effect1_innerShadow_4976_48933"/>
<feColorMatrix in="SourceAlpha" type="matrix" values="0 0 0 0 0 0 0 0 0 0 0 0 0 0 0 0 0 0 127 0" result="hardAlpha"/>
<feOffset/>
<feGaussianBlur stdDeviation="3.5"/>
<feComposite in2="hardAlpha" operator="arithmetic" k2="-1" k3="1"/>
<feColorMatrix type="matrix" values="0 0 0 0 1 0 0 0 0 1 0 0 0 0 1 0 0 0 0.05 0"/>
<feBlend mode="normal" in2="effect1_innerShadow_4976_48933" result="effect2_innerShadow_4976_48933"/>
</filter>
<filter id="filter1_ii_4976_48933" x="88.4092" y="19.3184" width="7.95459" height="12.3633" filterUnits="userSpaceOnUse" color-interpolation-filters="sRGB">
<feFlood flood-opacity="0" result="BackgroundImageFix"/>
<feBlend mode="normal" in="SourceGraphic" in2="BackgroundImageFix" result="shape"/>
<feColorMatrix in="SourceAlpha" type="matrix" values="0 0 0 0 0 0 0 0 0 0 0 0 0 0 0 0 0 0 127 0" result="hardAlpha"/>
<feOffset dy="1"/>
<feGaussianBlur stdDeviation="0.5"/>
<feComposite in2="hardAlpha" operator="arithmetic" k2="-1" k3="1"/>
<feColorMatrix type="matrix" values="0 0 0 0 0.445833 0 0 0 0 0.445833 0 0 0 0 0.445833 0 0 0 0.15 0"/>
<feBlend mode="normal" in2="shape" result="effect1_innerShadow_4976_48933"/>
<feColorMatrix in="SourceAlpha" type="matrix" values="0 0 0 0 0 0 0 0 0 0 0 0 0 0 0 0 0 0 127 0" result="hardAlpha"/>
<feOffset/>
<feGaussianBlur stdDeviation="3.5"/>
<feComposite in2="hardAlpha" operator="arithmetic" k2="-1" k3="1"/>
<feColorMatrix type="matrix" values="0 0 0 0 1 0 0 0 0 1 0 0 0 0 1 0 0 0 0.05 0"/>
<feBlend mode="normal" in2="effect1_innerShadow_4976_48933" result="effect2_innerShadow_4976_48933"/>
</filter>
<filter id="filter2_ii_4976_48933" x="96.3638" y="12.5" width="28.4092" height="26" filterUnits="userSpaceOnUse" color-interpolation-filters="sRGB">
<feFlood flood-opacity="0" result="BackgroundImageFix"/>
<feBlend mode="normal" in="SourceGraphic" in2="BackgroundImageFix" result="shape"/>
<feColorMatrix in="SourceAlpha" type="matrix" values="0 0 0 0 0 0 0 0 0 0 0 0 0 0 0 0 0 0 127 0" result="hardAlpha"/>
<feOffset dy="1"/>
<feGaussianBlur stdDeviation="0.5"/>
<feComposite in2="hardAlpha" operator="arithmetic" k2="-1" k3="1"/>
<feColorMatrix type="matrix" values="0 0 0 0 0.445833 0 0 0 0 0.445833 0 0 0 0 0.445833 0 0 0 0.15 0"/>
<feBlend mode="normal" in2="shape" result="effect1_innerShadow_4976_48933"/>
<feColorMatrix in="SourceAlpha" type="matrix" values="0 0 0 0 0 0 0 0 0 0 0 0 0 0 0 0 0 0 127 0" result="hardAlpha"/>
<feOffset/>
<feGaussianBlur stdDeviation="3.5"/>
<feComposite in2="hardAlpha" operator="arithmetic" k2="-1" k3="1"/>
<feColorMatrix type="matrix" values="0 0 0 0 1 0 0 0 0 1 0 0 0 0 1 0 0 0 0.05 0"/>
<feBlend mode="normal" in2="effect1_innerShadow_4976_48933" result="effect2_innerShadow_4976_48933"/>
</filter>
<filter id="filter3_bii_4976_48933" x="-75.2275" y="-200" width="573.864" height="450" filterUnits="userSpaceOnUse" color-interpolation-filters="sRGB">
<feFlood flood-opacity="0" result="BackgroundImageFix"/>
<feGaussianBlur in="BackgroundImage" stdDeviation="100"/>
<feComposite in2="SourceAlpha" operator="in" result="effect1_backgroundBlur_4976_48933"/>
<feBlend mode="normal" in="SourceGraphic" in2="effect1_backgroundBlur_4976_48933" result="shape"/>
<feColorMatrix in="SourceAlpha" type="matrix" values="0 0 0 0 0 0 0 0 0 0 0 0 0 0 0 0 0 0 127 0" result="hardAlpha"/>
<feOffset dy="1"/>
<feGaussianBlur stdDeviation="0.5"/>
<feComposite in2="hardAlpha" operator="arithmetic" k2="-1" k3="1"/>
<feColorMatrix type="matrix" values="0 0 0 0 0.445833 0 0 0 0 0.445833 0 0 0 0 0.445833 0 0 0 0.15 0"/>
<feBlend mode="normal" in2="shape" result="effect2_innerShadow_4976_48933"/>
<feColorMatrix in="SourceAlpha" type="matrix" values="0 0 0 0 0 0 0 0 0 0 0 0 0 0 0 0 0 0 127 0" result="hardAlpha"/>
<feOffset/>
<feGaussianBlur stdDeviation="3.5"/>
<feComposite in2="hardAlpha" operator="arithmetic" k2="-1" k3="1"/>
<feColorMatrix type="matrix" values="0 0 0 0 1 0 0 0 0 1 0 0 0 0 1 0 0 0 0.05 0"/>
<feBlend mode="normal" in2="effect2_innerShadow_4976_48933" result="effect3_innerShadow_4976_48933"/>
</filter>
<filter id="filter4_f_4976_48933" x="270.636" y="-3" width="201.455" height="56" filterUnits="userSpaceOnUse" color-interpolation-filters="sRGB">
<feFlood flood-opacity="0" result="BackgroundImageFix"/>
<feBlend mode="normal" in="SourceGraphic" in2="BackgroundImageFix" result="shape"/>
<feGaussianBlur stdDeviation="1.5" result="effect1_foregroundBlur_4976_48933"/>
</filter>
<filter id="filter5_f_4976_48933" x="135.4" y="8.40023" width="33.1995" height="33.1995" filterUnits="userSpaceOnUse" color-interpolation-filters="sRGB">
<feFlood flood-opacity="0" result="BackgroundImageFix"/>
<feBlend mode="normal" in="SourceGraphic" in2="BackgroundImageFix" result="shape"/>
<feGaussianBlur stdDeviation="3.29988" result="effect1_foregroundBlur_4976_48933"/>
</filter>
<filter id="filter6_f_4976_48933" x="285.4" y="9.40023" width="31.1995" height="31.1995" filterUnits="userSpaceOnUse" color-interpolation-filters="sRGB">
<feFlood flood-opacity="0" result="BackgroundImageFix"/>
<feBlend mode="normal" in="SourceGraphic" in2="BackgroundImageFix" result="shape"/>
<feGaussianBlur stdDeviation="3.29988" result="effect1_foregroundBlur_4976_48933"/>
</filter>
<filter id="filter7_ii_4976_48933" x="137" y="10" width="29.9087" height="30.9092" filterUnits="userSpaceOnUse" color-interpolation-filters="sRGB">
<feFlood flood-opacity="0" result="BackgroundImageFix"/>
<feBlend mode="normal" in="SourceGraphic" in2="BackgroundImageFix" result="shape"/>
<feColorMatrix in="SourceAlpha" type="matrix" values="0 0 0 0 0 0 0 0 0 0 0 0 0 0 0 0 0 0 127 0" result="hardAlpha"/>
<feOffset dy="1"/>
<feGaussianBlur stdDeviation="0.5"/>
<feComposite in2="hardAlpha" operator="arithmetic" k2="-1" k3="1"/>
<feColorMatrix type="matrix" values="0 0 0 0 1 0 0 0 0 1 0 0 0 0 1 0 0 0 0.15 0"/>
<feBlend mode="normal" in2="shape" result="effect1_innerShadow_4976_48933"/>
<feColorMatrix in="SourceAlpha" type="matrix" values="0 0 0 0 0 0 0 0 0 0 0 0 0 0 0 0 0 0 127 0" result="hardAlpha"/>
<feOffset/>
<feGaussianBlur stdDeviation="3.5"/>
<feComposite in2="hardAlpha" operator="arithmetic" k2="-1" k3="1"/>
<feColorMatrix type="matrix" values="0 0 0 0 1 0 0 0 0 1 0 0 0 0 1 0 0 0 0.05 0"/>
<feBlend mode="normal" in2="effect1_innerShadow_4976_48933" result="effect2_innerShadow_4976_48933"/>
</filter>
<filter id="filter8_ii_4976_48933" x="286" y="10" width="29.9087" height="30.9092" filterUnits="userSpaceOnUse" color-interpolation-filters="sRGB">
<feFlood flood-opacity="0" result="BackgroundImageFix"/>
<feBlend mode="normal" in="SourceGraphic" in2="BackgroundImageFix" result="shape"/>
<feColorMatrix in="SourceAlpha" type="matrix" values="0 0 0 0 0 0 0 0 0 0 0 0 0 0 0 0 0 0 127 0" result="hardAlpha"/>
<feOffset dy="1"/>
<feGaussianBlur stdDeviation="0.5"/>
<feComposite in2="hardAlpha" operator="arithmetic" k2="-1" k3="1"/>
<feColorMatrix type="matrix" values="0 0 0 0 1 0 0 0 0 1 0 0 0 0 1 0 0 0 0.15 0"/>
<feBlend mode="normal" in2="shape" result="effect1_innerShadow_4976_48933"/>
<feColorMatrix in="SourceAlpha" type="matrix" values="0 0 0 0 0 0 0 0 0 0 0 0 0 0 0 0 0 0 127 0" result="hardAlpha"/>
<feOffset/>
<feGaussianBlur stdDeviation="3.5"/>
<feComposite in2="hardAlpha" operator="arithmetic" k2="-1" k3="1"/>
<feColorMatrix type="matrix" values="0 0 0 0 1 0 0 0 0 1 0 0 0 0 1 0 0 0 0.05 0"/>
<feBlend mode="normal" in2="effect1_innerShadow_4976_48933" result="effect2_innerShadow_4976_48933"/>
</filter>
<linearGradient id="paint0_linear_4976_48933" x1="158.389" y1="8.61111" x2="135.923" y2="9.85968" gradientUnits="userSpaceOnUse">
<stop stop-color="#001AFF"/>
<stop offset="1" stop-color="#44FFE9"/>
</linearGradient>
<linearGradient id="paint1_linear_4976_48933" x1="306.75" y1="10.25" x2="286.531" y2="11.3737" gradientUnits="userSpaceOnUse">
<stop stop-color="#001AFF"/>
<stop offset="1" stop-color="#44FFE9"/>
</linearGradient>
<clipPath id="clip0_4976_48933">
<rect width="468.182" height="50" fill="white" transform="translate(0.90918)"/>
</clipPath>
</defs>
</svg>
