<svg width="18" height="18" viewBox="0 0 18 18" fill="currentColor" xmlns="http://www.w3.org/2000/svg">
    <path fill-rule="evenodd" clip-rule="evenodd" d="M7.3125 6.75C7.3125 4.57538 9.07539 2.8125 11.25 2.8125C13.4246 2.8125 15.1875 4.57538 15.1875 6.75C15.1875 8.92461 13.4246 10.6875 11.25 10.6875C11.1092 10.6875 10.9699 10.6801 10.8326 10.6656L10.6553 10.8428C10.5147 10.9835 10.3239 11.0625 10.125 11.0625H9.5625V11.625C9.5625 11.8239 9.48348 12.0147 9.34283 12.1553L8.40533 13.0928C8.26468 13.2335 8.07391 13.3125 7.875 13.3125H7.3125V13.875C7.3125 14.0739 7.23348 14.2647 7.09283 14.4053L6.53033 14.9678C6.38968 15.1085 6.19891 15.1875 6 15.1875H3.5625C3.14829 15.1875 2.8125 14.8517 2.8125 14.4375V12C2.8125 11.8011 2.89152 11.6103 3.03217 11.4697L7.33442 7.16743C7.31992 7.03007 7.3125 6.89079 7.3125 6.75ZM11.25 4.3125C9.90381 4.3125 8.8125 5.40381 8.8125 6.75C8.8125 6.92892 8.83164 7.10245 8.86772 7.26898C8.92172 7.51821 8.84538 7.7778 8.66505 7.95812L4.3125 12.3107V13.6875H5.68934L5.8125 13.5643V12.5625C5.8125 12.1483 6.14829 11.8125 6.5625 11.8125H7.56434L8.0625 11.3143V10.3125C8.0625 9.89829 8.39829 9.5625 8.8125 9.5625H9.81434L10.0419 9.33494C10.2222 9.15462 10.4818 9.07828 10.7311 9.13229C10.8975 9.16836 11.0711 9.1875 11.25 9.1875C12.5962 9.1875 13.6875 8.09619 13.6875 6.75C13.6875 5.40381 12.5962 4.3125 11.25 4.3125Z"/>
    <path fill-rule="evenodd" clip-rule="evenodd" d="M12 6.125C12.069 6.125 12.125 6.06906 12.125 6C12.125 5.93094 12.069 5.875 12 5.875C11.931 5.875 11.875 5.93094 11.875 6C11.875 6.06906 11.931 6.125 12 6.125ZM11.125 6C11.125 5.51673 11.5168 5.125 12 5.125C12.4832 5.125 12.875 5.51673 12.875 6C12.875 6.48327 12.4832 6.875 12 6.875C11.5168 6.875 11.125 6.48327 11.125 6Z"/>
</svg>
