<svg width="18" height="18" viewBox="0 0 18 18" fill="none" xmlns="http://www.w3.org/2000/svg">
<path d="M11.25 9.9375C13.0104 9.9375 14.4375 8.5104 14.4375 6.75C14.4375 4.98959 13.0104 3.5625 11.25 3.5625C9.4896 3.5625 8.0625 4.98959 8.0625 6.75C8.0625 6.98259 8.0874 7.20936 8.13473 7.42779L3.5625 12V14.4375H6L6.5625 13.875V12.5625H7.875L8.8125 11.625V10.3125H10.125L10.5722 9.86527C10.7906 9.9126 11.0174 9.9375 11.25 9.9375Z" stroke="#F8F9FD" stroke-width="1.5" stroke-linecap="round" stroke-linejoin="round"/>
<path d="M12.375 6C12.375 6.20711 12.2071 6.375 12 6.375C11.7929 6.375 11.625 6.20711 11.625 6C11.625 5.79289 11.7929 5.625 12 5.625C12.2071 5.625 12.375 5.79289 12.375 6Z" stroke="#F8F9FD"/>
</svg>
