<svg width="34" height="34" viewBox="0 0 34 34" fill="none" xmlns="http://www.w3.org/2000/svg">
<path d="M17 5.66683C19.3343 5.66683 21.25 7.58257 21.25 9.91683V14.1668H12.75V9.91683C12.75 7.58257 14.6658 5.66683 17 5.66683ZM24.0834 14.1668V9.91683C24.0834 6.01776 20.8991 2.8335 17 2.8335C13.1009 2.8335 9.91669 6.01776 9.91669 9.91683V14.1668H8.50002C6.93521 14.1668 5.66669 15.4354 5.66669 17.0002V28.3335C5.66669 29.8983 6.93522 31.1668 8.50002 31.1668H25.5C27.0648 31.1668 28.3334 29.8983 28.3334 28.3335V17.0002C28.3334 15.4354 27.0648 14.1668 25.5 14.1668H24.0834ZM8.50002 17.0002H25.5V28.3335H8.50002V17.0002Z" fill="#F8FCFD"/>
</svg>
