<svg width="20" height="20" viewBox="0 0 20 20" fill="none" xmlns="http://www.w3.org/2000/svg">
<path fill-rule="evenodd" clip-rule="evenodd" d="M5.99922 3C5.5574 3 5.19922 3.35817 5.19922 3.8C5.19922 4.24183 5.5574 4.6 5.99922 4.6H14.6601C16.0873 4.6 16.6554 4.79551 16.9299 5.06708C17.2012 5.33551 17.3957 5.88752 17.3957 7.28734V13.5C17.3957 13.9418 17.7538 14.3 18.1957 14.3C18.6375 14.3 18.9957 13.9418 18.9957 13.5V7.28734C18.9957 5.89977 18.8419 4.70811 18.0552 3.92972C17.2717 3.15446 16.072 3 14.6601 3H5.99922ZM3.90482 6.0063L3.87773 6.0063C3.5325 6.00628 3.23135 6.00627 2.9826 6.02442C2.72037 6.04354 2.45096 6.08605 2.18705 6.20609C1.79765 6.38322 1.46392 6.6737 1.24859 7.05096C1.09751 7.31566 1.04442 7.58795 1.02126 7.84106C0.999957 8.0738 0.999978 8.35205 1 8.6541V8.65417L1 8.68531L1 11.797L1 11.7974L1 11.7978L1 14.3223L1 14.3535V14.3535C0.999978 14.6556 0.999957 14.9338 1.02126 15.1666C1.04442 15.4197 1.09751 15.692 1.24859 15.9567C1.46392 16.3339 1.79765 16.6244 2.18705 16.8015C2.45096 16.9216 2.72037 16.9641 2.9826 16.9832C3.23133 17.0014 3.53247 17.0014 3.87768 17.0013H3.87771H3.90482H12.8503H12.8773C13.2226 17.0014 13.5237 17.0014 13.7725 16.9832C14.0347 16.9641 14.3041 16.9216 14.568 16.8015C14.9575 16.6244 15.2912 16.3339 15.5065 15.9567C15.6576 15.692 15.7107 15.4197 15.7338 15.1666C15.7551 14.9338 15.7551 14.6556 15.7551 14.3535L15.7551 14.3223V11.7974V8.68531L15.7551 8.65415C15.7551 8.35208 15.7551 8.07381 15.7338 7.84106C15.7107 7.58795 15.6576 7.31566 15.5065 7.05096C15.2912 6.6737 14.9575 6.38322 14.568 6.20609C14.3041 6.08605 14.0347 6.04354 13.7725 6.02442C13.5238 6.00627 13.2226 6.00628 12.8774 6.0063L12.8503 6.0063L3.90482 6.0063ZM2.6 14.3223L2.6 12.5974H4.13285C4.51287 12.5974 4.61696 12.5997 4.71188 12.6148C4.80877 12.6302 4.90223 12.6556 4.99029 12.6899C5.07446 12.7227 5.15786 12.7695 5.47502 12.9582L5.85752 13.1859L5.90123 13.2119L5.90125 13.2119C6.15454 13.3628 6.35656 13.4832 6.57955 13.5701C6.77539 13.6464 6.97942 13.7014 7.18749 13.7345C7.42309 13.772 7.66099 13.7719 7.96654 13.7718L8.01797 13.7718H8.73713L8.78856 13.7718C9.09411 13.7719 9.33201 13.772 9.56761 13.7345C9.77568 13.7014 9.97971 13.6464 10.1755 13.5701C10.3985 13.4832 10.6006 13.3628 10.8539 13.2119L10.8976 13.1859L11.2801 12.9582C11.5972 12.7695 11.6806 12.7227 11.7648 12.6899C11.8529 12.6556 11.9463 12.6302 12.0432 12.6148C12.1381 12.5997 12.2422 12.5974 12.6223 12.5974H14.1551V14.3223C14.1551 14.666 14.1543 14.8698 14.1405 15.0207C14.1317 15.117 14.12 15.155 14.1163 15.1646C14.0792 15.229 14.0107 15.2973 13.9056 15.3451C13.8881 15.3531 13.8326 15.3746 13.6561 15.3875C13.4726 15.4008 13.2305 15.4013 12.8503 15.4013H3.90482C3.52465 15.4013 3.28249 15.4008 3.09899 15.3875C2.92249 15.3746 2.86702 15.3531 2.84952 15.3451C2.74445 15.2973 2.67586 15.229 2.6388 15.1646C2.63507 15.1549 2.62341 15.117 2.6146 15.0207C2.60078 14.8698 2.6 14.666 2.6 14.3223ZM12.6223 10.9974H14.1551V8.68531C14.1551 8.34168 14.1543 8.13782 14.1405 7.98689C14.1317 7.89063 14.12 7.85268 14.1163 7.84301C14.0792 7.77864 14.0107 7.7103 13.9056 7.6625C13.8881 7.65454 13.8326 7.63305 13.6561 7.62018C13.4726 7.60679 13.2305 7.6063 12.8503 7.6063L3.90482 7.6063C3.52465 7.6063 3.28249 7.60679 3.09899 7.62018C2.92249 7.63305 2.86702 7.65454 2.84952 7.6625C2.74445 7.7103 2.67586 7.77864 2.6388 7.84301C2.63507 7.85269 2.62341 7.89064 2.6146 7.98689C2.60078 8.13782 2.6 8.34168 2.6 8.68531V10.9974H4.13285L4.1843 10.9974H4.18432C4.48985 10.9973 4.72774 10.9972 4.96333 11.0347C5.1714 11.0678 5.37543 11.1228 5.57127 11.1991C5.79426 11.286 5.99628 11.4064 6.24957 11.5573L6.2933 11.5833L6.6758 11.811C6.99296 11.9997 7.07636 12.0465 7.16052 12.0793C7.24858 12.1136 7.34205 12.139 7.43894 12.1544C7.53386 12.1695 7.63795 12.1718 8.01797 12.1718H8.73713C9.11715 12.1718 9.22124 12.1695 9.31616 12.1544C9.41305 12.139 9.50651 12.1136 9.59458 12.0793C9.67874 12.0465 9.76214 11.9997 10.0793 11.811L10.4618 11.5833L10.5055 11.5573L10.5055 11.5573C10.7588 11.4064 10.9608 11.286 11.1838 11.1991C11.3797 11.1228 11.5837 11.0678 11.7918 11.0347C12.0274 10.9972 12.2653 10.9973 12.5708 10.9974H12.5708L12.6223 10.9974ZM14.1162 7.84286C14.1155 7.84104 14.1151 7.84028 14.1151 7.84035C14.1151 7.84039 14.1152 7.84063 14.1154 7.84105C14.1155 7.84148 14.1158 7.84209 14.1162 7.84286ZM2.63999 7.84035C2.64001 7.84042 2.63966 7.84134 2.63885 7.84286C2.63956 7.84104 2.63996 7.84028 2.63999 7.84035ZM14.1153 15.1666C14.1152 15.167 14.1151 15.1672 14.1151 15.1673C14.1151 15.1673 14.1153 15.167 14.1156 15.1663C14.1158 15.1659 14.116 15.1654 14.1162 15.1648C14.1158 15.1656 14.1155 15.1662 14.1153 15.1666ZM2.63999 15.1673C2.63996 15.1674 2.63956 15.1666 2.63885 15.1648C2.63966 15.1663 2.64002 15.1672 2.63999 15.1673Z" fill="white"/>
</svg>
