<svg width="59" height="54" viewBox="0 0 59 54" fill="none" xmlns="http://www.w3.org/2000/svg">
<path d="M24.7259 20.4548C26.5309 20.4548 27.9984 18.9869 27.9984 17.182C27.9984 15.377 26.5309 13.9092 24.7259 13.9092C22.921 13.9092 21.4531 15.377 21.4531 17.182C21.4531 18.9869 22.921 20.4548 24.7259 20.4548Z" fill="#CCF9FF" fill-opacity="0.2"/>
<path fill-rule="evenodd" clip-rule="evenodd" d="M20.6357 9H45.181C47.436 9 49.2721 10.8361 49.2721 13.0911V31.0908C49.2721 33.3458 47.436 35.1819 45.181 35.1819H20.6357C18.381 35.1819 16.5449 33.3458 16.5449 31.0908V13.0911C16.5449 10.8361 18.381 9 20.6357 9ZM45.181 12.2728H20.6357C20.1842 12.2728 19.8177 12.6392 19.8177 13.0911V28.5365L24.334 24.0217C25.4516 22.9026 27.273 22.9026 28.3921 24.0217L30.372 25.9968L36.4496 18.7022C36.9929 18.0508 37.7881 17.6745 38.6357 17.6697C39.4881 17.6891 40.2818 18.0328 40.8302 18.6758L45.9993 24.7076V13.0911C45.9993 12.6392 45.6328 12.2728 45.181 12.2728Z" fill="#CCF9FF" fill-opacity="0.2"/>
<path d="M20.2262 37.6364C17.6066 37.6364 15.2764 35.9591 14.4302 33.4621L14.373 33.2739C14.1735 32.6126 14.0899 32.0565 14.0899 31.5001V20.3433L10.1201 33.5945C9.60957 35.5436 10.773 37.5642 12.7251 38.1027L38.0281 44.879C38.3439 44.9608 38.6597 45 38.9708 45C40.6004 45 42.0896 43.9184 42.5069 42.3244L43.9811 37.6364H20.2262Z" fill="#CCF9FF" fill-opacity="0.2"/>
</svg>
