<svg width="24" height="24" viewBox="0 0 24 24" fill="none" xmlns="http://www.w3.org/2000/svg">
<path d="M12.4496 4.17857C12.0228 4.00115 11.5529 3.95462 11.0995 4.04489C10.6462 4.13516 10.23 4.35817 9.90373 4.68556L6.55089 8.04039H5.24678C4.65114 8.04117 4.08012 8.27814 3.65894 8.69932C3.23775 9.12051 3.00079 9.69153 3 10.2872V13.7153C3.00079 14.3109 3.23775 14.8819 3.65894 15.3031C4.08012 15.7243 4.65114 15.9613 5.24678 15.9621H6.55089L9.90373 19.3149C10.2304 19.6419 10.6467 19.8646 11.0999 19.955C11.5532 20.0453 12.0231 19.9991 12.4501 19.8223C12.8771 19.6454 13.2421 19.3459 13.4988 18.9616C13.7555 18.5773 13.8925 18.1254 13.8923 17.6632V6.33921C13.8935 5.87652 13.757 5.42393 13.5 5.03914C13.2431 4.65434 12.8774 4.35476 12.4496 4.17857Z" fill="#F8FCFD"/>
<path d="M16.2438 9.64948C16.1221 9.69544 16.0107 9.76491 15.9159 9.85394C15.8211 9.94296 15.7448 10.0498 15.6912 10.1683C15.6377 10.2868 15.6081 10.4147 15.604 10.5447C15.5999 10.6747 15.6215 10.8042 15.6675 10.9259C15.9394 11.617 15.9394 12.3855 15.6675 13.0766C15.5746 13.3224 15.5832 13.595 15.6914 13.8345C15.7996 14.0739 15.9984 14.2606 16.2443 14.3535C16.4901 14.4463 16.7627 14.4377 17.0022 14.3295C17.2416 14.2213 17.4283 14.0225 17.5211 13.7767C17.9621 12.6341 17.9621 11.3683 17.5211 10.2258C17.4752 10.104 17.4057 9.99249 17.3166 9.89761C17.2275 9.80273 17.1206 9.72634 17.0019 9.67281C16.8833 9.61929 16.7553 9.58968 16.6252 9.58567C16.4951 9.58167 16.3655 9.60335 16.2438 9.64948Z" fill="#F8FCFD"/>
<path d="M19.8007 8.12143C19.7357 8.00869 19.6491 7.90986 19.5459 7.83058C19.4427 7.7513 19.3249 7.69313 19.1992 7.65938C19.0735 7.62564 18.9424 7.61698 18.8133 7.6339C18.6843 7.65083 18.5599 7.693 18.4471 7.75802C18.3344 7.82304 18.2355 7.90963 18.1563 8.01284C18.077 8.11605 18.0188 8.23387 17.9851 8.35957C17.9513 8.48526 17.9427 8.61637 17.9596 8.74541C17.9765 8.87445 18.0187 8.9989 18.0837 9.11164C18.5816 9.99468 18.8433 10.9913 18.8433 12.005C18.8433 13.0188 18.5816 14.0154 18.0837 14.8984C18.0187 15.0112 17.9765 15.1356 17.9596 15.2646C17.9427 15.3937 17.9513 15.5248 17.9851 15.6505C18.0188 15.7762 18.077 15.894 18.1563 15.9972C18.2355 16.1004 18.3344 16.187 18.4471 16.252C18.5599 16.317 18.6843 16.3592 18.8133 16.3761C18.9424 16.3931 19.0735 16.3844 19.1992 16.3507C19.3249 16.3169 19.4427 16.2588 19.5459 16.1795C19.6491 16.1002 19.7357 16.0014 19.8007 15.8886C20.4712 14.7055 20.8236 13.3689 20.8236 12.009C20.8236 10.6491 20.4712 9.31246 19.8007 8.12935V8.12143Z" fill="#F8FCFD"/>
</svg>
