<svg width="24" height="24" viewBox="0 0 24 24" fill="none" xmlns="http://www.w3.org/2000/svg">
<path d="M4.38692 12.7075C4.01868 12.7059 3.66504 12.8516 3.40456 13.1121C3.14412 13.3725 2.99839 13.7262 3.00001 14.0944C3.0014 14.4608 3.14828 14.8117 3.40849 15.0699C3.66848 15.328 4.02053 15.4721 4.38688 15.4707H8.52906V19.6129L8.52929 19.6131C8.52767 19.9814 8.67339 20.335 8.93384 20.5955C9.19428 20.8559 9.54794 21.0014 9.91619 21C10.2828 20.9986 10.6334 20.8518 10.8916 20.5915C11.1498 20.3316 11.2941 19.9795 11.2925 19.6132V14.0945C11.2939 13.7281 11.1497 13.3761 10.8916 13.1161C10.6335 12.8559 10.2828 12.709 9.91619 12.7076L4.38692 12.7075Z" fill="#F8FCFD"/>
<path d="M13.0571 3.40479C13.3155 3.1462 13.6659 3.0007 14.0314 3.00001C14.3982 2.99862 14.7507 3.14322 15.011 3.40182C15.2712 3.66065 15.4178 4.01201 15.4185 4.37909L15.4183 4.37885V8.51848H19.5579C19.9246 8.51987 20.2752 8.66698 20.5333 8.92696C20.7915 9.18715 20.9358 9.5392 20.9342 9.90559C20.9328 10.2701 20.7873 10.6194 20.5296 10.877C20.2718 11.1349 19.9225 11.2804 19.5579 11.2818H14.0314C13.6664 11.2811 13.3164 11.1359 13.0581 10.878C12.7997 10.6203 12.654 10.2706 12.6523 9.90556V4.37903C12.653 4.01333 12.7988 3.66316 13.0571 3.40479Z" fill="#F8FCFD"/>
</svg>
