<svg width="24" height="24" viewBox="0 0 24 24" fill="none" xmlns="http://www.w3.org/2000/svg">
<path d="M17.9305 9.92585L7.91622 4.25715C7.62996 4.09121 7.30397 4.00249 6.97137 4C6.44853 4 5.9471 4.20349 5.5774 4.56572C5.2077 4.92794 5 5.41921 5 5.93147V18.0975C5.00007 18.4374 5.09308 18.7711 5.26936 19.0639C5.44564 19.3567 5.69875 19.5979 6.00238 19.7624C6.30602 19.9269 6.64908 20.0087 6.99591 19.9993C7.34274 19.9899 7.68066 19.8896 7.97455 19.7089L18.0005 13.5031C18.3123 13.3119 18.5682 13.0449 18.7432 12.728C18.9183 12.4112 19.0067 12.0553 18.9996 11.695C18.9926 11.3348 18.8904 10.9825 18.703 10.6724C18.5157 10.3624 18.2495 10.1052 17.9305 9.92585Z" fill="#F8FCFD"/>
</svg>
