<svg width="24" height="24" viewBox="0 0 24 24" fill="none" xmlns="http://www.w3.org/2000/svg">
<path d="M12.4497 4.1784C12.0228 4.0011 11.553 3.95464 11.0997 4.04491C10.6464 4.13518 10.2302 4.35811 9.90381 4.68539L6.55093 8.04025H5.24681C4.65116 8.04104 4.08013 8.27801 3.65894 8.6992C3.23776 9.12038 3.00079 9.69141 3 10.2871V13.7152C3.00079 14.3109 3.23776 14.8819 3.65894 15.3031C4.08013 15.7243 4.65116 15.9612 5.24681 15.962H6.55093L9.90381 19.3149C10.2304 19.6419 10.6467 19.8646 11.1 19.955C11.5533 20.0453 12.0232 19.9991 12.4502 19.8223C12.8772 19.6454 13.2422 19.3459 13.4989 18.9616C13.7556 18.5772 13.8926 18.1254 13.8924 17.6632V6.33906C13.8936 5.87636 13.7571 5.42377 13.5001 5.03897C13.2432 4.65417 12.8775 4.35459 12.4497 4.1784Z" fill="#F8FCFD"/>
<path d="M19.2539 12.0012L19.954 11.3011C20.0486 11.2098 20.124 11.1005 20.1759 10.9797C20.2278 10.8589 20.2551 10.7289 20.2563 10.5975C20.2574 10.466 20.2323 10.3356 20.1826 10.2139C20.1328 10.0922 20.0592 9.98164 19.9663 9.88866C19.8733 9.79569 19.7627 9.72216 19.641 9.67237C19.5193 9.62258 19.3889 9.59753 19.2575 9.59867C19.126 9.59981 18.996 9.62713 18.8752 9.67903C18.7544 9.73092 18.6452 9.80636 18.5538 9.90094L17.8537 10.601L17.1536 9.90094C17.0623 9.80636 16.953 9.73092 16.8322 9.67903C16.7114 9.62713 16.5815 9.59981 16.45 9.59867C16.3185 9.59753 16.1881 9.62258 16.0664 9.67237C15.9447 9.72216 15.8342 9.79569 15.7412 9.88866C15.6482 9.98164 15.5747 10.0922 15.5249 10.2139C15.4751 10.3356 15.4501 10.466 15.4512 10.5975C15.4524 10.7289 15.4797 10.8589 15.5316 10.9797C15.5835 11.1005 15.6589 11.2098 15.7535 11.3011L16.4536 12.0012L15.7535 12.7013C15.6589 12.7926 15.5835 12.9019 15.5316 13.0227C15.4797 13.1435 15.4524 13.2734 15.4512 13.4049C15.4501 13.5364 15.4751 13.6668 15.5249 13.7885C15.5747 13.9102 15.6482 14.0207 15.7412 14.1137C15.8342 14.2067 15.9447 14.2802 16.0664 14.33C16.1881 14.3798 16.3185 14.4049 16.45 14.4037C16.5815 14.4026 16.7114 14.3753 16.8322 14.3234C16.953 14.2715 17.0623 14.196 17.1536 14.1014L17.8537 13.4014L18.5538 14.1014C18.6452 14.196 18.7544 14.2715 18.8752 14.3234C18.996 14.3753 19.126 14.4026 19.2575 14.4037C19.3889 14.4049 19.5193 14.3798 19.641 14.33C19.7627 14.2802 19.8733 14.2067 19.9663 14.1137C20.0592 14.0207 20.1328 13.9102 20.1826 13.7885C20.2323 13.6668 20.2574 13.5364 20.2563 13.4049C20.2551 13.2734 20.2278 13.1435 20.1759 13.0227C20.124 12.9019 20.0486 12.7926 19.954 12.7013L19.2539 12.0012Z" fill="#F8FCFD"/>
</svg>
