<svg width="24" height="24" viewBox="0 0 24 24" fill="#F8FCFD" xmlns="http://www.w3.org/2000/svg">
<path d="M10.0874 18.2632C10.3588 18.2644 10.6193 18.157 10.8113 17.9651C11.0032 17.7732 11.1106 17.5126 11.1094 17.2412C11.1083 16.9713 11.0001 16.7127 10.8084 16.5225C10.6168 16.3323 10.3574 16.2261 10.0875 16.2272L7.03534 16.2272L7.03534 13.175L7.03517 13.1749C7.03636 12.9035 6.92899 12.643 6.73708 12.451C6.54518 12.2591 6.28458 12.1519 6.01324 12.1529C5.74311 12.154 5.48474 12.2622 5.29451 12.4539C5.1043 12.6455 4.99795 12.9049 4.99915 13.1748L4.99915 17.2412C4.99813 17.5112 5.10431 17.7706 5.29451 17.9621C5.48471 18.1539 5.74308 18.2621 6.01324 18.2631L10.0874 18.2632Z"/>
<path d="M17.9146 10.8043C17.7243 10.9948 17.4661 11.102 17.1968 11.1025C16.9265 11.1036 16.6667 10.997 16.475 10.8065C16.2832 10.6157 16.1752 10.3569 16.1747 10.0864L16.1748 10.0865L16.1748 7.0363L13.1246 7.0363C12.8544 7.03527 12.5961 6.92688 12.4059 6.73531C12.2157 6.5436 12.1093 6.28419 12.1105 6.01422C12.1115 5.74563 12.2187 5.48827 12.4086 5.29841C12.5986 5.10838 12.856 5.00117 13.1246 5.00015L17.1967 5.00015C17.4657 5.00066 17.7236 5.10769 17.9139 5.29773C18.1043 5.48761 18.2117 5.74529 18.2129 6.01424L18.2129 10.0864C18.2124 10.3559 18.105 10.6139 17.9146 10.8043Z"/>
</svg>
