<svg xmlns="http://www.w3.org/2000/svg" width="20" height="20" viewBox="0 0 20 20" fill="none">
  <path d="M18.9668 0.764893L11.1934 6.53833L12.6309 3.13208L18.9668 0.764893Z" fill="#E2761B"/>
  <path fill-rule="evenodd" clip-rule="evenodd" d="M19.0011 0.746233C19.0104 0.763326 19.0057 0.784656 18.9901 0.796258L11.2167 6.5697C11.2025 6.5802 11.1831 6.57994 11.1692 6.56906C11.1554 6.55818 11.1505 6.53938 11.1574 6.52315L12.5949 3.1169C12.5991 3.107 12.6071 3.09926 12.6172 3.09549L18.9531 0.728306C18.9714 0.721496 18.9918 0.72914 19.0011 0.746233ZM12.6603 3.16279L11.285 6.4216L18.722 0.898061L12.6603 3.16279Z" fill="#E2761B"/>
  <path d="M1.02197 0.764893L8.73291 6.59302L7.36572 3.13208L1.02197 0.764893ZM16.1704 14.1477L14.1001 17.3196L18.5298 18.5383L19.8032 14.218L16.1704 14.1477ZM0.20166 14.218L1.46728 18.5383L5.89697 17.3196L3.82666 14.1477L0.20166 14.218Z" fill="#E4761B"/>
  <path fill-rule="evenodd" clip-rule="evenodd" d="M0.987733 0.746096C0.997068 0.729097 1.01746 0.721521 1.03563 0.728301L7.37938 3.09549C7.38975 3.09936 7.39799 3.10744 7.40205 3.11773L8.76924 6.57867C8.77567 6.59495 8.77049 6.61353 8.75655 6.62412C8.74261 6.63472 8.72332 6.63474 8.70936 6.62419L0.998419 0.796061C0.982948 0.784368 0.978399 0.763094 0.987733 0.746096ZM1.25888 0.894995L8.64546 6.47796L7.33578 3.16261L1.25888 0.894995ZM3.8259 14.1087C3.83937 14.1084 3.85201 14.1151 3.85937 14.1264L5.92968 17.2982C5.9365 17.3087 5.93792 17.3218 5.9335 17.3334C5.92909 17.3451 5.91936 17.3539 5.90734 17.3573L1.47765 18.576C1.45709 18.5817 1.43579 18.5698 1.4298 18.5493L0.164173 14.229C0.160752 14.2173 0.16297 14.2047 0.170171 14.1949C0.177373 14.1851 0.188735 14.1792 0.200903 14.179L3.8259 14.1087ZM16.1377 14.1264C16.1451 14.1151 16.1577 14.1084 16.1712 14.1087L19.804 14.179C19.8162 14.1792 19.8275 14.1851 19.8347 14.1949C19.8419 14.2048 19.8441 14.2174 19.8407 14.2291L18.5673 18.5494C18.5612 18.5698 18.54 18.5816 18.5194 18.576L14.0897 17.3573C14.0777 17.3539 14.068 17.3451 14.0636 17.3334C14.0591 17.3218 14.0606 17.3087 14.0674 17.2982L16.1377 14.1264ZM0.253515 14.2561L1.49397 18.4905L5.83501 17.2961L3.80578 14.1872L0.253515 14.2561ZM16.1913 14.1872L14.1621 17.2961L18.5032 18.4905L19.7513 14.2561L16.1913 14.1872Z" fill="#E4761B"/>
  <path d="M5.64844 8.78955L4.41406 10.6567L8.8125 10.8521L8.65625 6.12549L5.64844 8.78955ZM14.3437 8.78955L11.2969 6.0708L11.1953 10.8521L15.5859 10.6567L14.3437 8.78955ZM5.89844 17.3208L8.53906 16.0317L6.25781 14.2505L5.89844 17.3208ZM11.4531 16.0317L14.1016 17.3208L13.7344 14.2505L11.4531 16.0317Z" fill="#E4761B"/>
  <path fill-rule="evenodd" clip-rule="evenodd" d="M11.2813 6.03498C11.2953 6.0289 11.3115 6.0315 11.3229 6.04166L14.3698 8.76041C14.3722 8.76262 14.3744 8.76514 14.3763 8.76791L15.6185 10.6351C15.6263 10.6468 15.6271 10.6619 15.6208 10.6744C15.6144 10.687 15.6017 10.6951 15.5877 10.6958L11.197 10.8911C11.1863 10.8916 11.1757 10.8875 11.168 10.88C11.1603 10.8724 11.156 10.862 11.1563 10.8512L11.2578 6.06997C11.2581 6.05473 11.2673 6.04107 11.2813 6.03498ZM11.3341 6.1564L11.2353 10.8112L15.5151 10.6208L14.314 8.81536L11.3341 6.1564ZM8.67169 6.08961C8.6856 6.09559 8.69479 6.10907 8.69529 6.1242L8.85154 10.8508C8.8519 10.8616 8.8477 10.8722 8.83996 10.8798C8.83222 10.8875 8.82164 10.8916 8.81077 10.8911L4.41233 10.6958C4.39828 10.6951 4.38564 10.687 4.37926 10.6745C4.37287 10.6619 4.37372 10.6469 4.38148 10.6352L5.61585 8.76801C5.61773 8.76516 5.61998 8.76257 5.62254 8.76031L8.63035 6.09625C8.64168 6.08621 8.65779 6.08362 8.67169 6.08961ZM5.67819 8.81538L4.48467 10.6208L8.77206 10.8112L8.61995 6.20982L5.67819 8.81538ZM6.24276 14.2144C6.25578 14.209 6.27073 14.211 6.28185 14.2197L8.5631 16.0009C8.57372 16.0092 8.57932 16.0224 8.57791 16.0358C8.57651 16.0492 8.5683 16.0609 8.5562 16.0668L5.91557 17.3559C5.90274 17.3622 5.8875 17.3609 5.87585 17.3527C5.8642 17.3444 5.85798 17.3304 5.85964 17.3163L6.21901 14.2459C6.22066 14.2319 6.22973 14.2199 6.24276 14.2144ZM13.7494 14.2144C13.7624 14.2198 13.7715 14.2319 13.7732 14.2459L14.1403 17.3162C14.142 17.3304 14.1359 17.3443 14.1242 17.3526C14.1126 17.3609 14.0973 17.3622 14.0845 17.3559L11.436 16.0669C11.4239 16.061 11.4157 16.0492 11.4143 16.0358C11.4129 16.0224 11.4185 16.0092 11.4291 16.0009L13.7103 14.2197C13.7214 14.211 13.7364 14.209 13.7494 14.2144ZM6.28853 14.324L5.94555 17.2543L8.46575 16.0241L6.28853 14.324ZM11.5265 16.024L14.0543 17.2543L13.7038 14.3239L11.5265 16.024Z" fill="#E4761B"/>
  <path d="M14.1016 17.3208L11.4531 16.0317L11.6641 17.7583L11.6406 18.4849L14.1016 17.3208ZM5.89844 17.3208L8.35938 18.4849L8.34375 17.7583L8.53906 16.0317L5.89844 17.3208Z" fill="#D7C1B3"/>
  <path fill-rule="evenodd" clip-rule="evenodd" d="M11.4304 15.9999C11.4421 15.9916 11.4574 15.9904 11.4702 15.9966L14.1187 17.2857C14.1322 17.2923 14.1407 17.306 14.1406 17.321C14.1405 17.336 14.1318 17.3497 14.1183 17.3561L11.6573 18.5202C11.645 18.526 11.6306 18.525 11.6192 18.5175C11.6078 18.5101 11.6011 18.4972 11.6016 18.4836L11.6249 17.76L11.4144 16.0365C11.4126 16.0223 11.4188 16.0083 11.4304 15.9999ZM8.56159 15.9998C8.57324 16.008 8.57948 16.022 8.57788 16.0361L8.38286 17.7601L8.39843 18.484C8.39872 18.4976 8.39198 18.5103 8.38063 18.5176C8.36927 18.525 8.35491 18.526 8.34267 18.5202L5.88173 17.3561C5.86816 17.3497 5.85947 17.3361 5.85938 17.321C5.85928 17.306 5.86781 17.2923 5.8813 17.2857L8.52193 15.9966C8.53474 15.9904 8.54994 15.9916 8.56159 15.9998ZM11.5006 16.0983L11.7028 17.7536C11.7031 17.7556 11.7032 17.7576 11.7031 17.7596L11.6817 18.4222L14.0113 17.3203L11.5006 16.0983ZM5.98862 17.3202L8.31896 18.4225L8.3047 17.7591C8.30466 17.7574 8.30474 17.7556 8.30494 17.7539L8.49225 16.0981L5.98862 17.3202Z" fill="#D7C1B3"/>
  <path d="M8.39648 13.1074L6.19336 12.459L7.74805 11.748L8.39648 13.1074ZM11.5918 13.1074L12.2402 11.748L13.8027 12.459L11.5918 13.1074Z" fill="#233447"/>
  <path fill-rule="evenodd" clip-rule="evenodd" d="M7.7318 11.7125C7.7512 11.7037 7.77412 11.712 7.7833 11.7312L8.43174 13.0906C8.43838 13.1045 8.43621 13.121 8.42621 13.1328C8.41621 13.1445 8.40024 13.1493 8.38546 13.1449L6.18233 12.4965C6.16669 12.4919 6.15556 12.478 6.1544 12.4618C6.15324 12.4455 6.16229 12.4302 6.17712 12.4235L7.7318 11.7125ZM12.205 11.7312C12.2141 11.712 12.237 11.7037 12.2564 11.7125L13.8189 12.4234C13.8338 12.4302 13.8429 12.4455 13.8417 12.4618C13.8405 12.478 13.8294 12.4919 13.8137 12.4965L11.6028 13.1449C11.588 13.1493 11.5721 13.1445 11.5621 13.1328C11.5521 13.121 11.5499 13.1045 11.5565 13.0906L12.205 11.7312ZM12.259 11.7995L11.6647 13.0453L13.691 12.4511L12.259 11.7995ZM6.30468 12.451L8.32354 13.0452L7.72934 11.7996L6.30468 12.451Z" fill="#233447"/>
  <path d="M5.89844 17.3184L6.27344 14.1465L3.82812 14.2168L5.89844 17.3184ZM13.7266 14.1465L14.1016 17.3184L16.1719 14.2168L13.7266 14.1465ZM15.5859 10.6543L11.1953 10.8496L11.6016 13.1074L12.25 11.748L13.8125 12.459L15.5859 10.6543ZM6.19531 12.459L7.75781 11.748L8.39844 13.1074L8.8125 10.8496L4.41406 10.6543L6.19531 12.459Z" fill="#CD6116"/>
  <path fill-rule="evenodd" clip-rule="evenodd" d="M4.37837 10.6384C4.38489 10.6238 4.39974 10.6146 4.4158 10.6153L8.81423 10.8106C8.82551 10.8111 8.83602 10.8164 8.84306 10.8253C8.85009 10.8341 8.85296 10.8456 8.85092 10.8567L8.43686 13.1145C8.4338 13.1312 8.42031 13.144 8.40348 13.1462C8.38665 13.1483 8.37034 13.1394 8.3631 13.1241L7.73891 11.7996L6.21149 12.4945C6.19658 12.5013 6.17902 12.4981 6.16751 12.4864L4.38626 10.6817C4.37497 10.6703 4.37184 10.6531 4.37837 10.6384ZM15.6216 10.6384C15.6282 10.6531 15.6251 10.6702 15.6138 10.6817L13.8404 12.4864C13.8289 12.4981 13.8113 12.5013 13.7963 12.4945L12.2687 11.7995L11.6368 13.1242C11.6295 13.1395 11.6132 13.1484 11.5964 13.1461C11.5796 13.1439 11.5661 13.131 11.5631 13.1143L11.1569 10.8565C11.1549 10.8454 11.1578 10.834 11.1648 10.8252C11.1718 10.8164 11.1823 10.8111 11.1936 10.8106L15.5842 10.6153C15.6002 10.6146 15.6151 10.6237 15.6216 10.6384ZM4.51183 10.6977L6.20396 12.4121L7.74164 11.7125C7.76109 11.7036 7.78404 11.7121 7.79315 11.7314L8.38195 12.9808L8.76599 10.8866L4.51183 10.6977ZM11.2417 10.8866L11.6185 12.9811L12.2147 11.7312C12.2239 11.712 12.2468 11.7037 12.2662 11.7125L13.8038 12.4121L15.4885 10.6977L11.2417 10.8866ZM6.30226 14.1201C6.30992 14.1285 6.31356 14.1398 6.31223 14.1511L5.93723 17.3229C5.93531 17.3392 5.92346 17.3525 5.90755 17.3563C5.89164 17.3602 5.87503 17.3537 5.86595 17.34L3.79564 14.2385C3.78775 14.2267 3.7869 14.2115 3.79342 14.1989C3.79994 14.1862 3.8128 14.1782 3.827 14.1778L6.27231 14.1074C6.28366 14.1071 6.29459 14.1117 6.30226 14.1201ZM13.6977 14.1201C13.7054 14.1117 13.7163 14.1071 13.7277 14.1074L16.173 14.1778C16.1872 14.1782 16.2001 14.1862 16.2066 14.1989C16.2131 14.2115 16.2123 14.2267 16.2044 14.2385L14.1341 17.34C14.125 17.3537 14.1084 17.3602 14.0925 17.3563C14.0765 17.3525 14.0647 17.3392 14.0628 17.3229L13.6878 14.1511C13.6864 14.1398 13.6901 14.1285 13.6977 14.1201ZM3.8998 14.2538L5.87209 17.2085L6.22933 14.1868L3.8998 14.2538ZM13.7707 14.1868L14.1279 17.2085L16.1002 14.2538L13.7707 14.1868Z" fill="#CD6116"/>
  <path d="M4.41406 10.6543L6.25781 14.248L6.19531 12.459L4.41406 10.6543ZM13.8125 12.459L13.7344 14.248L15.5859 10.6543L13.8125 12.459ZM8.8125 10.8496L8.39844 13.1074L8.91406 15.7715L9.03125 12.2637L8.8125 10.8496ZM11.1953 10.8496L10.9844 12.2559L11.0781 15.7715L11.6016 13.1074L11.1953 10.8496Z" fill="#E4751F"/>
  <path fill-rule="evenodd" clip-rule="evenodd" d="M15.6088 10.6226C15.6245 10.634 15.6295 10.655 15.6207 10.6722L13.7691 14.2659C13.7607 14.2822 13.7421 14.2905 13.7243 14.2858C13.7066 14.2811 13.6946 14.2647 13.6954 14.2463L13.7735 12.4573C13.7739 12.4476 13.7779 12.4385 13.7846 12.4316L15.5581 10.6269C15.5716 10.6131 15.5932 10.6113 15.6088 10.6226ZM4.39116 10.6227C4.40679 10.6113 4.42832 10.6131 4.44187 10.6269L6.22312 12.4315C6.23 12.4385 6.23401 12.4478 6.23435 12.4576L6.29685 14.2467C6.29749 14.265 6.28536 14.2812 6.26765 14.2859C6.24994 14.2905 6.23141 14.2822 6.22306 14.2659L4.37931 10.6721C4.37051 10.655 4.37554 10.634 4.39116 10.6227ZM4.5649 10.8627L6.21267 14.0745L6.15681 12.4756L4.5649 10.8627ZM13.8509 12.4757L13.7812 14.0719L15.4332 10.8655L13.8509 12.4757ZM8.81305 10.8106C8.83211 10.8108 8.84819 10.8248 8.85111 10.8436L9.06986 12.2577C9.07023 12.2601 9.07038 12.2625 9.07029 12.265L8.95311 15.7728C8.95244 15.7927 8.93696 15.8089 8.91714 15.8104C8.89733 15.812 8.87949 15.7984 8.87571 15.7789L8.36009 13.1148C8.35917 13.1101 8.35914 13.1052 8.36002 13.1004L8.77408 10.8426C8.77752 10.8238 8.79399 10.8103 8.81305 10.8106ZM11.1947 10.8106C11.2139 10.8103 11.2304 10.8239 11.2338 10.8427L11.64 13.1005C11.6409 13.1053 11.6408 13.1102 11.6399 13.115L11.1165 15.779C11.1126 15.7986 11.0947 15.8121 11.0749 15.8104C11.055 15.8087 11.0396 15.7924 11.0391 15.7725L10.9453 12.2569C10.9453 12.2546 10.9454 12.2523 10.9457 12.2501L11.1567 10.8438C11.1595 10.8249 11.1756 10.8108 11.1947 10.8106ZM8.43819 13.1072L8.88659 15.424L8.99209 12.266L8.80924 11.084L8.43819 13.1072ZM11.1988 11.0896L11.0235 12.2583L11.1078 15.418L11.5618 13.1071L11.1988 11.0896Z" fill="#E4751F"/>
  <path d="M11.5996 13.106L11.0762 15.77L11.4512 16.0278L13.7324 14.2466L13.8105 12.4575L11.5996 13.106ZM6.19336 12.4575L6.25586 14.2466L8.53711 16.0278L8.91211 15.77L8.39648 13.106L6.19336 12.4575Z" fill="#F6851B"/>
  <path fill-rule="evenodd" clip-rule="evenodd" d="M13.8346 12.4312C13.8446 12.4389 13.8501 12.451 13.8496 12.4636L13.7714 14.2527C13.7709 14.2641 13.7655 14.2747 13.7565 14.2818L11.4752 16.063C11.4618 16.0735 11.4431 16.0741 11.429 16.0644L11.054 15.8066C11.0412 15.7978 11.0348 15.7822 11.0378 15.7669L11.5613 13.1028C11.5641 13.0885 11.5746 13.077 11.5886 13.0729L13.7996 12.4244C13.8117 12.4209 13.8247 12.4234 13.8346 12.4312ZM6.16942 12.431C6.17934 12.4234 6.19235 12.4209 6.20439 12.4244L8.40751 13.0729C8.42152 13.077 8.43206 13.0886 8.43484 13.1029L8.95046 15.767C8.95341 15.7822 8.94704 15.7978 8.93424 15.8066L8.55924 16.0644C8.54519 16.0741 8.52651 16.0735 8.51307 16.063L6.23182 14.2818C6.22272 14.2747 6.21722 14.2639 6.21682 14.2523L6.15432 12.4633C6.15388 12.4507 6.1595 12.4387 6.16942 12.431ZM11.6334 13.1412L11.1195 15.7568L11.4497 15.9838L13.6942 14.2313L13.7691 12.5148L11.6334 13.1412ZM6.23429 12.5147L8.36265 13.1411L8.8689 15.7567L8.53858 15.9838L6.29426 14.2314L6.23429 12.5147Z" fill="#F6851B"/>
  <path d="M11.6406 18.4849L11.6641 17.7583L11.4688 17.5864H8.52344L8.34375 17.7583L8.35938 18.4849L5.89844 17.3208L6.75781 18.0239L8.5 19.2349H11.4922L13.2422 18.0239L14.1016 17.3208L11.6406 18.4849Z" fill="#C0AD9E"/>
  <path fill-rule="evenodd" clip-rule="evenodd" d="M5.86542 17.2999C5.87597 17.2832 5.8973 17.2771 5.91514 17.2855L8.31897 18.4225L8.3047 17.7591C8.30446 17.7482 8.30884 17.7376 8.31675 17.7301L8.49644 17.5582C8.50371 17.5512 8.51338 17.5474 8.52344 17.5474H11.4688C11.4783 17.5474 11.4874 17.5508 11.4946 17.5571L11.6899 17.729C11.6986 17.7367 11.7035 17.7479 11.7031 17.7596L11.6817 18.4222L14.0849 17.2855C14.1027 17.2771 14.124 17.2832 14.1346 17.2999C14.1451 17.3166 14.1416 17.3385 14.1263 17.351L13.2669 18.0542C13.2661 18.0548 13.2653 18.0555 13.2644 18.0561L11.5144 19.267C11.5079 19.2715 11.5001 19.2739 11.4922 19.2739H8.5C8.49203 19.2739 8.48425 19.2715 8.47771 19.2669L6.73552 18.056C6.73468 18.0554 6.73387 18.0548 6.73308 18.0542L5.8737 17.351C5.85843 17.3385 5.85488 17.3166 5.86542 17.2999ZM6.16985 17.4924L6.78137 17.9927L8.51224 19.1958H11.48L13.2187 17.9927L13.8302 17.4924L11.6573 18.5202C11.645 18.526 11.6306 18.525 11.6192 18.5175C11.6078 18.5101 11.6011 18.4972 11.6016 18.4836L11.6244 17.7755L11.454 17.6255H8.53911L8.38318 17.7747L8.39843 18.484C8.39872 18.4976 8.39199 18.5103 8.38063 18.5176C8.36927 18.525 8.35491 18.526 8.34267 18.5202L6.16985 17.4924Z" fill="#C0AD9E"/>
  <path d="M11.4512 16.0293L11.0762 15.7715H8.91211L8.53711 16.0293L8.3418 17.7559L8.52148 17.584H11.4668L11.6621 17.7559L11.4512 16.0293Z" fill="#161616"/>
  <path fill-rule="evenodd" clip-rule="evenodd" d="M8.88998 15.7393C8.89649 15.7348 8.90421 15.7324 8.91211 15.7324H11.0762C11.0841 15.7324 11.0918 15.7348 11.0983 15.7393L11.4733 15.9971C11.4825 16.0034 11.4886 16.0134 11.4899 16.0246L11.7009 17.7511C11.7029 17.7672 11.6947 17.7828 11.6803 17.7904C11.666 17.798 11.6485 17.7959 11.6363 17.7852L11.4521 17.623H8.53716L8.3688 17.7841C8.35692 17.7955 8.33919 17.7982 8.32445 17.7909C8.30972 17.7836 8.30113 17.7678 8.30298 17.7515L8.4983 16.0249C8.49957 16.0137 8.50565 16.0035 8.51498 15.9971L8.88998 15.7393ZM8.92424 15.8105L8.57392 16.0514L8.39274 17.6531L8.49448 17.5558C8.50175 17.5488 8.51142 17.5449 8.52148 17.5449H11.4668C11.4763 17.5449 11.4855 17.5484 11.4926 17.5547L11.6109 17.6588L11.4145 16.0515L11.064 15.8105H8.92424Z" fill="#161616"/>
  <path d="M19.2969 6.91333L19.9609 3.72583L18.9688 0.764893L11.4531 6.34302L14.3438 8.78833L18.4297 9.98364L19.3359 8.92896L18.9453 8.6477L19.5703 8.07739L19.0859 7.70239L19.7109 7.22583L19.2969 6.91333ZM0.0390625 3.72583L0.703125 6.91333L0.28125 7.22583L0.90625 7.70239L0.429688 8.07739L1.05469 8.6477L0.664063 8.92896L1.5625 9.98364L5.64844 8.78833L8.53906 6.34302L1.02344 0.764893L0.0390625 3.72583Z" fill="#763D16"/>
  <path fill-rule="evenodd" clip-rule="evenodd" d="M1.01168 0.727641C1.02363 0.723871 1.03666 0.72606 1.04672 0.733526L8.56234 6.31165C8.57192 6.31876 8.57773 6.32985 8.57811 6.34178C8.57849 6.3537 8.5734 6.36514 8.56429 6.37284L5.67367 8.81815C5.6695 8.82168 5.66464 8.82429 5.65941 8.82582L1.57347 10.0211C1.55869 10.0255 1.54275 10.0207 1.53276 10.009L0.634327 8.95429C0.62725 8.94598 0.623971 8.93509 0.625284 8.92426C0.626597 8.91342 0.632382 8.90363 0.641238 8.89726L0.99281 8.64412L0.403357 8.10625C0.394879 8.09851 0.390232 8.08744 0.390651 8.07597C0.39107 8.0645 0.396512 8.05379 0.405532 8.0467L0.842465 7.70288L0.257565 7.25689C0.247799 7.24945 0.242103 7.23784 0.242189 7.22556C0.242274 7.21328 0.24813 7.20175 0.257999 7.19444L0.659785 6.89682L0.000821082 3.7338C-0.000584857 3.72705 -0.000179913 3.72005 0.0019948 3.71351L0.98637 0.75257C0.990322 0.740682 0.999736 0.731411 1.01168 0.727641ZM18.9805 0.727627C18.9924 0.731378 19.0018 0.740619 19.0058 0.752482L19.998 3.71342C20.0002 3.71999 20.0006 3.72702 19.9992 3.7338L19.3402 6.89706L19.7345 7.19465C19.7442 7.20201 19.75 7.21351 19.75 7.22573C19.75 7.23795 19.7443 7.24948 19.7346 7.25689L19.1501 7.70263L19.5942 8.04651C19.6033 8.05357 19.6089 8.06429 19.6093 8.07582C19.6098 8.08734 19.6052 8.09848 19.5966 8.10625L19.0072 8.64412L19.3588 8.89726C19.3676 8.90365 19.3734 8.91347 19.3747 8.92434C19.376 8.93521 19.3727 8.94611 19.3656 8.95441L18.4593 10.0091C18.4493 10.0207 18.4334 10.0254 18.4187 10.0211L14.3328 8.82582C14.3275 8.82429 14.3227 8.82168 14.3185 8.81815L11.4279 6.37284C11.4188 6.36514 11.4137 6.3537 11.4141 6.34178C11.4145 6.32985 11.4203 6.31876 11.4298 6.31165L18.9455 0.733526C18.9555 0.72607 18.9685 0.723876 18.9805 0.727627ZM11.516 6.34502L14.3627 8.75316L18.4165 9.93908L19.2786 8.93579L18.9225 8.67941C18.9129 8.67253 18.907 8.66171 18.9063 8.64996C18.9056 8.63821 18.9103 8.62678 18.919 8.61885L19.5097 8.07985L19.062 7.73328C19.0524 7.72585 19.0468 7.71439 19.0469 7.70225C19.0469 7.69011 19.0526 7.67869 19.0623 7.67133L19.6463 7.22599L19.2733 6.94451C19.2613 6.93541 19.2556 6.92016 19.2586 6.90536L19.9205 3.72822L18.9488 0.828337L11.516 6.34502ZM1.04348 0.828417L0.0794505 3.72817L0.741367 6.90536C0.744475 6.92028 0.738622 6.93565 0.726376 6.94472L0.346266 7.22628L0.929936 7.67133C0.939543 7.67866 0.94522 7.69002 0.945312 7.7021C0.945404 7.71418 0.939901 7.72562 0.930406 7.73309L0.490055 8.0796L1.08102 8.61885C1.08971 8.62678 1.09437 8.63821 1.09368 8.64996C1.093 8.66171 1.08706 8.67253 1.07751 8.67941L0.721284 8.93589L1.57582 9.93905L5.62953 8.75316L8.47622 6.34502L1.04348 0.828417Z" fill="#763D16"/>
  <path d="M18.4282 9.98633L14.3423 8.79102L15.5845 10.6582L13.7329 14.252L16.1704 14.2207H19.8032L18.4282 9.98633ZM5.64697 8.79102L1.56103 9.98633L0.20166 14.2207H3.82666L6.25635 14.252L4.4126 10.6582L5.64697 8.79102ZM11.1938 10.8535L11.4517 6.3457L12.6392 3.13477H7.36572L8.5376 6.3457L8.81104 10.8535L8.90478 12.2754L8.9126 15.7754H11.0767L11.0923 12.2754L11.1938 10.8535Z" fill="#F6851B"/>
  <path fill-rule="evenodd" clip-rule="evenodd" d="M7.33372 3.10798C7.34102 3.09753 7.35297 3.09131 7.36572 3.09131H12.6392C12.6519 3.09131 12.6639 3.09756 12.6712 3.10805C12.6785 3.11854 12.6802 3.13193 12.6758 3.14392L11.4903 6.34938L11.2328 10.8514L11.2328 10.8519L11.1313 12.2725L11.1157 15.7712C11.1156 15.7927 11.0982 15.8101 11.0767 15.8101H8.9126C8.89106 15.8101 8.87358 15.7926 8.87354 15.7711L8.86573 12.2723L8.77206 10.8517L8.77205 10.8515L8.49895 6.34935L7.32903 3.14376C7.32466 3.13179 7.32641 3.11843 7.33372 3.10798ZM7.42156 3.16943L8.57429 6.32792C8.57559 6.33146 8.57636 6.33518 8.57659 6.33894L8.85001 10.8466L8.85003 10.8468L8.94376 12.2684C8.94382 12.2693 8.94385 12.2701 8.94385 12.2709L8.95157 15.7319H11.0378L11.0532 12.2708C11.0532 12.27 11.0533 12.2691 11.0533 12.2682L11.1548 10.8469L11.1549 10.8463L11.4127 6.33908C11.4129 6.33521 11.4137 6.33139 11.415 6.32776L12.5831 3.16943H7.42156ZM5.67841 8.76343C5.68814 8.77662 5.6886 8.79449 5.67956 8.80816L4.45778 10.6563L6.2911 14.2297C6.29736 14.2419 6.29677 14.2565 6.28955 14.2681C6.28233 14.2798 6.26954 14.2868 6.25585 14.2866L3.82666 14.2554H0.20166C0.189181 14.2554 0.177452 14.2494 0.170099 14.2393C0.162745 14.2292 0.160653 14.2163 0.164468 14.2044L1.52384 9.96999C1.5278 9.95765 1.53763 9.94808 1.55007 9.94444L5.63601 8.74913C5.65174 8.74453 5.66867 8.75024 5.67841 8.76343ZM14.3108 8.76348C14.3205 8.75025 14.3375 8.74452 14.3533 8.74913L18.4392 9.94444C18.4516 9.94807 18.4614 9.95759 18.4654 9.96987L19.8404 14.2042C19.8442 14.2161 19.8422 14.2292 19.8348 14.2393C19.8275 14.2494 19.8157 14.2554 19.8032 14.2554H16.1704L13.7334 14.2866C13.7197 14.2868 13.7069 14.2798 13.6997 14.2681C13.6925 14.2564 13.6919 14.2419 13.6982 14.2297L15.5392 10.6563L14.3098 8.80826C14.3007 8.79459 14.3011 8.7767 14.3108 8.76348ZM1.59189 10.0136L0.255227 14.1772H3.82716L6.19198 14.2077L4.37784 10.6716C4.3714 10.6591 4.37223 10.644 4.38001 10.6323L5.55556 8.85406L1.59189 10.0136ZM14.4342 8.8542L15.617 10.6322C15.6248 10.644 15.6257 10.6591 15.6192 10.6717L13.7974 14.2077L16.1699 14.1772L16.1704 14.1772L19.7495 14.1772L18.3974 10.0136L14.4342 8.8542Z" fill="#F6851B"/>
</svg>