<svg width="260" height="260" viewBox="0 0 260 260" fill="none" xmlns="http://www.w3.org/2000/svg">
<path d="M109.41 169.35L81.0859 161.014L101.073 151.874L109.41 169.35Z" fill="#343434"/>
<path d="M150.49 169.35L158.827 151.874L178.915 161.014L150.49 169.35Z" fill="#343434"/>
<path d="M201.814 137.812L145.367 140.323L150.59 169.35L158.927 151.874L179.014 161.014L201.814 137.812Z" fill="#818DA4"/>
<path d="M81.0857 161.014L101.174 151.874L109.41 169.35L114.733 140.323L58.1855 137.812L81.0857 161.014Z" fill="#818DA4"/>
<path d="M114.733 140.323L109.41 169.35L116.039 203.6L117.546 158.503L114.733 140.323Z" fill="#A6B2C6"/>
<path d="M145.368 140.323L142.656 158.402L143.862 203.6L150.591 169.35L145.368 140.323Z" fill="#A6B2C6"/>
<path d="M148.682 206.915L143.861 203.6H116.039L111.218 206.915L108.707 229.112L111.017 226.902H148.883L151.394 229.112L148.682 206.915Z" fill="#343434"/>
<path d="M249.523 89.7018L258.06 48.7226L245.304 10.656L148.682 82.3698L185.844 113.807L238.374 129.175L250.025 115.615L245.003 111.999L253.038 104.667L246.811 99.8462L254.846 93.7194L249.523 89.7018Z" fill="#91999B"/>
<path d="M1.93945 48.7226L10.4768 89.7018L5.05308 93.7194L13.0882 99.8462L6.96142 104.667L14.9966 111.999L9.97461 115.615L21.5251 129.175L74.055 113.807L111.218 82.3698L14.5948 10.656L1.93945 48.7226Z" fill="#91999B"/>
<path fill-rule="evenodd" clip-rule="evenodd" d="M96.1741 41.1488L96.1523 41.0891H163.848L245.304 10.656L149.766 81.614L185.844 113.807L238.374 129.174L256.051 183.613L239.68 239.156L182.731 223.487L171.683 232.527L149.184 248.095H110.716L88.3179 232.527L77.2695 223.487L20.32 239.156L4.04883 183.613L21.5253 129.174L74.055 113.807L109.515 82.3999L14.5938 10.656L96.1506 41.0892L96.1741 41.1488ZM145.368 140.323L144.062 158.603L143.861 203.6H116.039L115.939 158.603L114.734 140.323L58.1857 137.812L81.0857 161.014L109.41 169.35L116.039 203.6L111.218 206.915L108.707 229.112L111.017 226.902H148.883L151.393 229.111L148.682 206.915L143.861 203.6L150.591 169.35L179.014 161.014L201.814 137.813L145.368 140.323Z" fill="#CCF9FF"/>
</svg>
