<svg width="16" height="16" viewBox="0 0 16 16" fill="none" xmlns="http://www.w3.org/2000/svg">
<path d="M7.06254 15.5H2.68779C1.82491 15.4992 1.12562 14.7999 1.12479 13.937V6.662C0.512198 6.22728 0.321466 5.40314 0.680789 4.74349C1.35579 3.5375 2.04429 2.34875 2.72154 1.20949C2.99316 0.764744 3.47842 0.495345 3.99954 0.499936C4.31718 0.503163 4.62615 0.603972 4.88454 0.788745L4.90254 0.799995C5.21154 0.979995 8.19654 2.75675 10.5958 4.184L12.725 5.45L12.8225 5.50775C14.486 6.491 14.8603 6.7145 14.8813 6.72875C15.4937 7.16232 15.682 7.98708 15.3185 8.6435C14.6563 9.82625 13.9685 11.015 13.2778 12.1775C13.0097 12.6174 12.533 12.8873 12.0178 12.8907C11.9168 12.8908 11.8162 12.8795 11.7178 12.857C11.6308 12.9087 11.1508 13.217 10.5425 13.607C9.46029 14.3007 7.98129 15.2495 7.81029 15.3372C7.57957 15.456 7.32174 15.5121 7.06254 15.5ZM2.37504 8.7725V13.937C2.37504 14.1097 2.51506 14.2497 2.68779 14.2497H5.55504C4.46529 12.41 3.39579 10.5665 2.37504 8.7725ZM3.39354 8.0225C3.69354 8.53775 6.93054 14.1215 6.95754 14.159C7.00018 14.2144 7.06614 14.2468 7.13604 14.2467C7.17291 14.2467 7.20922 14.2378 7.24179 14.2205C7.34304 14.1635 10.3873 12.2075 10.4173 12.188C10.1818 12.0492 8.47779 11.0337 6.67329 9.959L3.37854 8L3.38379 8.00825L3.39129 8.021V8.0255L3.39354 8.0225ZM3.74904 1.92499C3.14304 2.9 1.78704 5.321 1.76904 5.36525C1.72457 5.47148 1.76402 5.59428 1.86204 5.65475C1.96179 5.714 11.8775 11.6217 11.972 11.6367C11.984 11.6376 11.9961 11.6376 12.008 11.6367C12.0895 11.637 12.1652 11.5946 12.2075 11.525C12.818 10.4997 14.2243 8.03225 14.228 8.02475C14.2715 7.91807 14.2319 7.79561 14.1343 7.7345C14.039 7.6775 4.14204 1.79599 4.07829 1.76824C4.04932 1.75604 4.01822 1.74967 3.98679 1.7495C3.90781 1.74992 3.8343 1.78992 3.79104 1.85599L3.78579 1.865L3.77979 1.87399L3.77079 1.88899V1.89275L3.75954 1.91075L3.74829 1.92499H3.74904ZM4.76379 6.0425C4.0742 6.04208 3.51532 5.48308 3.51504 4.79349C3.51477 4.1039 4.0732 3.54446 4.76279 3.5435C5.45238 3.54253 6.01238 4.10041 6.01404 4.79C6.01321 5.48015 5.45394 6.03942 4.76379 6.04025V6.0425Z" fill="#F8F9FD"/>
</svg>
