<svg width="44" height="45" viewBox="0 0 44 45" fill="none" xmlns="http://www.w3.org/2000/svg">
<path d="M21.9998 31.6667C21.9998 36.7293 26.1039 40.8333 31.1665 40.8333C36.2291 40.8333 40.3332 36.7293 40.3332 31.6667C40.3332 26.6041 36.2291 22.5 31.1665 22.5C26.1039 22.5 21.9998 26.6041 21.9998 31.6667ZM21.9998 31.6667C21.9998 29.6027 22.682 27.698 23.8332 26.1658V9.66667M21.9998 31.6667C21.9998 33.1798 22.3665 34.6073 23.0157 35.8652C21.4712 37.1699 17.9039 38.0833 13.7498 38.0833C8.18097 38.0833 3.6665 36.4417 3.6665 34.4167V9.66667M23.8332 9.66667C23.8332 11.6917 19.3187 13.3333 13.7498 13.3333C8.18097 13.3333 3.6665 11.6917 3.6665 9.66667M23.8332 9.66667C23.8332 7.64162 19.3187 6 13.7498 6C8.18097 6 3.6665 7.64162 3.6665 9.66667M3.6665 26.1667C3.6665 28.1917 8.18097 29.8333 13.7498 29.8333C17.763 29.8333 21.2286 28.9808 22.8517 27.7466M23.8332 17.9167C23.8332 19.9417 19.3187 21.5833 13.7498 21.5833C8.18097 21.5833 3.6665 19.9417 3.6665 17.9167" stroke="#4B505C" stroke-width="3" stroke-linecap="round" stroke-linejoin="round"/>
<path d="M29.0005 29.434C28.8272 29.4773 28.6669 29.447 28.5195 29.343C28.3722 29.2303 28.2985 29.083 28.2985 28.901V28.511C28.2985 28.2943 28.3635 28.1037 28.4935 27.939C28.6322 27.7657 28.8055 27.6617 29.0135 27.627C29.9062 27.4623 30.7599 27.38 31.5745 27.38C32.6405 27.38 33.4725 27.5923 34.0705 28.017C34.6685 28.4417 34.9675 28.9963 34.9675 29.681C34.9675 30.0017 34.9242 30.2877 34.8375 30.539C34.7595 30.7903 34.6252 31.02 34.4345 31.228C34.2525 31.436 34.0922 31.5963 33.9535 31.709C33.8235 31.813 33.6242 31.956 33.3555 32.138C33.1302 32.3027 32.9655 32.424 32.8615 32.502C32.7575 32.5713 32.6319 32.684 32.4845 32.84C32.3372 32.9873 32.2245 33.1347 32.1465 33.282C31.9039 33.75 31.5962 33.984 31.2235 33.984H30.6645C30.4565 33.984 30.2832 33.9103 30.1445 33.763C30.0059 33.6157 29.9625 33.4467 30.0145 33.256C30.0925 32.9613 30.2312 32.6797 30.4305 32.411C30.6299 32.1337 30.8075 31.93 30.9635 31.8C31.1195 31.6613 31.3449 31.4837 31.6395 31.267C31.8735 31.0937 32.0469 30.955 32.1595 30.851C32.2809 30.747 32.3935 30.617 32.4975 30.461C32.6015 30.305 32.6535 30.1447 32.6535 29.98C32.6535 29.408 32.1855 29.122 31.2495 29.122C30.5649 29.122 29.8152 29.226 29.0005 29.434ZM30.5475 35.05H31.3275C31.5269 35.05 31.7002 35.1237 31.8475 35.271C31.9949 35.4183 32.0685 35.5917 32.0685 35.791V36.259C32.0685 36.4583 31.9949 36.6317 31.8475 36.779C31.7002 36.9263 31.5269 37 31.3275 37H30.5475C30.3482 37 30.1749 36.9263 30.0275 36.779C29.8889 36.6317 29.8195 36.4583 29.8195 36.259V35.791C29.8195 35.5917 29.8889 35.4183 30.0275 35.271C30.1749 35.1237 30.3482 35.05 30.5475 35.05Z" fill="#4B505C"/>
</svg>
