<svg width="14" height="14" viewBox="0 0 14 14" fill="none" xmlns="http://www.w3.org/2000/svg">
<path d="M7.75 13.75H1.75C0.921573 13.75 0.25 13.0784 0.25 12.25V1.75C0.25 0.921573 0.921573 0.25 1.75 0.25H12.25C13.0784 0.25 13.75 0.921573 13.75 1.75V7.75C13.7497 7.75867 13.7482 7.76724 13.7455 7.7755C13.7434 7.78235 13.7418 7.78938 13.741 7.7965C13.7368 7.86264 13.7239 7.92794 13.7028 7.99075L13.696 8.011C13.691 8.02793 13.6847 8.04448 13.6772 8.0605C13.6409 8.14221 13.5901 8.21666 13.5273 8.28025L8.27725 13.5303C8.13737 13.6702 7.94786 13.7492 7.75 13.75ZM1.75 1.75V12.25H7V7.75C7 7.33579 7.33579 7 7.75 7H12.25V1.75H1.75ZM8.5 8.5V11.1903L11.1895 8.5H8.5Z" fill="#F8F9FD"/>
</svg>
