<svg width="18" height="18" viewBox="0 0 18 18" fill="none" xmlns="http://www.w3.org/2000/svg">
    <path d="M9.75 15.75H3.75C2.92157 15.75 2.25 15.0784 2.25 14.25V3.75C2.25 2.92157 2.92157 2.25 3.75 2.25H14.25C15.0784 2.25 15.75 2.92157 15.75 3.75V9.75C15.7497 9.75867 15.7482 9.76724 15.7455 9.7755C15.7434 9.78235 15.7418 9.78938 15.741 9.7965C15.7368 9.86264 15.7239 9.92794 15.7028 9.99075L15.696 10.011C15.691 10.0279 15.6847 10.0445 15.6772 10.0605C15.6409 10.1422 15.5901 10.2167 15.5273 10.2802L10.2773 15.5303C10.1374 15.6702 9.94786 15.7492 9.75 15.75ZM3.75 3.75V14.25H9V9.75C9 9.33579 9.33579 9 9.75 9H14.25V3.75H3.75ZM10.5 10.5V13.1903L13.1895 10.5H10.5Z" fill="#F8FCFD"/>
</svg>
