<svg width="24" height="24" viewBox="0 0 24 24" fill="currentColor" xmlns="http://www.w3.org/2000/svg">
<path d="M12 19.0001C10.3599 19.0205 8.7367 18.6665 7.254 17.9651C6.10469 17.4043 5.07265 16.6299 4.213 15.6831C3.30243 14.7042 2.58547 13.5618 2.1 12.3161L2 12.0001L2.105 11.6841C2.59082 10.4395 3.30624 9.29737 4.214 8.3171C5.07334 7.37041 6.10504 6.59596 7.254 6.0351C8.73671 5.33369 10.3599 4.97971 12 5.0001C13.6401 4.97975 15.2633 5.33372 16.746 6.0351C17.8953 6.59584 18.9274 7.37029 19.787 8.3171C20.6993 9.29466 21.4165 10.4375 21.9 11.6841L22 12.0001L21.895 12.3161C20.3262 16.3999 16.3742 19.0694 12 19.0001ZM12 7.0001C8.59587 6.89343 5.47142 8.8752 4.117 12.0001C5.4712 15.1252 8.59579 17.1071 12 17.0001C15.4041 17.1065 18.5284 15.1248 19.883 12.0001C18.5304 8.87368 15.4047 6.89118 12 7.0001ZM12 15.0001C10.5573 15.0097 9.30937 13.9975 9.02097 12.5839C8.73256 11.1703 9.48427 9.75012 10.8154 9.19376C12.1465 8.6374 13.6852 9.10024 14.4885 10.2986C15.2919 11.497 15.1354 13.0962 14.115 14.1161C13.5563 14.6814 12.7948 14.9997 12 15.0001Z" />
</svg>
