<svg width="28" height="28" viewBox="0 0 28 28" fill="none" xmlns="http://www.w3.org/2000/svg">
<mask id="mask0_278_7891" style="mask-type:alpha" maskUnits="userSpaceOnUse" x="0" y="0" width="28" height="28">
<path d="M28 14C28 21.732 21.732 28 14 28C6.26801 28 0 21.732 0 14C0 6.26801 6.26801 0 14 0C21.732 0 28 6.26801 28 14Z" fill="white"/>
</mask>
<g mask="url(#mask0_278_7891)">
<g filter="url(#filter0_f_278_7891)">
<path d="M28 8.75C28 13.5825 24.0825 17.5 19.25 17.5C14.4175 17.5 10.5 13.5825 10.5 8.75C10.5 3.91751 14.4175 0 19.25 0C24.0825 0 28 3.91751 28 8.75Z" fill="url(#paint0_linear_278_7891)" fill-opacity="var(--opacity)"/>
</g>
</g>
<path fill-rule="evenodd" clip-rule="evenodd" d="M16.9378 0.308748C22.312 1.45634 26.5437 5.68802 27.6913 11.0622C27.8925 10.3257 28 9.55038 28 8.75C28 3.91751 24.0825 0 19.25 0C18.4496 0 17.6743 0.107463 16.9378 0.308748Z" fill="url(#paint1_linear_278_7891)" fill-opacity="var(--opacity)"/>
<g filter="url(#filter1_ii_278_7891)">
<path d="M28 14C28 21.732 21.732 28 14 28C6.26801 28 0 21.732 0 14C0 6.26801 6.26801 0 14 0C21.732 0 28 6.26801 28 14Z" fill="#CCF9FF" fill-opacity="0.08"/>
</g>
<g filter="url(#filter2_i_278_7891)">
<path d="M19.985 6.82522C20.7543 6.39784 21.6022 7.24577 21.1748 8.01504L17.4462 14.7266C16.8114 15.8692 15.8693 16.8113 14.7266 17.4462L8.01508 21.1748C7.24581 21.6021 6.39788 20.7542 6.82525 19.9849L10.5539 13.2734C11.1887 12.1308 12.1308 11.1887 13.2735 10.5538L19.985 6.82522Z" fill="#CCF9FF" fill-opacity="0.15"/>
</g>
<defs>
<filter id="filter0_f_278_7891" x="1.5" y="-9" width="35.5" height="35.5" filterUnits="userSpaceOnUse" color-interpolation-filters="sRGB">
<feFlood flood-opacity="0" result="BackgroundImageFix"/>
<feBlend mode="normal" in="SourceGraphic" in2="BackgroundImageFix" result="shape"/>
<feGaussianBlur stdDeviation="4.5" result="effect1_foregroundBlur_278_7891"/>
</filter>
<filter id="filter1_ii_278_7891" x="0" y="0" width="28" height="29" filterUnits="userSpaceOnUse" color-interpolation-filters="sRGB">
<feFlood flood-opacity="0" result="BackgroundImageFix"/>
<feBlend mode="normal" in="SourceGraphic" in2="BackgroundImageFix" result="shape"/>
<feColorMatrix in="SourceAlpha" type="matrix" values="0 0 0 0 0 0 0 0 0 0 0 0 0 0 0 0 0 0 127 0" result="hardAlpha"/>
<feOffset dy="1"/>
<feGaussianBlur stdDeviation="0.5"/>
<feComposite in2="hardAlpha" operator="arithmetic" k2="-1" k3="1"/>
<feColorMatrix type="matrix" values="0 0 0 0 1 0 0 0 0 1 0 0 0 0 1 0 0 0 0.15 0"/>
<feBlend mode="normal" in2="shape" result="effect1_innerShadow_278_7891"/>
<feColorMatrix in="SourceAlpha" type="matrix" values="0 0 0 0 0 0 0 0 0 0 0 0 0 0 0 0 0 0 127 0" result="hardAlpha"/>
<feOffset/>
<feGaussianBlur stdDeviation="3.5"/>
<feComposite in2="hardAlpha" operator="arithmetic" k2="-1" k3="1"/>
<feColorMatrix type="matrix" values="0 0 0 0 1 0 0 0 0 1 0 0 0 0 1 0 0 0 0.05 0"/>
<feBlend mode="normal" in2="effect1_innerShadow_278_7891" result="effect2_innerShadow_278_7891"/>
</filter>
<filter id="filter2_i_278_7891" x="6.71045" y="6.71039" width="14.5792" height="15.0792" filterUnits="userSpaceOnUse" color-interpolation-filters="sRGB">
<feFlood flood-opacity="0" result="BackgroundImageFix"/>
<feBlend mode="normal" in="SourceGraphic" in2="BackgroundImageFix" result="shape"/>
<feColorMatrix in="SourceAlpha" type="matrix" values="0 0 0 0 0 0 0 0 0 0 0 0 0 0 0 0 0 0 127 0" result="hardAlpha"/>
<feOffset dy="0.5"/>
<feGaussianBlur stdDeviation="0.25"/>
<feComposite in2="hardAlpha" operator="arithmetic" k2="-1" k3="1"/>
<feColorMatrix type="matrix" values="0 0 0 0 1 0 0 0 0 1 0 0 0 0 1 0 0 0 0.3 0"/>
<feBlend mode="normal" in2="shape" result="effect1_innerShadow_278_7891"/>
</filter>
<linearGradient id="paint0_linear_278_7891" x1="26.1884" y1="-1.52151" x2="11.7861" y2="15.6426" gradientUnits="userSpaceOnUse">
<stop offset="0.00121575" stop-color="var(--color-1)"/>
<stop offset="1" stop-color="var(--color-2)"/>
</linearGradient>
<linearGradient id="paint1_linear_278_7891" x1="26.1885" y1="-1.52151" x2="11.7861" y2="15.6426" gradientUnits="userSpaceOnUse">
<stop offset="0.00121575" stop-color="var(--color-1)"/>
<stop offset="1" stop-color="var(--color-2)"/>
</linearGradient>
</defs>
</svg>
