<svg width="32" height="33" viewBox="0 0 32 33" fill="none" xmlns="http://www.w3.org/2000/svg">
<path fill-rule="evenodd" clip-rule="evenodd" d="M21.7239 3.95066C23.7174 1.9572 26.9494 1.9572 28.9429 3.95066C30.9363 5.94412 30.9363 9.17616 28.9429 11.1696L13.9032 26.2092C13.8866 26.2258 13.8703 26.2422 13.8541 26.2584C13.5429 26.5697 13.3075 26.8053 13.0415 27.0117C12.8064 27.1941 12.5565 27.3565 12.2943 27.4973C11.9976 27.6565 11.6868 27.776 11.2758 27.9339C11.2545 27.9421 11.2329 27.9504 11.211 27.9588L3.81201 30.8046C3.32021 30.9938 2.76315 30.8755 2.39056 30.5029C2.01798 30.1304 1.89976 29.5733 2.08891 29.0815L4.93469 21.6825C4.9431 21.6606 4.9514 21.639 4.9596 21.6177C5.11754 21.2067 5.23701 20.8959 5.39624 20.5992C5.53698 20.337 5.69942 20.0871 5.88185 19.852C6.08825 19.586 6.32378 19.3506 6.63516 19.0394C6.65132 19.0232 6.66769 19.0069 6.68427 18.9903L21.7239 3.95066ZM27.0573 5.83628C26.1052 4.88422 24.5616 4.88422 23.6095 5.83628L8.56989 20.8759C8.56376 20.882 8.55769 20.8881 8.5517 20.8941C8.61602 20.9571 8.67966 21.0207 8.74115 21.0822C8.75087 21.092 8.76055 21.1017 8.77016 21.1113L11.7823 24.1234C11.7919 24.133 11.8016 24.1427 11.8113 24.1524C11.8728 24.2139 11.9365 24.2775 11.9994 24.3418C12.0054 24.3358 12.0115 24.3298 12.0176 24.3236L27.0573 9.28399C28.0093 8.33194 28.0093 6.78834 27.0573 5.83628ZM9.6065 25.7188L7.17466 23.287L5.65477 27.2387L9.6065 25.7188Z" fill="#F8FCFD"/>
<path opacity="0.4" fill-rule="evenodd" clip-rule="evenodd" d="M16 28.8936C16 28.1573 16.597 27.5603 17.3333 27.5603H28C28.7364 27.5603 29.3333 28.1573 29.3333 28.8936C29.3333 29.63 28.7364 30.227 28 30.227H17.3333C16.597 30.227 16 29.63 16 28.8936Z" fill="#F8FCFD"/>
</svg>
