<svg width="26" height="26" viewBox="0 0 26 26" fill="#F8FCFD" xmlns="http://www.w3.org/2000/svg">
<path d="M13.0003 23.8332C7.01724 23.8332 2.16699 18.9829 2.16699 12.9998C2.16699 7.01675 7.01724 2.1665 13.0003 2.1665C18.9834 2.1665 23.8337 7.01675 23.8337 12.9998C23.8271 18.9802 18.9807 23.8266 13.0003 23.8332ZM4.33366 13.1862C4.38492 17.9542 8.27819 21.7852 13.0464 21.7597C17.8146 21.7339 21.6665 17.8613 21.6665 13.093C21.6665 8.32472 17.8146 4.45209 13.0464 4.42633C8.27819 4.40083 4.38492 8.23183 4.33366 12.9998V13.1862ZM14.0837 18.4165H11.917V14.0832H7.58366V11.9165H11.917V7.58317H14.0837V11.9165H18.417V14.0832H14.0837V18.4165Z"/>
</svg>
