<svg width="18" height="18" viewBox="0 0 18 18" fill="none" xmlns="http://www.w3.org/2000/svg">
<path d="M14.724 10.2168C14.1086 8.95095 12.5868 8.45095 12.5868 8.45095C12.5868 8.45095 14.5045 7.51424 14.0837 5.67563C13.8126 4.47627 12.6699 3.27057 10.5427 3.24051V1.5H8.64828V3.24051H7.26948V1.5H5.37674V3.24051H3V4.88291H4.09772C4.1567 4.88291 4.21509 4.89396 4.26957 4.91543C4.32406 4.9369 4.37356 4.96837 4.41526 5.00804C4.45696 5.04771 4.49004 5.09481 4.51261 5.14664C4.53518 5.19847 4.54679 5.25402 4.54679 5.31013V12.3987C4.54679 12.5246 4.49422 12.6454 4.40065 12.7344C4.30707 12.8234 4.18016 12.8734 4.04783 12.8734H3V14.6408H5.37674V16.5H7.26948V14.6408H8.64828V16.5H10.541V14.6408H10.9069C14.571 14.6408 15.5556 11.9589 14.724 10.2168ZM9.19714 4.88291C10.1601 4.88291 11.0533 5.4731 11.0782 6.37816C11.1032 7.28323 10.3148 8.06487 9.26866 8.07753C8.30566 8.08861 7.2728 8.07753 7.2728 8.07753V4.88291C7.2728 4.88291 8.18757 4.88291 9.19714 4.88291ZM9.76264 12.8687C8.76471 12.8861 7.26781 12.8687 7.26781 12.8687V9.54589C7.26781 9.54589 8.64995 9.56487 9.68114 9.54589C10.9219 9.5269 11.835 10.0775 11.8433 11.1171C11.8516 12.1566 11.1082 12.8481 9.76264 12.8718V12.8687Z" fill="#F8FCFD"/>
</svg>
