<svg width="18" height="18" fill="none" xmlns="http://www.w3.org/2000/svg">
  <path
    d="M3.086 1.565C2.262 1.84 1.76 2.636 1.9 3.45c.095.553.45 1.023.955 1.262.255.12.299.128.71.128.417 0 .453-.008.712-.136.327-.16.645-.47.777-.753l.095-.207h1.979v1.94l-.227.052c-.255.055-.804.326-1.04.51l-.154.123-1.737.012c-1.68.012-1.736.016-1.847.095-.251.183-.251.171-.251 2.147 0 1.999-.004 1.975.274 2.158l.136.092h1.72c1.49 0 1.729.008 1.772.06.112.13.638.422.996.541.354.123.414.131.916.131s.561-.007.916-.131c.358-.12.884-.41.995-.542.04-.047.164-.06.633-.06.697 0 .869.044 1.112.291.255.26.286.399.286 1.263 0 .633.012.788.08 1 .147.477.466.84.94 1.059.23.107.25.111 1.09.123.578.012.929 0 1.088-.036.506-.103.996-.537 1.19-1.043.084-.231.092-.303.092-1.103 0-.665-.015-.944-.075-1.255a5.84 5.84 0 0 0-4.6-4.683 7.657 7.657 0 0 0-1.079-.103l-.697-.024-.199-.152c-.255-.19-.729-.418-1-.477l-.215-.048v-1.94h1.972l.12.227c.158.303.441.578.764.737.255.124.29.132.708.132.43 0 .45-.004.745-.152 1.267-.625 1.243-2.421-.036-3.026-.255-.12-.298-.128-.709-.128-.414 0-.454.008-.7.128a1.878 1.878 0 0 0-.777.748l-.115.22H8.25l-.016-.22c-.02-.235-.111-.374-.318-.482-.35-.183-.789.116-.789.53v.171H5.157l-.12-.227a1.757 1.757 0 0 0-.76-.732c-.239-.12-.31-.136-.65-.144-.238-.008-.441.008-.54.04zM13.866 15.431c-.111.048-.163.128-.346.506-.458.972-.494 1.342-.155 1.74.139.168.461.323.677.323.517 0 .947-.418.943-.916-.004-.346-.465-1.485-.657-1.609a.47.47 0 0 0-.462-.044z"
    fill="#F8FCFD" />
</svg>
