<svg width="28" height="28" viewBox="0 0 28 28" fill="none" xmlns="http://www.w3.org/2000/svg">
    <mask id="mask0_278_7900" style="mask-type:alpha" maskUnits="userSpaceOnUse" x="0" y="5" width="28" height="22">
        <path d="M0 15.2446C0 10.8448 0 8.64492 1.36684 7.27809C2.73367 5.91125 4.93356 5.91125 9.33333 5.91125H18.6667C23.0664 5.91125 25.2663 5.91125 26.6332 7.27809C28 8.64492 28 10.8448 28 15.2446V16.8001C28 21.1999 28 23.3998 26.6332 24.7666C25.2663 26.1335 23.0664 26.1335 18.6667 26.1335H9.33333C4.93356 26.1335 2.73367 26.1335 1.36684 24.7666C0 23.3998 0 21.1999 0 16.8001V15.2446Z" fill="white"/>
    </mask>
    <g mask="url(#mask0_278_7900)">
        <g filter="url(#filter0_f_278_7900)">
            <path d="M4.66663 5.9111C4.66663 4.19288 6.05952 2.79999 7.77774 2.79999L20.2222 2.79999C21.9404 2.79999 23.3333 4.19288 23.3333 5.9111V9.02221C23.3333 10.7404 21.9404 12.1333 20.2222 12.1333H7.77774C6.05952 12.1333 4.66663 10.7404 4.66663 9.02221V5.9111Z" fill="url(#paint0_linear_278_7900)" fill-opacity="var(--opacity)"/>
        </g>
    </g>
    <path fill-rule="evenodd" clip-rule="evenodd" d="M7.77774 2.79999C6.05952 2.79999 4.66663 4.19288 4.66663 5.9111V6.02966C5.87042 5.91125 7.3865 5.91125 9.33329 5.91125H18.6666C20.6134 5.91125 22.1295 5.91125 23.3333 6.02966V5.9111C23.3333 4.19288 21.9404 2.79999 20.2222 2.79999H7.77774Z" fill="url(#paint1_linear_278_7900)" fill-opacity="var(--opacity)"/>
    <g filter="url(#filter1_ii_278_7900)">
        <path d="M0 15.2446C0 10.8448 0 8.64492 1.36684 7.27809C2.73367 5.91125 4.93356 5.91125 9.33333 5.91125H18.6667C23.0664 5.91125 25.2663 5.91125 26.6332 7.27809C28 8.64492 28 10.8448 28 15.2446V16.8001C28 21.1999 28 23.3998 26.6332 24.7666C25.2663 26.1335 23.0664 26.1335 18.6667 26.1335H9.33333C4.93356 26.1335 2.73367 26.1335 1.36684 24.7666C0 23.3998 0 21.1999 0 16.8001V15.2446Z" fill="#CCD6FF" fill-opacity="0.08"/>
    </g>
    <g filter="url(#filter2_i_278_7900)">
        <path fill-rule="evenodd" clip-rule="evenodd" d="M14.0001 9.02206C14.8592 9.02206 15.5556 9.71851 15.5556 10.5776V17.7111L17.5668 15.6999C18.1743 15.0924 19.1592 15.0924 19.7667 15.6999C20.3741 16.3074 20.3741 17.2923 19.7667 17.8998L15.1 22.5665C14.4925 23.1739 13.5076 23.1739 12.9001 22.5665L8.23344 17.8998C7.62596 17.2923 7.62596 16.3074 8.23344 15.6999C8.84093 15.0924 9.82585 15.0924 10.4333 15.6999L12.4445 17.7111V10.5776C12.4445 9.71851 13.1409 9.02206 14.0001 9.02206Z" fill="#CCD6FF" fill-opacity="0.15"/>
    </g>
    <defs>
        <filter id="filter0_f_278_7900" x="-4.33337" y="-6.20001" width="36.6666" height="27.3333" filterUnits="userSpaceOnUse" color-interpolation-filters="sRGB">
            <feFlood flood-opacity="0" result="BackgroundImageFix"/>
            <feBlend mode="normal" in="SourceGraphic" in2="BackgroundImageFix" result="shape"/>
            <feGaussianBlur stdDeviation="4.5" result="effect1_foregroundBlur_278_7900"/>
        </filter>
        <filter id="filter1_ii_278_7900" x="0" y="5.91125" width="28" height="21.2222" filterUnits="userSpaceOnUse" color-interpolation-filters="sRGB">
            <feFlood flood-opacity="0" result="BackgroundImageFix"/>
            <feBlend mode="normal" in="SourceGraphic" in2="BackgroundImageFix" result="shape"/>
            <feColorMatrix in="SourceAlpha" type="matrix" values="0 0 0 0 0 0 0 0 0 0 0 0 0 0 0 0 0 0 127 0" result="hardAlpha"/>
            <feOffset dy="1"/>
            <feGaussianBlur stdDeviation="0.5"/>
            <feComposite in2="hardAlpha" operator="arithmetic" k2="-1" k3="1"/>
            <feColorMatrix type="matrix" values="0 0 0 0 1 0 0 0 0 1 0 0 0 0 1 0 0 0 0.15 0"/>
            <feBlend mode="normal" in2="shape" result="effect1_innerShadow_278_7900"/>
            <feColorMatrix in="SourceAlpha" type="matrix" values="0 0 0 0 0 0 0 0 0 0 0 0 0 0 0 0 0 0 127 0" result="hardAlpha"/>
            <feOffset/>
            <feGaussianBlur stdDeviation="3.5"/>
            <feComposite in2="hardAlpha" operator="arithmetic" k2="-1" k3="1"/>
            <feColorMatrix type="matrix" values="0 0 0 0 1 0 0 0 0 1 0 0 0 0 1 0 0 0 0.05 0"/>
            <feBlend mode="normal" in2="effect1_innerShadow_278_7900" result="effect2_innerShadow_278_7900"/>
        </filter>
        <filter id="filter2_i_278_7900" x="7.77783" y="9.02206" width="12.4445" height="14.5" filterUnits="userSpaceOnUse" color-interpolation-filters="sRGB">
            <feFlood flood-opacity="0" result="BackgroundImageFix"/>
            <feBlend mode="normal" in="SourceGraphic" in2="BackgroundImageFix" result="shape"/>
            <feColorMatrix in="SourceAlpha" type="matrix" values="0 0 0 0 0 0 0 0 0 0 0 0 0 0 0 0 0 0 127 0" result="hardAlpha"/>
            <feOffset dy="0.5"/>
            <feGaussianBlur stdDeviation="0.25"/>
            <feComposite in2="hardAlpha" operator="arithmetic" k2="-1" k3="1"/>
            <feColorMatrix type="matrix" values="0 0 0 0 1 0 0 0 0 1 0 0 0 0 1 0 0 0 0.3 0"/>
            <feBlend mode="normal" in2="shape" result="effect1_innerShadow_278_7900"/>
        </filter>
        <linearGradient id="paint0_linear_278_7900" x1="21.401" y1="1.98851" x2="15.8358" y2="15.2532" gradientUnits="userSpaceOnUse">
            <stop offset="0.00121575" stop-color="var(--color-1)"/>
            <stop offset="1" stop-color="var(--color-2)"/>
        </linearGradient>
        <linearGradient id="paint1_linear_278_7900" x1="21.401" y1="1.98851" x2="15.8358" y2="15.2532" gradientUnits="userSpaceOnUse">
            <stop offset="0.00121575" stop-color="var(--color-1)"/>
            <stop offset="1" stop-color="var(--color-2)"/>
        </linearGradient>
    </defs>
</svg>
