<svg xmlns="http://www.w3.org/2000/svg" fill="none" viewBox="0 0 28 29">
  <g filter="url(#a)">
    <path d="M2 10.85c0-3.7 0-5.55 1.17-6.7C4.34 3 6.23 3 10 3h8c3.77 0 5.66 0 6.83 1.15s1.17 3 1.17 6.7v1.3c0 3.7 0 5.55-1.17 6.7C23.66 20 21.77 20 18 20h-8c-3.77 0-5.66 0-6.83-1.15S2 15.85 2 12.15v-1.3Z" fill="var(--color-1)"/>
  </g>
  <g filter="url(#b)">
    <path d="M0 14.78c0-4.33 0-6.5 1.37-7.85 1.36-1.35 3.56-1.35 7.96-1.35h9.34c4.4 0 6.6 0 7.96 1.35C28 8.28 28 10.45 28 14.78v1.54c0 4.33 0 6.5-1.37 7.85-1.36 1.35-3.56 1.35-7.96 1.35H9.33c-4.4 0-6.6 0-7.96-1.35C0 22.82 0 20.65 0 16.32v-1.54Z" fill="var(--color-2)"/>
  </g>
  <g filter="url(#c)">
    <path fill-rule="evenodd" clip-rule="evenodd" d="M14 9.55c.75 0 1.35.6 1.35 1.33v6.11l1.75-1.72a1.37 1.37 0 0 1 1.91 0c.53.52.53 1.37 0 1.89l-4.05 4c-.53.52-1.39.52-1.92 0l-4.05-4a1.32 1.32 0 0 1 0-1.89 1.37 1.37 0 0 1 1.9 0L12.66 17v-6.11c0-.74.6-1.33 1.35-1.33Z" fill="var(--color-1)"/>
  </g>
  <defs>
    <filter id="a" x="-6" y="-5" width="40" height="33" filterUnits="userSpaceOnUse" color-interpolation-filters="sRGB">
      <feFlood flood-opacity="0" result="BackgroundImageFix"/>
      <feGaussianBlur in="BackgroundImageFix" stdDeviation="4"/>
      <feComposite in2="SourceAlpha" operator="in" result="effect1_backgroundBlur_2931_75725"/>
      <feBlend in="SourceGraphic" in2="effect1_backgroundBlur_2931_75725" result="shape"/>
    </filter>
    <filter id="b" x="-8" y="-2.42" width="44" height="35.93" filterUnits="userSpaceOnUse" color-interpolation-filters="sRGB">
      <feFlood flood-opacity="0" result="BackgroundImageFix"/>
      <feGaussianBlur in="BackgroundImageFix" stdDeviation="4"/>
      <feComposite in2="SourceAlpha" operator="in" result="effect1_backgroundBlur_2931_75725"/>
      <feBlend in="SourceGraphic" in2="effect1_backgroundBlur_2931_75725" result="shape"/>
    </filter>
    <filter id="c" x=".59" y="1.55" width="26.82" height="28" filterUnits="userSpaceOnUse" color-interpolation-filters="sRGB">
      <feFlood flood-opacity="0" result="BackgroundImageFix"/>
      <feGaussianBlur in="BackgroundImageFix" stdDeviation="4"/>
      <feComposite in2="SourceAlpha" operator="in" result="effect1_backgroundBlur_2931_75725"/>
      <feBlend in="SourceGraphic" in2="effect1_backgroundBlur_2931_75725" result="shape"/>
    </filter>
  </defs>
</svg>