<svg width="18" height="18" viewBox="0 0 18 18" xmlns="http://www.w3.org/2000/svg" fill="currentColor">
<path d="M9 16.5C4.85786 16.5 1.5 13.1421 1.5 9C1.5 4.85786 4.85786 1.5 9 1.5C13.1421 1.5 16.5 4.85786 16.5 9C16.4955 13.1403 13.1403 16.4955 9 16.5ZM5.10525 7.90725C4.65647 7.9075 4.25327 8.18157 4.0879 8.59878C3.92254 9.01599 4.0285 9.49186 4.35525 9.7995C4.44162 9.88131 4.54097 9.94821 4.64925 9.9975C4.63983 10.107 4.63983 10.2172 4.64925 10.3268C4.64925 12.0068 6.6105 13.3733 9.021 13.3733C11.4315 13.3733 13.3935 12.0068 13.3935 10.3268C13.4022 10.2172 13.4022 10.1071 13.3935 9.9975C13.8487 9.77633 14.0895 9.2689 13.9729 8.77642C13.8563 8.28395 13.4135 7.93834 12.9075 7.94475H12.8678C12.5991 7.95468 12.3435 8.06336 12.15 8.25C11.2969 7.66988 10.2939 7.34945 9.2625 7.3275L9.75 4.9875L11.3535 5.325C11.3948 5.7053 11.7157 5.99356 12.0983 5.994C12.1256 5.99397 12.1529 5.99247 12.18 5.9895C12.5777 5.94958 12.8742 5.60486 12.8542 5.2057C12.8341 4.80655 12.5047 4.49325 12.105 4.49325C12.0766 4.49393 12.0484 4.49618 12.0203 4.5C11.7825 4.52525 11.5711 4.66231 11.451 4.869L9.615 4.5C9.59873 4.49651 9.58214 4.49475 9.5655 4.49475C9.45708 4.49604 9.36385 4.57187 9.3405 4.67775L8.7795 7.2825C7.73537 7.29728 6.71846 7.61773 5.8545 8.20425C5.65201 8.01294 5.38382 7.90663 5.10525 7.90725ZM9.135 12.393C9.093 12.393 9.05025 12.393 9.00825 12.393C8.96625 12.393 8.9235 12.393 8.8815 12.393C8.25906 12.3906 7.65403 12.1873 7.1565 11.8133C7.1222 11.7719 7.10584 11.7185 7.11105 11.665C7.11626 11.6115 7.14261 11.5623 7.18425 11.5283C7.22053 11.4988 7.26578 11.4827 7.3125 11.4825C7.35925 11.4825 7.40456 11.4987 7.44075 11.5283C7.8612 11.8363 8.36926 12.0017 8.8905 12C8.927 12 8.9635 12 9 12C9.04425 12 9.08925 12 9.1335 12C9.64799 12.0009 10.1497 11.8397 10.5675 11.5395C10.607 11.4992 10.6611 11.4765 10.7175 11.4765C10.7739 11.4765 10.828 11.4992 10.8675 11.5395C10.9488 11.6236 10.9472 11.7575 10.8637 11.8395V11.8095C10.366 12.1861 9.7592 12.3906 9.135 12.3922V12.393ZM10.7303 10.56H10.7183L10.7242 10.5308C10.3944 10.5082 10.1246 10.2592 10.0757 9.93217C10.0269 9.60513 10.2121 9.28815 10.521 9.17021C10.83 9.05226 11.1793 9.16513 11.3609 9.44151C11.5424 9.71789 11.5072 10.0833 11.2762 10.32C11.142 10.4666 10.9544 10.5531 10.7558 10.56H10.7295H10.7303ZM7.2525 10.5C6.83829 10.5 6.5025 10.1642 6.5025 9.75C6.5025 9.33579 6.83829 9 7.2525 9C7.66671 9 8.0025 9.33579 8.0025 9.75C8.0025 10.1642 7.66671 10.5 7.2525 10.5Z"/>
</svg>
