<svg width="16" height="16" viewBox="0 0 16 16" fill="none" xmlns="http://www.w3.org/2000/svg">
<path d="M8.52858 1.52858C8.78893 1.26823 9.21104 1.26823 9.47139 1.52858L11.4714 3.52858C11.7317 3.78892 11.7317 4.21103 11.4714 4.47138L9.47139 6.47138C9.21104 6.73173 8.78893 6.73173 8.52858 6.47138C8.26824 6.21103 8.26824 5.78892 8.52858 5.52858L9.39051 4.66665H8.33332C5.96818 4.66665 3.99999 6.63484 3.99999 8.99998C3.99999 11.3651 5.96818 13.3333 8.33332 13.3333C10.6985 13.3333 12.6667 11.3651 12.6667 8.99998C12.6667 8.63179 12.9651 8.33331 13.3333 8.33331C13.7015 8.33331 14 8.63179 14 8.99998C14 12.1015 11.4348 14.6666 8.33332 14.6666C5.2318 14.6666 2.66666 12.1015 2.66666 8.99998C2.66666 5.89846 5.2318 3.33331 8.33332 3.33331H9.39051L8.52858 2.47138C8.26824 2.21103 8.26824 1.78892 8.52858 1.52858Z" fill="#F8FCFD"/>
</svg>
