<svg width="38" height="38" viewBox="0 0 38 38" fill="none" xmlns="http://www.w3.org/2000/svg">
<g clip-path="url(#clip0_3_9067)">
<circle cx="19" cy="19.0005" r="19" fill="black" fill-opacity="0.4"/>
<path d="M25 29C22.8082 28.9947 21.0268 27.2306 21 25.039V23H17V25.02C16.989 27.2265 15.1933 29.0073 12.9867 29C10.7802 28.9927 8.9964 27.1999 9.00005 24.9934C9.00372 22.7869 10.7935 21 13 21H15V17H13C10.7935 17 9.00372 15.2132 9.00005 13.0067C8.9964 10.8001 10.7802 9.00739 12.9867 9.00002C15.1933 8.9927 16.989 10.7735 17 12.98V15H21V13C21 10.7909 22.7909 9.00002 25 9.00002C27.2091 9.00002 29 10.7909 29 13C29 15.2092 27.2091 17 25 17H23V21H25C27.2091 21 29 22.7909 29 25C29 27.2092 27.2091 29 25 29ZM23 23V25C23 26.1046 23.8954 27 25 27C26.1046 27 27 26.1046 27 25C27 23.8955 26.1046 23 25 23H23ZM13 23C11.8954 23 11 23.8955 11 25C11 26.1046 11.8954 27 13 27C13.5322 27.0057 14.0442 26.7968 14.4205 26.4205C14.7968 26.0442 15.0057 25.5322 15 25V23H13ZM17 17V21H21V17H17ZM25 11C24.4678 10.9943 23.9558 11.2032 23.5795 11.5795C23.2032 11.9559 22.9943 12.4679 23 13V15H25C25.5322 15.0057 26.0442 14.7968 26.4205 14.4205C26.7968 14.0442 27.0057 13.5322 27 13C27.0057 12.4679 26.7968 11.9559 26.4205 11.5795C26.0442 11.2032 25.5322 10.9943 25 11ZM13 11C12.4678 10.9943 11.9558 11.2032 11.5795 11.5795C11.2032 11.9559 10.9943 12.4679 11 13C10.9943 13.5322 11.2032 14.0442 11.5795 14.4205C11.9558 14.7968 12.4678 15.0057 13 15H15V13C15.0057 12.4679 14.7968 11.9559 14.4205 11.5795C14.0442 11.2032 13.5322 10.9943 13 11Z" fill="#F8FCFD"/>
</g>
<defs>
<clipPath id="clip0_3_9067">
<rect y="-0.000488281" width="38" height="38" rx="19" fill="white"/>
</clipPath>
</defs>
</svg>
