<svg width="20" height="20" viewBox="0 0 20 20" fill="#7A7E7B" xmlns="http://www.w3.org/2000/svg">
<path d="M16.3142 18L13.2904 14.9086C10.2615 17.0508 6.08775 16.5268 3.6888 13.7032C1.28985 10.8796 1.466 6.69833 4.09403 4.0843C6.72136 1.46913 10.9249 1.29314 13.7638 3.67946C16.6028 6.06578 17.1298 10.2182 14.9762 13.2316L18 16.323L16.3154 17.9988L16.3142 18ZM9.14792 4.3711C6.88868 4.3706 4.93955 5.94821 4.4806 8.14882C4.02166 10.3494 5.17904 12.5682 7.25203 13.4618C9.32501 14.3554 11.7438 13.6782 13.0441 11.8402C14.3443 10.0023 14.1685 7.50868 12.6232 5.86919L13.344 6.5803L12.5315 5.77438L12.5172 5.76015C11.6258 4.86792 10.4125 4.36771 9.14792 4.3711Z" />
</svg>
