<svg xmlns="http://www.w3.org/2000/svg" width="28" height="29" viewBox="0 0 28 29" fill="none">
  <g clip-path="url(#clip0_2194_23261)">
    <path d="M27.9323 3.23499C28.3047 1.9051 27.0793 0.679672 25.7494 1.05204L1.29407 7.89953C-0.181019 8.31255 -0.471566 10.2767 0.820773 11.0991L10.9171 17.524C11.1357 17.6632 11.3212 17.8486 11.4604 18.0673L17.8853 28.1636C18.7077 29.4559 20.6718 29.1654 21.0848 27.6903L27.9323 3.23499Z" fill="var(--color-2)"/>
    <path d="M23.0227 7.11704C23.2199 6.41298 22.5711 5.76422 21.867 5.96136L8.92011 9.5865C8.13918 9.80516 7.98536 10.845 8.66954 11.2804L14.0146 14.6818C14.1304 14.7555 14.2286 14.8537 14.3023 14.9694L17.7037 20.3145C18.1391 20.9987 19.1789 20.8449 19.3976 20.064L23.0227 7.11704Z" fill-opacity="var(--opacity)" fill="var(--color-1)" />
  </g>
  <defs>
    <clipPath id="clip0_2194_23261">
      <rect width="28" height="28" fill="white" transform="translate(0 0.984375)"/>
    </clipPath>
  </defs>
</svg>