<svg width="28" height="28" viewBox="0 0 28 28" fill="none" xmlns="http://www.w3.org/2000/svg">
<mask id="mask0_262_7571" style="mask-type:alpha" maskUnits="userSpaceOnUse" x="0" y="0" width="28" height="28">
<path d="M27.9323 2.25061C28.3047 0.920728 27.0793 -0.304703 25.7494 0.0676653L1.29407 6.91515C-0.181019 7.32818 -0.471566 9.29232 0.820773 10.1147L10.9171 16.5396C11.1357 16.6788 11.3212 16.8643 11.4604 17.0829L17.8853 27.1792C18.7077 28.4716 20.6718 28.181 21.0848 26.7059L27.9323 2.25061Z" fill="white"/>
</mask>
<g mask="url(#mask0_262_7571)">
<g filter="url(#filter0_f_262_7571)">
<path d="M11.5295 20.6463C9.22353 20.6463 7.35413 18.7769 7.35413 16.4709C7.35413 14.1649 9.22353 12.2955 11.5295 12.2955C13.8356 12.2955 15.705 14.1649 15.705 16.4709C15.705 18.7769 13.8356 20.6463 11.5295 20.6463Z" fill="url(#paint0_linear_262_7571)" fill-opacity="var(--opacity)"/>
</g>
</g>
<path fill-rule="evenodd" clip-rule="evenodd" d="M7.81354 14.5647L10.9171 16.5397C11.1358 16.6788 11.3212 16.8643 11.4604 17.083L13.4356 20.1868C12.8641 20.4805 12.2161 20.6463 11.5294 20.6463C9.2234 20.6463 7.354 18.7769 7.354 16.4709C7.354 15.7841 7.5198 15.1361 7.81354 14.5647Z" fill="url(#paint1_linear_262_7571)" fill-opacity="var(--opacity)"/>
<g filter="url(#filter1_ii_262_7571)">
<path d="M27.9323 2.25061C28.3047 0.920728 27.0793 -0.304703 25.7494 0.0676653L1.29407 6.91515C-0.181019 7.32818 -0.471566 9.29232 0.820773 10.1147L10.9171 16.5396C11.1357 16.6788 11.3212 16.8643 11.4604 17.0829L17.8853 27.1792C18.7077 28.4716 20.6718 28.181 21.0848 26.7059L27.9323 2.25061Z" fill="#CCF9FF" fill-opacity="0.08"/>
</g>
<g filter="url(#filter2_i_262_7571)">
<path d="M23.0229 6.13269C23.2201 5.42864 22.5713 4.77988 21.8673 4.97702L8.92033 8.60216C8.1394 8.82082 7.98558 9.86066 8.66976 10.296L14.0148 13.6975C14.1306 13.7711 14.2288 13.8693 14.3025 13.9851L17.7039 19.3302C18.1393 20.0144 19.1791 19.8606 19.3978 19.0796L23.0229 6.13269Z" fill="#CCF9FF" fill-opacity="0.15"/>
</g>
<defs>
<filter id="filter0_f_262_7571" x="-1.64587" y="3.29547" width="26.3508" height="26.3508" filterUnits="userSpaceOnUse" color-interpolation-filters="sRGB">
<feFlood flood-opacity="0" result="BackgroundImageFix"/>
<feBlend mode="normal" in="SourceGraphic" in2="BackgroundImageFix" result="shape"/>
<feGaussianBlur stdDeviation="4.5" result="effect1_foregroundBlur_262_7571"/>
</filter>
<filter id="filter1_ii_262_7571" x="0" y="0" width="28" height="29" filterUnits="userSpaceOnUse" color-interpolation-filters="sRGB">
<feFlood flood-opacity="0" result="BackgroundImageFix"/>
<feBlend mode="normal" in="SourceGraphic" in2="BackgroundImageFix" result="shape"/>
<feColorMatrix in="SourceAlpha" type="matrix" values="0 0 0 0 0 0 0 0 0 0 0 0 0 0 0 0 0 0 127 0" result="hardAlpha"/>
<feOffset dy="1"/>
<feGaussianBlur stdDeviation="0.5"/>
<feComposite in2="hardAlpha" operator="arithmetic" k2="-1" k3="1"/>
<feColorMatrix type="matrix" values="0 0 0 0 1 0 0 0 0 1 0 0 0 0 1 0 0 0 0.15 0"/>
<feBlend mode="normal" in2="shape" result="effect1_innerShadow_262_7571"/>
<feColorMatrix in="SourceAlpha" type="matrix" values="0 0 0 0 0 0 0 0 0 0 0 0 0 0 0 0 0 0 127 0" result="hardAlpha"/>
<feOffset/>
<feGaussianBlur stdDeviation="3.5"/>
<feComposite in2="hardAlpha" operator="arithmetic" k2="-1" k3="1"/>
<feColorMatrix type="matrix" values="0 0 0 0 1 0 0 0 0 1 0 0 0 0 1 0 0 0 0.05 0"/>
<feBlend mode="normal" in2="effect1_innerShadow_262_7571" result="effect2_innerShadow_262_7571"/>
</filter>
<filter id="filter2_i_262_7571" x="8.23523" y="4.94119" width="14.8235" height="15.3235" filterUnits="userSpaceOnUse" color-interpolation-filters="sRGB">
<feFlood flood-opacity="0" result="BackgroundImageFix"/>
<feBlend mode="normal" in="SourceGraphic" in2="BackgroundImageFix" result="shape"/>
<feColorMatrix in="SourceAlpha" type="matrix" values="0 0 0 0 0 0 0 0 0 0 0 0 0 0 0 0 0 0 127 0" result="hardAlpha"/>
<feOffset dy="0.5"/>
<feGaussianBlur stdDeviation="0.25"/>
<feComposite in2="hardAlpha" operator="arithmetic" k2="-1" k3="1"/>
<feColorMatrix type="matrix" values="0 0 0 0 1 0 0 0 0 1 0 0 0 0 1 0 0 0 0.3 0"/>
<feBlend mode="normal" in2="shape" result="effect1_innerShadow_262_7571"/>
</filter>
<linearGradient id="paint0_linear_262_7571" x1="17.3366" y1="15.3462" x2="6.68532" y2="16.2781" gradientUnits="userSpaceOnUse">
<stop offset="0.00121575" stop-color="var(--color-1)"/>
<stop offset="1" stop-color="var(--color-2)"/>
</linearGradient>
<linearGradient id="paint1_linear_262_7571" x1="17.3364" y1="15.3462" x2="6.68517" y2="16.2781" gradientUnits="userSpaceOnUse">
<stop offset="0.00121575" stop-color="var(--color-1)"/>
<stop offset="1" stop-color="var(--color-2)"/>
</linearGradient>
</defs>
</svg>
