<svg width="28" height="28" viewBox="0 0 28 28" fill="none" xmlns="http://www.w3.org/2000/svg">
<mask id="mask0_262_7503" style="mask-type:alpha" maskUnits="userSpaceOnUse" x="0" y="0" width="27" height="28">
<path fill-rule="evenodd" clip-rule="evenodd" d="M10.9333 0.213675C11.4788 0.114758 12.2855 0 13.0923 0C13.899 0 14.7057 0.114758 15.2512 0.213675C15.6806 0.291541 16.0313 0.587515 16.2085 0.986321L17.3548 3.56543C17.4765 3.83931 17.6819 4.06757 17.9415 4.21742L19.1397 4.9092C19.3992 5.05906 19.6996 5.1228 19.9977 5.09128L22.8046 4.79439C23.2386 4.74849 23.6703 4.90421 23.9524 5.23717C24.3109 5.66013 24.8136 6.30138 25.217 7.00001C25.6203 7.69864 25.9243 8.45465 26.1114 8.97654C26.2586 9.38736 26.1777 9.83905 25.9209 10.192L24.4136 12.2637C24.2373 12.5061 24.1423 12.7981 24.1423 13.0978V14.9031C24.1423 15.2029 24.2373 15.4949 24.4136 15.7372L25.9202 17.808C26.177 18.1609 26.258 18.6126 26.1107 19.0235C25.9236 19.5453 25.6196 20.3014 25.2163 21C24.8129 21.6986 24.3102 22.3399 23.9518 22.7628C23.6696 23.0958 23.2379 23.2515 22.8039 23.2056L20.5164 22.9637C20.2183 22.9321 19.918 22.9959 19.6584 23.1457L17.7296 24.2593C17.47 24.4092 17.2646 24.6375 17.1429 24.9113L16.2085 27.0137C16.0313 27.4125 15.6806 27.7085 15.2512 27.7863C14.7057 27.8852 13.899 28 13.0923 28C12.2855 28 11.4788 27.8852 10.9333 27.7863C10.5039 27.7085 10.1532 27.4125 9.97597 27.0137L9.0416 24.9113C8.91988 24.6375 8.71449 24.4092 8.45493 24.2593L6.52614 23.1458C6.26658 22.9959 5.96621 22.9322 5.66816 22.9637L3.38056 23.2056C2.94656 23.2515 2.5149 23.0958 2.23275 22.7629C1.87433 22.3399 1.3716 21.6986 0.968242 21C0.564888 20.3014 0.260917 19.5454 0.0738262 19.0235C-0.0734487 18.6127 0.00752679 18.161 0.264279 17.8081L1.7709 15.7372C1.94723 15.4949 2.04221 15.2029 2.04221 14.9032V13.0978C2.04221 12.7981 1.94723 12.5061 1.7709 12.2637L0.263591 10.1919C0.0068386 9.83902 -0.0741369 9.38733 0.0731381 8.97651C0.260229 8.45462 0.5642 7.69862 0.967554 6.99999C1.37091 6.30136 1.87364 5.66011 2.23207 5.23714C2.51421 4.90419 2.94588 4.74846 3.37987 4.79437L6.18689 5.09125C6.48494 5.12278 6.78531 5.05903 7.04487 4.90918L8.24303 4.21742C8.50259 4.06757 8.70798 3.83931 8.8297 3.56543L9.97597 0.986321C10.1532 0.587515 10.5039 0.291541 10.9333 0.213675ZM13.0918 19.8481C16.2237 19.8481 18.7627 17.3092 18.7627 14.1772C18.7627 11.0453 16.2237 8.50633 13.0918 8.50633C9.95983 8.50633 7.42089 11.0453 7.42089 14.1772C7.42089 17.3092 9.95983 19.8481 13.0918 19.8481Z" fill="white"/>
</mask>
<g mask="url(#mask0_262_7503)">
<g filter="url(#filter0_f_262_7503)">
<path d="M27.2689 18.4303C27.2689 22.3453 24.0952 25.519 20.1803 25.519C16.2654 25.519 13.0917 22.3453 13.0917 18.4303C13.0917 14.5154 16.2654 11.3417 20.1803 11.3417C24.0952 11.3417 27.2689 14.5154 27.2689 18.4303Z" fill="url(#paint0_linear_262_7503)" fill-opacity="var(--opacity)"/>
</g>
</g>
<path fill-rule="evenodd" clip-rule="evenodd" d="M17.1716 24.8506C18.0849 25.2793 19.1046 25.5189 20.1803 25.5189C24.0952 25.5189 27.2689 22.3453 27.2689 18.4303C27.2689 16.0205 26.0663 13.8914 24.2286 12.6107C24.1718 12.7658 24.1422 12.9306 24.1422 13.0978V14.9031C24.1422 15.2028 24.2372 15.4948 24.4135 15.7372L25.9202 17.808C26.1769 18.1609 26.2579 18.6126 26.1106 19.0235C25.9235 19.5453 25.6196 20.3014 25.2162 21C24.8129 21.6986 24.3101 22.3399 23.9517 22.7628C23.6696 23.0958 23.2379 23.2515 22.8039 23.2056L20.5163 22.9637C20.2183 22.9321 19.9179 22.9959 19.6584 23.1457L17.7295 24.2593C17.4894 24.398 17.2956 24.6037 17.1716 24.8506ZM13.2331 19.8464C13.1404 19.3888 13.0917 18.9153 13.0917 18.4303C13.0917 15.2168 15.23 12.5027 18.1614 11.6334C18.546 12.3984 18.7626 13.2625 18.7626 14.1772C18.7626 17.2619 16.2997 19.7713 13.2331 19.8464Z" fill="url(#paint1_linear_262_7503)" fill-opacity="var(--opacity)"/>
<g filter="url(#filter1_ii_262_7503)">
<path fill-rule="evenodd" clip-rule="evenodd" d="M10.9333 0.213675C11.4788 0.114758 12.2855 0 13.0923 0C13.899 0 14.7057 0.114758 15.2512 0.213675C15.6806 0.291541 16.0313 0.587515 16.2085 0.986321L17.3548 3.56543C17.4765 3.83931 17.6819 4.06757 17.9415 4.21742L19.1397 4.9092C19.3992 5.05906 19.6996 5.1228 19.9977 5.09128L22.8046 4.79439C23.2386 4.74849 23.6703 4.90421 23.9524 5.23717C24.3109 5.66013 24.8136 6.30138 25.217 7.00001C25.6203 7.69864 25.9243 8.45465 26.1114 8.97654C26.2586 9.38736 26.1777 9.83905 25.9209 10.192L24.4136 12.2637C24.2373 12.5061 24.1423 12.7981 24.1423 13.0978V14.9031C24.1423 15.2029 24.2373 15.4949 24.4136 15.7372L25.9202 17.808C26.177 18.1609 26.258 18.6126 26.1107 19.0235C25.9236 19.5453 25.6196 20.3014 25.2163 21C24.8129 21.6986 24.3102 22.3399 23.9518 22.7628C23.6696 23.0958 23.2379 23.2515 22.8039 23.2056L20.5164 22.9637C20.2183 22.9321 19.918 22.9959 19.6584 23.1457L17.7296 24.2593C17.47 24.4092 17.2646 24.6375 17.1429 24.9113L16.2085 27.0137C16.0313 27.4125 15.6806 27.7085 15.2512 27.7863C14.7057 27.8852 13.899 28 13.0923 28C12.2855 28 11.4788 27.8852 10.9333 27.7863C10.5039 27.7085 10.1532 27.4125 9.97597 27.0137L9.0416 24.9113C8.91988 24.6375 8.71449 24.4092 8.45493 24.2593L6.52614 23.1458C6.26658 22.9959 5.96621 22.9322 5.66816 22.9637L3.38056 23.2056C2.94656 23.2515 2.5149 23.0958 2.23275 22.7629C1.87433 22.3399 1.3716 21.6986 0.968242 21C0.564888 20.3014 0.260917 19.5454 0.0738262 19.0235C-0.0734487 18.6127 0.00752679 18.161 0.264279 17.8081L1.7709 15.7372C1.94723 15.4949 2.04221 15.2029 2.04221 14.9032V13.0978C2.04221 12.7981 1.94723 12.5061 1.7709 12.2637L0.263591 10.1919C0.0068386 9.83902 -0.0741369 9.38733 0.0731381 8.97651C0.260229 8.45462 0.5642 7.69862 0.967554 6.99999C1.37091 6.30136 1.87364 5.66011 2.23207 5.23714C2.51421 4.90419 2.94588 4.74846 3.37987 4.79437L6.18689 5.09125C6.48494 5.12278 6.78531 5.05903 7.04487 4.90918L8.24303 4.21742C8.50259 4.06757 8.70798 3.83931 8.8297 3.56543L9.97597 0.986321C10.1532 0.587515 10.5039 0.291541 10.9333 0.213675ZM13.0918 19.8481C16.2237 19.8481 18.7627 17.3092 18.7627 14.1772C18.7627 11.0453 16.2237 8.50633 13.0918 8.50633C9.95983 8.50633 7.42089 11.0453 7.42089 14.1772C7.42089 17.3092 9.95983 19.8481 13.0918 19.8481Z" fill="#CCF9FF" fill-opacity="0.08"/>
</g>
<defs>
<filter id="filter0_f_262_7503" x="4.09167" y="2.34174" width="32.1772" height="32.1772" filterUnits="userSpaceOnUse" color-interpolation-filters="sRGB">
<feFlood flood-opacity="0" result="BackgroundImageFix"/>
<feBlend mode="normal" in="SourceGraphic" in2="BackgroundImageFix" result="shape"/>
<feGaussianBlur stdDeviation="4.5" result="effect1_foregroundBlur_262_7503"/>
</filter>
<filter id="filter1_ii_262_7503" x="0" y="0" width="26.1844" height="29" filterUnits="userSpaceOnUse" color-interpolation-filters="sRGB">
<feFlood flood-opacity="0" result="BackgroundImageFix"/>
<feBlend mode="normal" in="SourceGraphic" in2="BackgroundImageFix" result="shape"/>
<feColorMatrix in="SourceAlpha" type="matrix" values="0 0 0 0 0 0 0 0 0 0 0 0 0 0 0 0 0 0 127 0" result="hardAlpha"/>
<feOffset dy="1"/>
<feGaussianBlur stdDeviation="0.5"/>
<feComposite in2="hardAlpha" operator="arithmetic" k2="-1" k3="1"/>
<feColorMatrix type="matrix" values="0 0 0 0 1 0 0 0 0 1 0 0 0 0 1 0 0 0 0.15 0"/>
<feBlend mode="normal" in2="shape" result="effect1_innerShadow_262_7503"/>
<feColorMatrix in="SourceAlpha" type="matrix" values="0 0 0 0 0 0 0 0 0 0 0 0 0 0 0 0 0 0 127 0" result="hardAlpha"/>
<feOffset/>
<feGaussianBlur stdDeviation="3.5"/>
<feComposite in2="hardAlpha" operator="arithmetic" k2="-1" k3="1"/>
<feColorMatrix type="matrix" values="0 0 0 0 1 0 0 0 0 1 0 0 0 0 1 0 0 0 0.05 0"/>
<feBlend mode="normal" in2="effect1_innerShadow_262_7503" result="effect2_innerShadow_262_7503"/>
</filter>
<linearGradient id="paint0_linear_262_7503" x1="25.8013" y1="10.1091" x2="14.1336" y2="24.0142" gradientUnits="userSpaceOnUse">
<stop offset="0.00121575" stop-color="var(--color-1)"/>
<stop offset="1" stop-color="var(--color-2)"/>
</linearGradient>
<linearGradient id="paint1_linear_262_7503" x1="25.8013" y1="10.1091" x2="14.1336" y2="24.0142" gradientUnits="userSpaceOnUse">
<stop offset="0.00121575" stop-color="var(--color-1)"/>
<stop offset="1" stop-color="var(--color-2)"/>
</linearGradient>
</defs>
</svg>
