<svg width="20" height="20" viewBox="0 0 20 20" fill="none" xmlns="http://www.w3.org/2000/svg">
<path d="M16.6665 17.5H3.33317C2.4127 17.5 1.6665 16.7538 1.6665 15.8333V4.16667C1.6665 3.24619 2.4127 2.5 3.33317 2.5H16.6665C17.587 2.5 18.3332 3.24619 18.3332 4.16667V15.8333C18.3332 16.7538 17.587 17.5 16.6665 17.5ZM3.33317 5.83333V15.8333H16.6665V5.83333H3.33317ZM12.2557 13.9225L11.0782 12.745L12.9882 10.8333L11.0773 8.9225L12.2557 7.74417L15.3448 10.8333L12.2565 13.9217L12.2557 13.9225ZM7.744 13.9225L4.65484 10.8333L7.744 7.74417L8.92234 8.9225L7.0115 10.8333L8.9215 12.7442L7.744 13.9217V13.9225Z" fill="#F8FCFD"/>
</svg>
