<svg width="18" height="18" viewBox="0 0 18 18" fill="none" xmlns="http://www.w3.org/2000/svg">
<path d="M6.34869 15.4013C4.83207 15.4013 3.46477 14.4877 2.88429 13.0866C2.30381 11.6854 2.62444 10.0726 3.69669 9.00002L5.28819 7.40852L6.34869 8.46902L4.75794 10.0598C4.18949 10.6282 3.96748 11.4568 4.17555 12.2333C4.38362 13.0098 4.99015 13.6163 5.76667 13.8244C6.5432 14.0325 7.37174 13.8105 7.94019 13.242L9.53094 11.6513L10.5914 12.7125L9.00069 14.3033C8.29875 15.0087 7.34383 15.404 6.34869 15.4013ZM6.87894 12.1815L5.81844 11.121L11.1217 5.81777L12.1822 6.87827L6.87969 12.1808L6.87894 12.1815ZM12.7132 10.5908L11.6519 9.53027L13.2427 7.93952C13.8189 7.37276 14.0468 6.54051 13.8399 5.75925C13.6329 4.97799 13.0228 4.36775 12.2416 4.1606C11.4604 3.95345 10.6281 4.1812 10.0612 4.75727L8.46969 6.34802L7.40919 5.28752L9.00069 3.69602C10.467 2.24249 12.8324 2.24767 14.2924 3.7076C15.7523 5.16754 15.7575 7.53295 14.3039 8.99927L12.7132 10.59V10.5908Z" fill="#F8FCFD"/>
</svg>
