<svg width="18" height="18" viewBox="0 0 18 18" fill="#B7BCD0" xmlns="http://www.w3.org/2000/svg">
<path fill-rule="evenodd" clip-rule="evenodd" d="M2.01382 0.185791L0.599609 1.6L1.82147 2.82187C1.62014 3.07719 1.5 3.39952 1.5 3.74991V14.2499C1.5 15.0783 2.17157 15.7499 3 15.7499H14.7495L16.156 17.1564L17.5702 15.7421L2.01382 0.185791ZM13.2495 14.2499L11.7495 12.7499H9V11.2499H10.2495L4.24951 5.24991H3V14.2499H13.2495ZM15 5.24991V10.3714L16.5 11.8714V3.74991C16.5 2.92148 15.8284 2.24991 15 2.24991H6.87848L9.87848 5.24991H15ZM5.5605 12.7499L4.5 11.6894L6.21975 9.97041L4.5 8.24991L5.5605 7.18941L8.34 9.96966L5.56125 12.7499H5.5605Z" />
</svg>
