<svg xmlns="http://www.w3.org/2000/svg" width="28" height="29" viewBox="0 0 28 29" fill="none">
  <g clip-path="url(#clip0_2194_23296)">
    <path fill-rule="evenodd" clip-rule="evenodd" d="M11.8563 1.19805C12.3979 1.09913 13.1989 0.984375 14 0.984375C14.801 0.984375 15.602 1.09913 16.1437 1.19805C16.5701 1.27592 16.9183 1.57189 17.0943 1.9707L18.2325 4.54981C18.3534 4.82369 18.5573 5.05194 18.815 5.2018L20.0048 5.89358C20.2625 6.04343 20.5608 6.10718 20.8567 6.07565L23.6439 5.77877C24.0749 5.73287 24.5035 5.88859 24.7836 6.22154C25.1395 6.64451 25.6387 7.28576 26.0392 7.98439C26.4397 8.68302 26.7416 9.43903 26.9273 9.96091C27.0736 10.3717 26.9932 10.8234 26.7382 11.1763L25.2415 13.2481C25.0665 13.4905 24.9722 13.7825 24.9722 14.0822V15.8875C24.9722 16.1872 25.0665 16.4792 25.2415 16.7216L26.7376 18.7924C26.9925 19.1453 27.0729 19.597 26.9267 20.0078C26.7409 20.5297 26.4391 21.2857 26.0386 21.9844C25.638 22.683 25.1388 23.3242 24.783 23.7472C24.5028 24.0802 24.0742 24.2359 23.6432 24.19L21.3718 23.948C21.0758 23.9165 20.7776 23.9803 20.5199 24.1301L18.6046 25.2437C18.3469 25.3936 18.143 25.6218 18.0221 25.8957L17.0943 27.9981C16.9183 28.3969 16.5701 28.6928 16.1437 28.7707C15.602 28.8696 14.801 28.9844 14 28.9844C13.1989 28.9844 12.3979 28.8696 11.8563 28.7707C11.4299 28.6928 11.0816 28.3969 10.9056 27.9981L9.97786 25.8957C9.85699 25.6218 9.65305 25.3936 9.39532 25.2437L7.48012 24.1301C7.22239 23.9803 6.92414 23.9165 6.62819 23.9481L4.35671 24.19C3.92577 24.2359 3.49714 24.0802 3.21699 23.7472C2.86109 23.3243 2.3619 22.683 1.96139 21.9844C1.56088 21.2858 1.25905 20.5298 1.07328 20.0079C0.927038 19.597 1.00744 19.1454 1.26239 18.7924L2.75839 16.7216C2.93347 16.4793 3.02779 16.1873 3.02779 15.8875V14.0821C3.02779 13.7824 2.93347 13.4904 2.75839 13.2481L1.2617 11.1763C1.00676 10.8234 0.926355 10.3717 1.07259 9.96088C1.25836 9.439 1.56019 8.68299 1.96071 7.98436C2.36122 7.28573 2.86041 6.64448 3.21631 6.22151C3.49646 5.88856 3.92509 5.73284 4.35603 5.77874L7.14327 6.07563C7.43922 6.10715 7.73747 6.04341 7.9952 5.89355L9.18492 5.2018C9.44264 5.05194 9.64659 4.82368 9.76745 4.54981L10.9056 1.9707C11.0816 1.57189 11.4299 1.27592 11.8563 1.19805ZM13.9995 20.8325C17.1094 20.8325 19.6304 18.2935 19.6304 15.1616C19.6304 12.0296 17.1094 9.4907 13.9995 9.4907C10.8896 9.4907 8.36857 12.0296 8.36857 15.1616C8.36857 18.2935 10.8896 20.8325 13.9995 20.8325Z" fill-opacity="var(--opacity)" fill="var(--color-1)"/>
  </g>
  <defs>
    <clipPath id="clip0_2194_23296">
      <rect width="28" height="28" fill-opacity="var(--opacity)" fill="var(--color-1)" transform="translate(0 0.984375)"/>
    </clipPath>
  </defs>
</svg>