<svg width="18" height="18" viewBox="0 0 18 18" fill="none" xmlns="http://www.w3.org/2000/svg">
<path d="M5.625 16.125C4.46559 16.1201 3.44494 15.3596 3.10875 14.25H1.5V12.75H3.10875C3.49493 11.4547 4.80153 10.6644 6.12802 10.9238C7.45452 11.1831 8.36725 12.4074 8.23714 13.7527C8.10702 15.098 6.97661 16.1246 5.625 16.125ZM5.625 12.375C5.00368 12.375 4.5 12.8787 4.5 13.5C4.5 14.1213 5.00368 14.625 5.625 14.625C6.24632 14.625 6.75 14.1213 6.75 13.5C6.75 12.8787 6.24632 12.375 5.625 12.375ZM16.5 14.25H9V12.75H16.5V14.25ZM12.375 11.625C11.0234 11.6246 9.89298 10.598 9.76286 9.25269C9.63275 7.90735 10.5455 6.68313 11.872 6.42378C13.1985 6.16442 14.5051 6.95473 14.8912 8.25H16.5V9.75H14.8912C14.5551 10.8596 13.5344 11.6201 12.375 11.625ZM12.375 7.875C11.7537 7.875 11.25 8.37868 11.25 9C11.25 9.62132 11.7537 10.125 12.375 10.125C12.9963 10.125 13.5 9.62132 13.5 9C13.5 8.37868 12.9963 7.875 12.375 7.875ZM9 9.75H1.5V8.25H9V9.75ZM7.125 7.125C5.77339 7.12465 4.64298 6.09802 4.51286 4.75269C4.38275 3.40735 5.29548 2.18313 6.62198 1.92378C7.94847 1.66442 9.25507 2.45473 9.64125 3.75H16.5V5.25H9.64125C9.30485 6.35946 8.28433 7.1199 7.125 7.125ZM7.125 3.375C6.51148 3.37583 6.01176 3.86807 6.00167 4.4815C5.99159 5.09494 6.47486 5.60334 7.08802 5.62434C7.70118 5.64533 8.2181 5.17118 8.25 4.5585V4.776V4.5C8.25 3.87868 7.74632 3.375 7.125 3.375ZM3.75 5.25H1.5V3.75H3.75V5.25Z" fill="#F8FCFD"/>
</svg>
