<svg width="18" height="18" viewBox="0 0 18 18" fill="none" xmlns="http://www.w3.org/2000/svg">
<path d="M15 15H3C2.19789 15.024 1.52731 14.395 1.5 13.593V4.40624C1.52731 3.60434 2.19801 2.97556 3 2.99999H15C15.802 2.97556 16.4727 3.60434 16.5 4.40624V13.5937C16.4723 14.3954 15.8018 15.024 15 15ZM3 4.49999V13.4917L15 13.5V4.50824L3 4.49999ZM10.0725 12H4.5C4.55514 11.379 4.84901 10.8037 5.31975 10.395C5.84387 9.87502 6.54811 9.57689 7.28625 9.56249C8.02439 9.57689 8.72863 9.87502 9.25275 10.395C9.72337 10.8038 10.0172 11.3791 10.0725 12ZM13.5 11.25H11.25V9.74999H13.5V11.25ZM7.28625 8.99999C6.88431 9.01395 6.49461 8.86041 6.21022 8.57602C5.92583 8.29163 5.77228 7.90193 5.78625 7.49999C5.77251 7.09811 5.92613 6.70854 6.21046 6.4242C6.4948 6.13986 6.88437 5.98624 7.28625 5.99999C7.68813 5.98624 8.0777 6.13986 8.36204 6.4242C8.64637 6.70854 8.79999 7.09811 8.78625 7.49999C8.80022 7.90193 8.64667 8.29163 8.36228 8.57602C8.07789 8.86041 7.68819 9.01395 7.28625 8.99999ZM13.5 8.24999H10.5V6.74999H13.5V8.24999Z" fill="#F8FCFD"/>
</svg>
