<svg width="18" height="18" viewBox="0 0 18 18" fill="none" xmlns="http://www.w3.org/2000/svg">
<path d="M9.67267 16.476C9.2744 16.4772 8.89223 16.3189 8.61142 16.0365L2.73592 10.1603C2.42586 9.85108 2.26688 9.42155 2.30092 8.98501L2.67592 4.06051C2.72939 3.3198 3.31957 2.73122 4.06042 2.67976L8.98492 2.30476C9.02317 2.29651 9.06217 2.29651 9.10042 2.29651C9.4978 2.29753 9.8787 2.45549 10.1602 2.73601L16.0364 8.61151C16.3179 8.89283 16.476 9.27445 16.476 9.67238C16.476 10.0703 16.3179 10.4519 16.0364 10.7333L10.7332 16.0365C10.4525 16.3187 10.0707 16.477 9.67267 16.476ZM9.09967 3.79651L4.17142 4.17151L3.79642 9.09976L9.67267 14.976L14.9752 9.67351L9.09967 3.79651ZM6.49042 7.99051C5.7748 7.99066 5.15873 7.48528 5.01898 6.78344C4.87923 6.08159 5.25472 5.37877 5.91582 5.10479C6.57692 4.83082 7.33949 5.062 7.73716 5.65695C8.13484 6.2519 8.05686 7.04491 7.55092 7.55101C7.27029 7.83325 6.88842 7.9915 6.49042 7.99051Z" fill="#F8FCFD"/>
</svg>
