<svg width="24" height="24" viewBox="0 0 24 24" fill="none" xmlns="http://www.w3.org/2000/svg">
<path d="M8.8 18.8004C7.3402 18.8011 6.06495 17.8138 5.7 16.4004H4V14.8004H5.7008C6.11651 13.1904 7.69609 12.167 9.33542 12.4456C10.9748 12.7243 12.1275 14.2121 11.9879 15.8691C11.8483 17.526 10.4628 18.8 8.8 18.8004ZM8.8 14.0004C7.92592 14.0013 7.21431 14.7035 7.20179 15.5775C7.18926 16.4515 7.88045 17.1738 8.75415 17.1997C9.62785 17.2256 10.3607 16.5456 10.4 15.6724V15.9924V15.6004C10.4 14.7167 9.68366 14.0004 8.8 14.0004ZM20 16.4004H12.8V14.8004H20V16.4004ZM12.8 12.4004C11.3405 12.4008 10.0657 11.4135 9.7008 10.0004H4V8.40039H9.7008C10.1165 6.79035 11.6961 5.76699 13.3354 6.04564C14.9748 6.32429 16.1275 7.81209 15.9879 9.46906C15.8483 11.126 14.4628 12.4 12.8 12.4004ZM12.8 7.60039C11.9259 7.60128 11.2143 8.30347 11.2018 9.17747C11.1893 10.0515 11.8805 10.7738 12.7542 10.7997C13.6279 10.8256 14.3607 10.1456 14.4 9.27239V9.59239V9.20039C14.4 8.31674 13.6837 7.60039 12.8 7.60039ZM20 10.0004H16.8V8.40039H20V10.0004Z" fill="#F8FCFD"/>
</svg>
