<svg width="18" height="18" viewBox="0 0 18 18" fill="none" xmlns="http://www.w3.org/2000/svg">
<path d="M10.3651 16.5H7.63506C7.28265 16.5 6.97773 16.2548 6.90231 15.9105L6.59706 14.4975C6.18985 14.3191 5.80373 14.096 5.44581 13.8323L4.06806 14.271C3.73206 14.3781 3.3668 14.2367 3.19056 13.9313L1.82256 11.568C1.64825 11.2624 1.7083 10.8769 1.96731 10.6388L3.03606 9.66375C2.98746 9.22208 2.98746 8.77642 3.03606 8.33475L1.96731 7.362C1.70792 7.12378 1.64785 6.73779 1.82256 6.432L3.18756 4.06725C3.3638 3.76177 3.72906 3.62035 4.06506 3.7275L5.44281 4.16625C5.62586 4.03062 5.81641 3.90542 6.01356 3.79125C6.20282 3.68452 6.39759 3.58789 6.59706 3.50175L6.90306 2.09025C6.97811 1.74598 7.2827 1.50037 7.63506 1.5H10.3651C10.7174 1.50037 11.022 1.74598 11.0971 2.09025L11.4061 3.5025C11.6167 3.59514 11.8217 3.69981 12.0203 3.816C12.2055 3.92311 12.3845 4.04054 12.5566 4.16775L13.9351 3.729C14.2708 3.62225 14.6356 3.76362 14.8118 4.06875L16.1768 6.4335C16.3511 6.73911 16.2911 7.12463 16.0321 7.36275L14.9633 8.33775C15.0119 8.77942 15.0119 9.22508 14.9633 9.66675L16.0321 10.6418C16.2911 10.8799 16.3511 11.2654 16.1768 11.571L14.8118 13.9357C14.6356 14.2409 14.2708 14.3822 13.9351 14.2755L12.5566 13.8367C12.3821 13.9652 12.2009 14.0841 12.0136 14.193C11.8169 14.3069 11.6141 14.4098 11.4061 14.5013L11.0971 15.9105C11.0217 16.2545 10.7172 16.4997 10.3651 16.5ZM5.71506 12.1718L6.33006 12.6218C6.4687 12.7239 6.6132 12.8178 6.76281 12.903C6.90359 12.9845 7.04854 13.0586 7.19706 13.125L7.89681 13.4318L8.23956 15H9.76206L10.1048 13.431L10.8046 13.1243C11.11 12.9895 11.4 12.8221 11.6693 12.6248L12.2851 12.1747L13.8158 12.6623L14.5771 11.3438L13.3898 10.2615L13.4738 9.5025C13.5107 9.17052 13.5107 8.83548 13.4738 8.5035L13.3898 7.7445L14.5778 6.66L13.8158 5.34075L12.2851 5.82825L11.6693 5.37825C11.3999 5.18003 11.11 5.01132 10.8046 4.875L10.1048 4.56825L9.76206 3H8.23956L7.89531 4.569L7.19706 4.875C7.04842 4.94028 6.90345 5.01364 6.76281 5.09475C6.61411 5.17975 6.47038 5.27315 6.33231 5.3745L5.71656 5.8245L4.18656 5.337L3.42381 6.66L4.61106 7.74075L4.52706 8.5005C4.49016 8.83248 4.49016 9.16752 4.52706 9.4995L4.61106 10.2585L3.42381 11.3408L4.18506 12.6592L5.71506 12.1718ZM8.99706 12C7.34021 12 5.99706 10.6569 5.99706 9C5.99706 7.34315 7.34021 6 8.99706 6C10.6539 6 11.9971 7.34315 11.9971 9C11.995 10.656 10.6531 11.9979 8.99706 12ZM8.99706 7.5C8.17761 7.50083 7.51048 8.15914 7.49873 8.97851C7.48699 9.79787 8.13499 10.475 8.95408 10.4993C9.77317 10.5237 10.4602 9.88612 10.4971 9.0675V9.3675V9C10.4971 8.17157 9.82549 7.5 8.99706 7.5Z" fill="#F8FCFD"/>
</svg>
