<svg width="28" height="28" viewBox="0 0 28 28" fill="none" xmlns="http://www.w3.org/2000/svg">
<path fill-rule="evenodd" clip-rule="evenodd" d="M14.5159 4.14041C14.8909 4.07541 15.4454 4 16 4C16.5546 4 17.1091 4.07541 17.4841 4.14041C17.7793 4.19158 18.0204 4.38608 18.1422 4.64815L18.9302 6.343C19.0139 6.52297 19.1551 6.67297 19.3335 6.77145L20.1572 7.22605C20.3356 7.32452 20.5421 7.36641 20.747 7.3457L22.6766 7.1506C22.9749 7.12044 23.2717 7.22277 23.4656 7.44157C23.712 7.71952 24.0576 8.14091 24.3349 8.60001C24.6122 9.05911 24.8211 9.55591 24.9497 9.89887C25.051 10.1688 24.9953 10.4657 24.8188 10.6976L23.7826 12.059C23.6614 12.2183 23.5961 12.4102 23.5961 12.6071V13.7935C23.5961 13.9904 23.6614 14.1823 23.7826 14.3416L24.8183 15.7024C24.9948 15.9343 25.0505 16.2312 24.9492 16.5011C24.8206 16.8441 24.6117 17.3409 24.3344 17.8C24.0571 18.2591 23.7115 18.6805 23.4651 18.9584C23.2712 19.1772 22.9744 19.2796 22.6761 19.2494L21.1036 19.0904C20.8987 19.0697 20.6922 19.1116 20.5138 19.2101L19.1878 19.9419C19.0094 20.0403 18.8682 20.1903 18.7845 20.3703L18.1422 21.7518C18.0204 22.0139 17.4116 21.7007 17.1164 21.7518C16.7414 21.8168 16.5546 22.4 16 22.4C15.4454 22.4 14.8909 22.3246 14.5159 22.2596C14.2207 22.2084 13.9796 22.0139 13.8578 21.7518L13.2155 20.3703C13.1318 20.1903 12.9906 20.0403 12.8122 19.9419L11.4863 19.2101C11.3078 19.1116 11.1013 19.0697 10.8965 19.0904L9.3239 19.2494C9.02555 19.2796 8.72881 19.1772 8.53486 18.9585C8.28847 18.6805 7.94288 18.2591 7.6656 17.8C7.38832 17.3409 7.17936 16.8441 7.05075 16.5012C6.94951 16.2312 7.00517 15.9344 7.18167 15.7024L8.21737 14.3416C8.33858 14.1824 8.40387 13.9905 8.40387 13.7935V12.6071C8.40387 12.4102 8.33858 12.2183 8.21737 12.059L7.1812 10.6976C7.0047 10.4656 6.94904 10.1688 7.05028 9.89885C7.17889 9.5559 7.38785 9.05909 7.66513 8.59999C7.9424 8.14089 8.288 7.7195 8.53439 7.44155C8.72834 7.22275 9.02508 7.12042 9.32343 7.15058L11.2531 7.34568C11.4579 7.3664 11.6644 7.32451 11.8429 7.22603L12.6665 6.77145C12.8449 6.67297 12.9861 6.52297 13.0698 6.343L13.8578 4.64815C13.9796 4.38608 14.2207 4.19158 14.5159 4.14041Z" fill="var(--color-2)"/>
<path fill-rule="evenodd" clip-rule="evenodd" d="M10.5159 6.14041C10.8909 6.07541 11.4454 6 12 6C12.5546 6 13.1091 6.07541 13.4841 6.14041C13.7793 6.19158 14.0204 6.38608 14.1422 6.64815L14.9302 8.343C15.0139 8.52297 15.1551 8.67297 15.3335 8.77145L16.1572 9.22605C16.3356 9.32452 16.5421 9.36641 16.747 9.3457L18.6766 9.1506C18.9749 9.12044 19.2717 9.22277 19.4656 9.44157C19.712 9.71952 20.0576 10.1409 20.3349 10.6C20.6122 11.0591 20.8211 11.5559 20.9497 11.8989C21.051 12.1688 20.9953 12.4657 20.8188 12.6976L19.7826 14.059C19.6614 14.2183 19.5961 14.4102 19.5961 14.6071V15.7935C19.5961 15.9904 19.6614 16.1823 19.7826 16.3416L20.8183 17.7024C20.9948 17.9343 21.0505 18.2312 20.9492 18.5011C20.8206 18.8441 20.6117 19.3409 20.3344 19.8C20.0571 20.2591 19.7115 20.6805 19.4651 20.9584C19.2712 21.1772 18.9744 21.2796 18.6761 21.2494L17.1036 21.0904C16.8987 21.0697 16.6922 21.1116 16.5138 21.2101L15.1878 21.9419C15.0094 22.0403 14.8682 22.1903 14.7845 22.3703L14.1422 23.7518C14.0204 24.0139 13.7793 24.2084 13.4841 24.2596C13.1091 24.3246 12.5546 24.4 12 24.4C11.4454 24.4 10.8909 24.3246 10.5159 24.2596C10.2207 24.2084 9.97962 24.0139 9.85778 23.7518L9.21546 22.3703C9.13178 22.1903 8.99059 22.0403 8.81217 21.9419L7.48626 21.2101C7.30783 21.1116 7.10135 21.0697 6.89646 21.0904L5.3239 21.2494C5.02555 21.2796 4.72881 21.1772 4.53486 20.9585C4.28847 20.6805 3.94288 20.2591 3.6656 19.8C3.38832 19.3409 3.17936 18.8441 3.05075 18.5012C2.94951 18.2312 3.00517 17.9344 3.18167 17.7024L4.21737 16.3416C4.33858 16.1824 4.40387 15.9905 4.40387 15.7935V14.6071C4.40387 14.4102 4.33858 14.2183 4.21737 14.059L3.1812 12.6976C3.0047 12.4656 2.94904 12.1688 3.05028 11.8988C3.17889 11.5559 3.38785 11.0591 3.66513 10.6C3.9424 10.1409 4.288 9.7195 4.53439 9.44155C4.72834 9.22275 5.02508 9.12042 5.32343 9.15058L7.25305 9.34568C7.45794 9.3664 7.66442 9.32451 7.84285 9.22603L8.6665 8.77145C8.84493 8.67297 8.98612 8.52297 9.06979 8.343L9.85778 6.64815C9.97962 6.38608 10.2207 6.19158 10.5159 6.14041Z" fill="var(--color-1)"/>
<path fill-rule="evenodd" clip-rule="evenodd" d="M10.5159 24.2596L10.3451 25.2449C9.71317 25.1354 9.20493 24.7197 8.95095 24.1734L8.31756 22.8111L7.00354 22.0859C7.00335 22.0858 7.00297 22.0857 7.00243 22.0856C7.0009 22.0853 6.99899 22.0851 6.99702 22.0853L5.42445 22.2443C4.84423 22.303 4.21779 22.1083 3.78651 21.6218C3.52091 21.3222 3.13121 20.8495 2.80957 20.317C2.48762 19.7839 2.25367 19.2237 2.11439 18.8523C1.88049 18.2286 2.02267 17.5741 2.38589 17.0968L3.18164 17.7024C3.00514 17.9344 2.94947 18.2312 3.05071 18.5012C3.17933 18.8441 3.38829 19.3409 3.66556 19.8C3.94284 20.2591 4.28844 20.6805 4.53482 20.9585C4.72878 21.1772 5.02552 21.2796 5.32386 21.2494L6.89642 21.0904C7.10131 21.0697 7.30779 21.1116 7.48622 21.2101L8.81213 21.9419C8.99056 22.0403 9.13175 22.1903 9.21543 22.3703L9.85774 23.7518C9.97958 24.0139 10.2207 24.2084 10.5159 24.2596ZM13.4841 24.2596C13.1091 24.3246 12.5545 24.4 12 24.4C11.4454 24.4 10.8909 24.3246 10.5159 24.2596L10.3451 25.2449C10.7476 25.3147 11.3649 25.4 12 25.4C12.6351 25.4 13.2523 25.3147 13.6549 25.2449L13.4841 24.2596ZM20.8183 17.7024C20.9948 17.9343 21.0505 18.2312 20.9492 18.5011C20.8206 18.8441 20.6116 19.3409 20.3344 19.8C20.0571 20.2591 19.7115 20.6805 19.4651 20.9584C19.2712 21.1772 18.9744 21.2796 18.6761 21.2494L17.1035 21.0904C16.8986 21.0697 16.6922 21.1116 16.5137 21.2101L15.1878 21.9419C15.0094 22.0403 14.8682 22.1903 14.7845 22.3703L14.1422 23.7518C14.0203 24.0139 13.7793 24.2084 13.4841 24.2596L13.6549 25.2449C14.2868 25.1354 14.795 24.7197 15.049 24.1734L15.6824 22.8111L16.9964 22.0859C16.9966 22.0858 16.997 22.0857 16.9975 22.0856C16.999 22.0853 17.001 22.0851 17.0029 22.0853L18.5755 22.2443C19.1557 22.303 19.7821 22.1083 20.2134 21.6218C20.479 21.3222 20.8687 20.8495 21.1904 20.317C21.5123 19.7839 21.7463 19.2237 21.8855 18.8523C22.1194 18.2286 21.9773 17.574 21.614 17.0968L20.8183 17.7024ZM20.3348 10.6C20.6121 11.0591 20.8211 11.5559 20.9497 11.8989C21.0509 12.1688 20.9953 12.4657 20.8188 12.6976L19.7826 14.059C19.6614 14.2183 19.5961 14.4102 19.5961 14.6071V15.7935C19.5961 15.9904 19.6614 16.1823 19.7826 16.3416L20.8183 17.7024L21.614 17.0968L20.5961 15.7593V14.6413L21.6145 13.3032C21.9777 12.826 22.1199 12.1714 21.886 11.5477C21.7467 11.1763 21.5128 10.6161 21.1908 10.083C20.8692 9.55047 20.4795 9.07784 20.2139 8.77822C19.7826 8.2917 19.1562 8.09701 18.5759 8.15567L16.6463 8.35077C16.6457 8.35084 16.645 8.35087 16.6443 8.35086C16.6431 8.35086 16.6419 8.35073 16.6409 8.35053C16.6404 8.35042 16.64 8.35031 16.6398 8.35025L15.828 7.90221L15.049 6.22656C14.795 5.6803 14.2868 5.26464 13.6549 5.15511C13.2523 5.08533 12.6351 5 12 5C11.3649 5 10.7476 5.08533 10.3451 5.15511C9.71317 5.26464 9.20493 5.6803 8.95095 6.22656L8.1719 7.90221L7.36014 8.35023C7.35994 8.3503 7.35957 8.35041 7.35902 8.35052C7.3575 8.35083 7.35559 8.35095 7.35361 8.35075L5.42398 8.15566C4.84376 8.09699 4.21731 8.29168 3.78604 8.7782C3.52044 9.07782 3.13074 9.55045 2.8091 10.083C2.48715 10.6161 2.25319 11.1763 2.11392 11.5477C1.88002 12.1714 2.0222 12.8259 2.38541 13.3032L3.40384 14.6413V15.7593L2.38589 17.0968L3.18164 17.7024L4.21733 16.3416C4.33854 16.1824 4.40384 15.9905 4.40384 15.7935V14.6071C4.40384 14.4102 4.33854 14.2183 4.21733 14.059L3.18116 12.6976C3.00467 12.4656 2.949 12.1688 3.05024 11.8988C3.17885 11.5559 3.38781 11.0591 3.66509 10.6C3.94237 10.1409 4.28796 9.7195 4.53435 9.44155C4.7283 9.22275 5.02505 9.12042 5.32339 9.15058L7.25302 9.34568C7.4579 9.3664 7.66439 9.32451 7.84282 9.22603L8.66647 8.77145C8.84489 8.67297 8.98608 8.52297 9.06976 8.343L9.85774 6.64815C9.97958 6.38608 10.2207 6.19158 10.5159 6.14041C10.8909 6.07541 11.4454 6 12 6C12.5545 6 13.1091 6.07541 13.4841 6.14041C13.7793 6.19158 14.0203 6.38608 14.1422 6.64815L14.9302 8.343C15.0138 8.52297 15.155 8.67297 15.3335 8.77145L16.1571 9.22605C16.3356 9.32452 16.5421 9.36641 16.7469 9.3457L18.6765 9.1506C18.9749 9.12044 19.2716 9.22277 19.4656 9.44157C19.712 9.71952 20.0576 10.1409 20.3348 10.6ZM15.8167 7.89594C15.8167 7.89595 15.8167 7.89596 15.8167 7.89597Z" fill="#181A1F"/>
<circle cx="12" cy="15" r="3" fill="#181A1F"/>
</svg>
