<svg width="20" height="20" viewBox="0 0 20 20" fill="none" xmlns="http://www.w3.org/2000/svg">
<path d="M16.6665 17.5H3.33317C2.4127 17.5 1.6665 16.7538 1.6665 15.8333V4.16667C1.6665 3.24619 2.4127 2.5 3.33317 2.5H16.6665C17.587 2.5 18.3332 3.24619 18.3332 4.16667V15.8333C18.3332 16.7538 17.587 17.5 16.6665 17.5ZM3.33317 5.83333V15.8333H16.6665V5.83333H3.33317ZM8.08817 13.9233L6.91067 12.7442L8.8215 10.8333L6.91067 8.9225L8.089 7.74417L9.99984 9.655L11.9107 7.74417L13.089 8.9225L11.1782 10.8333L13.089 12.7442L11.9115 13.9217L9.99984 12.0117L8.089 13.9225L8.08817 13.9233Z" fill="#F8FCFD"/>
</svg>
