<svg width="32" height="33" viewBox="0 0 32 33" fill="none" xmlns="http://www.w3.org/2000/svg">
<path d="M23.4958 24.3944C21.2483 27.0083 18.3839 28.8654 16.9328 29.7121C16.6363 29.8852 16.488 29.9717 16.2797 30.0164C16.118 30.0511 15.8821 30.0511 15.7205 30.0164C15.5122 29.9717 15.3646 29.8856 15.0693 29.7134C12.4719 28.1981 5.33333 23.4381 5.33333 16.8936V8.5953C5.33333 7.9727 5.71954 7.41539 6.30251 7.19678M4 4.89355L28 28.8936" stroke="#F8FCFD" stroke-width="2.66667" stroke-linecap="round" stroke-linejoin="round"/>
<path opacity="0.4" d="M11.7446 5.15611L15.2507 3.84135C15.5278 3.73741 15.6664 3.68543 15.809 3.66483C15.9355 3.64655 16.0639 3.64655 16.1904 3.66483C16.333 3.68543 16.4716 3.73741 16.7488 3.84135L23.8978 6.52225C24.896 6.89656 25.3951 7.08371 25.7628 7.40783C26.0877 7.69416 26.338 8.05531 26.492 8.46006C26.6664 8.91823 26.6664 9.45124 26.6664 10.5173V16.8938C26.6664 17.8542 26.5127 18.7762 26.2421 19.6551" stroke="#F8FCFD" stroke-width="2.66667" stroke-linecap="round" stroke-linejoin="round"/>
</svg>
