<svg width="24" height="24" viewBox="0 0 24 24" fill="currentColor" xmlns="http://www.w3.org/2000/svg">
<path d="M12 5.6C8.46538 5.6 5.6 8.46538 5.6 12C5.6 15.5346 8.46538 18.4 12 18.4C15.5346 18.4 18.4 15.5346 18.4 12C18.4 8.46538 15.5346 5.6 12 5.6ZM4 12C4 7.58172 7.58172 4 12 4C16.4183 4 20 7.58172 20 12C20 16.4183 16.4183 20 12 20C7.58172 20 4 16.4183 4 12ZM15.7315 9.40207C16.0617 9.69561 16.0915 10.2013 15.7979 10.5315L11.5313 15.3315C11.3794 15.5023 11.1618 15.6 10.9333 15.6C10.7048 15.6 10.4872 15.5023 10.3354 15.3315L8.20207 12.9315C7.90854 12.6013 7.93828 12.0956 8.26851 11.8021C8.59874 11.5085 9.10439 11.5383 9.39793 11.8685L10.9333 13.5958L14.6021 9.46851C14.8956 9.13828 15.4013 9.10854 15.7315 9.40207Z" />
</svg>
