<svg xmlns="http://www.w3.org/2000/svg" width="28" height="29" viewBox="0 0 28 29" fill="var(--color-2)">
  <path d="M28 14.9844C28 22.0482 22.2736 27.7746 15.2098 27.7746C13.5896 27.7746 12.0397 27.4733 10.6131 26.9237C10.3523 26.8232 10.2219 26.773 10.1182 26.7491C10.0162 26.7256 9.94233 26.7157 9.83773 26.7117C9.73138 26.7077 9.61471 26.7197 9.38135 26.7439L1.67561 27.5404C0.940939 27.6163 0.573603 27.6543 0.356918 27.5221C0.168184 27.407 0.0396371 27.2147 0.00541886 26.9963C-0.0338673 26.7455 0.141668 26.4206 0.492738 25.7708L2.95395 21.2152C3.15665 20.84 3.25799 20.6524 3.30389 20.4721C3.34923 20.2939 3.36019 20.1655 3.34569 19.9822C3.331 19.7967 3.2496 19.5552 3.08679 19.0722C2.65414 17.7886 2.41964 16.4139 2.41964 14.9844C2.41964 7.92057 8.146 2.19421 15.2098 2.19421C22.2736 2.19421 28 7.92057 28 14.9844Z" fill="var(--color-2)"/>
  <rect x="8.43289" y="10.9844" width="8" height="3" rx="1.5" fill="var(--color-1)"/>
  <rect x="8.43289" y="15.9844" width="14" height="3" rx="1.5" fill="var(--color-1)"/>
</svg>