<svg width="28" height="28" viewBox="0 0 28 28" fill="none" xmlns="http://www.w3.org/2000/svg">
<g clip-path="url(#clip0_6920_8618)">
<mask id="mask0_6920_8618" style="mask-type:alpha" maskUnits="userSpaceOnUse" x="0" y="0" width="28" height="28">
<path fill-rule="evenodd" clip-rule="evenodd" d="M28 14C28 21.732 21.732 28 14 28C6.26801 28 0 21.732 0 14C0 6.26801 6.26801 0 14 0C21.732 0 28 6.26801 28 14ZM19.6 14C19.6 17.0928 17.0928 19.6 14 19.6C10.9072 19.6 8.4 17.0928 8.4 14C8.4 10.9072 10.9072 8.4 14 8.4C17.0928 8.4 19.6 10.9072 19.6 14Z" fill="white"/>
</mask>
<g mask="url(#mask0_6920_8618)">
<g filter="url(#filter0_f_6920_8618)">
<path d="M28 21.5C28 25.0899 25.0899 28 21.5 28C17.9101 28 15 25.0899 15 21.5C15 17.9101 17.9101 15 21.5 15C25.0899 15 28 17.9101 28 21.5Z" fill="url(#paint0_linear_6920_8618)"/>
</g>
</g>
<path fill-rule="evenodd" clip-rule="evenodd" d="M18.4921 27.2637C19.3915 27.734 20.4147 28 21.4999 28C25.0898 28 27.9999 25.0898 27.9999 21.5C27.9999 20.4147 27.734 19.3916 27.2636 18.4922C25.8693 22.6106 22.6106 25.8693 18.4921 27.2637ZM15.333 19.4403C15.9783 17.5072 17.5072 15.9784 19.4403 15.3331C18.9465 17.355 17.355 18.9466 15.333 19.4403Z" fill="url(#paint1_linear_6920_8618)"/>
<g filter="url(#filter1_ii_6920_8618)">
<path fill-rule="evenodd" clip-rule="evenodd" d="M28 14C28 21.732 21.732 28 14 28C6.26801 28 0 21.732 0 14C0 6.26801 6.26801 0 14 0C21.732 0 28 6.26801 28 14ZM19.6 14C19.6 17.0928 17.0928 19.6 14 19.6C10.9072 19.6 8.4 17.0928 8.4 14C8.4 10.9072 10.9072 8.4 14 8.4C17.0928 8.4 19.6 10.9072 19.6 14Z" fill="#CCF9FF" fill-opacity="0.08"/>
</g>
<g filter="url(#filter2_i_6920_8618)">
<path fill-rule="evenodd" clip-rule="evenodd" d="M4.11073 4.11061C4.65747 3.56388 5.5439 3.56388 6.09063 4.11061L9.98089 8.00087C10.5276 8.54761 10.5276 9.43404 9.98089 9.98077C9.43416 10.5275 8.54773 10.5275 8.00099 9.98077L4.11073 6.09051C3.564 5.54378 3.564 4.65735 4.11073 4.11061ZM23.8859 4.11061C24.4326 4.65735 24.4326 5.54378 23.8859 6.09051L19.9504 10.026C19.4036 10.5728 18.5172 10.5728 17.9705 10.026C17.4237 9.4793 17.4237 8.59287 17.9705 8.04614L21.906 4.11061C22.4527 3.56388 23.3391 3.56388 23.8859 4.11061ZM10.0253 17.9749C10.572 18.5217 10.572 19.4081 10.0253 19.9548L6.09063 23.8895C5.5439 24.4362 4.65747 24.4362 4.11073 23.8895C3.564 23.3428 3.564 22.4563 4.11073 21.9096L8.04539 17.9749C8.59212 17.4282 9.47855 17.4282 10.0253 17.9749ZM18.0157 18.0193C18.5625 17.4726 19.4489 17.4726 19.9956 18.0193L23.8859 21.9096C24.4326 22.4563 24.4326 23.3428 23.8859 23.8895C23.3391 24.4362 22.4527 24.4362 21.906 23.8895L18.0157 19.9992C17.469 19.4525 17.469 18.5661 18.0157 18.0193Z" fill="#CCF9FF" fill-opacity="0.15"/>
</g>
</g>
<defs>
<filter id="filter0_f_6920_8618" x="6" y="6" width="31" height="31" filterUnits="userSpaceOnUse" color-interpolation-filters="sRGB">
<feFlood flood-opacity="0" result="BackgroundImageFix"/>
<feBlend mode="normal" in="SourceGraphic" in2="BackgroundImageFix" result="shape"/>
<feGaussianBlur stdDeviation="4.5" result="effect1_foregroundBlur_6920_8618"/>
</filter>
<filter id="filter1_ii_6920_8618" x="0" y="0" width="28" height="29" filterUnits="userSpaceOnUse" color-interpolation-filters="sRGB">
<feFlood flood-opacity="0" result="BackgroundImageFix"/>
<feBlend mode="normal" in="SourceGraphic" in2="BackgroundImageFix" result="shape"/>
<feColorMatrix in="SourceAlpha" type="matrix" values="0 0 0 0 0 0 0 0 0 0 0 0 0 0 0 0 0 0 127 0" result="hardAlpha"/>
<feOffset/>
<feGaussianBlur stdDeviation="3.5"/>
<feComposite in2="hardAlpha" operator="arithmetic" k2="-1" k3="1"/>
<feColorMatrix type="matrix" values="0 0 0 0 1 0 0 0 0 1 0 0 0 0 1 0 0 0 0.05 0"/>
<feBlend mode="normal" in2="shape" result="effect1_innerShadow_6920_8618"/>
<feColorMatrix in="SourceAlpha" type="matrix" values="0 0 0 0 0 0 0 0 0 0 0 0 0 0 0 0 0 0 127 0" result="hardAlpha"/>
<feOffset dy="1"/>
<feGaussianBlur stdDeviation="0.5"/>
<feComposite in2="hardAlpha" operator="arithmetic" k2="-1" k3="1"/>
<feColorMatrix type="matrix" values="0 0 0 0 1 0 0 0 0 1 0 0 0 0 1 0 0 0 0.15 0"/>
<feBlend mode="normal" in2="effect1_innerShadow_6920_8618" result="effect2_innerShadow_6920_8618"/>
</filter>
<filter id="filter2_i_6920_8618" x="3.70068" y="3.70056" width="20.5952" height="21.099" filterUnits="userSpaceOnUse" color-interpolation-filters="sRGB">
<feFlood flood-opacity="0" result="BackgroundImageFix"/>
<feBlend mode="normal" in="SourceGraphic" in2="BackgroundImageFix" result="shape"/>
<feColorMatrix in="SourceAlpha" type="matrix" values="0 0 0 0 0 0 0 0 0 0 0 0 0 0 0 0 0 0 127 0" result="hardAlpha"/>
<feOffset dy="0.5"/>
<feGaussianBlur stdDeviation="0.25"/>
<feComposite in2="hardAlpha" operator="arithmetic" k2="-1" k3="1"/>
<feColorMatrix type="matrix" values="0 0 0 0 1 0 0 0 0 1 0 0 0 0 1 0 0 0 0.3 0"/>
<feBlend mode="normal" in2="shape" result="effect1_innerShadow_6920_8618"/>
</filter>
<linearGradient id="paint0_linear_6920_8618" x1="26.6543" y1="13.8697" x2="15.9554" y2="26.6202" gradientUnits="userSpaceOnUse">
<stop offset="0.00121575" stop-color="var(--color-1)"/>
<stop offset="1" stop-color="var(--color-2)"/>
</linearGradient>
<linearGradient id="paint1_linear_6920_8618" x1="26.6543" y1="13.8697" x2="15.9554" y2="26.6202" gradientUnits="userSpaceOnUse">
<stop offset="0.00121575" stop-color="var(--color-1)"/>
<stop offset="1" stop-color="var(--color-2)"/>
</linearGradient>
<clipPath id="clip0_6920_8618">
<rect width="28" height="28" fill="white"/>
</clipPath>
</defs>
</svg>
