<svg xmlns="http://www.w3.org/2000/svg" width="28" height="29" viewBox="0 0 28 29" fill="none">
  <path d="M11.2447 1.72264C12.9497 0.738287 15.0503 0.738287 16.7552 1.72264L24.1074 5.9674C25.8123 6.95175 26.8626 8.77091 26.8626 10.7396V19.2291C26.8626 21.1978 25.8123 23.017 24.1074 24.0014L16.7552 28.2461C15.0503 29.2305 12.9497 29.2305 11.2447 28.2461L3.8926 24.0014C2.18765 23.017 1.13736 21.1978 1.13736 19.2291V10.7396C1.13736 8.77091 2.18765 6.95175 3.8926 5.9674L11.2447 1.72264Z" fill="var(--color-2)"/>
  <g filter="url(#filter0_b_2194_23268)">
    <path d="M15.3051 11.5196C15.9568 11.5196 16.4851 10.9821 16.4851 10.319C16.4851 9.65599 15.9568 9.11848 15.3051 9.11848L10.3825 9.11848L11.5149 7.96649C11.9757 7.49764 11.9757 6.7375 11.5149 6.26865C11.054 5.79981 10.3069 5.79981 9.84604 6.26865L6.6993 9.47012C6.23848 9.93896 6.23848 10.6991 6.6993 11.1679L9.84604 14.3694C10.3069 14.8383 11.054 14.8383 11.5149 14.3694C11.9757 13.9006 11.9757 13.1404 11.5149 12.6716L10.3825 11.5196L15.3051 11.5196Z" fill-opacity="var(--opacity)" fill="var(--color-1)" class="active-element--fill"/>
    <path d="M17.6174 20.8513L12.6949 20.8513C12.0431 20.8513 11.5148 20.3138 11.5148 19.6507C11.5148 18.9877 12.0431 18.4502 12.6949 18.4502L17.6174 18.4502L16.4851 17.2982C16.0243 16.8293 16.0243 16.0692 16.4851 15.6003C16.9459 15.1315 17.6931 15.1315 18.1539 15.6003L21.3007 18.8018C21.7615 19.2706 21.7615 20.0308 21.3007 20.4996L18.1539 23.7011C17.6931 24.1699 16.9459 24.1699 16.4851 23.7011C16.0243 23.2323 16.0243 22.4721 16.4851 22.0033L17.6174 20.8513Z" fill-opacity="var(--opacity)" fill="var(--color-1)" class="active-element--fill"/>
  </g>
  <defs>
    <filter id="filter0_b_2194_23268" x="-1.64633" y="-2.08298" width="31.2926" height="34.1357" filterUnits="userSpaceOnUse" color-interpolation-filters="sRGB">
      <feFlood flood-opacity="0" result="BackgroundImageFix"/>
      <feGaussianBlur in="BackgroundImageFix" stdDeviation="4"/>
      <feComposite in2="SourceAlpha" operator="in" result="effect1_backgroundBlur_2194_23268"/>
      <feBlend mode="normal" in="SourceGraphic" in2="effect1_backgroundBlur_2194_23268" result="shape"/>
    </filter>
  </defs>
</svg>