<svg width="18" height="18" viewBox="0 0 18 18" fill="#939D9E" xmlns="http://www.w3.org/2000/svg">
<path d="M8.06248 16.5001H3.68773C2.82485 16.4993 2.12555 15.8 2.12473 14.9371V7.66212C1.51214 7.2274 1.32141 6.40326 1.68073 5.74362C2.35573 4.53762 3.04423 3.34887 3.72148 2.20962C3.9931 1.76487 4.47836 1.49547 4.99948 1.50006C5.31712 1.50328 5.62609 1.60409 5.88448 1.78887L5.90248 1.80012C6.21148 1.98012 9.19648 3.75687 11.5957 5.18412L13.725 6.45012L13.8225 6.50787C15.486 7.49112 15.8602 7.71462 15.8812 7.72887C16.4936 8.16244 16.6819 8.9872 16.3185 9.64362C15.6562 10.8264 14.9685 12.0151 14.2777 13.1776C14.0096 13.6176 13.5329 13.8874 13.0177 13.8909C12.9168 13.8909 12.8161 13.8796 12.7177 13.8571C12.6307 13.9089 12.1507 14.2171 11.5425 14.6071C10.4602 15.3009 8.98123 16.2496 8.81023 16.3374C8.57951 16.4561 8.32168 16.5122 8.06248 16.5001ZM3.37498 9.77262V14.9371C3.37498 15.1098 3.515 15.2499 3.68773 15.2499H6.55498C5.46523 13.4101 4.39573 11.5666 3.37498 9.77262ZM4.39348 9.02262C4.69348 9.53787 7.93048 15.1216 7.95748 15.1591C8.00012 15.2145 8.06608 15.2469 8.13598 15.2469C8.17285 15.2469 8.20916 15.2379 8.24173 15.2206C8.34298 15.1636 11.3872 13.2076 11.4172 13.1881C11.1817 13.0494 9.47773 12.0339 7.67323 10.9591L4.37848 9.00012L4.38373 9.00837L4.39123 9.02112V9.02562L4.39348 9.02262ZM4.74898 2.92512C4.14298 3.90012 2.78698 6.32112 2.76898 6.36537C2.72451 6.4716 2.76396 6.5944 2.86198 6.65487C2.96173 6.71412 12.8775 12.6219 12.972 12.6369C12.984 12.6378 12.996 12.6378 13.008 12.6369C13.0895 12.6372 13.1652 12.5948 13.2075 12.5251C13.818 11.4999 15.2242 9.03237 15.228 9.02487C15.2714 8.91819 15.2319 8.79573 15.1342 8.73462C15.039 8.67762 5.14198 2.79612 5.07823 2.76837C5.04926 2.75617 5.01816 2.7498 4.98673 2.74962C4.90775 2.75005 4.83424 2.79004 4.79098 2.85612L4.78573 2.86512L4.77973 2.87412L4.77073 2.88912V2.89287L4.75948 2.91087L4.74823 2.92512H4.74898ZM5.76373 7.04262C5.07414 7.0422 4.51526 6.48321 4.51498 5.79362C4.51471 5.10402 5.07314 4.54458 5.76273 4.54362C6.45232 4.54265 7.01232 5.10053 7.01398 5.79012C7.01315 6.48027 6.45388 7.03954 5.76373 7.04037V7.04262Z"/>
</svg>
