<svg width="40" height="40" viewBox="0 0 40 40" fill="none" xmlns="http://www.w3.org/2000/svg">
  <path fill-rule="evenodd" clip-rule="evenodd"
    d="M36 20C36 28.8365 28.8365 36 20 36C11.1635 36 4 28.8365 4 20C4 11.1635 11.1635 4 20 4C28.8365 4 36 11.1635 36 20ZM27.3036 12.146C27.3036 12.146 23.3155 13.7822 22.1395 14.2935C19.0717 15.5718 10.2262 19.2021 10.2262 19.2021C8.12985 20.0202 9.3569 20.7871 9.3569 20.7871C9.3569 20.7871 11.1465 21.4007 12.6804 21.8608C14.2143 22.321 15.0324 21.8097 15.0324 21.8097C15.0324 21.8097 18.6115 19.4577 22.2417 16.9523C24.7982 15.2139 24.1847 16.6455 23.5711 17.2591C22.2417 18.5885 20.0431 20.6849 18.2024 22.3722C17.3844 23.0881 17.7934 23.7016 18.1513 24.0084C19.1923 24.8892 21.6439 26.491 22.757 27.2183C23.0654 27.4199 23.2711 27.5542 23.3155 27.5875C23.5711 27.7921 25.0028 28.7124 25.872 28.5079C26.7412 28.3034 26.8434 27.1273 26.8434 27.1273C26.8434 27.1273 27.5081 22.9346 28.1217 19.0998C28.2354 18.3468 28.349 17.6096 28.455 16.9222C28.7304 15.1357 28.954 13.6856 28.9909 13.1686C29.1443 11.4302 27.3036 12.146 27.3036 12.146Z" />
</svg>
