<svg width="20" height="20" viewBox="0 0 20 20" fill="none" xmlns="http://www.w3.org/2000/svg">
<path d="M10.0001 20C4.4772 20 0 15.5228 0 10C0 4.47715 4.4772 0 10.0001 0C15.523 0 20.0002 4.47715 20.0002 10C19.9941 15.5203 15.5205 19.9939 10.0001 20ZM7.99008 8.99V11H8.99009V15H12.0101V13H11.0001L11.0101 8.991L7.99008 8.99ZM8.99009 5V7.019H11.0101V5H8.99009Z" fill="#CCD6FF" fill-opacity="0.15"/>
<path fill-rule="evenodd" clip-rule="evenodd" d="M20 10C20 15.5228 15.5228 20 9.99989 20C15.5203 19.9939 19.9939 15.5203 20 10ZM7.98987 11V8.99L11.0099 8.991L10.9999 13H12.0099V15H8.98988V11H7.98987ZM8.98988 7.019V5H11.0099V7.019H8.98988Z" fill="#F8F9FD" fill-opacity="0.5"/>
</svg>
