<svg width="16" height="13" viewBox="0 0 16 13" fill="none" xmlns="http://www.w3.org/2000/svg">
<path d="M4.8 12.8004C3.3402 12.8011 2.06495 11.8138 1.7 10.4004H0V8.80039H1.7008C2.11651 7.19035 3.69609 6.16699 5.33542 6.44564C6.97476 6.72429 8.1275 8.21209 7.98789 9.86906C7.84828 11.526 6.46285 12.8 4.8 12.8004ZM4.8 8.00039C3.92592 8.00128 3.21431 8.70347 3.20179 9.57747C3.18926 10.4515 3.88045 11.1738 4.75415 11.1997C5.62785 11.2256 6.36067 10.5456 6.4 9.67239V9.99239V9.60039C6.4 8.71674 5.68366 8.00039 4.8 8.00039ZM16 10.4004H8.8V8.80039H16V10.4004ZM8.8 6.40039C7.3405 6.40076 6.06567 5.41355 5.7008 4.00039H0V2.40039H5.7008C6.11651 0.790351 7.69609 -0.233006 9.33543 0.0456443C10.9748 0.324295 12.1275 1.81209 11.9879 3.46906C11.8483 5.12604 10.4628 6.39997 8.8 6.40039ZM8.8 1.60039C7.92592 1.60128 7.21431 2.30347 7.20179 3.17747C7.18926 4.05146 7.88045 4.77376 8.75415 4.79969C9.62785 4.82562 10.3607 4.14559 10.4 3.27239V3.59239V3.20039C10.4 2.31674 9.68366 1.60039 8.8 1.60039ZM16 4.00039H12.8V2.40039H16V4.00039Z" fill="#F8FCFD"/>
</svg>
