<svg width="24" height="24" viewBox="0 0 24 24" fill="none" xmlns="http://www.w3.org/2000/svg">
<path d="M8.55556 10.3333L10.7778 12.5556L15.7778 7.55556M20.7778 22V7.33333C20.7778 5.46649 20.7778 4.53307 20.4145 3.82003C20.0949 3.19282 19.585 2.68289 18.9577 2.36331C18.2447 2 17.3113 2 15.4444 2H8.33333C6.46649 2 5.53307 2 4.82003 2.36331C4.19282 2.68289 3.68289 3.19282 3.36331 3.82003C3 4.53307 3 5.46649 3 7.33333V22L6.05556 19.7778L8.83333 22L11.8889 19.7778L14.9444 22L17.7222 19.7778L20.7778 22Z" stroke="#BFC8CA" stroke-width="1.2" stroke-linecap="round" stroke-linejoin="round"/>
</svg>
