<svg width="18" height="18" viewBox="0 0 18 18" fill="none" xmlns="http://www.w3.org/2000/svg">
<path d="M9 16.5C4.85786 16.5 1.5 13.1421 1.5 9C1.5 4.85786 4.85786 1.5 9 1.5C13.1421 1.5 16.5 4.85786 16.5 9C16.4955 13.1403 13.1403 16.4955 9 16.5ZM8.25 3.0465C5.79453 3.35702 3.7817 5.14342 3.18173 7.54462C2.58176 9.94582 3.51777 12.469 5.53859 13.898C7.55942 15.327 10.2503 15.3685 12.3142 14.0025L12.2393 14.0557L12.3098 14.007L12.354 13.9763L12.402 13.9425L12.414 13.9343L12.4207 13.929L8.57475 10.0815C8.36578 9.86886 8.24909 9.58239 8.25 9.28425V3.0465ZM10.3718 9.75L13.542 12.9203L13.5472 12.9142L13.551 12.9098L13.5435 12.918C14.3172 12.0252 14.808 10.9224 14.9535 9.75H10.3718ZM9.75 3.0465V8.25H14.9535C14.6111 5.53058 12.4694 3.38888 9.75 3.0465Z" fill="#F8FCFD"/>
</svg>
