<svg width="18" height="18" viewBox="0 0 18 18" fill="none" xmlns="http://www.w3.org/2000/svg">
<path d="M4.49992 16.5C3.23552 16.4997 2.10704 15.7067 1.67834 14.5172C1.24964 13.3276 1.61276 11.997 2.58626 11.1902C3.55976 10.3834 4.93464 10.2735 6.02392 10.9155L10.9154 6.02399C10.1502 4.72388 10.4709 3.05759 11.664 2.13441C12.8572 1.21124 14.5506 1.31911 15.617 2.38623C16.6834 3.45335 16.79 5.14686 15.866 6.33936C14.942 7.53186 13.2755 7.8514 11.9759 7.08524L7.08517 11.976C7.63227 12.9037 7.64014 14.0534 7.1058 14.9885C6.57145 15.9235 5.57689 16.5004 4.49992 16.5ZM4.49992 12C3.67149 12 2.99992 12.6716 2.99992 13.5C2.99992 14.3284 3.67149 15 4.49992 15C5.32834 15 5.99992 14.3284 5.99992 13.5C5.99992 12.6716 5.32834 12 4.49992 12ZM13.4999 2.99999C12.6805 3.00082 12.0133 3.65913 12.0016 4.4785C11.9899 5.29787 12.6378 5.97502 13.4569 5.99933C14.276 6.02364 14.963 5.38612 14.9999 4.56749V4.86749V4.49999C14.9999 3.67157 14.3283 2.99999 13.4999 2.99999Z" fill="#F8FCFD"/>
</svg>
