<svg width="18" height="18" viewBox="0 0 18 18" fill="none" xmlns="http://www.w3.org/2000/svg">
<path d="M8.06254 16.5H3.68779C2.82491 16.4992 2.12562 15.7999 2.12479 14.937V7.662C1.5122 7.22728 1.32147 6.40314 1.68079 5.74349C2.35579 4.5375 3.04429 3.34875 3.72154 2.20949C3.99316 1.76474 4.47842 1.49534 4.99954 1.49994C5.31718 1.50316 5.62615 1.60397 5.88454 1.78874L5.90254 1.79999C6.21154 1.97999 9.19654 3.75675 11.5958 5.184L13.725 6.45L13.8225 6.50775C15.486 7.491 15.8603 7.7145 15.8813 7.72875C16.4937 8.16232 16.682 8.98708 16.3185 9.6435C15.6563 10.8262 14.9685 12.015 14.2778 13.1775C14.0097 13.6174 13.533 13.8873 13.0178 13.8907C12.9168 13.8908 12.8162 13.8795 12.7178 13.857C12.6308 13.9087 12.1508 14.217 11.5425 14.607C10.4603 15.3007 8.98129 16.2495 8.81029 16.3372C8.57957 16.456 8.32174 16.5121 8.06254 16.5ZM3.37504 9.7725V14.937C3.37504 15.1097 3.51506 15.2497 3.68779 15.2497H6.55504C5.46529 13.41 4.39579 11.5665 3.37504 9.7725ZM4.39354 9.0225C4.69354 9.53775 7.93054 15.1215 7.95754 15.159C8.00018 15.2144 8.06614 15.2468 8.13604 15.2467C8.17291 15.2467 8.20922 15.2378 8.24179 15.2205C8.34304 15.1635 11.3873 13.2075 11.4173 13.188C11.1818 13.0492 9.47779 12.0337 7.67329 10.959L4.37854 9L4.38379 9.00825L4.39129 9.021V9.0255L4.39354 9.0225ZM4.74904 2.92499C4.14304 3.9 2.78704 6.321 2.76904 6.36525C2.72457 6.47148 2.76402 6.59428 2.86204 6.65475C2.96179 6.714 12.8775 12.6217 12.972 12.6367C12.984 12.6376 12.9961 12.6376 13.008 12.6367C13.0895 12.637 13.1652 12.5946 13.2075 12.525C13.818 11.4997 15.2243 9.03225 15.228 9.02475C15.2715 8.91807 15.2319 8.79561 15.1343 8.7345C15.039 8.6775 5.14204 2.79599 5.07829 2.76824C5.04932 2.75604 5.01822 2.74967 4.98679 2.7495C4.90781 2.74992 4.8343 2.78992 4.79104 2.85599L4.78579 2.865L4.77979 2.87399L4.77079 2.88899V2.89275L4.75954 2.91075L4.74829 2.92499H4.74904ZM5.76379 7.0425C5.0742 7.04208 4.51532 6.48308 4.51504 5.79349C4.51477 5.1039 5.0732 4.54446 5.76279 4.5435C6.45238 4.54253 7.01238 5.10041 7.01404 5.79C7.01321 6.48015 6.45394 7.03942 5.76379 7.04025V7.0425Z" fill="#F8FCFD"/>
</svg>
