<svg width="18" height="18" viewBox="0 0 40 40" xmlns="http://www.w3.org/2000/svg" fill="currentColor">
<path d="M33.325 11.1465C34.8191 10.2533 35.937 8.84688 36.47 7.18982C35.0661 8.02282 33.5301 8.60961 31.9284 8.92482C29.7077 6.5757 26.1892 6.00403 23.339 7.52924C20.4888 9.05446 19.0125 12.299 19.735 15.4498C13.9844 15.1611 8.62664 12.4447 4.99503 7.97649C3.09976 11.2455 4.06828 15.4245 7.20836 17.5265C6.07288 17.49 4.96257 17.1825 3.97003 16.6298C3.97003 16.6598 3.97003 16.6898 3.97003 16.7198C3.97068 20.1251 6.37065 23.0583 9.70836 23.7332C8.65513 24.0197 7.55037 24.0619 6.47836 23.8565C7.41703 26.7686 10.1009 28.7636 13.16 28.8232C10.6264 30.8117 7.49749 31.8901 4.27669 31.8848C3.70581 31.8856 3.13538 31.8528 2.56836 31.7865C5.83901 33.8882 9.64564 35.0037 13.5334 34.9998C18.9421 35.037 24.1401 32.9047 27.9646 29.0798C31.7891 25.255 33.921 20.0569 33.8834 14.6482C33.8834 14.3382 33.8761 14.0298 33.8617 13.7232C35.2624 12.7108 36.4714 11.4567 37.4317 10.0198C36.1267 10.5983 34.7425 10.978 33.325 11.1465Z" />
</svg>
