<svg width="16" height="16" viewBox="0 0 16 16" fill="none" xmlns="http://www.w3.org/2000/svg">
<path d="M3.33335 11.3333C3.70154 11.3333 4.00002 11.6318 4.00002 12V13.3333H12V12C12 11.6318 12.2985 11.3333 12.6667 11.3333C13.0349 11.3333 13.3334 11.6318 13.3334 12V13.3333C13.3334 14.0697 12.7364 14.6666 12 14.6666H4.00002C3.26364 14.6666 2.66669 14.0697 2.66669 13.3333V12C2.66669 11.6318 2.96516 11.3333 3.33335 11.3333Z" fill="#F8FCFD"/>
<path d="M8.00004 11.3333C7.63185 11.3333 7.33337 11.0348 7.33337 10.6666L7.33337 3.60946L5.80478 5.13805C5.54443 5.3984 5.12232 5.3984 4.86197 5.13805C4.60162 4.8777 4.60162 4.45559 4.86197 4.19524L7.52864 1.52858C7.78898 1.26823 8.2111 1.26822 8.47144 1.52858L11.1381 4.19524C11.3985 4.45559 11.3985 4.8777 11.1381 5.13805C10.8778 5.3984 10.4557 5.3984 10.1953 5.13805L8.66671 3.60946L8.66671 10.6666C8.66671 11.0348 8.36823 11.3333 8.00004 11.3333Z" fill="#F8FCFD"/>
</svg>
