<svg width="22" height="22" viewBox="0 0 22 22" fill="none" xmlns="http://www.w3.org/2000/svg">
<path d="M1.88871 7.22604C1.68595 5.80711 2.13021 4.31337 3.22189 3.2217C4.31337 2.13021 5.80711 1.68595 7.22604 1.88871C8.08599 0.741978 9.45639 0 11 0C12.5436 0 13.914 0.741978 14.774 1.88871C16.1929 1.68595 17.6866 2.13021 18.7781 3.2217C19.8698 4.31337 20.3141 5.80711 20.1113 7.22604C21.258 8.08599 22 9.45639 22 11C22 12.5436 21.258 13.914 20.1113 14.774C20.3141 16.1929 19.8698 17.6864 18.7781 18.7781C17.6866 19.8698 16.1929 20.3141 14.774 20.1113C13.914 21.258 12.5436 22 11 22C9.45639 22 8.08599 21.258 7.22604 20.1113C5.80711 20.3141 4.31337 19.8698 3.22189 18.7781C2.13021 17.6864 1.68595 16.1929 1.88871 14.774C0.741978 13.914 0 12.5436 0 11C0 9.45639 0.741978 8.08599 1.88871 7.22604Z" fill="url(#paint0_linear_2607_26630)"/>
<path d="M7.12437 11.7731L9.53834 14.131C9.64769 14.2378 9.82644 14.2224 9.91583 14.0984L14.698 7.46429" stroke="white" stroke-width="2" stroke-linecap="round"/>
<defs>
<linearGradient id="paint0_linear_2607_26630" x1="19.7226" y1="-1.91276" x2="1.61679" y2="19.6649" gradientUnits="userSpaceOnUse">
<stop offset="0.00121575" stop-color="#80EF6E"/>
<stop offset="1" stop-color="#80EF6E"/>
</linearGradient>
</defs>
</svg>
