<svg viewBox="0 0 24 24" fill="none" width="24" height="24" xlmns="http://www.w3.org/2000/svg" class="sc-bdvvtL sc-iCfMLu iWfNDX"><path fill-rule="evenodd" clip-rule="evenodd" d="M15.2177 18.3421C14.7415 18.8879 14.1002 19.25 13.2931 19.25C12.5539 19.25 11.876 18.5925 11.4004 18.1037L9.44335 15.8205C9.3002 15.6535 9.22151 15.4408 9.22151 15.2208V8.07496C9.22151 7.85499 9.3002 7.64228 9.44335 7.47527L11.3891 5.20521C11.8543 4.66985 12.5322 4.04578 13.2931 4.04578C14.1002 4.04577 14.7415 4.40782 15.2177 4.9536C15.6768 5.47982 15.9865 6.17729 16.202 6.90648C16.6336 8.36714 16.7486 10.1741 16.7486 11.6479C16.7486 13.1216 16.6336 14.9286 16.202 16.3893C15.9865 17.1184 15.6768 17.8159 15.2177 18.3421ZM5 9.80494C5 8.91434 5.72197 8.19237 6.61257 8.19237H7.53403C7.66126 8.19237 7.7644 8.29551 7.7644 8.42274V14.873C7.7644 15.0002 7.66126 15.1034 7.53403 15.1034H6.61257C5.72197 15.1034 5 14.3814 5 13.4908V9.80494ZM19.6562 8.7955C19.6076 8.41692 19.2613 8.14943 18.8827 8.19803C18.5041 8.24664 18.2366 8.59294 18.2852 8.97152C18.3996 9.86268 18.44 10.7987 18.44 11.648C18.44 12.4972 18.3996 13.4332 18.2852 14.3244C18.2366 14.703 18.5041 15.0493 18.8827 15.0979C19.2613 15.1465 19.6076 14.879 19.6562 14.5004C19.7802 13.5342 19.8222 12.5364 19.8222 11.648C19.8222 10.7595 19.7802 9.76173 19.6562 8.7955Z" fill="currentColor"></path></svg>