<svg xmlns="http://www.w3.org/2000/svg" width="28" height="29" viewBox="0 0 28 29" fill="none">
  <path fill-rule="evenodd" clip-rule="evenodd" d="M3 10.9844H23L20.9288 4.74273C20.4688 3.35641 19.0713 2.64162 17.8074 3.1462L5.8696 7.91202C4.50181 8.45808 3.49252 9.60628 3 10.9844Z" fill-opacity="var(--opacity)" fill="var(--color-1)"/>
  <path d="M0 14.4151C0 10.3112 3.3921 6.98438 7.57647 6.98438H20.4235C24.6079 6.98438 28 10.3112 28 14.4151V20.5536C28 24.6575 24.6079 27.9844 20.4235 27.9844H7.57647C3.3921 27.9844 0 24.6575 0 20.5536V14.4151Z" fill="var(--color-2)"/>
  <path d="M24.0122 17.4844C24.0122 18.8651 22.8929 19.9844 21.5122 19.9844C20.1315 19.9844 19.0122 18.8651 19.0122 17.4844C19.0122 16.1037 20.1315 14.9844 21.5122 14.9844C22.8929 14.9844 24.0122 16.1037 24.0122 17.4844Z" fill-opacity="var(--opacity)" fill="var(--color-1)"/>
</svg>