<svg width="20" height="20" viewBox="0 0 20 20" fill="none" xmlns="http://www.w3.org/2000/svg">
<path d="M9.99133 18.8889C5.08329 18.8839 1.10806 14.9021 1.11133 9.99405C1.1146 5.08601 5.09514 1.10945 10.0032 1.11108C14.9112 1.11272 18.8891 5.09193 18.8891 9.99997C18.8862 14.9114 14.9028 18.8908 9.99133 18.8889ZM2.88911 10.1529C2.93117 14.0651 6.12565 17.2085 10.038 17.1875C13.9504 17.1664 17.1109 13.9889 17.1109 10.0764C17.1109 6.16397 13.9504 2.98643 10.038 2.9653C6.12565 2.94438 2.93117 6.08775 2.88911 9.99997V10.1529ZM10.8891 14.4444H9.11133V12.6666H10.8891V14.4444ZM10.8891 10.8889H9.11133V5.55552H10.8891V10.8889Z" fill="#EA556A"/>
</svg>
