<svg width="156" height="169" viewBox="0 0 156 169" fill="none" xmlns="http://www.w3.org/2000/svg">
<path fill-rule="evenodd" clip-rule="evenodd" d="M7.1381 128.761C7.27296 128.085 7.93068 127.646 8.60715 127.781C13.8638 128.829 18.9902 130.09 24.0165 131.326C27.62 132.213 31.1721 133.086 34.6836 133.86C43.1848 135.732 51.7228 137.09 61.0323 136.887C77.6967 136.522 94.26 132.606 108.081 123.161C115.209 118.289 121.899 111.046 125.937 102.842C129.97 94.6471 131.319 85.5854 127.967 76.9515C126.266 72.5721 123.516 68.4235 120.054 64.7388C119.354 69.4549 117.928 74.1743 115.615 78.8433C110.137 89.9035 98.3985 91.9522 88.1021 88.7821C77.8462 85.6246 68.4072 77.1326 67.2929 66.3297C66.6935 60.5191 68.5123 55.7513 71.9804 52.4023C75.422 49.0789 80.3822 47.2508 85.931 47.0522C94.8615 46.7326 104.341 49.8712 112.363 55.1004C114.35 56.3952 116.254 57.8227 118.043 59.3641C118.54 46.3981 113.727 33.4722 107.047 21.713C106.706 21.1132 106.916 20.3508 107.516 20.0101C108.116 19.6694 108.878 19.8794 109.219 20.4792C116.339 33.0138 121.574 47.207 120.419 61.544C124.753 65.783 128.229 70.725 130.295 76.0473C133.967 85.5019 132.43 95.3061 128.178 103.945C123.93 112.575 116.935 120.135 109.49 125.223C95.1622 135.015 78.0866 139.012 61.0869 139.384C51.4967 139.594 42.7411 138.192 34.1463 136.299C30.4855 135.493 26.9011 134.61 23.299 133.723C18.3535 132.505 13.3746 131.278 8.11876 130.23C7.4423 130.096 7.00323 129.438 7.1381 128.761ZM117.816 62.5128C115.725 60.5659 113.433 58.779 110.999 57.193C103.314 52.1829 94.3335 49.251 86.0204 49.5485C80.9417 49.7303 76.6188 51.3956 73.7156 54.1992C70.8388 56.9771 69.2511 60.9698 69.7776 66.0734C70.7562 75.56 79.1898 83.4246 88.8371 86.3948C98.444 89.3526 108.639 87.3003 113.377 77.7347C115.863 72.7145 117.273 67.6176 117.816 62.5128Z" fill="white"/>
<path fill-rule="evenodd" clip-rule="evenodd" d="M12.9544 135.006C12.5775 135.584 11.8036 135.747 11.2259 135.37C11.1656 135.331 11.079 135.274 10.9696 135.204C10.1329 134.661 7.95955 133.253 5.96215 131.838C4.83816 131.042 3.73451 130.218 2.9484 129.532C2.56553 129.198 2.19937 128.846 1.94726 128.514C1.82848 128.357 1.66491 128.116 1.57671 127.819C1.48161 127.498 1.42811 126.896 1.90235 126.402C2.57716 125.699 3.54366 125.403 4.35468 125.246C5.20023 125.082 6.14106 125.025 6.95366 124.978L7.01996 124.975C7.85158 124.927 8.52627 124.888 9.03892 124.79C9.24269 124.751 9.37123 124.711 9.4452 124.681C9.76096 124.165 10.4136 123.942 10.9893 124.181C11.6261 124.446 11.9277 125.177 11.6628 125.814C11.4378 126.355 11.0179 126.681 10.6465 126.875C10.2815 127.065 9.87662 127.173 9.50889 127.243C8.82774 127.374 8.00018 127.421 7.24853 127.464C7.19761 127.466 7.14704 127.469 7.09688 127.472C6.25685 127.52 5.48359 127.571 4.82974 127.698C4.77825 127.708 4.72883 127.718 4.68141 127.728C5.36543 128.315 6.34387 129.047 7.40621 129.8C9.35547 131.181 11.4781 132.556 12.324 133.105C12.4368 133.178 12.5269 133.236 12.5909 133.278C13.1686 133.655 13.3313 134.429 12.9544 135.006ZM3.9136 126.97C3.91373 126.97 3.9154 126.973 3.91821 126.978C3.91487 126.973 3.91346 126.97 3.9136 126.97Z" fill="white"/>
</svg>
