<svg width="212" height="41" viewBox="0 0 212 41" fill="none" xmlns="http://www.w3.org/2000/svg">
<path d="M189.966 30.7687H184.11V9.98285H192.106L197.963 24.0046H198.01L203.772 9.98285H211.886V30.7687H206.03V17.792H205.982L200.714 30.7687H195.47L190.013 17.8211H189.966V30.7687Z" fill="#F3F9F4"/>
<path d="M165.561 30.7687H159.117L167.537 9.98285H174.733L182.918 30.7687H176.497L175.204 27.1689H166.831L165.561 30.7687ZM171.017 14.6568L168.007 22.9014H174.028L171.064 14.6568H171.017Z" fill="#F3F9F4"/>
<path d="M138.344 30.7687H131.406L124.068 9.98285H130.371L135.145 24.8755H135.192L139.99 9.98285H146.811L151.679 24.8755H151.702L156.43 9.98285H162.709L155.395 30.7687H148.457L143.447 15.876H143.4L138.344 30.7687Z" fill="#F3F9F4"/>
<path d="M111.411 31.2623C104.896 31.2623 100.522 27.0528 100.522 20.8113C100.522 14.0182 105.32 9.46039 112.469 9.46039C117.926 9.46039 122.112 12.2183 122.818 16.3116L117.008 17.5309C116.562 15.789 114.68 14.6278 112.469 14.6278C109.059 14.6278 106.754 17.0083 106.754 20.6081C106.754 24.0046 109.365 26.3271 113.245 26.3271C116.303 26.3271 118.608 24.7594 118.843 22.5822H109.906V18.7792H124.817V30.7687H119.925L119.69 27.2851H119.666C118.09 29.6946 114.915 31.2623 111.411 31.2623Z" fill="#F3F9F4"/>
<path d="M98.5865 30.7687H92.4011V9.98285H98.5865V30.7687Z" fill="#F3F9F4"/>
<path d="M66.8693 30.7687H59.9313L52.5935 9.98285H58.8965L63.6708 24.8755H63.7178L68.5156 9.98285H75.336L80.2044 24.8755H80.2279L84.9552 9.98285H91.2347L83.9204 30.7687H76.9824L71.9729 15.876H71.9258L66.8693 30.7687Z" fill="#F3F9F4"/>
<path d="M0 15.1895C0 9.87269 0 7.21427 1.03472 5.18351C1.94489 3.39721 3.39721 1.94489 5.18351 1.03472C7.21427 0 9.87269 0 15.1895 0H25.4968C30.8136 0 33.4721 0 35.5028 1.03472C37.2891 1.94489 38.7414 3.39721 39.6516 5.18351C40.6863 7.21427 40.6863 9.87269 40.6863 15.1895V25.4968C40.6863 30.8136 40.6863 33.4721 39.6516 35.5028C38.7414 37.2891 37.2891 38.7414 35.5028 39.6516C33.4721 40.6863 30.8137 40.6863 25.4968 40.6863H15.1895C9.87269 40.6863 7.21427 40.6863 5.18351 39.6516C3.39721 38.7414 1.94489 37.2891 1.03472 35.5028C0 33.4721 0 30.8137 0 25.4968V15.1895Z" fill="#80EF6E"/>
<path d="M29.3843 12.8788C29.4247 12.6914 29.5903 12.5577 29.7819 12.5577H35.2978C35.5672 12.5577 35.7622 12.8148 35.6895 13.0742L30.6845 30.9398C30.6353 31.1155 30.4752 31.2369 30.2928 31.2369H25.0734C24.893 31.2369 24.7341 31.1181 24.6832 30.945L20.5691 16.9711C20.483 16.6786 20.0685 16.6794 19.9835 16.9721L15.925 30.9436C15.8745 31.1174 15.7153 31.2369 15.5344 31.2369H10.3976C10.2153 31.2369 10.0552 31.1155 10.006 30.9399L4.99677 13.0743C4.92404 12.8149 5.11903 12.5577 5.38845 12.5577H10.8976C11.0902 12.5577 11.2564 12.6928 11.2958 12.8814L13.1477 21.7619C13.2116 22.0683 13.6404 22.0912 13.7366 21.7933L17.6316 9.73124C17.6858 9.56328 17.8422 9.44946 18.0187 9.44946H22.6563C22.8334 9.44946 22.9902 9.56415 23.0439 9.733L26.8788 21.7966C26.9736 22.0946 27.4019 22.0741 27.4678 21.7684L29.3843 12.8788Z" fill="#0D1311"/>
</svg>
