<svg width="128" height="128" viewBox="0 0 128 128" fill="none" xmlns="http://www.w3.org/2000/svg">
  <path
    d="M0.00012207 47.7865C0.00012207 31.0597 0.00012207 22.6962 3.25538 16.3074C6.11879 10.6877 10.6878 6.11867 16.3075 3.25526C22.6963 0 31.0598 0 47.7866 0H80.2135C96.9403 0 105.304 0 111.693 3.25526C117.312 6.11867 121.881 10.6877 124.745 16.3074C128 22.6962 128 31.0596 128 47.7865V80.2133C128 96.9402 128 105.304 124.745 111.692C121.881 117.312 117.312 121.881 111.693 124.745C105.304 128 96.9404 128 80.2135 128H47.7867C31.0598 128 22.6963 128 16.3075 124.745C10.6878 121.881 6.11879 117.312 3.25538 111.692C0.00012207 105.304 0.00012207 96.9402 0.00012207 80.2134V47.7865Z"
    fill="#80EF6E" />
  <path
    d="M92.4438 40.5168C92.5708 39.9275 93.0919 39.5068 93.6948 39.5068H111.048C111.895 39.5068 112.509 40.3157 112.28 41.1318L96.5342 97.3373C96.3794 97.8899 95.8757 98.2718 95.3019 98.2718H78.8816C78.3141 98.2718 77.8143 97.898 77.654 97.3535L64.7111 53.3914C64.4402 52.4714 63.1362 52.4737 62.8687 53.3947L50.1006 97.3491C49.9418 97.8958 49.441 98.2718 48.8717 98.2718H32.7114C32.1377 98.2718 31.6341 97.89 31.4792 97.3376L15.7203 41.132C15.4914 40.3159 16.1049 39.5068 16.9525 39.5068H34.2842C34.8903 39.5068 35.4133 39.932 35.537 40.5253L41.3631 68.4632C41.5641 69.4273 42.9134 69.4994 43.216 68.5622L55.4696 30.6147C55.6402 30.0863 56.1322 29.7282 56.6874 29.7282H71.2773C71.8347 29.7282 72.328 30.089 72.4969 30.6203L84.5615 68.5724C84.8596 69.5099 86.2071 69.4456 86.4145 68.4839L92.4438 40.5168Z"
    fill="#0D1311" />
</svg>
