<svg viewBox="0 0 24 24" fill="none" width="24" height="24" xlmns="http://www.w3.org/2000/svg" class="sc-bdvvtL sc-iCfMLu iWfNDX"><path d="M16.7075 13.1287L16.7056 13.1614L10.1708 6.62662L11.3891 5.20521C11.8543 4.66985 12.5322 4.04578 13.2931 4.04578C14.1002 4.04577 14.7415 4.40782 15.2177 4.9536C15.6768 5.47982 15.9865 6.17729 16.202 6.90648C16.6336 8.36714 16.7486 10.1741 16.7486 11.6479C16.7486 12.1152 16.7371 12.616 16.7075 13.1287Z" fill="currentColor"></path><path d="M9.29764 7.70821C9.24785 7.82304 9.22151 7.94787 9.22151 8.07496V15.2208C9.22151 15.4407 9.3002 15.6535 9.44335 15.8205L11.4004 18.1037C11.876 18.5925 12.5539 19.25 13.2931 19.25C14.1002 19.25 14.7415 18.8879 15.2177 18.3421C15.6661 17.8282 15.972 17.1509 16.1868 16.4403L18.3333 18.5868C18.6032 18.8567 19.0408 18.8567 19.3107 18.5868C19.5806 18.3169 19.5806 17.8793 19.3107 17.6095C15.9915 14.2902 12.6167 11.0273 9.29764 7.70821Z" fill="currentColor"></path><path d="M6.61257 8.19237C5.72197 8.19237 5 8.91434 5 9.80494V13.4908C5 14.3814 5.72197 15.1034 6.61257 15.1034H7.53403C7.66126 15.1034 7.7644 15.0002 7.7644 14.873V8.42274C7.7644 8.29551 7.66126 8.19237 7.53403 8.19237H6.61257Z" fill="currentColor"></path><path d="M5.43279 5.68629C5.16289 5.4164 5.16289 4.97882 5.43279 4.70893C5.70268 4.43904 6.14026 4.43904 6.41015 4.70893L7.92251 6.22129C8.1924 6.49118 8.1924 6.92876 7.92251 7.19865C7.65261 7.46854 7.21503 7.46854 6.94514 7.19865L5.43279 5.68629Z" fill="currentColor"></path></svg>