<svg width="536" height="228" viewBox="0 0 536 228" fill="none" xmlns="http://www.w3.org/2000/svg">
<g clip-path="url(#clip0_4152_39733)">
<g filter="url(#filter0_f_4152_39733)">
<path d="M263.461 129.212C285.255 129.212 302.922 111.545 302.922 89.7515C302.922 67.9581 285.255 50.291 263.461 50.291C241.668 50.291 224.001 67.9581 224.001 89.7515C224.001 111.545 241.668 129.212 263.461 129.212Z" fill="#FF002D" fill-opacity="0.3"/>
</g>
<g filter="url(#filter1_f_4152_39733)">
<path d="M264.213 113.715C277.033 113.715 287.425 103.323 287.425 90.5031C287.425 77.6834 277.033 67.291 264.213 67.291C251.393 67.291 241.001 77.6834 241.001 90.5031C241.001 103.323 251.393 113.715 264.213 113.715Z" fill="#FF002D" fill-opacity="0.4"/>
</g>
<g clip-path="url(#clip1_4152_39733)">
<mask id="mask0_4152_39733" style="mask-type:alpha" maskUnits="userSpaceOnUse" x="-36" y="-73" width="510" height="243">
<rect x="-36" y="-72.709" width="510" height="242" fill="url(#paint0_linear_4152_39733)"/>
</mask>
<g mask="url(#mask0_4152_39733)">
<path d="M460.634 45.8617C458.265 43.8002 455.724 41.8381 453.4 39.6861C452.838 39.2364 452.174 38.9312 451.466 38.7972C450.758 38.6633 450.029 38.7046 449.341 38.9175C445.67 34.6136 439.991 28.6368 435.199 28.1395C434.999 27.8913 434.708 27.7329 434.391 27.699C434.074 27.6651 433.756 27.7585 433.508 27.9587C433.393 28.0822 433.269 28.1971 433.137 28.3023C432.745 28.4089 432.368 28.567 432.016 28.7724C431.87 28.8364 431.753 28.9524 431.688 29.0978C431.623 29.2432 431.614 29.4076 431.664 29.5591L431.501 29.7128C431.128 30.1666 430.824 30.6722 430.597 31.2138C428.788 28.4469 427.242 25.6258 425.651 22.8228C421.546 15.5893 419.195 7.22547 413.227 0.651973C412.323 -0.306474 409.972 -0.152762 409.158 0.751433C400.189 10.6976 390.866 20.3996 379.971 29.315C370.124 37.3804 358.749 44.0805 346.28 49.9216C343.558 48.3515 341.179 46.2515 339.282 43.7459C338.793 43.2071 338.136 42.8501 337.419 42.7335C336.701 42.6169 335.965 42.7475 335.331 43.1039C332.451 45.06 329.73 47.2398 327.193 49.6232C325.023 51.5491 322.835 53.4751 319.661 54.6324C317.654 55.3648 315.239 55.5366 313.395 56.5132C309.652 58.5514 306.26 61.1768 303.349 64.2892C303.131 64.1941 302.892 64.1558 302.655 64.178C302.418 64.2001 302.19 64.2819 301.993 64.4158C299.237 66.5272 296.635 68.8327 294.208 71.3148C293.448 72.0924 292.49 72.9605 291.604 73.8828C291.209 73.6508 290.787 73.4686 290.347 73.3402L289.723 73.2408C289.723 72.2371 288.231 71.4324 286.938 72.0292C285.654 71.7579 284.47 72.644 284.886 73.5392C273.375 82.4907 261.376 91.1529 249.92 100.123L249.486 100.032C248.465 99.7789 246.946 99.9688 246.385 100.71C242.072 106.452 234.115 99.7608 227.487 100.05C226.979 99.6012 226.336 99.3351 225.659 99.2942C224.982 99.2532 224.311 99.4398 223.753 99.8241C221.845 101.171 220 102.537 218.084 103.92C217.695 104.191 217.27 104.463 216.836 104.716C208.517 100.113 200.669 95.05 192.82 89.7785C184.836 84.4257 176.825 79.118 168.244 74.2263C164.175 71.9026 160.64 69.3166 155.884 67.6528C153.885 67.2648 151.86 67.0231 149.826 66.9295C149.367 66.5274 148.86 66.1842 148.316 65.9078C148.096 65.8001 147.861 65.724 147.62 65.6817C141.091 61.1607 134.409 56.8296 128.532 51.8656C124.764 48.7806 121.419 45.2113 118.586 41.2503C117.257 39.3334 116.995 36.3134 115.476 34.3152C116.38 32.9227 114.11 31.1686 111.976 32.2898C110.81 32.9046 109.707 33.5556 108.649 34.2428C104.38 29.8827 99.1987 26.5229 93.4764 24.4052C93.0532 24.2588 92.6007 24.2177 92.158 24.2855C91.7153 24.3532 91.2958 24.5278 90.9356 24.794C90.3222 25.4695 89.5241 25.9503 88.6402 26.177C87.7563 26.4036 86.8254 26.366 85.9626 26.0689C85.7461 25.7455 85.4432 25.4892 85.0884 25.3294C84.7335 25.1696 84.3409 25.1125 83.9553 25.1647C74.6601 26.2859 67.6797 34.2067 61.9743 38.8542C58.0139 42.1093 45.2286 54.5782 37.4706 50.663C36.042 49.9397 34.4506 50.5816 34.107 51.4768C29.1881 56.7935 22.7322 61.3687 15.7156 65.32C12.0401 67.3447 8.23758 69.1296 4.33182 70.6638C3.07499 71.1702 1.69157 71.568 0.353361 72.0111C0.257806 71.8965 0.141167 71.8014 0.00976562 71.7308V150.296H460.634V45.8617Z" fill="#0D0E1D"/>
<path d="M11.9994 69.0905C16.2853 67.4087 20.4717 65.4737 24.7033 63.6653C27.6939 62.2282 30.836 61.1303 34.0708 60.3922C34.1023 60.3841 34.1351 60.3824 34.1672 60.3871C34.1993 60.3919 34.2302 60.403 34.258 60.4199C34.2858 60.4367 34.31 60.4589 34.329 60.4852C34.3481 60.5115 34.3618 60.5414 34.3692 60.573C35.6712 67.7252 44.3967 64.018 48.6826 62.1463C55.3194 59.2348 61.6216 55.4462 68.5116 53.1043C70.5641 52.4262 73.0868 51.6938 75.2569 52.2725C78.729 53.1767 81.2879 56.2329 84.968 56.3775C88.648 56.5222 91.2973 54.6234 94.6519 53.2761C96.18 52.6522 97.8347 52.0374 99.4984 52.5076C103.043 53.5112 105.43 56.5765 107.745 59.2529C109.282 61.0613 111.009 63.2946 113.251 64.1898C114.499 64.6618 115.873 64.6745 117.129 64.2255C118.385 63.7765 119.44 62.8952 120.105 61.7394C120.774 60.4735 120.837 56.5312 122.736 56.3775C124.156 56.2781 125.892 57.9147 126.868 58.7013C129.852 61.0884 132.755 63.593 135.576 66.17C141.444 71.5409 147.14 77.2283 153.732 81.7221C160.324 86.216 168.308 88.0515 174.908 92.5725C178.02 94.829 181.013 97.2433 183.878 99.806C188.11 103.341 202.016 115.856 205.841 106.063C205.931 105.837 206.166 105.647 206.401 105.801C209.25 107.654 211.311 110.503 214.015 112.555C215.706 113.839 217.731 115.051 219.901 113.93C221.538 113.08 222.288 111.552 223.192 110.032C224.44 107.926 226.013 106.163 228.554 105.738C231.936 105.204 234.269 109.526 237.949 108.45C240.191 107.763 242.117 106.38 244.323 105.62C246.339 104.949 248.266 104.038 250.065 102.907C253.504 100.557 256.773 97.968 259.848 95.1585C265.201 90.4747 271.069 84.8416 278.466 83.9284C278.601 83.9284 278.737 83.9284 278.764 84.1182C280.509 92.9703 294.081 81.7854 297.427 79.2989C305.158 73.5392 313.503 66.9205 323.431 66.2061C329.625 65.745 335.186 65.7812 340.611 62.3091C343.414 60.5007 347.347 57.345 350.919 57.7881C359.644 58.8822 348.279 73.0057 356.263 75.0311C359.156 75.7725 361.824 73.512 363.677 71.5771C366.211 68.803 368.506 65.8207 370.54 62.6617C372.611 59.5965 374.609 56.468 376.797 53.466C378.461 51.1874 380.26 48.6647 382.629 47.0824C384.003 46.1782 385.74 45.5001 387.286 46.4314C388.274 47.085 389.07 47.9901 389.591 49.0536C389.79 49.4333 390.369 51.2417 390.902 51.1242C392.176 50.8607 393.388 50.3574 394.474 49.6413C399.375 46.2415 402.404 36.2411 409.674 40.5993C414.276 43.3752 417.513 48.3664 420.822 52.4714C423.309 55.5547 428.716 63.0957 433.282 58.9816C435.995 56.5584 437.975 52.39 438.879 48.936C439.177 47.7786 439.15 46.2234 439.783 45.1836C440.299 44.3608 441.592 44.4693 442.369 44.5597C444.557 44.7857 446.538 45.066 448.373 46.3681C451.013 48.2579 453.165 50.7263 455.778 52.6432C457.247 53.7047 458.891 54.5004 460.634 54.9941V45.8617C458.265 43.8002 455.724 41.8381 453.4 39.6861C452.838 39.2364 452.174 38.9312 451.466 38.7972C450.758 38.6633 450.029 38.7046 449.341 38.9175C445.67 34.6136 439.991 28.6368 435.199 28.1395C434.999 27.8913 434.708 27.7329 434.391 27.699C434.074 27.6651 433.756 27.7585 433.508 27.9587C433.393 28.0822 433.269 28.1971 433.137 28.3023C432.745 28.4089 432.368 28.567 432.016 28.7724C431.87 28.8364 431.753 28.9524 431.688 29.0978C431.623 29.2432 431.614 29.4076 431.664 29.5591L431.501 29.7128C431.128 30.1666 430.824 30.6722 430.597 31.2138C428.788 28.4469 427.242 25.6258 425.651 22.8228C421.546 15.5893 419.195 7.22547 413.227 0.651973C412.323 -0.306474 409.972 -0.152762 409.158 0.751433C400.189 10.6976 390.866 20.3996 379.971 29.315C370.124 37.3804 358.749 44.0805 346.28 49.9216C343.558 48.3515 341.179 46.2515 339.282 43.7459C338.793 43.2071 338.136 42.8501 337.419 42.7335C336.701 42.6169 335.965 42.7475 335.331 43.1039C332.451 45.06 329.73 47.2398 327.193 49.6232C325.023 51.5491 322.835 53.4751 319.661 54.6324C317.654 55.3648 315.239 55.5366 313.395 56.5132C309.652 58.5514 306.26 61.1768 303.349 64.2892C303.131 64.1941 302.892 64.1558 302.655 64.178C302.418 64.2001 302.19 64.2819 301.993 64.4158C299.237 66.5272 296.635 68.8327 294.208 71.3148C293.448 72.0924 292.49 72.9605 291.604 73.8828C291.209 73.6508 290.787 73.4686 290.347 73.3402L289.723 73.2408C289.723 72.2371 288.231 71.4324 286.938 72.0292C285.654 71.7579 284.47 72.644 284.886 73.5392C273.375 82.4907 261.376 91.1529 249.92 100.123L249.486 100.032C248.465 99.7789 246.946 99.9688 246.385 100.71C242.072 106.452 234.115 99.7608 227.487 100.05C226.979 99.6012 226.336 99.3351 225.659 99.2942C224.982 99.2532 224.311 99.4398 223.753 99.8241C221.845 101.171 220 102.537 218.084 103.92C217.695 104.191 217.27 104.463 216.836 104.716C208.517 100.113 200.669 95.05 192.82 89.7785C184.836 84.4257 176.825 79.118 168.244 74.2263C164.175 71.9026 160.64 69.3166 155.884 67.6528C153.885 67.2648 151.86 67.0231 149.826 66.9295C149.367 66.5274 148.86 66.1842 148.316 65.9078C148.096 65.8001 147.861 65.724 147.62 65.6817C141.091 61.1607 134.409 56.8296 128.532 51.8656C124.764 48.7806 121.419 45.2113 118.586 41.2503C117.257 39.3334 116.995 36.3134 115.476 34.3152C116.38 32.9227 114.11 31.1686 111.976 32.2898C110.81 32.9046 109.707 33.5556 108.649 34.2428C104.38 29.8827 99.1987 26.5229 93.4764 24.4052C93.0532 24.2588 92.6007 24.2177 92.158 24.2855C91.7153 24.3532 91.2958 24.5278 90.9356 24.794C90.3222 25.4695 89.5241 25.9503 88.6402 26.177C87.7563 26.4036 86.8254 26.366 85.9626 26.0689C85.7461 25.7455 85.4432 25.4892 85.0884 25.3294C84.7335 25.1696 84.3409 25.1125 83.9553 25.1647C74.6601 26.2859 67.6797 34.2067 61.9743 38.8542C58.0139 42.1093 45.2286 54.5782 37.4706 50.663C36.042 49.9397 34.4506 50.5816 34.107 51.4768C29.1881 56.7935 22.7322 61.3687 15.7156 65.32C12.0401 67.3447 8.23758 69.1296 4.33182 70.6638C3.07499 71.1702 1.69157 71.568 0.353361 72.0111C0.257806 71.8965 0.141167 71.8014 0.00976562 71.7308V72.8248C4.12821 72.0118 8.14769 70.7599 11.9994 69.0905V69.0905Z" fill="#181A33"/>
<path d="M460.632 117.292C452.169 114.525 444.357 110.23 437.358 106.442C430.746 103 424.361 99.1374 418.244 94.8772C412.339 90.6366 406.561 86.3507 399.409 83.1227C398.913 82.8969 398.372 82.7861 397.828 82.7986C397.283 82.8111 396.748 82.9467 396.263 83.195C393.243 84.8859 391.317 83.195 388.821 82.5078C389.463 81.2872 387.112 79.75 385.521 80.7718C379.815 84.3886 373.224 87.3091 366.949 90.4376C363.278 92.246 358.558 94.4703 355.321 97.1829C354.353 96.7037 353.386 96.1973 352.391 95.6639C346.388 92.4455 339.926 90.1676 333.231 88.9095C326.549 87.5171 318.276 85.2928 311.322 87.1011C303.592 89.0904 297.461 93.0598 291.701 97.0473C285.67 101.234 280.11 106.044 272.948 109.326C268.943 111.135 265.335 113.431 261.411 115.366C256.483 117.79 251.411 117.554 245.678 117.753C238.996 117.998 234.05 122.274 229.972 125.538C226.972 128.022 223.65 130.09 220.098 131.687C217.72 130.738 215.469 129.625 213.29 128.513C207.242 125.397 201.603 121.546 196.499 117.048C195.989 116.701 195.403 116.483 194.79 116.412C194.178 116.341 193.557 116.42 192.981 116.641C189.744 118.215 179.491 112.473 176.516 111.424C175.276 111.031 173.996 110.776 172.7 110.664C172.944 109.236 169.536 108.567 168.695 110.004C168.11 110.95 167.239 111.685 166.208 112.102C165.928 112.238 165.593 112.301 165.304 112.446C165.191 112.511 165.082 112.583 164.978 112.663C162.157 110.592 159.553 108.323 157.049 106.225C150.52 100.8 144.607 94.9586 137.681 89.7866C131.523 85.1752 111.378 64.6861 100.428 72.7244C99.7866 72.5 99.1171 72.3661 98.4387 72.3266C98.1718 72.0811 97.8442 71.9114 97.4896 71.8351C97.1351 71.7588 96.7667 71.7787 96.4224 71.8926C87.724 74.6052 78.8087 77.9055 71.1049 82.0829C67.0179 80.7447 62.8134 79.4516 58.5909 78.3576C52.3519 76.7662 45.3806 76.4497 40.7601 80.0575C33.5266 78.6921 23.6437 83.2493 17.9111 85.4826C11.7535 87.8516 5.94859 90.6818 0.0351562 93.3672V150.377H460.632V117.292Z" fill="#181A33"/>
<g style="mix-blend-mode:screen" opacity="0.5">
<path d="M2.12486 106.571C12.5321 103.723 22.1618 98.1172 32.9489 96.5529C32.9946 96.545 33.0415 96.5494 33.085 96.5656C33.1284 96.5818 33.1668 96.6092 33.1962 96.645C33.2257 96.6809 33.245 96.7238 33.2524 96.7696C33.2598 96.8154 33.2549 96.8623 33.2382 96.9056C32.5116 99.0322 31.5662 101.078 30.4171 103.009C29.6121 104.319 28.9137 105.692 28.3284 107.114C28.0662 107.828 30.0283 107.72 30.3629 107.729C34.6216 107.792 38.7267 106.517 42.678 105.016C49.568 102.457 57.0186 98.6326 64.5867 99.9708C64.6514 99.9798 64.7104 100.013 64.7522 100.063C64.794 100.113 64.8156 100.177 64.8127 100.242C64.5335 103.381 63.736 106.451 62.4528 109.329C61.431 111.743 59.8396 114.447 59.7402 117.123C59.5503 123.019 68.2396 125.08 72.7968 125.071C78.1134 125.071 82.3722 122.431 86.631 119.51C90.3743 116.952 94.5879 113.932 99.1812 113.181C103.919 112.44 107.626 114.89 112.174 115.27C118.504 115.794 120.439 109.619 121.931 104.763C122.672 102.376 124.589 96.987 128.097 97.6651C132.519 98.5151 135.494 103.488 138.523 106.4C143.433 111.092 149.807 113.904 155.702 117.114C158.634 118.687 161.428 120.501 164.057 122.54C165.609 123.931 167.347 125.099 169.22 126.012C173.642 127.82 178.832 126.59 183.461 127.522C194.917 129.818 204.203 138.056 215.623 140.551C222.233 141.989 228.481 141.293 233.87 136.934C238.02 133.598 241.927 129.701 247.153 128.136C253.564 126.183 259.757 128.435 266.231 128.082C273.194 127.712 279.704 123.245 284.957 119.04C290.057 114.944 294.786 110.387 299.913 106.3C303.412 103.524 307.68 100.405 312.399 100.522C317.119 100.64 321.17 103.235 324.923 105.812C330.809 109.799 336.786 113.706 342.256 118.281C344.327 120.017 347.527 121.943 348.585 124.61C348.983 125.605 348.857 127.594 349.996 128.055C355.231 130.171 360.069 127.151 362.836 122.793C365.141 119.176 366.597 115.053 368.975 111.472C370.783 108.76 373.261 107.06 376.001 105.306C379.324 102.987 382.832 100.946 386.489 99.2022C389.265 98.0087 392.728 99.0033 395.287 100.332C403.163 104.438 408.47 112.087 416.21 116.427C420.008 118.543 424.664 119.755 428.706 117.494C430.549 116.543 432.12 115.14 433.272 113.416C433.6 112.771 434.113 112.239 434.746 111.888C436.047 111.475 437.437 111.432 438.761 111.762C441.681 112.223 444.593 112.856 447.459 113.57C451.139 114.537 454.828 115.695 458.563 116.563C450.886 113.787 443.779 109.899 437.323 106.409C430.711 102.967 424.326 99.1042 418.208 94.844C412.304 90.6033 406.526 86.3175 399.374 83.0895C398.878 82.8637 398.337 82.7529 397.792 82.7654C397.248 82.7779 396.713 82.9135 396.227 83.1618C393.207 84.8527 391.282 83.1618 388.786 82.4746C389.428 81.254 387.077 79.7168 385.486 80.7386C379.78 84.3554 373.189 87.2759 366.913 90.4044C363.242 92.2128 358.522 94.4371 355.285 97.1497C354.318 96.6705 353.351 96.1641 352.356 95.6307C346.352 92.4123 339.891 90.1343 333.196 88.8763C326.514 87.4839 318.241 85.2596 311.287 87.0679C303.556 89.0572 297.426 93.0266 291.666 97.0141C285.635 101.201 280.075 106.011 272.913 109.293C268.908 111.101 265.3 113.398 261.376 115.333C256.448 117.756 251.375 117.521 245.643 117.72C238.961 117.964 234.015 122.241 229.937 125.505C226.936 127.989 223.615 130.057 220.063 131.654C217.685 130.704 215.434 129.592 213.254 128.48C207.207 125.364 201.568 121.513 196.464 117.015C195.954 116.668 195.368 116.45 194.755 116.379C194.142 116.308 193.522 116.387 192.946 116.608C189.709 118.181 179.456 112.44 176.481 111.391C175.241 110.997 173.961 110.743 172.665 110.631C172.909 109.203 169.5 108.534 168.66 109.971C168.075 110.917 167.204 111.651 166.173 112.069C165.893 112.205 165.558 112.268 165.269 112.413C165.156 112.477 165.047 112.55 164.943 112.63C162.122 110.559 159.518 108.289 157.014 106.192C150.485 100.766 144.572 94.9254 137.646 89.7534C131.488 85.142 111.343 64.6529 100.393 72.6912C99.7515 72.4668 99.0819 72.3329 98.4036 72.2934C98.1367 72.0479 97.809 71.8782 97.4545 71.8019C97.1 71.7256 96.7315 71.7455 96.3872 71.8594C87.6889 74.572 78.7735 77.8723 71.0698 82.0497C66.9828 80.7114 62.7783 79.4184 58.5557 78.3244C52.3167 76.733 45.3454 76.4165 40.725 80.0243C33.4914 78.6589 23.6085 83.2161 17.8759 85.4494C11.7184 87.8184 5.91344 90.6485 0 93.334V107.15L2.12486 106.571Z" fill="#181A33"/>
</g>
</g>
</g>
<path d="M103.702 108.968C99.7137 110.915 94.7854 111.815 95.3353 110.323C96.7793 106.796 96.214 103.431 91.9178 103.295C86.3984 103.117 81.1926 109.575 76.5931 109.732C73.4634 109.821 77.955 105.142 73.6844 105.283C67.2503 105.498 61.5973 111.287 58 113.244H92.1542L109 113.291C109 113.291 107.767 106.979 103.702 108.968Z" fill="#CCD6FF" fill-opacity="0.3"/>
<g filter="url(#filter2_bi_4152_39733)">
<path d="M180.845 109.78C171.696 114.064 160.39 116.044 161.651 112.762C164.964 105.002 163.667 97.5983 153.811 97.299C141.149 96.9075 129.206 111.116 118.655 111.461C111.475 111.657 121.779 101.363 111.982 101.674C97.2213 102.146 84.2527 114.881 76 119.187H154.354L193 119.291C193 119.291 190.17 105.405 180.845 109.78Z" fill="#CCD6FF" fill-opacity="0.5"/>
</g>
<path d="M273.358 38.3383C273.356 38.8801 273.231 39.4144 272.991 39.9003L260.141 65.4591L258.129 69.4704L192.327 200.483L190.043 205.086L188.623 207.902C188.422 208.307 188.143 208.668 187.801 208.964C187.46 209.26 187.063 209.485 186.633 209.626C186.204 209.767 185.75 209.821 185.3 209.785C184.849 209.749 184.41 209.624 184.009 209.417C183.193 208.999 182.575 208.276 182.292 207.404C182.008 206.533 182.08 205.584 182.494 204.767L183.05 203.666L185.097 199.584L254.425 61.6371L258.957 52.5968L260.2 50.1356L263.75 43.1661L266.956 36.7646C267.16 36.3604 267.441 36.0003 267.783 35.7048C268.126 35.4093 268.524 35.1843 268.953 35.0425C269.383 34.9007 269.836 34.8451 270.288 34.8786C270.739 34.9122 271.179 35.0344 271.583 35.2381C272.131 35.5461 272.586 35.9971 272.899 36.543C273.211 37.0889 273.37 37.7094 273.358 38.3383V38.3383Z" fill="url(#paint1_linear_4152_39733)"/>
<path d="M329.778 209.358C329.375 209.566 328.936 209.691 328.484 209.727C328.033 209.763 327.579 209.709 327.148 209.568C326.718 209.427 326.32 209.202 325.977 208.906C325.634 208.61 325.354 208.249 325.152 207.844L323.968 205.572L322.051 201.75L255.61 69.4946L254.427 66.915L253.918 65.9092L247.304 52.7393L240.796 39.9008C240.556 39.4149 240.43 38.8806 240.429 38.3388C240.427 37.699 240.602 37.0711 240.934 36.5242C241.265 35.9772 241.742 35.5324 242.31 35.2386C242.713 35.0335 243.152 34.9103 243.603 34.876C244.054 34.8418 244.507 34.8973 244.936 35.0392C245.365 35.1812 245.762 35.4068 246.103 35.703C246.445 35.9992 246.724 36.3602 246.925 36.7651L249.209 41.3088L254.427 51.5679L255.61 53.9344L260.225 63.1049L328.962 199.951L331.092 204.187L331.376 204.755C331.765 205.579 331.816 206.522 331.517 207.383C331.219 208.244 330.594 208.953 329.778 209.358V209.358Z" fill="url(#paint2_linear_4152_39733)"/>
<path d="M258.131 69.4925L253.86 65.9072L247.245 52.7373L258.131 69.4925Z" fill="#0D0E1D"/>
<g style="mix-blend-mode:multiply">
<path d="M331.008 204.138L324.015 205.569L322.098 201.747L328.878 199.901L331.008 204.138Z" fill="#784438"/>
</g>
<path d="M256.131 59.8131L254.368 55.0918L249.209 41.3066L254.368 51.5657V42.3243L255.528 53.8849L256.131 59.8131Z" fill="#0D0E1D"/>
<path d="M263.645 43.165L260.142 52.4893L258.249 57.53L258.9 52.5958L260.142 43.2715V50.1346L263.645 43.165Z" fill="#0D0E1D"/>
<path d="M260.141 29.571V69.4949H254.426V29.571C254.424 29.1903 254.498 28.8131 254.642 28.4607C254.786 28.1084 254.998 27.788 255.267 27.5177C255.535 27.2474 255.853 27.0325 256.204 26.8854C256.556 26.7383 256.932 26.6617 257.313 26.6602C257.692 26.6586 258.068 26.7331 258.417 26.8795C258.767 27.0259 259.083 27.241 259.348 27.5121C259.872 28.0678 260.157 28.8073 260.141 29.571Z" fill="#181A33"/>
<path d="M278.209 191.608C270.788 190.292 263.263 189.646 255.727 189.679C249.83 189.681 243.94 190.076 238.096 190.862C239.646 186.555 241.113 182.248 242.509 177.905C245.878 167.398 248.8 156.776 251.277 146.04C252.319 141.543 253.285 137.027 254.176 132.491C255.36 126.512 256.413 120.501 257.336 114.458C258.614 120.587 259.955 126.65 261.359 132.645C262.44 137.236 263.56 141.78 264.719 146.276C267.457 156.902 270.419 167.299 273.606 177.468C275.073 182.217 276.607 186.93 278.209 191.608Z" fill="#181A33"/>
<path d="M331.635 202.224C324.583 203.644 317.574 204.878 310.608 205.927C307.09 206.448 303.595 206.929 300.124 207.371C296.575 207.809 293.025 208.199 289.475 208.554C288.024 208.689 286.57 208.341 285.338 207.564C284.105 206.787 283.164 205.625 282.659 204.259C281.145 200.188 279.677 196.075 278.257 191.917L278.151 191.61C276.573 186.932 275.019 182.199 273.489 177.41C272.053 172.859 270.669 168.256 269.335 163.601C268.744 161.578 268.152 159.531 267.608 157.484C266.574 153.761 265.573 150.006 264.602 146.219C263.443 141.723 262.323 137.179 261.242 132.588L259.999 127.204C259.491 124.944 258.982 122.672 258.497 120.388C258.331 119.654 258.177 118.921 258.023 118.187C257.751 116.921 257.491 115.667 257.219 114.401C257.224 114.464 257.224 114.527 257.219 114.59C257.219 114.59 257.219 114.685 257.219 114.72C257.219 114.756 257.219 114.933 257.219 115.063C257.136 115.537 257.065 116.022 256.994 116.507L256.781 117.797C255.992 122.696 255.116 127.575 254.154 132.434C253.27 136.962 252.304 141.478 251.255 145.982C250.797 147.994 250.316 150.006 249.811 152.017C248.782 156.182 247.681 160.3 246.51 164.477C245.256 168.966 243.915 173.423 242.487 177.848C241.059 182.274 239.588 186.593 238.073 190.805C237.884 191.338 237.695 191.87 237.493 192.414C235.916 196.635 234.287 200.847 232.606 205.052C232.083 206.357 231.154 207.46 229.957 208.199C228.76 208.938 227.358 209.274 225.956 209.158C221.073 208.748 216.222 208.219 211.402 207.572C201.723 206.294 192.178 204.547 182.767 202.33C182.262 202.21 181.791 201.976 181.391 201.646C180.99 201.315 180.671 200.897 180.457 200.424C180.244 199.951 180.141 199.435 180.158 198.917C180.175 198.398 180.31 197.89 180.554 197.431L188.163 182.889L195.262 169.494L211.236 139.096L217.744 126.742L229.956 103.515L233.423 96.9355L237.079 89.966L239.955 84.4875L240.83 82.8427L242.901 78.8905L256.106 53.6275C256.22 53.412 256.39 53.2315 256.599 53.1056C256.807 52.9796 257.046 52.9131 257.29 52.9131C257.533 52.9131 257.772 52.9796 257.981 53.1056C258.189 53.2315 258.36 53.412 258.473 53.6275L258.556 53.805L272.223 79.8372L274.341 83.8603L275.027 85.1501L277.938 90.7115L281.949 98.3318L285.499 105.017L296.586 126.103L297.852 128.47L299.971 132.493L304.408 140.954L310.395 152.325L318.797 168.311L325.813 181.67L334.013 197.266C334.269 197.738 334.409 198.263 334.422 198.8C334.435 199.336 334.321 199.868 334.089 200.351C333.857 200.835 333.514 201.257 333.087 201.582C332.661 201.908 332.163 202.128 331.635 202.224V202.224Z" fill="#939FD4" fill-opacity="0.6"/>
<g filter="url(#filter3_bi_4152_39733)">
<path d="M236.324 165.113L249.778 152.026C248.749 156.191 247.648 160.309 246.477 164.486L235.2 174.875L233.544 157.007L217.605 171.006V154.795L200.944 165.113L221.853 144.477L219.96 163.35L235.733 147.719L236.324 165.113Z" fill="#CCD6FF" fill-opacity="0.8"/>
</g>
<g filter="url(#filter4_bi_4152_39733)">
<path d="M315.258 166.036L302.834 154.392L301.379 169.526L290.552 154.144L287.002 173.301L272.175 157.007L269.395 163.669C268.803 161.646 268.211 159.599 267.667 157.551L271.844 149.268L285.333 166.071L289.096 147.352L299.663 162.829C299.663 162.829 298.823 145.293 299.663 145.577C300.503 145.861 315.034 165.681 315.258 166.036Z" fill="#CCD6FF" fill-opacity="0.8"/>
</g>
<g filter="url(#filter5_bii_4152_39733)">
<path d="M237.457 192.414C235.88 196.65 234.251 200.867 232.57 205.063C232.046 206.369 231.118 207.472 229.921 208.211C228.724 208.95 227.322 209.286 225.92 209.169C211.376 207.957 196.94 205.675 182.731 202.342C182.226 202.222 181.755 201.987 181.355 201.657C180.954 201.327 180.635 200.909 180.421 200.436C180.208 199.963 180.105 199.447 180.122 198.928C180.139 198.409 180.274 197.901 180.518 197.443L188.162 182.9C204.186 187.904 220.722 191.095 237.457 192.414V192.414Z" fill="url(#paint3_linear_4152_39733)" fill-opacity="0.4"/>
</g>
<g filter="url(#filter6_bii_4152_39733)">
<path d="M331.634 202.221C317.435 205.069 303.401 207.179 289.533 208.552C288.082 208.686 286.628 208.338 285.396 207.561C284.163 206.785 283.222 205.623 282.717 204.256C281.203 200.186 279.735 196.072 278.315 191.915C294.454 190.235 310.364 186.811 325.765 181.703L333.965 197.299C334.213 197.766 334.349 198.285 334.361 198.814C334.373 199.342 334.261 199.867 334.035 200.345C333.809 200.823 333.474 201.242 333.057 201.568C332.64 201.893 332.153 202.117 331.634 202.221V202.221Z" fill="url(#paint4_linear_4152_39733)" fill-opacity="0.4"/>
</g>
<g filter="url(#filter7_bii_4152_39733)">
<path d="M254.117 132.445C253.233 136.973 252.267 141.489 251.218 145.993C237.656 145.222 224.226 142.908 211.188 139.095L217.743 126.741C229.616 129.997 241.817 131.91 254.117 132.445Z" fill="#D3DCFF" fill-opacity="0.4"/>
</g>
<g filter="url(#filter8_bii_4152_39733)">
<path d="M304.361 140.987C291.367 144.219 278.05 145.977 264.662 146.228C263.503 141.732 262.382 137.188 261.302 132.597C273.584 132.593 285.828 131.22 297.806 128.503L304.361 140.987Z" fill="#D3DCFF" fill-opacity="0.4"/>
</g>
<g filter="url(#filter9_bii_4152_39733)">
<path d="M242.452 177.871C240.874 182.746 239.21 187.597 237.458 192.425C220.728 191.121 204.197 187.946 188.175 182.959L195.263 169.493C210.62 174.081 226.453 176.892 242.452 177.871V177.871Z" fill="#D3DCFF" fill-opacity="0.4"/>
</g>
<g filter="url(#filter10_bii_4152_39733)">
<path d="M325.765 181.704C310.363 186.812 294.454 190.236 278.315 191.916C276.674 187.135 275.097 182.303 273.582 177.42C288.938 176.074 304.098 173.031 318.783 168.345L325.765 181.704Z" fill="#D3DCFF" fill-opacity="0.4"/>
</g>
<g filter="url(#filter11_bii_4152_39733)">
<path d="M285.451 105.015C267.058 108.721 248.063 108.207 229.896 103.513L233.363 96.9336C249.278 100.795 265.827 101.271 281.937 98.3299L285.451 105.015Z" fill="#D3DCFF" fill-opacity="0.4"/>
</g>
<g filter="url(#filter12_bi_4152_39733)">
<path d="M240.429 92.7435L255.03 64.4513L258.249 80.8161L259.42 63.4219L276.235 94.8143L262.639 78.3075L258.332 97.7606L254.119 74.4974L240.429 92.7435Z" fill="#CCD6FF" fill-opacity="0.8"/>
</g>
<g filter="url(#filter13_bi_4152_39733)">
<path d="M293.973 125.334L286.093 118.127L284.105 129.877L269.408 116.518L266.545 130.717L258.084 118.151C257.812 116.885 257.552 115.631 257.28 114.365C257.285 114.428 257.285 114.491 257.28 114.554C257.28 114.554 257.28 114.649 257.28 114.684C257.28 114.719 257.28 114.897 257.28 115.027C257.197 115.5 257.126 115.986 257.055 116.471V116.412L246.701 127.818L243.364 117.062L231.65 127.558L232.277 115.997L222.479 123.985L235.614 107.549C235.614 107.549 232.715 122.529 233.247 122.695C233.78 122.86 244.725 109.951 244.725 109.951L246.417 122.967L256.227 109.241L264.912 123.843L267.503 108.105L282.117 126.079L282.401 109.099L293.973 125.334Z" fill="#CCD6FF" fill-opacity="0.8"/>
</g>
<path d="M342.581 211.997C343.22 211.891 343.906 212.731 344.108 213.891C344.309 215.05 343.954 216.068 343.315 216.174C341.504 216.257 326.903 220.754 325.187 221.286L324.536 215.89C330.662 215.174 336.705 213.871 342.581 211.997V211.997Z" fill="#181A33"/>
<path d="M325.979 219.003C326.18 220.186 325.825 221.18 325.186 221.287C324.547 221.393 323.944 220.541 323.66 219.405C323.092 217.039 323.896 216.009 324.535 215.856C325.174 215.702 325.778 217.843 325.979 219.003Z" fill="#181A33"/>
<path d="M339.539 211.997C338.9 211.891 338.214 212.731 338.012 213.891C337.811 215.05 338.166 216.068 338.805 216.174C340.616 216.257 355.217 220.754 356.933 221.286L357.667 217.109C355.856 217.026 341.255 212.542 339.539 211.997Z" fill="#181A33"/>
<path d="M356.189 219C355.988 220.183 356.343 221.177 356.982 221.284C357.621 221.39 358.307 220.55 358.508 219.402C358.71 218.254 358.355 217.225 357.716 217.107C357.077 216.988 356.343 217.84 356.189 219Z" fill="#181A33"/>
<path d="M338.532 212.303C339.905 211.783 343.987 212.576 344.638 214.291C345.289 216.007 343.621 217.037 342.272 217.557C338.343 218.67 338.722 220.184 335.598 221.32L333.338 215.049C335.846 213.806 337.373 213.368 338.532 212.303Z" fill="#181A33"/>
<path d="M336.913 216.539C337.54 218.267 336.913 220.822 335.575 221.272C334.807 221.365 334.03 221.195 333.371 220.788C332.712 220.382 332.21 219.765 331.948 219.037C331.685 218.308 331.678 217.513 331.926 216.78C332.175 216.046 332.664 215.419 333.315 215.001C333.649 214.839 334.014 214.751 334.385 214.742C334.755 214.733 335.124 214.804 335.465 214.95C335.806 215.096 336.111 215.313 336.361 215.587C336.611 215.861 336.799 216.186 336.913 216.539Z" fill="#181A33"/>
<path d="M334.557 219.181C334.213 219.181 333.906 218.814 333.859 218.317C333.828 218.089 333.869 217.858 333.977 217.654C334.014 217.562 334.076 217.482 334.155 217.421C334.234 217.361 334.328 217.323 334.426 217.311C334.522 217.306 334.618 217.326 334.705 217.367C334.792 217.408 334.867 217.47 334.923 217.548C335.065 217.728 335.152 217.946 335.172 218.175C335.172 218.696 334.983 219.145 334.616 219.181H334.557ZM334.474 217.536C334.414 217.547 334.359 217.571 334.311 217.609C334.264 217.646 334.226 217.694 334.202 217.749C334.125 217.919 334.096 218.108 334.119 218.293C334.119 218.672 334.391 218.98 334.628 218.956C334.864 218.932 335.018 218.589 334.983 218.199C334.969 218.015 334.903 217.838 334.793 217.69C334.757 217.64 334.708 217.6 334.653 217.573C334.597 217.546 334.536 217.534 334.474 217.536V217.536Z" fill="#181A33"/>
<path d="M334.712 219.876C334.12 219.876 333.588 219.213 333.528 218.361C333.469 217.509 333.86 216.669 334.475 216.61C335.09 216.551 335.658 217.225 335.765 218.125C335.82 218.53 335.75 218.943 335.564 219.308C335.498 219.459 335.395 219.592 335.265 219.693C335.135 219.795 334.981 219.862 334.818 219.888L334.712 219.876ZM334.534 216.823C334.049 216.823 333.706 217.545 333.789 218.326C333.872 219.107 334.345 219.687 334.83 219.639C334.956 219.616 335.073 219.561 335.172 219.48C335.272 219.4 335.349 219.296 335.398 219.178C335.557 218.855 335.618 218.493 335.575 218.136V218.136C335.445 217.403 335.007 216.823 334.534 216.823Z" fill="#181A33"/>
<path d="M334.463 220.648C334.216 220.644 333.971 220.59 333.746 220.488C333.52 220.386 333.317 220.239 333.15 220.057C332.714 219.613 332.446 219.032 332.392 218.412C332.327 217.796 332.469 217.176 332.795 216.649C332.941 216.413 333.138 216.214 333.371 216.064C333.605 215.915 333.869 215.819 334.144 215.785C334.418 215.761 334.695 215.801 334.951 215.902C335.208 216.002 335.438 216.161 335.623 216.365C336.059 216.808 336.327 217.39 336.38 218.01C336.445 218.626 336.304 219.246 335.978 219.773C335.834 220.01 335.637 220.211 335.403 220.361C335.17 220.511 334.905 220.605 334.629 220.637L334.463 220.648ZM334.309 215.998H334.167C333.926 216.028 333.695 216.112 333.49 216.243C333.285 216.374 333.113 216.549 332.984 216.755C332.689 217.242 332.561 217.811 332.618 218.377C332.676 218.943 332.917 219.474 333.304 219.891C333.468 220.069 333.67 220.207 333.896 220.295C334.121 220.384 334.364 220.419 334.605 220.4C334.846 220.37 335.078 220.286 335.282 220.155C335.487 220.024 335.66 219.849 335.788 219.643C336.091 219.16 336.221 218.588 336.155 218.021V218.021C336.106 217.453 335.864 216.919 335.469 216.507C335.164 216.191 334.748 216.009 334.309 215.998V215.998Z" fill="#181A33"/>
<path d="M341.138 213.935C340.425 213.762 339.672 213.874 339.04 214.247C338.408 214.621 337.946 215.226 337.754 215.935C337.151 217.521 338.535 218.668 339.801 219.154C343.434 220.171 343.635 221.52 345.173 221.284V215.13C344.357 214.74 342.215 214.87 341.138 213.935Z" fill="#181A33"/>
<path d="M345.172 221.284C346.525 221.284 347.621 219.906 347.621 218.207C347.621 216.508 346.525 215.131 345.172 215.131C343.819 215.131 342.723 216.508 342.723 218.207C342.723 219.906 343.819 221.284 345.172 221.284Z" fill="#181A33"/>
<path d="M345.198 219.144C344.819 219.144 344.559 218.706 344.583 218.174C344.589 217.95 344.659 217.732 344.784 217.547C344.837 217.463 344.911 217.395 344.997 217.347C345.084 217.3 345.182 217.275 345.281 217.274C345.647 217.274 345.92 217.712 345.896 218.245C345.872 218.777 345.541 219.144 345.198 219.144ZM345.198 217.499C345.14 217.503 345.083 217.521 345.034 217.552C344.984 217.583 344.943 217.626 344.914 217.677C344.801 217.822 344.743 218.002 344.748 218.186V218.186C344.748 218.576 344.914 218.907 345.139 218.919C345.375 218.919 345.577 218.612 345.6 218.233C345.624 217.854 345.435 217.511 345.198 217.499Z" fill="#181A33"/>
<path d="M344.996 219.887C344.829 219.869 344.669 219.809 344.531 219.714C344.393 219.619 344.28 219.492 344.203 219.343C344.005 218.981 343.914 218.571 343.943 218.159C343.943 217.26 344.546 216.55 345.126 216.574C345.528 216.635 345.894 216.841 346.153 217.154C346.413 217.467 346.548 217.865 346.534 218.271C346.519 218.678 346.356 219.065 346.074 219.358C345.793 219.652 345.413 219.832 345.008 219.863L344.996 219.887ZM345.079 216.822C344.593 216.822 344.167 217.426 344.132 218.195C344.112 218.554 344.194 218.911 344.369 219.224C344.422 219.342 344.504 219.443 344.608 219.52C344.711 219.597 344.832 219.646 344.96 219.662C345.295 219.61 345.602 219.446 345.832 219.196C346.062 218.947 346.201 218.628 346.226 218.29C346.235 217.944 346.121 217.607 345.904 217.338C345.688 217.07 345.382 216.887 345.043 216.822H345.079Z" fill="#181A33"/>
<path d="M345.42 220.467H345.337C344.756 220.377 344.234 220.062 343.882 219.591C343.53 219.12 343.377 218.53 343.456 217.947V217.947C343.474 217.323 343.708 216.725 344.118 216.255C344.294 216.041 344.517 215.871 344.769 215.758C345.022 215.645 345.297 215.593 345.574 215.604C345.84 215.62 346.1 215.7 346.328 215.838C346.557 215.976 346.749 216.168 346.887 216.397C347.21 216.913 347.359 217.518 347.313 218.125C347.299 218.737 347.092 219.329 346.721 219.817C346.568 220.016 346.371 220.179 346.145 220.291C345.92 220.404 345.672 220.464 345.42 220.467V220.467ZM345.491 215.817C345.264 215.824 345.041 215.879 344.837 215.979C344.633 216.079 344.452 216.222 344.307 216.397C343.928 216.82 343.714 217.367 343.704 217.935C343.656 218.2 343.662 218.472 343.72 218.735C343.779 218.998 343.889 219.247 344.044 219.467C344.199 219.687 344.396 219.874 344.624 220.018C344.853 220.161 345.107 220.257 345.372 220.302C345.602 220.306 345.828 220.256 346.034 220.155C346.24 220.054 346.419 219.906 346.556 219.722C346.889 219.268 347.075 218.723 347.088 218.16C347.127 217.6 346.991 217.041 346.698 216.563C346.575 216.357 346.402 216.186 346.195 216.066C345.988 215.946 345.754 215.881 345.514 215.876L345.491 215.817Z" fill="#181A33"/>
<path d="M357.219 220.185H357.136C356.84 220.102 356.722 219.664 356.84 219.191C356.959 218.717 357.302 218.386 357.586 218.469C357.87 218.552 358 218.978 357.87 219.463C357.763 219.877 357.479 220.185 357.219 220.185ZM357.503 218.634C357.349 218.634 357.136 218.859 357.03 219.226C356.923 219.593 357.03 219.936 357.183 219.983C357.337 220.031 357.586 219.794 357.68 219.404C357.787 219.001 357.68 218.682 357.538 218.646L357.503 218.634Z" fill="#181A33"/>
<path d="M357.183 220.872H357.041C356.905 220.824 356.785 220.741 356.694 220.63C356.602 220.52 356.542 220.386 356.52 220.245C356.455 219.876 356.47 219.498 356.566 219.136C356.663 218.774 356.837 218.438 357.076 218.15C357.157 218.029 357.274 217.935 357.411 217.884C357.548 217.832 357.697 217.825 357.839 217.863C357.98 217.901 358.105 217.982 358.198 218.095C358.29 218.208 358.345 218.347 358.354 218.493C358.443 218.859 358.443 219.24 358.354 219.606C358.266 219.968 358.087 220.302 357.834 220.576C357.754 220.671 357.654 220.746 357.542 220.798C357.429 220.849 357.306 220.874 357.183 220.872V220.872ZM357.692 218.02C357.507 218.038 357.338 218.127 357.218 218.269C356.995 218.523 356.837 218.827 356.757 219.156C356.676 219.49 356.676 219.839 356.757 220.174C356.771 220.281 356.813 220.383 356.88 220.468C356.946 220.553 357.035 220.619 357.135 220.659C357.243 220.673 357.351 220.658 357.451 220.617C357.551 220.575 357.638 220.508 357.703 220.422C357.929 220.165 358.087 219.856 358.165 219.523V219.523C358.253 219.193 358.253 218.847 358.165 218.517C358.156 218.41 358.117 218.307 358.052 218.221C357.987 218.135 357.899 218.07 357.798 218.032L357.692 218.02Z" fill="#181A33"/>
<path d="M324.712 219.911C324.405 219.911 324.109 219.509 324.002 218.917C323.948 218.664 323.948 218.402 324.002 218.148C324.015 218.049 324.056 217.956 324.122 217.88C324.187 217.804 324.273 217.749 324.369 217.722C324.469 217.718 324.567 217.743 324.653 217.793C324.739 217.843 324.809 217.917 324.854 218.006C325 218.219 325.097 218.461 325.138 218.716V218.716C325.193 218.97 325.193 219.232 325.138 219.485C325.126 219.584 325.084 219.678 325.019 219.753C324.954 219.829 324.868 219.884 324.772 219.911H324.712ZM324.452 217.947C324.381 217.947 324.31 218.065 324.263 218.219C324.221 218.438 324.221 218.663 324.263 218.882C324.357 219.379 324.606 219.722 324.772 219.686C324.937 219.651 324.914 219.58 324.961 219.426C325.003 219.203 325.003 218.974 324.961 218.752V218.752C324.923 218.533 324.842 218.324 324.724 218.136C324.696 218.086 324.657 218.043 324.61 218.01C324.563 217.977 324.509 217.956 324.452 217.947V217.947Z" fill="#181A33"/>
<path d="M324.913 220.752C324.404 220.752 323.883 220.007 323.73 218.989C323.633 218.537 323.633 218.069 323.73 217.616C323.848 217.19 324.061 216.942 324.333 216.895C324.605 216.847 324.901 217.013 325.15 217.356C325.403 217.747 325.573 218.186 325.647 218.646C325.836 219.723 325.552 220.646 325.008 220.74L324.913 220.752ZM324.428 217.108C324.25 217.108 324.096 217.332 324.014 217.664C323.923 218.085 323.923 218.521 324.014 218.942C324.203 219.959 324.7 220.563 325.067 220.504C325.434 220.444 325.694 219.687 325.516 218.67C325.449 218.247 325.292 217.843 325.055 217.486C324.783 217.25 324.593 217.108 324.428 217.108Z" fill="#181A33"/>
<g filter="url(#filter14_i_4152_39733)">
<path d="M321.27 166.204C321.27 166.204 318.359 169.34 318.49 171.979C318.62 174.617 323.317 175.599 321.27 179.315C321.27 179.315 324.702 175.978 323.128 172.759C322.099 170.653 319.649 169.967 321.27 166.204Z" fill="#CCD6FF" fill-opacity="0.15"/>
</g>
<g filter="url(#filter15_i_4152_39733)">
<path d="M361.502 176.972C361.502 176.972 356.331 173.99 357.952 169.979C359.136 167.234 362.685 166.204 362.685 166.204C361.327 167.616 360.474 169.439 360.26 171.387C360.046 173.334 360.483 175.298 361.502 176.972Z" fill="#CCD6FF" fill-opacity="0.15"/>
</g>
<g filter="url(#filter16_i_4152_39733)">
<path d="M345.848 164.05C345.848 164.05 348.782 161.246 346.297 159.223C346.297 159.223 352.107 161.708 345.848 164.05Z" fill="#CCD6FF" fill-opacity="0.15"/>
</g>
<path d="M339.526 214.66C329.805 214.66 319.838 210.959 318.583 201.496C317.329 192.034 325.183 190.759 324.392 185.716C324.392 185.716 327.446 189.526 326.219 192.494C326.219 192.494 341.885 187.831 341.64 172.878C341.64 172.878 347.857 180.7 346.93 187.411C346.93 187.411 352.629 184.266 353.488 180.009C353.488 180.009 356.365 190.854 353.488 199.219C353.488 199.219 361.669 199.219 364.859 195.233C364.928 195.179 365.459 214.66 339.526 214.66Z" fill="#FF7F44"/>
<path d="M340.977 216.207C334.769 216.207 320.925 212.183 325.573 200.57C325.573 200.57 326.772 205.081 330.828 206.141C330.828 206.141 326.411 200.098 334.769 195.845C334.769 195.845 332.676 203.835 339.663 203.649C342.334 203.649 341.698 201.873 340.861 200.57C339.764 198.88 338.133 197.119 341.424 192.995C341.346 194.478 341.78 195.942 342.654 197.148C343.528 198.353 344.789 199.227 346.231 199.625C349.653 200.885 351.832 205.783 348.382 208.503C348.382 208.503 354.157 209.806 357.044 205.553C356.972 205.553 359.599 216.207 340.977 216.207Z" fill="#FF002D"/>
<g filter="url(#filter17_bii_4152_39733)">
<path d="M337.872 215.51C322.631 215.51 315.709 207.877 315.709 197.701C315.709 187.785 327.246 184.496 327.246 171.882C327.246 171.882 334.192 181.656 331.044 189.099C331.044 189.099 339.233 180.295 333.08 169.527C326.926 158.759 341.445 155.245 341.445 155.245C341.445 155.245 332.594 160.132 338.866 166.403C345.137 172.675 348.072 174.817 347.575 181.467C347.575 181.467 352.107 175.006 348.817 168.155C348.817 168.155 359.762 177.94 354.734 196.34C354.734 196.34 363.821 193.264 361.182 183.099C366.838 187.395 375.595 215.51 337.872 215.51Z" fill="#FF002D" fill-opacity="0.2"/>
</g>
<g filter="url(#filter18_i_4152_39733)">
<path d="M340.062 214.657C331.625 214.657 322.975 211.427 321.887 203.167C320.798 194.908 327.614 193.796 326.927 189.394C326.927 189.394 329.578 192.719 328.513 195.311C328.513 195.311 342.109 191.24 341.896 178.188C341.896 178.188 347.292 185.016 346.487 190.873C346.487 190.873 351.433 188.128 352.179 184.413C352.179 184.413 354.675 193.879 352.179 201.18C352.179 201.18 359.278 201.18 362.047 197.701C362.106 197.653 362.568 214.657 340.062 214.657Z" fill="#CCD6FF" fill-opacity="0.15"/>
</g>
<g filter="url(#filter19_i_4152_39733)">
<path d="M340.63 213.947C335.542 213.947 324.194 210.622 328.004 201.025C328.004 201.025 328.986 204.753 332.311 205.628C332.311 205.628 328.69 200.635 335.542 197.12C335.542 197.12 333.826 203.723 339.553 203.569C341.742 203.569 341.221 202.102 340.535 201.025C339.636 199.629 338.299 198.173 340.997 194.766C340.933 195.991 341.288 197.201 342.004 198.197C342.721 199.193 343.755 199.915 344.937 200.244C347.741 201.285 349.528 205.332 346.7 207.581C346.7 207.581 351.433 208.657 353.8 205.143C353.74 205.143 355.894 213.947 340.63 213.947Z" fill="#CCD6FF" fill-opacity="0.15"/>
</g>
<g filter="url(#filter20_bii_4152_39733)">
<path d="M379.699 221.356C379.308 222.181 378.729 222.903 378.007 223.462C376.966 224.669 375.574 225.52 374.025 225.898C372.477 226.275 370.849 226.16 369.369 225.569L368.86 225.403C367.788 225.073 366.737 224.678 365.713 224.22C364.336 223.704 363.179 222.731 362.435 221.463C362.036 220.452 361.874 219.363 361.962 218.28C361.962 217.179 361.962 216.09 361.962 214.99C361.92 214.239 362.024 213.488 362.269 212.777C362.285 212.739 362.304 212.704 362.329 212.671C363.11 210.943 365.334 210.387 367.263 210.458C371.996 210.647 377.191 213.57 379.344 217.877C379.634 218.404 379.815 218.983 379.876 219.581C379.937 220.178 379.877 220.782 379.699 221.356V221.356Z" fill="url(#paint5_linear_4152_39733)" fill-opacity="0.6"/>
</g>
<path d="M369.653 221.415C369.709 222.789 369.437 224.155 368.86 225.403C367.788 225.073 366.737 224.678 365.713 224.22C364.336 223.704 363.179 222.731 362.435 221.463C362.036 220.452 361.874 219.363 361.962 218.28C361.962 217.179 361.962 216.091 361.962 214.99C361.92 214.24 362.024 213.488 362.269 212.777C362.285 212.74 362.304 212.704 362.329 212.671C365.63 213.618 368.801 215.594 369.523 218.93C369.657 219.752 369.7 220.585 369.653 221.415V221.415Z" fill="#181A33"/>
<g filter="url(#filter21_bii_4152_39733)">
<path d="M312.264 224.207C312.143 224.357 312.013 224.499 311.874 224.633C308.265 228.183 304.774 230.159 300.503 224.633C298.136 221.604 299.39 216.669 303.283 213.628C307.176 210.587 311.211 209.179 313.578 212.22C314.096 212.883 314.475 213.644 314.69 214.457C315.11 216.157 315.108 217.933 314.686 219.632C314.263 221.332 313.432 222.902 312.264 224.207V224.207Z" fill="url(#paint6_linear_4152_39733)" fill-opacity="0.6"/>
</g>
<g filter="url(#filter22_bii_4152_39733)">
<path d="M337.02 218.788C336.717 220.94 335.865 222.977 334.546 224.704C334.494 224.777 334.434 224.844 334.369 224.905C333.706 225.717 332.867 226.366 331.916 226.805C330.965 227.244 329.926 227.46 328.879 227.438C328.339 227.396 327.813 227.252 327.328 227.012C326.873 226.803 326.496 226.455 326.252 226.018C326.06 225.604 325.944 225.159 325.909 224.704C325.698 222.344 326.401 219.994 327.873 218.137C328.075 217.872 328.296 217.623 328.535 217.392C329.825 216.09 333.742 213.842 335.824 214.859C336.126 215.014 336.389 215.235 336.594 215.505C336.799 215.776 336.94 216.089 337.008 216.421C337.19 217.199 337.194 218.008 337.02 218.788V218.788Z" fill="url(#paint7_linear_4152_39733)" fill-opacity="0.6"/>
</g>
<g filter="url(#filter23_bii_4152_39733)">
<path d="M367.573 221.414C367.502 223.177 367.371 225.142 366.058 226.325C364.841 227.197 363.365 227.635 361.869 227.567C359.873 227.828 357.846 227.712 355.894 227.224C354.908 226.883 353.969 226.418 353.101 225.84L352.604 225.532C351.638 224.943 350.827 224.132 350.238 223.166C349.682 221.956 349.45 220.623 349.563 219.296C349.567 217.848 349.848 216.414 350.391 215.072C350.828 213.927 351.67 212.984 352.758 212.421C353.773 212.005 354.872 211.839 355.965 211.936C360.236 212.114 366.425 214.102 367.442 218.918C367.589 219.741 367.632 220.58 367.573 221.414V221.414Z" fill="url(#paint8_linear_4152_39733)" fill-opacity="0.6"/>
</g>
<path d="M337.042 216.469C337.22 217.248 337.22 218.057 337.042 218.836C336.739 220.988 335.887 223.025 334.569 224.752C334.516 224.825 334.456 224.892 334.391 224.953C334.284 224.813 334.186 224.667 334.095 224.515C333.686 223.645 333.519 222.68 333.61 221.723C333.56 219.263 334.349 216.859 335.847 214.907C336.151 215.061 336.416 215.281 336.623 215.551C336.83 215.822 336.973 216.136 337.042 216.469V216.469Z" fill="#181A33"/>
<path d="M354.166 220.266C353.956 222.102 353.427 223.888 352.604 225.543C351.638 224.954 350.827 224.143 350.238 223.177C349.682 221.967 349.45 220.634 349.563 219.307C349.567 217.859 349.848 216.425 350.391 215.083C352.498 216.243 354.509 218.1 354.166 220.266Z" fill="#181A33"/>
<g filter="url(#filter24_bii_4152_39733)">
<path d="M337.527 215.228C336.696 216.068 336.046 217.069 335.618 218.17C335.191 219.272 334.995 220.449 335.042 221.63C334.971 222.441 335.114 223.257 335.457 223.996C335.721 224.453 336.07 224.855 336.486 225.18C338.901 227.225 341.927 228.411 345.088 228.552C345.884 228.603 346.683 228.527 347.455 228.327C349.066 227.797 350.41 226.665 351.206 225.168C351.984 223.695 352.481 222.09 352.673 220.435C353.076 217.701 349.372 215.702 347.1 214.85C344.13 213.69 340.213 212.945 337.527 215.228Z" fill="url(#paint9_linear_4152_39733)" fill-opacity="0.6"/>
</g>
<path d="M314.691 214.481C315.107 216.178 315.103 217.95 314.68 219.645C314.258 221.339 313.429 222.906 312.265 224.208C311.867 223.936 311.552 223.559 311.354 223.119C311.177 222.615 311.104 222.079 311.141 221.546C311.141 219.641 311.141 217.582 312.407 216.114C313.062 215.435 313.836 214.882 314.691 214.481V214.481Z" fill="#181A33"/>
<path d="M327.328 227.058C326.873 226.849 326.496 226.501 326.252 226.064C326.06 225.65 325.944 225.205 325.909 224.751C325.698 222.391 326.401 220.04 327.873 218.184C327.931 218.315 327.983 218.449 328.027 218.586C328.358 219.37 328.619 220.182 328.808 221.012C329.028 222.066 329.009 223.156 328.753 224.203C328.497 225.249 328.011 226.225 327.328 227.058Z" fill="#181A33"/>
<g filter="url(#filter25_bii_4152_39733)">
<path d="M319.791 212.385C318.608 213.047 317.661 213.947 316.525 214.621C315.405 215.116 314.374 215.791 313.472 216.621C312.574 218.004 312.185 219.656 312.372 221.295C312.344 221.753 312.408 222.211 312.561 222.644C312.871 223.224 313.344 223.701 313.922 224.016C315.537 225.097 317.216 226.077 318.951 226.951C319.675 227.356 320.452 227.658 321.258 227.85C322.18 228.01 323.127 227.93 324.008 227.617C324.889 227.304 325.674 226.769 326.287 226.063C326.885 225.347 327.313 224.504 327.539 223.598C327.764 222.692 327.781 221.747 327.589 220.833C327.425 220.121 327.199 219.424 326.915 218.751C326.264 217.059 325.613 215.378 324.95 213.698C323.992 211.213 322.028 211.095 319.791 212.385Z" fill="url(#paint10_linear_4152_39733)" fill-opacity="0.6"/>
</g>
<g filter="url(#filter26_i_4152_39733)">
<path d="M324.685 26.2972C336.258 25.9777 347.167 38.13 356.847 38.3312C363.426 38.4968 353.983 29.7524 362.952 30.0482C368.097 30.042 373.088 31.8004 377.093 35.0298C380.311 37.7395 386.346 39.3251 392.688 39.4198C410.437 39.7156 415.798 44.922 415.798 44.922H320.91C314.45 36.8284 313.101 26.6285 324.685 26.2972Z" fill="#CCD6FF" fill-opacity="0.5"/>
</g>
</g>
<defs>
<filter id="filter0_f_4152_39733" x="174.001" y="0.291016" width="178.921" height="178.921" filterUnits="userSpaceOnUse" color-interpolation-filters="sRGB">
<feFlood flood-opacity="0" result="BackgroundImageFix"/>
<feBlend mode="normal" in="SourceGraphic" in2="BackgroundImageFix" result="shape"/>
<feGaussianBlur stdDeviation="25" result="effect1_foregroundBlur_4152_39733"/>
</filter>
<filter id="filter1_f_4152_39733" x="226.001" y="52.291" width="76.4238" height="76.4238" filterUnits="userSpaceOnUse" color-interpolation-filters="sRGB">
<feFlood flood-opacity="0" result="BackgroundImageFix"/>
<feBlend mode="normal" in="SourceGraphic" in2="BackgroundImageFix" result="shape"/>
<feGaussianBlur stdDeviation="7.5" result="effect1_foregroundBlur_4152_39733"/>
</filter>
<filter id="filter2_bi_4152_39733" x="73" y="94.291" width="123" height="28" filterUnits="userSpaceOnUse" color-interpolation-filters="sRGB">
<feFlood flood-opacity="0" result="BackgroundImageFix"/>
<feGaussianBlur in="BackgroundImage" stdDeviation="1.5"/>
<feComposite in2="SourceAlpha" operator="in" result="effect1_backgroundBlur_4152_39733"/>
<feBlend mode="normal" in="SourceGraphic" in2="effect1_backgroundBlur_4152_39733" result="shape"/>
<feColorMatrix in="SourceAlpha" type="matrix" values="0 0 0 0 0 0 0 0 0 0 0 0 0 0 0 0 0 0 127 0" result="hardAlpha"/>
<feOffset dy="0.5"/>
<feGaussianBlur stdDeviation="0.25"/>
<feComposite in2="hardAlpha" operator="arithmetic" k2="-1" k3="1"/>
<feColorMatrix type="matrix" values="0 0 0 0 1 0 0 0 0 1 0 0 0 0 1 0 0 0 0.3 0"/>
<feBlend mode="normal" in2="shape" result="effect2_innerShadow_4152_39733"/>
</filter>
<filter id="filter3_bi_4152_39733" x="130.944" y="74.4766" width="188.834" height="170.398" filterUnits="userSpaceOnUse" color-interpolation-filters="sRGB">
<feFlood flood-opacity="0" result="BackgroundImageFix"/>
<feGaussianBlur in="BackgroundImage" stdDeviation="35"/>
<feComposite in2="SourceAlpha" operator="in" result="effect1_backgroundBlur_4152_39733"/>
<feBlend mode="normal" in="SourceGraphic" in2="effect1_backgroundBlur_4152_39733" result="shape"/>
<feColorMatrix in="SourceAlpha" type="matrix" values="0 0 0 0 0 0 0 0 0 0 0 0 0 0 0 0 0 0 127 0" result="hardAlpha"/>
<feOffset dy="0.5"/>
<feGaussianBlur stdDeviation="0.25"/>
<feComposite in2="hardAlpha" operator="arithmetic" k2="-1" k3="1"/>
<feColorMatrix type="matrix" values="0 0 0 0 1 0 0 0 0 1 0 0 0 0 1 0 0 0 0.3 0"/>
<feBlend mode="normal" in2="shape" result="effect2_innerShadow_4152_39733"/>
</filter>
<filter id="filter4_bi_4152_39733" x="197.667" y="75.5732" width="187.592" height="167.728" filterUnits="userSpaceOnUse" color-interpolation-filters="sRGB">
<feFlood flood-opacity="0" result="BackgroundImageFix"/>
<feGaussianBlur in="BackgroundImage" stdDeviation="35"/>
<feComposite in2="SourceAlpha" operator="in" result="effect1_backgroundBlur_4152_39733"/>
<feBlend mode="normal" in="SourceGraphic" in2="effect1_backgroundBlur_4152_39733" result="shape"/>
<feColorMatrix in="SourceAlpha" type="matrix" values="0 0 0 0 0 0 0 0 0 0 0 0 0 0 0 0 0 0 127 0" result="hardAlpha"/>
<feOffset dy="0.5"/>
<feGaussianBlur stdDeviation="0.25"/>
<feComposite in2="hardAlpha" operator="arithmetic" k2="-1" k3="1"/>
<feColorMatrix type="matrix" values="0 0 0 0 1 0 0 0 0 1 0 0 0 0 1 0 0 0 0.3 0"/>
<feBlend mode="normal" in2="shape" result="effect2_innerShadow_4152_39733"/>
</filter>
<filter id="filter5_bii_4152_39733" x="172.12" y="174.9" width="73.3369" height="42.291" filterUnits="userSpaceOnUse" color-interpolation-filters="sRGB">
<feFlood flood-opacity="0" result="BackgroundImageFix"/>
<feGaussianBlur in="BackgroundImage" stdDeviation="4"/>
<feComposite in2="SourceAlpha" operator="in" result="effect1_backgroundBlur_4152_39733"/>
<feBlend mode="normal" in="SourceGraphic" in2="effect1_backgroundBlur_4152_39733" result="shape"/>
<feColorMatrix in="SourceAlpha" type="matrix" values="0 0 0 0 0 0 0 0 0 0 0 0 0 0 0 0 0 0 127 0" result="hardAlpha"/>
<feOffset dy="1"/>
<feGaussianBlur stdDeviation="0.5"/>
<feComposite in2="hardAlpha" operator="arithmetic" k2="-1" k3="1"/>
<feColorMatrix type="matrix" values="0 0 0 0 1 0 0 0 0 1 0 0 0 0 1 0 0 0 0.15 0"/>
<feBlend mode="normal" in2="shape" result="effect2_innerShadow_4152_39733"/>
<feColorMatrix in="SourceAlpha" type="matrix" values="0 0 0 0 0 0 0 0 0 0 0 0 0 0 0 0 0 0 127 0" result="hardAlpha"/>
<feOffset/>
<feGaussianBlur stdDeviation="4"/>
<feComposite in2="hardAlpha" operator="arithmetic" k2="-1" k3="1"/>
<feColorMatrix type="matrix" values="0 0 0 0 1 0 0 0 0 1 0 0 0 0 1 0 0 0 0.05 0"/>
<feBlend mode="normal" in2="effect2_innerShadow_4152_39733" result="effect3_innerShadow_4152_39733"/>
</filter>
<filter id="filter6_bii_4152_39733" x="270.315" y="173.703" width="72.0459" height="42.877" filterUnits="userSpaceOnUse" color-interpolation-filters="sRGB">
<feFlood flood-opacity="0" result="BackgroundImageFix"/>
<feGaussianBlur in="BackgroundImage" stdDeviation="4"/>
<feComposite in2="SourceAlpha" operator="in" result="effect1_backgroundBlur_4152_39733"/>
<feBlend mode="normal" in="SourceGraphic" in2="effect1_backgroundBlur_4152_39733" result="shape"/>
<feColorMatrix in="SourceAlpha" type="matrix" values="0 0 0 0 0 0 0 0 0 0 0 0 0 0 0 0 0 0 127 0" result="hardAlpha"/>
<feOffset dy="1"/>
<feGaussianBlur stdDeviation="0.5"/>
<feComposite in2="hardAlpha" operator="arithmetic" k2="-1" k3="1"/>
<feColorMatrix type="matrix" values="0 0 0 0 1 0 0 0 0 1 0 0 0 0 1 0 0 0 0.15 0"/>
<feBlend mode="normal" in2="shape" result="effect2_innerShadow_4152_39733"/>
<feColorMatrix in="SourceAlpha" type="matrix" values="0 0 0 0 0 0 0 0 0 0 0 0 0 0 0 0 0 0 127 0" result="hardAlpha"/>
<feOffset/>
<feGaussianBlur stdDeviation="4"/>
<feComposite in2="hardAlpha" operator="arithmetic" k2="-1" k3="1"/>
<feColorMatrix type="matrix" values="0 0 0 0 1 0 0 0 0 1 0 0 0 0 1 0 0 0 0.05 0"/>
<feBlend mode="normal" in2="effect2_innerShadow_4152_39733" result="effect3_innerShadow_4152_39733"/>
</filter>
<filter id="filter7_bii_4152_39733" x="203.188" y="118.741" width="58.9297" height="35.252" filterUnits="userSpaceOnUse" color-interpolation-filters="sRGB">
<feFlood flood-opacity="0" result="BackgroundImageFix"/>
<feGaussianBlur in="BackgroundImage" stdDeviation="4"/>
<feComposite in2="SourceAlpha" operator="in" result="effect1_backgroundBlur_4152_39733"/>
<feBlend mode="normal" in="SourceGraphic" in2="effect1_backgroundBlur_4152_39733" result="shape"/>
<feColorMatrix in="SourceAlpha" type="matrix" values="0 0 0 0 0 0 0 0 0 0 0 0 0 0 0 0 0 0 127 0" result="hardAlpha"/>
<feOffset dy="1"/>
<feGaussianBlur stdDeviation="0.5"/>
<feComposite in2="hardAlpha" operator="arithmetic" k2="-1" k3="1"/>
<feColorMatrix type="matrix" values="0 0 0 0 1 0 0 0 0 1 0 0 0 0 1 0 0 0 0.15 0"/>
<feBlend mode="normal" in2="shape" result="effect2_innerShadow_4152_39733"/>
<feColorMatrix in="SourceAlpha" type="matrix" values="0 0 0 0 0 0 0 0 0 0 0 0 0 0 0 0 0 0 127 0" result="hardAlpha"/>
<feOffset/>
<feGaussianBlur stdDeviation="4"/>
<feComposite in2="hardAlpha" operator="arithmetic" k2="-1" k3="1"/>
<feColorMatrix type="matrix" values="0 0 0 0 1 0 0 0 0 1 0 0 0 0 1 0 0 0 0.05 0"/>
<feBlend mode="normal" in2="effect2_innerShadow_4152_39733" result="effect3_innerShadow_4152_39733"/>
</filter>
<filter id="filter8_bii_4152_39733" x="253.302" y="120.503" width="59.0596" height="33.7256" filterUnits="userSpaceOnUse" color-interpolation-filters="sRGB">
<feFlood flood-opacity="0" result="BackgroundImageFix"/>
<feGaussianBlur in="BackgroundImage" stdDeviation="4"/>
<feComposite in2="SourceAlpha" operator="in" result="effect1_backgroundBlur_4152_39733"/>
<feBlend mode="normal" in="SourceGraphic" in2="effect1_backgroundBlur_4152_39733" result="shape"/>
<feColorMatrix in="SourceAlpha" type="matrix" values="0 0 0 0 0 0 0 0 0 0 0 0 0 0 0 0 0 0 127 0" result="hardAlpha"/>
<feOffset dy="1"/>
<feGaussianBlur stdDeviation="0.5"/>
<feComposite in2="hardAlpha" operator="arithmetic" k2="-1" k3="1"/>
<feColorMatrix type="matrix" values="0 0 0 0 1 0 0 0 0 1 0 0 0 0 1 0 0 0 0.15 0"/>
<feBlend mode="normal" in2="shape" result="effect2_innerShadow_4152_39733"/>
<feColorMatrix in="SourceAlpha" type="matrix" values="0 0 0 0 0 0 0 0 0 0 0 0 0 0 0 0 0 0 127 0" result="hardAlpha"/>
<feOffset/>
<feGaussianBlur stdDeviation="4"/>
<feComposite in2="hardAlpha" operator="arithmetic" k2="-1" k3="1"/>
<feColorMatrix type="matrix" values="0 0 0 0 1 0 0 0 0 1 0 0 0 0 1 0 0 0 0.05 0"/>
<feBlend mode="normal" in2="effect2_innerShadow_4152_39733" result="effect3_innerShadow_4152_39733"/>
</filter>
<filter id="filter9_bii_4152_39733" x="180.175" y="161.493" width="70.2773" height="38.9316" filterUnits="userSpaceOnUse" color-interpolation-filters="sRGB">
<feFlood flood-opacity="0" result="BackgroundImageFix"/>
<feGaussianBlur in="BackgroundImage" stdDeviation="4"/>
<feComposite in2="SourceAlpha" operator="in" result="effect1_backgroundBlur_4152_39733"/>
<feBlend mode="normal" in="SourceGraphic" in2="effect1_backgroundBlur_4152_39733" result="shape"/>
<feColorMatrix in="SourceAlpha" type="matrix" values="0 0 0 0 0 0 0 0 0 0 0 0 0 0 0 0 0 0 127 0" result="hardAlpha"/>
<feOffset dy="1"/>
<feGaussianBlur stdDeviation="0.5"/>
<feComposite in2="hardAlpha" operator="arithmetic" k2="-1" k3="1"/>
<feColorMatrix type="matrix" values="0 0 0 0 1 0 0 0 0 1 0 0 0 0 1 0 0 0 0.15 0"/>
<feBlend mode="normal" in2="shape" result="effect2_innerShadow_4152_39733"/>
<feColorMatrix in="SourceAlpha" type="matrix" values="0 0 0 0 0 0 0 0 0 0 0 0 0 0 0 0 0 0 127 0" result="hardAlpha"/>
<feOffset/>
<feGaussianBlur stdDeviation="4"/>
<feComposite in2="hardAlpha" operator="arithmetic" k2="-1" k3="1"/>
<feColorMatrix type="matrix" values="0 0 0 0 1 0 0 0 0 1 0 0 0 0 1 0 0 0 0.05 0"/>
<feBlend mode="normal" in2="effect2_innerShadow_4152_39733" result="effect3_innerShadow_4152_39733"/>
</filter>
<filter id="filter10_bii_4152_39733" x="265.582" y="160.345" width="68.1826" height="39.5713" filterUnits="userSpaceOnUse" color-interpolation-filters="sRGB">
<feFlood flood-opacity="0" result="BackgroundImageFix"/>
<feGaussianBlur in="BackgroundImage" stdDeviation="4"/>
<feComposite in2="SourceAlpha" operator="in" result="effect1_backgroundBlur_4152_39733"/>
<feBlend mode="normal" in="SourceGraphic" in2="effect1_backgroundBlur_4152_39733" result="shape"/>
<feColorMatrix in="SourceAlpha" type="matrix" values="0 0 0 0 0 0 0 0 0 0 0 0 0 0 0 0 0 0 127 0" result="hardAlpha"/>
<feOffset dy="1"/>
<feGaussianBlur stdDeviation="0.5"/>
<feComposite in2="hardAlpha" operator="arithmetic" k2="-1" k3="1"/>
<feColorMatrix type="matrix" values="0 0 0 0 1 0 0 0 0 1 0 0 0 0 1 0 0 0 0.15 0"/>
<feBlend mode="normal" in2="shape" result="effect2_innerShadow_4152_39733"/>
<feColorMatrix in="SourceAlpha" type="matrix" values="0 0 0 0 0 0 0 0 0 0 0 0 0 0 0 0 0 0 127 0" result="hardAlpha"/>
<feOffset/>
<feGaussianBlur stdDeviation="4"/>
<feComposite in2="hardAlpha" operator="arithmetic" k2="-1" k3="1"/>
<feColorMatrix type="matrix" values="0 0 0 0 1 0 0 0 0 1 0 0 0 0 1 0 0 0 0.05 0"/>
<feBlend mode="normal" in2="effect2_innerShadow_4152_39733" result="effect3_innerShadow_4152_39733"/>
</filter>
<filter id="filter11_bii_4152_39733" x="221.896" y="88.9336" width="71.5547" height="26.5254" filterUnits="userSpaceOnUse" color-interpolation-filters="sRGB">
<feFlood flood-opacity="0" result="BackgroundImageFix"/>
<feGaussianBlur in="BackgroundImage" stdDeviation="4"/>
<feComposite in2="SourceAlpha" operator="in" result="effect1_backgroundBlur_4152_39733"/>
<feBlend mode="normal" in="SourceGraphic" in2="effect1_backgroundBlur_4152_39733" result="shape"/>
<feColorMatrix in="SourceAlpha" type="matrix" values="0 0 0 0 0 0 0 0 0 0 0 0 0 0 0 0 0 0 127 0" result="hardAlpha"/>
<feOffset dy="1"/>
<feGaussianBlur stdDeviation="0.5"/>
<feComposite in2="hardAlpha" operator="arithmetic" k2="-1" k3="1"/>
<feColorMatrix type="matrix" values="0 0 0 0 1 0 0 0 0 1 0 0 0 0 1 0 0 0 0.15 0"/>
<feBlend mode="normal" in2="shape" result="effect2_innerShadow_4152_39733"/>
<feColorMatrix in="SourceAlpha" type="matrix" values="0 0 0 0 0 0 0 0 0 0 0 0 0 0 0 0 0 0 127 0" result="hardAlpha"/>
<feOffset/>
<feGaussianBlur stdDeviation="4"/>
<feComposite in2="hardAlpha" operator="arithmetic" k2="-1" k3="1"/>
<feColorMatrix type="matrix" values="0 0 0 0 1 0 0 0 0 1 0 0 0 0 1 0 0 0 0.05 0"/>
<feBlend mode="normal" in2="effect2_innerShadow_4152_39733" result="effect3_innerShadow_4152_39733"/>
</filter>
<filter id="filter12_bi_4152_39733" x="170.429" y="-6.57812" width="175.806" height="174.339" filterUnits="userSpaceOnUse" color-interpolation-filters="sRGB">
<feFlood flood-opacity="0" result="BackgroundImageFix"/>
<feGaussianBlur in="BackgroundImage" stdDeviation="35"/>
<feComposite in2="SourceAlpha" operator="in" result="effect1_backgroundBlur_4152_39733"/>
<feBlend mode="normal" in="SourceGraphic" in2="effect1_backgroundBlur_4152_39733" result="shape"/>
<feColorMatrix in="SourceAlpha" type="matrix" values="0 0 0 0 0 0 0 0 0 0 0 0 0 0 0 0 0 0 127 0" result="hardAlpha"/>
<feOffset dy="0.5"/>
<feGaussianBlur stdDeviation="0.25"/>
<feComposite in2="hardAlpha" operator="arithmetic" k2="-1" k3="1"/>
<feColorMatrix type="matrix" values="0 0 0 0 1 0 0 0 0 1 0 0 0 0 1 0 0 0 0.3 0"/>
<feBlend mode="normal" in2="shape" result="effect2_innerShadow_4152_39733"/>
</filter>
<filter id="filter13_bi_4152_39733" x="152.479" y="37.5488" width="211.494" height="163.169" filterUnits="userSpaceOnUse" color-interpolation-filters="sRGB">
<feFlood flood-opacity="0" result="BackgroundImageFix"/>
<feGaussianBlur in="BackgroundImage" stdDeviation="35"/>
<feComposite in2="SourceAlpha" operator="in" result="effect1_backgroundBlur_4152_39733"/>
<feBlend mode="normal" in="SourceGraphic" in2="effect1_backgroundBlur_4152_39733" result="shape"/>
<feColorMatrix in="SourceAlpha" type="matrix" values="0 0 0 0 0 0 0 0 0 0 0 0 0 0 0 0 0 0 127 0" result="hardAlpha"/>
<feOffset dy="0.5"/>
<feGaussianBlur stdDeviation="0.25"/>
<feComposite in2="hardAlpha" operator="arithmetic" k2="-1" k3="1"/>
<feColorMatrix type="matrix" values="0 0 0 0 1 0 0 0 0 1 0 0 0 0 1 0 0 0 0.3 0"/>
<feBlend mode="normal" in2="shape" result="effect2_innerShadow_4152_39733"/>
</filter>
<filter id="filter14_i_4152_39733" x="318.485" y="166.204" width="5.05566" height="13.6104" filterUnits="userSpaceOnUse" color-interpolation-filters="sRGB">
<feFlood flood-opacity="0" result="BackgroundImageFix"/>
<feBlend mode="normal" in="SourceGraphic" in2="BackgroundImageFix" result="shape"/>
<feColorMatrix in="SourceAlpha" type="matrix" values="0 0 0 0 0 0 0 0 0 0 0 0 0 0 0 0 0 0 127 0" result="hardAlpha"/>
<feOffset dy="0.5"/>
<feGaussianBlur stdDeviation="0.25"/>
<feComposite in2="hardAlpha" operator="arithmetic" k2="-1" k3="1"/>
<feColorMatrix type="matrix" values="0 0 0 0 1 0 0 0 0 1 0 0 0 0 1 0 0 0 0.3 0"/>
<feBlend mode="normal" in2="shape" result="effect1_innerShadow_4152_39733"/>
</filter>
<filter id="filter15_i_4152_39733" x="357.638" y="166.204" width="5.04785" height="11.2676" filterUnits="userSpaceOnUse" color-interpolation-filters="sRGB">
<feFlood flood-opacity="0" result="BackgroundImageFix"/>
<feBlend mode="normal" in="SourceGraphic" in2="BackgroundImageFix" result="shape"/>
<feColorMatrix in="SourceAlpha" type="matrix" values="0 0 0 0 0 0 0 0 0 0 0 0 0 0 0 0 0 0 127 0" result="hardAlpha"/>
<feOffset dy="0.5"/>
<feGaussianBlur stdDeviation="0.25"/>
<feComposite in2="hardAlpha" operator="arithmetic" k2="-1" k3="1"/>
<feColorMatrix type="matrix" values="0 0 0 0 1 0 0 0 0 1 0 0 0 0 1 0 0 0 0.3 0"/>
<feBlend mode="normal" in2="shape" result="effect1_innerShadow_4152_39733"/>
</filter>
<filter id="filter16_i_4152_39733" x="345.848" y="159.223" width="2.90332" height="5.32812" filterUnits="userSpaceOnUse" color-interpolation-filters="sRGB">
<feFlood flood-opacity="0" result="BackgroundImageFix"/>
<feBlend mode="normal" in="SourceGraphic" in2="BackgroundImageFix" result="shape"/>
<feColorMatrix in="SourceAlpha" type="matrix" values="0 0 0 0 0 0 0 0 0 0 0 0 0 0 0 0 0 0 127 0" result="hardAlpha"/>
<feOffset dy="0.5"/>
<feGaussianBlur stdDeviation="0.25"/>
<feComposite in2="hardAlpha" operator="arithmetic" k2="-1" k3="1"/>
<feColorMatrix type="matrix" values="0 0 0 0 1 0 0 0 0 1 0 0 0 0 1 0 0 0 0.3 0"/>
<feBlend mode="normal" in2="shape" result="effect1_innerShadow_4152_39733"/>
</filter>
<filter id="filter17_bii_4152_39733" x="307.709" y="147.245" width="66.5771" height="76.2646" filterUnits="userSpaceOnUse" color-interpolation-filters="sRGB">
<feFlood flood-opacity="0" result="BackgroundImageFix"/>
<feGaussianBlur in="BackgroundImage" stdDeviation="4"/>
<feComposite in2="SourceAlpha" operator="in" result="effect1_backgroundBlur_4152_39733"/>
<feBlend mode="normal" in="SourceGraphic" in2="effect1_backgroundBlur_4152_39733" result="shape"/>
<feColorMatrix in="SourceAlpha" type="matrix" values="0 0 0 0 0 0 0 0 0 0 0 0 0 0 0 0 0 0 127 0" result="hardAlpha"/>
<feOffset dy="1"/>
<feGaussianBlur stdDeviation="0.5"/>
<feComposite in2="hardAlpha" operator="arithmetic" k2="-1" k3="1"/>
<feColorMatrix type="matrix" values="0 0 0 0 1 0 0 0 0 1 0 0 0 0 1 0 0 0 0.15 0"/>
<feBlend mode="normal" in2="shape" result="effect2_innerShadow_4152_39733"/>
<feColorMatrix in="SourceAlpha" type="matrix" values="0 0 0 0 0 0 0 0 0 0 0 0 0 0 0 0 0 0 127 0" result="hardAlpha"/>
<feOffset/>
<feGaussianBlur stdDeviation="4"/>
<feComposite in2="hardAlpha" operator="arithmetic" k2="-1" k3="1"/>
<feColorMatrix type="matrix" values="0 0 0 0 1 0 0 0 0 1 0 0 0 0 1 0 0 0 0.05 0"/>
<feBlend mode="normal" in2="effect2_innerShadow_4152_39733" result="effect3_innerShadow_4152_39733"/>
</filter>
<filter id="filter18_i_4152_39733" x="321.769" y="178.188" width="40.2891" height="36.9688" filterUnits="userSpaceOnUse" color-interpolation-filters="sRGB">
<feFlood flood-opacity="0" result="BackgroundImageFix"/>
<feBlend mode="normal" in="SourceGraphic" in2="BackgroundImageFix" result="shape"/>
<feColorMatrix in="SourceAlpha" type="matrix" values="0 0 0 0 0 0 0 0 0 0 0 0 0 0 0 0 0 0 127 0" result="hardAlpha"/>
<feOffset dy="0.5"/>
<feGaussianBlur stdDeviation="0.25"/>
<feComposite in2="hardAlpha" operator="arithmetic" k2="-1" k3="1"/>
<feColorMatrix type="matrix" values="0 0 0 0 1 0 0 0 0 1 0 0 0 0 1 0 0 0 0.3 0"/>
<feBlend mode="normal" in2="shape" result="effect1_innerShadow_4152_39733"/>
</filter>
<filter id="filter19_i_4152_39733" x="327.236" y="194.766" width="26.6367" height="19.6807" filterUnits="userSpaceOnUse" color-interpolation-filters="sRGB">
<feFlood flood-opacity="0" result="BackgroundImageFix"/>
<feBlend mode="normal" in="SourceGraphic" in2="BackgroundImageFix" result="shape"/>
<feColorMatrix in="SourceAlpha" type="matrix" values="0 0 0 0 0 0 0 0 0 0 0 0 0 0 0 0 0 0 127 0" result="hardAlpha"/>
<feOffset dy="0.5"/>
<feGaussianBlur stdDeviation="0.25"/>
<feComposite in2="hardAlpha" operator="arithmetic" k2="-1" k3="1"/>
<feColorMatrix type="matrix" values="0 0 0 0 1 0 0 0 0 1 0 0 0 0 1 0 0 0 0.3 0"/>
<feBlend mode="normal" in2="shape" result="effect1_innerShadow_4152_39733"/>
</filter>
<filter id="filter20_bii_4152_39733" x="353.938" y="202.452" width="33.96" height="31.6641" filterUnits="userSpaceOnUse" color-interpolation-filters="sRGB">
<feFlood flood-opacity="0" result="BackgroundImageFix"/>
<feGaussianBlur in="BackgroundImage" stdDeviation="4"/>
<feComposite in2="SourceAlpha" operator="in" result="effect1_backgroundBlur_4152_39733"/>
<feBlend mode="normal" in="SourceGraphic" in2="effect1_backgroundBlur_4152_39733" result="shape"/>
<feColorMatrix in="SourceAlpha" type="matrix" values="0 0 0 0 0 0 0 0 0 0 0 0 0 0 0 0 0 0 127 0" result="hardAlpha"/>
<feOffset dy="1"/>
<feGaussianBlur stdDeviation="0.5"/>
<feComposite in2="hardAlpha" operator="arithmetic" k2="-1" k3="1"/>
<feColorMatrix type="matrix" values="0 0 0 0 1 0 0 0 0 1 0 0 0 0 1 0 0 0 0.15 0"/>
<feBlend mode="normal" in2="shape" result="effect2_innerShadow_4152_39733"/>
<feColorMatrix in="SourceAlpha" type="matrix" values="0 0 0 0 0 0 0 0 0 0 0 0 0 0 0 0 0 0 127 0" result="hardAlpha"/>
<feOffset/>
<feGaussianBlur stdDeviation="4"/>
<feComposite in2="hardAlpha" operator="arithmetic" k2="-1" k3="1"/>
<feColorMatrix type="matrix" values="0 0 0 0 1 0 0 0 0 1 0 0 0 0 1 0 0 0 0.05 0"/>
<feBlend mode="normal" in2="effect2_innerShadow_4152_39733" result="effect3_innerShadow_4152_39733"/>
</filter>
<filter id="filter21_bii_4152_39733" x="291.306" y="202.525" width="31.6982" height="33.5508" filterUnits="userSpaceOnUse" color-interpolation-filters="sRGB">
<feFlood flood-opacity="0" result="BackgroundImageFix"/>
<feGaussianBlur in="BackgroundImage" stdDeviation="4"/>
<feComposite in2="SourceAlpha" operator="in" result="effect1_backgroundBlur_4152_39733"/>
<feBlend mode="normal" in="SourceGraphic" in2="effect1_backgroundBlur_4152_39733" result="shape"/>
<feColorMatrix in="SourceAlpha" type="matrix" values="0 0 0 0 0 0 0 0 0 0 0 0 0 0 0 0 0 0 127 0" result="hardAlpha"/>
<feOffset dy="1"/>
<feGaussianBlur stdDeviation="0.5"/>
<feComposite in2="hardAlpha" operator="arithmetic" k2="-1" k3="1"/>
<feColorMatrix type="matrix" values="0 0 0 0 1 0 0 0 0 1 0 0 0 0 1 0 0 0 0.15 0"/>
<feBlend mode="normal" in2="shape" result="effect2_innerShadow_4152_39733"/>
<feColorMatrix in="SourceAlpha" type="matrix" values="0 0 0 0 0 0 0 0 0 0 0 0 0 0 0 0 0 0 127 0" result="hardAlpha"/>
<feOffset/>
<feGaussianBlur stdDeviation="4"/>
<feComposite in2="hardAlpha" operator="arithmetic" k2="-1" k3="1"/>
<feColorMatrix type="matrix" values="0 0 0 0 1 0 0 0 0 1 0 0 0 0 1 0 0 0 0.05 0"/>
<feBlend mode="normal" in2="effect2_innerShadow_4152_39733" result="effect3_innerShadow_4152_39733"/>
</filter>
<filter id="filter22_bii_4152_39733" x="317.872" y="206.603" width="27.2754" height="28.8369" filterUnits="userSpaceOnUse" color-interpolation-filters="sRGB">
<feFlood flood-opacity="0" result="BackgroundImageFix"/>
<feGaussianBlur in="BackgroundImage" stdDeviation="4"/>
<feComposite in2="SourceAlpha" operator="in" result="effect1_backgroundBlur_4152_39733"/>
<feBlend mode="normal" in="SourceGraphic" in2="effect1_backgroundBlur_4152_39733" result="shape"/>
<feColorMatrix in="SourceAlpha" type="matrix" values="0 0 0 0 0 0 0 0 0 0 0 0 0 0 0 0 0 0 127 0" result="hardAlpha"/>
<feOffset dy="1"/>
<feGaussianBlur stdDeviation="0.5"/>
<feComposite in2="hardAlpha" operator="arithmetic" k2="-1" k3="1"/>
<feColorMatrix type="matrix" values="0 0 0 0 1 0 0 0 0 1 0 0 0 0 1 0 0 0 0.15 0"/>
<feBlend mode="normal" in2="shape" result="effect2_innerShadow_4152_39733"/>
<feColorMatrix in="SourceAlpha" type="matrix" values="0 0 0 0 0 0 0 0 0 0 0 0 0 0 0 0 0 0 127 0" result="hardAlpha"/>
<feOffset/>
<feGaussianBlur stdDeviation="4"/>
<feComposite in2="hardAlpha" operator="arithmetic" k2="-1" k3="1"/>
<feColorMatrix type="matrix" values="0 0 0 0 1 0 0 0 0 1 0 0 0 0 1 0 0 0 0.05 0"/>
<feBlend mode="normal" in2="effect2_innerShadow_4152_39733" result="effect3_innerShadow_4152_39733"/>
</filter>
<filter id="filter23_bii_4152_39733" x="341.535" y="203.909" width="34.0635" height="31.7939" filterUnits="userSpaceOnUse" color-interpolation-filters="sRGB">
<feFlood flood-opacity="0" result="BackgroundImageFix"/>
<feGaussianBlur in="BackgroundImage" stdDeviation="4"/>
<feComposite in2="SourceAlpha" operator="in" result="effect1_backgroundBlur_4152_39733"/>
<feBlend mode="normal" in="SourceGraphic" in2="effect1_backgroundBlur_4152_39733" result="shape"/>
<feColorMatrix in="SourceAlpha" type="matrix" values="0 0 0 0 0 0 0 0 0 0 0 0 0 0 0 0 0 0 127 0" result="hardAlpha"/>
<feOffset dy="1"/>
<feGaussianBlur stdDeviation="0.5"/>
<feComposite in2="hardAlpha" operator="arithmetic" k2="-1" k3="1"/>
<feColorMatrix type="matrix" values="0 0 0 0 1 0 0 0 0 1 0 0 0 0 1 0 0 0 0.15 0"/>
<feBlend mode="normal" in2="shape" result="effect2_innerShadow_4152_39733"/>
<feColorMatrix in="SourceAlpha" type="matrix" values="0 0 0 0 0 0 0 0 0 0 0 0 0 0 0 0 0 0 127 0" result="hardAlpha"/>
<feOffset/>
<feGaussianBlur stdDeviation="4"/>
<feComposite in2="hardAlpha" operator="arithmetic" k2="-1" k3="1"/>
<feColorMatrix type="matrix" values="0 0 0 0 1 0 0 0 0 1 0 0 0 0 1 0 0 0 0.05 0"/>
<feBlend mode="normal" in2="effect2_innerShadow_4152_39733" result="effect3_innerShadow_4152_39733"/>
</filter>
<filter id="filter24_bii_4152_39733" x="327.024" y="205.744" width="33.6787" height="30.8232" filterUnits="userSpaceOnUse" color-interpolation-filters="sRGB">
<feFlood flood-opacity="0" result="BackgroundImageFix"/>
<feGaussianBlur in="BackgroundImage" stdDeviation="4"/>
<feComposite in2="SourceAlpha" operator="in" result="effect1_backgroundBlur_4152_39733"/>
<feBlend mode="normal" in="SourceGraphic" in2="effect1_backgroundBlur_4152_39733" result="shape"/>
<feColorMatrix in="SourceAlpha" type="matrix" values="0 0 0 0 0 0 0 0 0 0 0 0 0 0 0 0 0 0 127 0" result="hardAlpha"/>
<feOffset dy="1"/>
<feGaussianBlur stdDeviation="0.5"/>
<feComposite in2="hardAlpha" operator="arithmetic" k2="-1" k3="1"/>
<feColorMatrix type="matrix" values="0 0 0 0 1 0 0 0 0 1 0 0 0 0 1 0 0 0 0.15 0"/>
<feBlend mode="normal" in2="shape" result="effect2_innerShadow_4152_39733"/>
<feColorMatrix in="SourceAlpha" type="matrix" values="0 0 0 0 0 0 0 0 0 0 0 0 0 0 0 0 0 0 127 0" result="hardAlpha"/>
<feOffset/>
<feGaussianBlur stdDeviation="4"/>
<feComposite in2="hardAlpha" operator="arithmetic" k2="-1" k3="1"/>
<feColorMatrix type="matrix" values="0 0 0 0 1 0 0 0 0 1 0 0 0 0 1 0 0 0 0.05 0"/>
<feBlend mode="normal" in2="effect2_innerShadow_4152_39733" result="effect3_innerShadow_4152_39733"/>
</filter>
<filter id="filter25_bii_4152_39733" x="304.326" y="203.574" width="31.3955" height="32.3564" filterUnits="userSpaceOnUse" color-interpolation-filters="sRGB">
<feFlood flood-opacity="0" result="BackgroundImageFix"/>
<feGaussianBlur in="BackgroundImage" stdDeviation="4"/>
<feComposite in2="SourceAlpha" operator="in" result="effect1_backgroundBlur_4152_39733"/>
<feBlend mode="normal" in="SourceGraphic" in2="effect1_backgroundBlur_4152_39733" result="shape"/>
<feColorMatrix in="SourceAlpha" type="matrix" values="0 0 0 0 0 0 0 0 0 0 0 0 0 0 0 0 0 0 127 0" result="hardAlpha"/>
<feOffset dy="1"/>
<feGaussianBlur stdDeviation="0.5"/>
<feComposite in2="hardAlpha" operator="arithmetic" k2="-1" k3="1"/>
<feColorMatrix type="matrix" values="0 0 0 0 1 0 0 0 0 1 0 0 0 0 1 0 0 0 0.15 0"/>
<feBlend mode="normal" in2="shape" result="effect2_innerShadow_4152_39733"/>
<feColorMatrix in="SourceAlpha" type="matrix" values="0 0 0 0 0 0 0 0 0 0 0 0 0 0 0 0 0 0 127 0" result="hardAlpha"/>
<feOffset/>
<feGaussianBlur stdDeviation="4"/>
<feComposite in2="hardAlpha" operator="arithmetic" k2="-1" k3="1"/>
<feColorMatrix type="matrix" values="0 0 0 0 1 0 0 0 0 1 0 0 0 0 1 0 0 0 0.05 0"/>
<feBlend mode="normal" in2="effect2_innerShadow_4152_39733" result="effect3_innerShadow_4152_39733"/>
</filter>
<filter id="filter26_i_4152_39733" x="316" y="26.291" width="99.7979" height="19.1309" filterUnits="userSpaceOnUse" color-interpolation-filters="sRGB">
<feFlood flood-opacity="0" result="BackgroundImageFix"/>
<feBlend mode="normal" in="SourceGraphic" in2="BackgroundImageFix" result="shape"/>
<feColorMatrix in="SourceAlpha" type="matrix" values="0 0 0 0 0 0 0 0 0 0 0 0 0 0 0 0 0 0 127 0" result="hardAlpha"/>
<feOffset dy="0.5"/>
<feGaussianBlur stdDeviation="0.25"/>
<feComposite in2="hardAlpha" operator="arithmetic" k2="-1" k3="1"/>
<feColorMatrix type="matrix" values="0 0 0 0 1 0 0 0 0 1 0 0 0 0 1 0 0 0 0.3 0"/>
<feBlend mode="normal" in2="shape" result="effect1_innerShadow_4152_39733"/>
</filter>
<linearGradient id="paint0_linear_4152_39733" x1="23.5" y1="59.791" x2="457.5" y2="60.791" gradientUnits="userSpaceOnUse">
<stop stop-color="#0D0E1D" stop-opacity="0"/>
<stop offset="0.489583" stop-color="#0D0E1D"/>
<stop offset="0.988128" stop-color="#0D0E1D" stop-opacity="0"/>
</linearGradient>
<linearGradient id="paint1_linear_4152_39733" x1="227.74" y1="34.8691" x2="227.74" y2="209.796" gradientUnits="userSpaceOnUse">
<stop stop-color="#181A33"/>
<stop offset="0.276042" stop-color="#181A33" stop-opacity="0"/>
<stop offset="0.760417" stop-color="#181A33" stop-opacity="0"/>
<stop offset="1" stop-color="#181A33"/>
</linearGradient>
<linearGradient id="paint2_linear_4152_39733" x1="286.069" y1="34.8662" x2="286.069" y2="209.738" gradientUnits="userSpaceOnUse">
<stop stop-color="#181A33"/>
<stop offset="0.276042" stop-color="#181A33" stop-opacity="0"/>
<stop offset="0.760417" stop-color="#181A33" stop-opacity="0"/>
<stop offset="1" stop-color="#181A33"/>
</linearGradient>
<linearGradient id="paint3_linear_4152_39733" x1="180.12" y1="196.038" x2="237.463" y2="196.038" gradientUnits="userSpaceOnUse">
<stop stop-color="#6C7EB7"/>
<stop offset="1" stop-color="#465D99"/>
</linearGradient>
<linearGradient id="paint4_linear_4152_39733" x1="278.315" y1="195.133" x2="334.367" y2="195.133" gradientUnits="userSpaceOnUse">
<stop stop-color="#6C7EB7"/>
<stop offset="1" stop-color="#465D99"/>
</linearGradient>
<linearGradient id="paint5_linear_4152_39733" x1="361.938" y1="218.279" x2="379.901" y2="218.279" gradientUnits="userSpaceOnUse">
<stop stop-color="#6C7EB7"/>
<stop offset="1" stop-color="#465D99"/>
</linearGradient>
<linearGradient id="paint6_linear_4152_39733" x1="299.306" y1="219.295" x2="315.005" y2="219.295" gradientUnits="userSpaceOnUse">
<stop stop-color="#6C7EB7"/>
<stop offset="1" stop-color="#465D99"/>
</linearGradient>
<linearGradient id="paint7_linear_4152_39733" x1="325.872" y1="221.017" x2="337.149" y2="221.017" gradientUnits="userSpaceOnUse">
<stop stop-color="#6C7EB7"/>
<stop offset="1" stop-color="#465D99"/>
</linearGradient>
<linearGradient id="paint8_linear_4152_39733" x1="349.535" y1="219.801" x2="367.6" y2="219.801" gradientUnits="userSpaceOnUse">
<stop stop-color="#6C7EB7"/>
<stop offset="1" stop-color="#465D99"/>
</linearGradient>
<linearGradient id="paint9_linear_4152_39733" x1="335.024" y1="221.151" x2="352.705" y2="221.151" gradientUnits="userSpaceOnUse">
<stop stop-color="#6C7EB7"/>
<stop offset="1" stop-color="#465D99"/>
</linearGradient>
<linearGradient id="paint10_linear_4152_39733" x1="312.326" y1="219.747" x2="327.723" y2="219.747" gradientUnits="userSpaceOnUse">
<stop stop-color="#6C7EB7"/>
<stop offset="1" stop-color="#465D99"/>
</linearGradient>
<clipPath id="clip0_4152_39733">
<rect width="536" height="228" fill="white"/>
</clipPath>
<clipPath id="clip1_4152_39733">
<rect width="460.634" height="150.377" fill="white"/>
</clipPath>
</defs>
</svg>
